<?xml version="1.0" encoding="UTF-8"?>
<svg id="Layer_2" data-name="Layer 2" xmlns="http://www.w3.org/2000/svg" viewBox="0 0 73.31 55.5">
  <defs>
    <style>
      .cls-1 {
        fill: #302a2a;
      }
    </style>
  </defs>
  <g id="Layer_1-2" data-name="Layer 1">
    <g>
      <path class="cls-1" d="m73.3,12.82l-1.48-6.08c-.07-.28-.35-.45-.62-.38-.03,0-.05.02-.08.03L38.69,0,.43,20.63s0,0,0,0c-.26.04-.44.27-.43.52l.76,22.16c0,.22.15.41.36.47l36.31,11.69s.02,0,.03,0c0,0,.02,0,.03,0,.03,0,.06,0,.1,0,.03,0,.06,0,.09,0,0,0,.02,0,.02,0,.02,0,.04,0,.06-.02.01,0,.02,0,.03-.01.02,0,.03-.01.05-.02,0,0,.02-.01.03-.02.02,0,.03-.02.04-.03,0,0,0,0,.01,0l33.07-27.91c.11-.09.18-.23.18-.38l.38-12.52,1.57-1.22c.16-.12.23-.33.18-.53ZM38.85,1.08l30.32,5.97-31.42,23.14L2.89,20.48,38.85,1.08Zm-18.34,25.37c-1.93,3.28-3.09,3.6-3.62,3.49-1.25-.26-2.08-3.21-2.34-5.15l5.95,1.66ZM1.01,21.02l12.51,3.49c-.02.06-.02.13-.02.2.07.59.73,5.74,3.17,6.24.13.03.27.04.4.04,1.33,0,2.77-1.36,4.38-4.14.02-.04.04-.08.05-.12l15.96,4.45c-.01.05-.02.11-.02.17l.46,7.6L3.43,29.14l-2.41-8.12Zm.15,4.12l1.36,4.57c.05.17.18.3.35.35l33.7,9.58.47,14.64L1.77,42.92l-.61-17.79Zm68.98,1.69l-32.09,27.08-.45-13.98.72.2s0,0,0,0c.03,0,.06.01.09.02,0,0,0,0,.01,0,0,0,.02,0,.03,0,.01,0,.03,0,.04,0,.01,0,.02,0,.03,0,.02,0,.05,0,.07-.02,0,0,.01,0,.02,0,.03,0,.06-.02.08-.04,0,0,.01,0,.02-.01.02,0,.03-.02.05-.03l31.7-24.66-.34,11.45Zm-31.22,11.81l-.45-7.35c0-.1-.04-.2-.1-.27L70.84,7.1l1.38,5.64-33.29,25.9Z"/>
      <g>
        <path class="cls-1" d="m31.57,26.58l-11.52-5.45,2.34-2.04c4.16,1.04,8.67,2.22,9.25,2.39l.05-.04c-1.71-.66-4.55-1.79-6.16-2.54l-1.89-.89,1.93-1.68,11.52,5.45-2.33,2.03c-3.62-.92-8.91-2.28-9.34-2.41l-.06.05c1.43.58,4.32,1.71,6.13,2.56l1.97.92-1.9,1.66Z"/>
        <path class="cls-1" d="m28.91,13.4l11.52,5.45-2.05,1.78-11.52-5.45,2.05-1.78Z"/>
        <path class="cls-1" d="m30.21,12.27l2-1.74,4.83,2.32.05-.04c-.75-.85-2.45-2.62-3.37-3.59l2.28-1.99,2.78,3.66,8.81,1.73-2.07,1.8-5.91-1.36.76,1.19,3.36,1.74-2,1.74-11.52-5.45Z"/>
        <path class="cls-1" d="m47.27,6l-2.24,1.95,3.25,1.51,2.7-2.36,1.67,1.1-4.53,3.95-11.52-5.45,4.41-3.84,1.89.9-2.36,2.06,2.59,1.23,2.24-1.95,1.9.9Z"/>
      </g>
    </g>
  </g>
</svg>