<?xml version="1.0" encoding="UTF-8"?>
<svg id="Layer_2" data-name="Layer 2" xmlns="http://www.w3.org/2000/svg" viewBox="0 0 356.21 62.8">
  <defs>
    <style>
      .cls-1 {
        fill: #fff;
        stroke: #000;
        stroke-miterlimit: 10;
        stroke-width: .5px;
      }

      .cls-2 {
        fill: #017373;
      }
    </style>
  </defs>
  <g id="Layer_1-2" data-name="Layer 1">
    <g>
      <g>
        <path d="m146.34,50.89V12.5c0-2.28,1.54-3.7,4.25-3.7,2.22,0,3.64.99,4.13,2.59.99-.99,3.39-2.59,6.72-2.59,4.07,0,6.16,1.97,6.16,7.7v34.38c0,2.28-1.6,3.7-4.25,3.7s-4.25-1.42-4.25-3.7V18.54c0-1.85-.8-2.77-2.03-2.77-.92,0-1.72.49-2.22,1.23v33.89c0,2.28-1.6,3.7-4.25,3.7s-4.25-1.42-4.25-3.7Z"/>
        <path d="m171.29,10.84c0-2.53,1.54-3.82,4.37-3.82s4.44,1.29,4.44,3.82-1.6,3.82-4.44,3.82-4.37-1.29-4.37-3.82Zm.12,40.05v-30.5c0-2.28,1.54-3.7,4.25-3.7s4.31,1.42,4.31,3.7v30.5c0,2.28-1.6,3.7-4.31,3.7s-4.25-1.42-4.25-3.7Z"/>
        <path d="m183.62,50.95V12.44c0-2.22,1.54-3.63,4.19-3.63s4.19,1.42,4.19,3.63v17.38h.99c1.91,0,3.02-1.29,3.02-3.51v-6.04c0-2.16,1.48-3.57,4.13-3.57s4.07,1.42,4.07,3.57v4.31c0,3.51-.99,6.72-4.81,8.01,4,1.17,5.24,4.31,5.24,8.07v10.29c0,2.22-1.54,3.63-4.19,3.63s-4.19-1.42-4.19-3.63v-10.6c0-2.22-1.17-3.51-3.2-3.51h-1.05v14.11c0,2.22-1.54,3.63-4.19,3.63s-4.19-1.42-4.19-3.63Z"/>
        <path d="m207.46,45.28v-19.35c0-6.1,3.33-9.24,9.61-9.24h1.85c6.35,0,9.67,3.14,9.67,9.24v2.71c0,3.39-1.85,5.24-5.24,5.24h-7.52v11.71c0,1.42.68,2.22,1.91,2.22h.43c1.36,0,2.03-.8,2.03-2.22v-4.87c0-2.22,1.54-3.57,4.19-3.57s4.19,1.36,4.19,3.57v4.56c0,6.22-3.33,9.3-9.67,9.3h-1.85c-6.29,0-9.61-3.08-9.61-9.3Zm8.38-16.33h4.38v-3.14c0-1.42-.68-2.34-2.03-2.34h-.43c-1.23,0-1.91.92-1.91,2.34v3.14Z"/>
        <path d="m239.07,45.28V12.44c0-2.22,1.54-3.63,4.19-3.63s4.19,1.42,4.19,3.63v6.72c1.05-.99,3.45-2.46,6.65-2.46,3.76,0,5.98,2.09,5.98,7.39v21.2c0,6.22-3.33,9.3-9.61,9.3h-1.79c-6.28,0-9.61-3.08-9.61-9.3Zm10.66,2.53c1.29,0,1.97-.8,1.97-2.22v-19.35c0-1.79-.74-2.77-2.03-2.77-.8,0-1.66.49-2.22,1.23v20.89c0,1.42.68,2.22,1.91,2.22h.37Z"/>
        <path d="m262.98,45.28v-19.35c0-6.1,3.33-9.24,9.61-9.24h1.79c6.35,0,9.61,3.14,9.61,9.24v19.35c0,6.22-3.27,9.3-9.61,9.3h-1.79c-6.29,0-9.61-3.08-9.61-9.3Zm10.66,2.53c1.29,0,1.97-.8,1.97-2.22v-19.78c0-1.42-.68-2.34-1.97-2.34h-.37c-1.23,0-1.91.92-1.91,2.34v19.78c0,1.42.68,2.22,1.91,2.22h.37Z"/>
        <path d="m286.89,51.01v-8.07c0-3.76,1.36-6.16,4.5-8.38-3.08-2.22-4.19-4.5-4.19-8.07v-6.22c0-2.22,1.54-3.57,4.13-3.57s4.13,1.36,4.13,3.57v6.78c0,1.36.43,2.28,1.66,3.08l.62.43.37-.31c1.17-.86,1.6-1.85,1.6-3.27v-6.72c0-2.22,1.48-3.57,4.07-3.57s4.13,1.36,4.13,3.57v5.98c0,3.51-1.11,5.92-4.19,8.13,3.2,2.22,4.5,4.62,4.5,8.38v8.26c0,2.22-1.54,3.57-4.13,3.57s-4.19-1.36-4.19-3.57v-8.38c0-1.85-.49-2.9-1.85-3.82l-.62-.37-.37.25c-1.36.99-1.85,2.03-1.85,3.94v8.38c0,2.22-1.54,3.57-4.13,3.57s-4.19-1.36-4.19-3.57Z"/>
        <path d="m311.11,45.28v-19.35c0-6.1,3.33-9.24,9.61-9.24h1.85c6.35,0,9.67,3.14,9.67,9.24v2.71c0,3.39-1.85,5.24-5.24,5.24h-7.52v11.71c0,1.42.68,2.22,1.91,2.22h.43c1.36,0,2.03-.8,2.03-2.22v-4.87c0-2.22,1.54-3.57,4.19-3.57s4.19,1.36,4.19,3.57v4.56c0,6.22-3.33,9.3-9.67,9.3h-1.85c-6.29,0-9.61-3.08-9.61-9.3Zm8.38-16.33h4.38v-3.14c0-1.42-.68-2.34-2.03-2.34h-.43c-1.23,0-1.91.92-1.91,2.34v3.14Z"/>
        <path d="m334.89,45.28v-2.59c0-2.28,1.54-3.63,4.13-3.63s4.19,1.36,4.19,3.63v2.65c0,1.48.8,2.28,2.16,2.28h.37c1.42,0,2.16-.8,2.16-2.28v-1.29c0-2.71-.8-4.07-3.27-5.48l-3.2-1.79c-4.38-2.46-6.22-5.48-6.22-10.35v-.49c0-6.04,3.27-9.24,9.49-9.24h1.79c6.22,0,9.43,3.08,9.43,9.06v1.17c0,2.28-1.48,3.7-4.07,3.7s-4.13-1.36-4.13-3.45v-1.17c0-1.42-.74-2.34-1.91-2.34h-.37c-1.23,0-1.97.92-1.97,2.34v.8c0,2.03.68,3.08,3.08,4.44l4.13,2.4c3.88,2.22,5.54,5.3,5.54,10.29v1.36c0,6.16-3.33,9.3-9.73,9.3h-1.79c-6.47,0-9.8-3.14-9.8-9.3Z"/>
      </g>
      <g>
        <rect class="cls-2" y="0" width="135.62" height="62.8" rx="8.05" ry="8.05"/>
        <g>
          <path class="cls-1" d="m9.02,43.32c0-1.66.74-2.46,2.28-3.08l11.03-4.19-11.03-4.19c-1.54-.62-2.28-1.36-2.28-3.08,0-2.34,1.48-3.2,3.51-2.4l15.77,6.41c1.54.62,2.34,1.42,2.34,3.27s-.86,2.65-2.34,3.33l-15.77,6.35c-2.03.86-3.51,0-3.51-2.4Z"/>
          <path class="cls-1" d="m33.43,31.62V12.15c0-2.22,1.54-3.63,4.19-3.63s4.13,1.42,4.13,3.63v18.36c0,2.46,1.05,3.64,2.65,3.64.68,0,1.23-.25,1.66-.74V12.15c0-2.22,1.54-3.63,4.19-3.63s4.19,1.42,4.19,3.63v38.63c0,2.16-1.48,3.51-4,3.51s-4.07-1.36-4.07-3.51v-11.58c-.8.74-2.34,1.79-5.05,1.79-4.68,0-7.89-2.4-7.89-9.37Z"/>
          <path class="cls-1" d="m57.64,44.99v-27.23c0-6.1,3.33-9.24,9.61-9.24h1.79c6.35,0,9.61,3.14,9.61,9.24v27.23c0,6.22-3.27,9.3-9.61,9.3h-1.79c-6.29,0-9.61-3.08-9.61-9.3Zm10.66,2.34c1.29,0,1.97-.8,1.97-2.28v-27.23c0-1.42-.68-2.34-1.97-2.34h-.37c-1.23,0-1.91.92-1.91,2.34v27.23c0,1.48.68,2.28,1.91,2.28h.37Z"/>
          <path class="cls-1" d="m81.61,44.99v-27.23c0-6.1,3.33-9.24,9.61-9.24h1.79c6.35,0,9.61,3.14,9.61,9.24v27.23c0,6.22-3.27,9.3-9.61,9.3h-1.79c-6.29,0-9.61-3.08-9.61-9.3Zm10.66,2.34c1.29,0,1.97-.8,1.97-2.28v-27.23c0-1.42-.68-2.34-1.97-2.34h-.37c-1.23,0-1.91.92-1.91,2.34v27.23c0,1.48.68,2.28,1.91,2.28h.37Z"/>
          <path class="cls-1" d="m105.58,44.99v-27.23c0-6.1,3.33-9.24,9.61-9.24h1.79c6.35,0,9.61,3.14,9.61,9.24v27.23c0,6.22-3.27,9.3-9.61,9.3h-1.79c-6.29,0-9.61-3.08-9.61-9.3Zm10.66,2.34c1.29,0,1.97-.8,1.97-2.28v-27.23c0-1.42-.68-2.34-1.97-2.34h-.37c-1.23,0-1.91.92-1.91,2.34v27.23c0,1.48.68,2.28,1.91,2.28h.37Z"/>
        </g>
      </g>
    </g>
  </g>
</svg>