<?xml version="1.0" encoding="UTF-8"?>
<svg id="Layer_2" data-name="Layer 2" xmlns="http://www.w3.org/2000/svg" viewBox="0 0 107.26 50.81">
  <defs>
    <style>
      .cls-1 {
        fill: #302a2a;
      }
    </style>
  </defs>
  <g id="Layer_1-2" data-name="Layer 1">
    <g>
      <path class="cls-1" d="m65.88,30.63h-.4c-1.25,0-2.26,1.01-2.26,2.26s1.01,2.26,2.26,2.26h.4c1.25,0,2.26-1.01,2.26-2.26s-1.01-2.26-2.26-2.26Z"/>
      <path class="cls-1" d="m85.81,16.15h-13.23c-1.05-1.54-5.39-6.75-6.5-8.54,0-.01-.02-.03-.03-.04-2.41-3.67-7.05-7.56-10.89-7.56h-22.92c-3.81,0-8.4,3.84-10.83,7.48l-3.69,4.63c-.05.07-.1.14-.15.21-.71,1.13-3.73,3.83-7.02,3.83h-.39c-5.6,0-10.16,4.56-10.16,10.16v14.68c0,1.25,1.01,2.26,2.26,2.26h10.52c1.72,4.42,6.02,7.56,11.05,7.56s9.32-3.14,11.05-7.56h38.65c1.72,4.42,6.02,7.56,11.05,7.56s9.32-3.14,11.05-7.56h9.39c1.25,0,2.26-1.01,2.26-2.26v-3.39c0-11.83-9.62-21.45-21.45-21.45Zm-30.65-11.63c1.45,0,4.85,2.1,7.1,5.51,1.28,2.04,4.37,5.75,4.67,6.12h-31.76c-.25,0-.38-.14-.45-.27-.07-.12-.12-.31.02-.52,1.54-2.44,7.31-10.06,7.89-10.85h0s12.52,0,12.52,0h0Zm-31.33,41.77c-4.05,0-7.34-3.29-7.34-7.34s3.29-7.34,7.34-7.34,7.34,3.29,7.34,7.34c0,4.05-3.29,7.34-7.34,7.34Zm60.74,0c-4.05,0-7.34-3.29-7.34-7.34s3.29-7.34,7.34-7.34,7.34,3.29,7.34,7.34c0,4.05-3.29,7.34-7.34,7.34Zm18.18-7.56h-6.33c-.12-6.43-5.39-11.63-11.85-11.63s-11.73,5.2-11.85,11.63h-37.04c-.02-1.25-.24-2.45-.62-3.58h21.57c1.25,0,2.26-1.01,2.26-2.26s-1.01-2.26-2.26-2.26h-24.22s-.09,0-.14,0c-2.15-2.19-5.14-3.54-8.44-3.54-6.46,0-11.73,5.2-11.85,11.63h-7.46v-9.6h1.92c1.25,0,2.26-1.01,2.26-2.26s-1.01-2.26-2.26-2.26h-1.66c.72-2.29,2.86-3.95,5.39-3.95h.39c5.28,0,9.46-3.85,10.77-5.83l3.68-4.62c.04-.05.08-.11.12-.16,2.26-3.43,5.67-5.53,7.12-5.53h4.74c-2.1,2.77-4.45,5.89-6.06,8.43-.98,1.55-1.04,3.51-.15,5.11.88,1.6,2.57,2.6,4.41,2.6h50.64c9.34,0,16.94,7.6,16.94,16.94v1.13h0Z"/>
    </g>
  </g>
</svg>