<?xml version="1.0" encoding="UTF-8"?>
<svg id="Layer_2" data-name="Layer 2" xmlns="http://www.w3.org/2000/svg" viewBox="0 0 38.13 16.77">
  <defs>
    <style>
      .cls-1 {
        fill: #017373;
      }
    </style>
  </defs>
  <g id="Layer_1-2" data-name="Layer 1">
    <path class="cls-1" d="m37.26,5.78l-2.53-3.74c-.86-1.27-2.35-2.03-3.96-2.03h-11.8c-1.98,0-3.89.74-5.28,2.06l-3.37,3.19-8.03,1.73c-1.34.29-2.29,1.4-2.29,2.67v2.93c0,.63.55,1.14,1.23,1.14h5.32c.16,1.71,1.68,3.05,3.56,3.05s3.4-1.34,3.56-3.05h12.31c.16,1.71,1.68,3.05,3.56,3.05s3.4-1.34,3.56-3.05h3.79c.68,0,1.23-.51,1.23-1.14v-4c0-.99-.3-1.96-.87-2.8Z"/>
  </g>
</svg>