<?xml version="1.0" encoding="UTF-8"?>
<svg id="Layer_2" data-name="Layer 2" xmlns="http://www.w3.org/2000/svg" viewBox="0 0 168.16 62.8">
  <defs>
    <style>
      .cls-1 {
        fill: #fff;
        stroke: #000;
        stroke-miterlimit: 10;
        stroke-width: .5px;
      }

      .cls-2 {
        fill: #017373;
      }
    </style>
  </defs>
  <g id="Layer_1-2" data-name="Layer 1">
    <g>
      <rect class="cls-2" width="46.06" height="62.8" rx="8.05" ry="8.05"/>
      <g>
        <path d="m61.05,45.2V13.3c0-7.15,3.83-10.83,11.19-10.83h1.88c7.36,0,11.12,3.68,11.12,10.83v3.54c0,2.53-1.73,4.33-4.84,4.33s-4.91-1.8-4.91-4.33v-3.46c0-1.66-.79-2.74-2.24-2.74h-.22c-1.44,0-2.17,1.08-2.17,2.74v31.9c0,1.73.72,2.67,2.17,2.67h.22c1.44,0,2.24-.94,2.24-2.67v-5.27c0-2.6,1.8-4.33,4.91-4.33s4.84,1.73,4.84,4.33v5.2c0,7.29-3.75,10.9-11.12,10.9h-1.88c-7.36,0-11.19-3.61-11.19-10.9Z"/>
        <path d="m88.41,47.08v-4.33c0-6.35,4.4-9.38,10.18-9.38,2.24,0,3.75.43,4.69.87v-11.84c0-1.66-.79-2.74-2.17-2.74h-.43c-1.37,0-2.17,1.08-2.17,2.74v3.39c0,2.53-1.73,4.11-4.69,4.11s-4.76-1.59-4.76-4.11v-4.11c0-6.71,3.83-9.96,10.97-9.96h2.09c7.22,0,10.9,3.61,10.9,10.75v29.45c0,2.6-1.73,4.19-4.91,4.19-2.74,0-4.47-1.3-4.76-3.39-1.16,1.44-3.83,3.39-7.51,3.39-4.33,0-7.43-2.53-7.43-9.02Zm12.27,1.59c1.01,0,2.02-.65,2.6-1.52v-6.78c-.51-.29-1.23-.43-2.09-.43-1.88,0-2.96,1.08-2.96,3.25v2.24c0,2.17.94,3.25,2.45,3.25Z"/>
        <path d="m116.99,51.77V16.05c0-2.67,1.8-4.33,4.98-4.33,2.6,0,4.33,1.15,4.76,3.18,1.08-1.23,3.61-3.18,7.07-3.18,4.62,0,6.86,2.31,6.86,9.17v4.91c0,2.53-1.73,4.11-4.76,4.11s-4.69-1.59-4.69-4.11v-2.53c0-2.17-.79-3.25-2.02-3.25-.94,0-1.73.58-2.31,1.44v30.31c0,2.67-1.8,4.33-4.91,4.33s-4.98-1.66-4.98-4.33Z"/>
        <path d="m143.19,45.2v-3.03c0-2.67,1.8-4.26,4.84-4.26s4.91,1.59,4.91,4.26v3.1c0,1.73.94,2.67,2.53,2.67h.43c1.66,0,2.53-.94,2.53-2.67v-1.52c0-3.18-.94-4.76-3.83-6.42l-3.75-2.09c-5.12-2.89-7.29-6.42-7.29-12.12v-.58c0-7.07,3.83-10.83,11.11-10.83h2.09c7.29,0,11.04,3.61,11.04,10.61v1.37c0,2.67-1.73,4.33-4.76,4.33s-4.83-1.59-4.83-4.04v-1.37c0-1.66-.87-2.74-2.24-2.74h-.43c-1.44,0-2.31,1.08-2.31,2.74v.94c0,2.38.79,3.61,3.61,5.2l4.84,2.81c4.55,2.6,6.5,6.21,6.5,12.05v1.59c0,7.22-3.9,10.9-11.4,10.9h-2.09c-7.58,0-11.48-3.68-11.48-10.9Z"/>
      </g>
      <path class="cls-1" d="m10.62,53.02v-12.34c0-4.69,1.8-7.58,6.06-10.32l7-4.47c1.37-.94,1.88-2.02,1.88-3.61v-6.64c0-1.66-.79-2.74-2.24-2.74h-.43c-1.44,0-2.24,1.08-2.24,2.74v3.61c0,2.53-1.8,4.19-4.84,4.19s-4.84-1.66-4.84-4.19v-3.68c0-7.15,3.83-10.83,11.12-10.83h2.09c7.22,0,11.04,3.68,11.04,10.83v5.7c0,4.62-1.59,7.43-6.21,10.32l-6.42,4.11c-1.66,1.08-2.24,2.31-2.24,4.47v9.31h5.49v-7.36c0-2.53,1.8-4.19,4.84-4.19s4.76,1.66,4.76,4.19v10.9c0,2.89-2.17,5.05-5.05,5.05h-14.65c-2.96,0-5.12-2.17-5.12-5.05Z"/>
    </g>
  </g>
</svg>