<?xml version="1.0" encoding="UTF-8"?>
<svg id="Layer_2" data-name="Layer 2" xmlns="http://www.w3.org/2000/svg" viewBox="0 0 312.32 338.96">
  <defs>
    <style>
      .cls-1 {
        fill: #302a2a;
      }
    </style>
  </defs>
  <g id="Layer_1-2" data-name="Layer 1">
    <g>
      <g>
        <path class="cls-1" d="m191.83,89.2h-1.15c-3.63,0-6.58,2.94-6.58,6.58s2.94,6.58,6.58,6.58h1.15c3.63,0,6.58-2.94,6.58-6.58s-2.94-6.58-6.58-6.58Z"/>
        <path class="cls-1" d="m249.85,47.01h-38.53c-3.04-4.47-15.68-19.65-18.94-24.86-.03-.04-.06-.09-.08-.13-7.03-10.68-20.53-22.03-31.71-22.03h-66.74c-11.08,0-24.46,11.17-31.54,21.77l-10.73,13.49c-.15.19-.3.39-.43.6-2.05,3.28-10.86,11.14-20.45,11.14h-1.12c-16.32,0-29.59,13.27-29.59,29.59v42.74c0,3.63,2.94,6.58,6.58,6.58h30.62c5.02,12.88,17.54,22.03,32.17,22.03s27.15-9.15,32.17-22.03h112.53c5.02,12.87,17.54,22.03,32.17,22.03s27.15-9.15,32.17-22.03h27.33c3.63,0,6.58-2.94,6.58-6.58v-9.86c0-34.44-28.02-62.46-62.46-62.46ZM160.6,13.15c4.21,0,14.11,6.1,20.68,16.05,3.71,5.93,12.73,16.75,13.6,17.81h-92.47c-.73,0-1.12-.42-1.31-.77-.19-.35-.34-.9.05-1.51,4.49-7.12,21.27-29.28,22.98-31.58h0s36.46,0,36.46,0h0Zm-91.23,121.64c-11.78,0-21.37-9.59-21.37-21.37s9.59-21.37,21.37-21.37,21.37,9.59,21.37,21.37c0,11.78-9.59,21.37-21.37,21.37Zm176.87,0c-11.78,0-21.37-9.59-21.37-21.37s9.59-21.37,21.37-21.37,21.37,9.59,21.37,21.37c0,11.78-9.59,21.37-21.37,21.37Zm52.93-22.03h-18.43c-.35-18.73-15.69-33.86-34.5-33.86s-34.15,15.13-34.5,33.86h-107.86c-.07-3.63-.7-7.13-1.81-10.41h62.81c3.63,0,6.58-2.94,6.58-6.58s-2.94-6.58-6.58-6.58h-70.52c-.13,0-.27.01-.4.02-6.27-6.37-14.97-10.32-24.59-10.32-18.81,0-34.15,15.13-34.5,33.86H13.15v-27.94h5.59c3.63,0,6.58-2.94,6.58-6.58s-2.94-6.58-6.58-6.58h-4.83c2.1-6.66,8.33-11.51,15.68-11.51h1.12c15.36,0,27.56-11.2,31.37-16.96l10.71-13.46c.12-.15.24-.31.35-.48,6.57-9.98,16.5-16.11,20.72-16.11h13.81c-6.11,8.08-12.96,17.14-17.64,24.56-2.85,4.51-3.02,10.21-.44,14.88,2.58,4.67,7.49,7.58,12.83,7.58h147.44c27.19,0,49.31,22.12,49.31,49.31v3.29h0Z"/>
      </g>
      <g>
        <path class="cls-1" d="m191.83,280.23h-1.15c-3.63,0-6.58,2.94-6.58,6.58s2.94,6.58,6.58,6.58h1.15c3.63,0,6.58-2.94,6.58-6.58s-2.94-6.58-6.58-6.58Z"/>
        <path class="cls-1" d="m249.85,238.04h-38.53c-3.04-4.47-15.68-19.65-18.94-24.86-.03-.04-.06-.09-.08-.13-7.03-10.68-20.53-22.03-31.71-22.03h-66.74c-11.08,0-24.46,11.17-31.54,21.77l-10.73,13.49c-.15.19-.3.39-.43.6-2.05,3.28-10.86,11.14-20.45,11.14h-1.12c-16.32,0-29.59,13.27-29.59,29.59v42.74c0,3.63,2.94,6.58,6.58,6.58h30.62c5.02,12.88,17.54,22.03,32.17,22.03s27.15-9.15,32.17-22.03h112.53c5.02,12.87,17.54,22.03,32.17,22.03s27.15-9.15,32.17-22.03h27.33c3.63,0,6.58-2.94,6.58-6.58v-9.86c0-34.44-28.02-62.46-62.46-62.46Zm-89.26-33.86c4.21,0,14.11,6.1,20.68,16.05,3.71,5.93,12.73,16.75,13.6,17.81h-92.47c-.73,0-1.12-.42-1.31-.77-.19-.35-.34-.9.05-1.51,4.49-7.12,21.27-29.28,22.98-31.58h0s36.46,0,36.46,0h0Zm-91.23,121.64c-11.78,0-21.37-9.59-21.37-21.37s9.59-21.37,21.37-21.37,21.37,9.59,21.37,21.37c0,11.78-9.59,21.37-21.37,21.37Zm176.87,0c-11.78,0-21.37-9.59-21.37-21.37s9.59-21.37,21.37-21.37,21.37,9.59,21.37,21.37c0,11.78-9.59,21.37-21.37,21.37Zm52.93-22.03h-18.43c-.35-18.73-15.69-33.86-34.5-33.86s-34.15,15.13-34.5,33.86h-107.86c-.07-3.63-.7-7.13-1.81-10.41h62.81c3.63,0,6.58-2.94,6.58-6.58s-2.94-6.58-6.58-6.58h-70.52c-.13,0-.27.01-.4.02-6.27-6.37-14.97-10.32-24.59-10.32-18.81,0-34.15,15.13-34.5,33.86H13.15v-27.94h5.59c3.63,0,6.58-2.94,6.58-6.58s-2.94-6.58-6.58-6.58h-4.83c2.1-6.66,8.33-11.51,15.68-11.51h1.12c15.36,0,27.56-11.2,31.37-16.96l10.71-13.46c.12-.15.24-.31.35-.48,6.57-9.98,16.5-16.11,20.72-16.11h13.81c-6.11,8.08-12.96,17.14-17.64,24.56-2.85,4.51-3.02,10.21-.44,14.88,2.58,4.67,7.49,7.58,12.83,7.58h147.44c27.19,0,49.31,22.12,49.31,49.31v3.29h0Z"/>
      </g>
    </g>
  </g>
</svg>