<?xml version="1.0" encoding="UTF-8"?>
<svg id="Layer_2" data-name="Layer 2" xmlns="http://www.w3.org/2000/svg" viewBox="0 0 205.53 191.36">
  <defs>
    <style>
      .cls-1 {
        fill: #0a2854;
      }

      .cls-2 {
        fill: #225491;
      }
    </style>
  </defs>
  <g id="Layer_1-2" data-name="Layer 1">
    <g>
      <path class="cls-1" d="m205.28,35.74v86.43c0,1.05-.54,1.99-1.37,2.4l-134.72,66.43c-.08.04-.16.07-.25.09-.07.02-.15.03-.23.03h-.01c-.08,0-.16,0-.24-.03-.08-.02-.17-.05-.24-.09l-38.18-18.49s-.03-.02-.05-.03l-28.34-13.72c-.84-.41-1.39-1.35-1.39-2.41v-87.69c0-.09,0-.18.03-.27.03-.16.08-.31.15-.44.04-.08.1-.16.16-.23.07-.08.14-.15.23-.21.06-.04.12-.08.18-.11L135.49.46c.57-.29,1.23-.28,1.81,0l67.25,33.97c.06.03.11.06.17.1.08.06.16.12.22.2h0s0,0,0,0c.07.07.12.16.17.25.07.13.12.28.15.44.02.09.03.18.03.27v.03Zm-2.38,86.34V37.78L69.89,103.06v84.6l133.02-65.59Zm-134.21-21.41L201.1,35.69,136.39,3,4.44,68.68l26.47,13.18s.03.01.05.02l37.74,18.79Zm-1.19,87.01v-84.62l-35.85-17.85v85.11l35.85,17.36Zm-38.23-18.51v-85.14l-26.65-13.27v85.51l26.65,12.9Z"/>
      <path class="cls-2" d="m202.91,37.78v84.3l-133.02,65.59v-84.6L202.91,37.78Zm-12.13,85.21V58.71c0-.76-.53-1.37-1.19-1.37s-1.19.61-1.19,1.37v64.28c0,.76.53,1.37,1.19,1.37s1.19-.61,1.19-1.37Zm-17.52,7.01v-64.28c0-.76-.53-1.37-1.19-1.37s-1.19.61-1.19,1.37v64.28c0,.76.53,1.37,1.19,1.37s1.19-.61,1.19-1.37Zm-16.9,9.73v-64.28c0-.76-.53-1.37-1.19-1.37s-1.19.61-1.19,1.37v64.28c0,.76.53,1.37,1.19,1.37s1.19-.61,1.19-1.37Zm-16.9,7.68v-64.28c0-.76-.53-1.37-1.19-1.37s-1.19.61-1.19,1.37v64.28c0,.76.53,1.37,1.19,1.37s1.19-.61,1.19-1.37Zm-17.52,7.09v-64.28c0-.76-.53-1.37-1.19-1.37s-1.19.61-1.19,1.37v64.28c0,.76.53,1.37,1.19,1.37s1.19-.61,1.19-1.37Zm-16.64,8.71v-64.28c0-.76-.53-1.37-1.19-1.37s-1.19.61-1.19,1.37v64.28c0,.76.53,1.37,1.19,1.37s1.19-.61,1.19-1.37Zm-17.79,8.03v-64.28c0-.76-.53-1.37-1.19-1.37s-1.19.61-1.19,1.37v64.28c0,.76.53,1.37,1.19,1.37s1.19-.61,1.19-1.37Z"/>
      <path class="cls-2" d="m201.1,35.69L68.7,100.67l-37.74-18.79s-.03-.02-.05-.02l-26.47-13.18L136.39,3l64.7,32.68Z"/>
      <path class="cls-1" d="m190.77,58.71v64.28c0,.76-.53,1.37-1.19,1.37s-1.19-.61-1.19-1.37V58.71c0-.76.53-1.37,1.19-1.37s1.19.61,1.19,1.37Z"/>
      <path class="cls-1" d="m173.25,65.72v64.28c0,.76-.53,1.37-1.19,1.37s-1.19-.61-1.19-1.37v-64.28c0-.76.53-1.37,1.19-1.37s1.19.61,1.19,1.37Z"/>
      <path class="cls-1" d="m156.35,75.45v64.28c0,.76-.53,1.37-1.19,1.37s-1.19-.61-1.19-1.37v-64.28c0-.76.53-1.37,1.19-1.37s1.19.61,1.19,1.37Z"/>
      <path class="cls-1" d="m139.44,83.13v64.28c0,.76-.53,1.37-1.19,1.37s-1.19-.61-1.19-1.37v-64.28c0-.76.53-1.37,1.19-1.37s1.19.61,1.19,1.37Z"/>
      <path class="cls-1" d="m121.92,90.21v64.28c0,.76-.53,1.37-1.19,1.37s-1.19-.61-1.19-1.37v-64.28c0-.76.53-1.37,1.19-1.37s1.19.61,1.19,1.37Z"/>
      <path class="cls-1" d="m105.28,98.93v64.28c0,.76-.53,1.37-1.19,1.37s-1.19-.61-1.19-1.37v-64.28c0-.76.53-1.37,1.19-1.37s1.19.61,1.19,1.37Z"/>
      <path class="cls-1" d="m87.5,106.96v64.28c0,.76-.53,1.37-1.19,1.37s-1.19-.61-1.19-1.37v-64.28c0-.76.53-1.37,1.19-1.37s1.19.61,1.19,1.37Z"/>
      <path class="cls-2" d="m67.51,103.06v84.62l-35.85-17.36v-85.11l35.85,17.85Zm-25.5,38.6v-20.62c0-.76-.53-1.37-1.19-1.37s-1.19.61-1.19,1.37v20.62c0,.76.53,1.37,1.19,1.37s1.19-.61,1.19-1.37Z"/>
      <path class="cls-1" d="m42.01,121.04v20.62c0,.76-.53,1.37-1.19,1.37s-1.19-.61-1.19-1.37v-20.62c0-.76.53-1.37,1.19-1.37s1.19.61,1.19,1.37Z"/>
      <path class="cls-2" d="m29.28,84.03v85.14l-26.65-12.9v-85.51l26.65,13.27Zm-7,51.51v-20.62c0-.76-.53-1.37-1.19-1.37s-1.19.61-1.19,1.37v20.62c0,.76.53,1.37,1.19,1.37s1.19-.61,1.19-1.37Z"/>
      <path class="cls-1" d="m22.27,114.92v20.62c0,.76-.53,1.37-1.19,1.37s-1.19-.61-1.19-1.37v-20.62c0-.76.53-1.37,1.19-1.37s1.19.61,1.19,1.37Z"/>
    </g>
  </g>
</svg>