<?xml version="1.0" encoding="UTF-8"?>
<svg id="Layer_2" data-name="Layer 2" xmlns="http://www.w3.org/2000/svg" viewBox="0 0 195.7 195.69">
  <defs>
    <style>
      .cls-1 {
        fill: #bf5b45;
        stroke-width: 0px;
      }
    </style>
  </defs>
  <g id="Layer_1-2" data-name="Layer 1">
    <path class="cls-1" d="m98.62,0v98.27s-.02.07-.02.11c0,.04,0,.07,0,.11,0,.03-.03.06-.04.09-.02.05-.03.09-.06.14-.03.07-.07.12-.12.18-.03.04-.06.07-.09.1-.06.05-.12.09-.19.13-.04.02-.07.04-.11.06-.11.04-.23.07-.36.07h0s0,0,0,0c-.07,0-.15,0-.22-.02L2.51,73.91c-1.42,6.63-2.51,16.88-2.51,23.93,0,54.04,43.81,97.85,97.85,97.85s97.85-43.81,97.85-97.85S152.31.42,98.62,0Z"/>
  </g>
</svg>