<?xml version="1.0" encoding="UTF-8"?>
<svg id="Layer_2" data-name="Layer 2" xmlns="http://www.w3.org/2000/svg" viewBox="0 0 844.25 25.59">
  <defs>
    <style>
      .cls-1 {
        fill: #347355;
      }
    </style>
  </defs>
  <g id="Layer_1-2" data-name="Layer 1">
    <g>
      <path class="cls-1" d="m409.33-409.33h25.59V424.92c0,5.52-4.48,10-10,10h-5.59c-5.52,0-10-4.48-10-10V-409.33h0Z" transform="translate(409.33 434.92) rotate(-90)"/>
      <g>
        <path d="m761.87,18.91v-10.75h-.59c-.48,0-.8-.36-.8-.99s.32-.97.8-.97h.17c.49,0,.78-.27.78-.61v-.13c0-.59.57-.95,1.31-.95.82,0,1.26.53,1.26,1.2v13.2c0,.78-.55,1.27-1.46,1.27s-1.48-.49-1.48-1.27Z"/>
        <path d="m766.38,21.65c0-.06.02-.15.17-.44l.59-1.18c-.74-.13-1.22-.65-1.22-1.46,0-.89.67-1.5,1.52-1.5.97,0,1.62.74,1.62,1.77,0,.95-.48,1.9-.99,2.49-.25.3-.7.65-1.2.65-.32,0-.49-.15-.49-.34Z"/>
        <path d="m770.01,18.96v-3.88c0-1.35.32-2.11,1.14-2.93l1.92-1.98c.44-.46.57-.78.57-1.41v-1.43h-2.76c-.74,0-1.18-.48-1.18-1.37s.44-1.35,1.18-1.35h4.11c.84,0,1.48.63,1.48,1.48v2.57c0,1.24-.23,1.88-1.1,2.83l-1.81,1.94c-.55.61-.7,1.05-.7,2.05v3.5c0,.76-.55,1.22-1.43,1.22s-1.41-.46-1.41-1.22Z"/>
        <path d="m780.49,16.78v-7.17c-.55-.06-.88-.49-.88-1.14,0-.74.38-1.14.88-1.14v-.95c0-.76.53-1.24,1.43-1.24s1.43.48,1.43,1.24v.95h.91c.61,0,.99.42.99,1.14s-.38,1.14-.99,1.14h-.91v7.15c0,.7.32,1.03.76,1.03.15,0,.21-.02.27-.02.44,0,.7.34.7.91,0,1.08-.61,1.5-1.81,1.5-1.73,0-2.78-.95-2.78-3.4Z"/>
        <path d="m785.89,18.91v-10.44c0-.78.53-1.27,1.46-1.27.76,0,1.26.34,1.39.93.32-.36,1.05-.93,2.07-.93,1.35,0,2,.67,2,2.68v1.43c0,.74-.51,1.2-1.39,1.2s-1.37-.46-1.37-1.2v-.74c0-.63-.23-.95-.59-.95-.27,0-.51.17-.67.42v8.86c0,.78-.53,1.27-1.43,1.27s-1.46-.49-1.46-1.27Z"/>
        <path d="m793.71,5.21c0-.86.53-1.31,1.5-1.31s1.52.44,1.52,1.31-.55,1.31-1.52,1.31-1.5-.44-1.5-1.31Zm.04,13.71v-10.44c0-.78.53-1.27,1.46-1.27s1.48.49,1.48,1.27v10.44c0,.78-.55,1.27-1.48,1.27s-1.46-.49-1.46-1.27Z"/>
        <path d="m797.95,18.91V5.78c0-.78.55-1.27,1.48-1.27s1.48.49,1.48,1.27v13.14c0,.78-.55,1.27-1.48,1.27s-1.48-.49-1.48-1.27Z"/>
        <path d="m802.13,18.91V5.78c0-.78.55-1.27,1.48-1.27s1.48.49,1.48,1.27v13.14c0,.78-.55,1.27-1.48,1.27s-1.48-.49-1.48-1.27Z"/>
        <path d="m806.3,5.21c0-.86.53-1.31,1.5-1.31s1.52.44,1.52,1.31-.55,1.31-1.52,1.31-1.5-.44-1.5-1.31Zm.04,13.71v-10.44c0-.78.53-1.27,1.46-1.27s1.48.49,1.48,1.27v10.44c0,.78-.55,1.27-1.48,1.27s-1.46-.49-1.46-1.27Z"/>
        <path d="m810.44,16.99v-6.62c0-2.09,1.14-3.16,3.29-3.16h.61c2.17,0,3.29,1.08,3.29,3.16v6.62c0,2.13-1.12,3.18-3.29,3.18h-.61c-2.15,0-3.29-1.05-3.29-3.18Zm3.65.86c.44,0,.67-.27.67-.76v-6.77c0-.48-.23-.8-.67-.8h-.13c-.42,0-.65.32-.65.8v6.77c0,.49.23.76.65.76h.13Z"/>
        <path d="m818.73,18.91v-10.44c0-.78.53-1.27,1.46-1.27.76,0,1.24.34,1.39.91.34-.34,1.16-.91,2.32-.91,1.37,0,2.09.67,2.09,2.64v9.07c0,.78-.53,1.27-1.43,1.27s-1.45-.49-1.45-1.27v-8.37c0-.63-.27-.95-.72-.95-.32,0-.59.19-.76.44v8.88c0,.78-.53,1.27-1.43,1.27s-1.46-.49-1.46-1.27Z"/>
        <path d="m831.78,21.53v-1.46c-1.48-.34-2.24-1.35-2.24-3.08v-1.56c0-.76.53-1.22,1.41-1.22s1.43.46,1.43,1.22v1.58c0,.51.27.78.74.78h.13c.49,0,.74-.27.74-.78v-1.88c0-.95-.21-1.43-1.14-2.07l-.99-.65c-1.6-1.1-2.21-2.19-2.21-3.99v-.76c0-1.67.74-2.7,2.13-3.04v-1.41c0-.21.17-.38.38-.38s.38.17.38.38v1.31c.13-.02.23-.02.36-.02h.93v-1.29c0-.21.17-.38.38-.38.19,0,.36.17.36.38v1.39c1.43.32,2.17,1.35,2.17,3.06v1.08c0,.76-.51,1.22-1.39,1.22s-1.41-.46-1.41-1.22v-1.05c0-.49-.25-.8-.67-.8h-.13c-.4,0-.65.32-.65.8v.86c0,.86.21,1.31,1.08,1.92l1.29.84c1.43.99,2,2.11,2,3.82v1.86c0,1.73-.78,2.78-2.28,3.08v1.46c0,.21-.17.38-.36.38-.21,0-.38-.17-.38-.38v-1.35h-1.29v1.35c0,.21-.17.38-.38.38s-.38-.17-.38-.38Z"/>
      </g>
    </g>
  </g>
</svg>