<?xml version="1.0" encoding="UTF-8"?>
<svg id="Layer_2" data-name="Layer 2" xmlns="http://www.w3.org/2000/svg" viewBox="0 0 196.05 25.59">
  <defs>
    <style>
      .cls-1 {
        fill: #60bf81;
      }
    </style>
  </defs>
  <g id="Layer_1-2" data-name="Layer 1">
    <g>
      <path class="cls-1" d="m85.23-85.23h25.59V100.82c0,5.52-4.48,10-10,10h-5.59c-5.52,0-10-4.48-10-10V-85.23h0Z" transform="translate(85.23 110.82) rotate(-90)"/>
      <g>
        <path d="m113.91,12.28v-6.32c0-.72.5-1.18,1.36-1.18s1.34.46,1.34,1.18v5.96c0,.8.34,1.18.86,1.18.22,0,.4-.08.54-.24v-6.9c0-.72.5-1.18,1.36-1.18s1.36.46,1.36,1.18v12.54c0,.7-.48,1.14-1.3,1.14s-1.32-.44-1.32-1.14v-3.76c-.26.24-.76.58-1.64.58-1.52,0-2.56-.78-2.56-3.04Z"/>
        <path d="m121.77,16.62V7.78c0-1.98,1.08-3,3.12-3h.58c2.06,0,3.12,1.02,3.12,3v8.84c0,2.02-1.06,3.02-3.12,3.02h-.58c-2.04,0-3.12-1-3.12-3.02Zm3.46.76c.42,0,.64-.26.64-.74V7.8c0-.46-.22-.76-.64-.76h-.12c-.4,0-.62.3-.62.76v8.84c0,.48.22.74.62.74h.12Z"/>
        <path d="m129.55,16.62V7.78c0-1.98,1.08-3,3.12-3h.58c2.06,0,3.12,1.02,3.12,3v8.84c0,2.02-1.06,3.02-3.12,3.02h-.58c-2.04,0-3.12-1-3.12-3.02Zm3.46.76c.42,0,.64-.26.64-.74V7.8c0-.46-.22-.76-.64-.76h-.12c-.4,0-.62.3-.62.76v8.84c0,.48.22.74.62.74h.12Z"/>
        <path d="m139.81,16.62V5.96c0-.72.5-1.18,1.36-1.18s1.36.46,1.36,1.18v2.18c.34-.32,1.12-.8,2.16-.8,1.22,0,1.94.68,1.94,2.4v6.88c0,2.02-1.08,3.02-3.12,3.02h-.58c-2.04,0-3.12-1-3.12-3.02Zm3.46.82c.42,0,.64-.26.64-.72v-6.28c0-.58-.24-.9-.66-.9-.26,0-.54.16-.72.4v6.78c0,.46.22.72.62.72h.12Z"/>
        <path d="m147.67,5.44c0-.82.5-1.24,1.42-1.24s1.44.42,1.44,1.24-.52,1.24-1.44,1.24-1.42-.42-1.42-1.24Zm.04,13v-9.9c0-.74.5-1.2,1.38-1.2s1.4.46,1.4,1.2v9.9c0,.74-.52,1.2-1.4,1.2s-1.38-.46-1.38-1.2Z"/>
        <path d="m151.69,18.44V5.98c0-.74.52-1.2,1.4-1.2s1.4.46,1.4,1.2v12.46c0,.74-.52,1.2-1.4,1.2s-1.4-.46-1.4-1.2Z"/>
        <path d="m155.65,18.44V5.98c0-.74.52-1.2,1.4-1.2s1.4.46,1.4,1.2v12.46c0,.74-.52,1.2-1.4,1.2s-1.4-.46-1.4-1.2Z"/>
        <path d="m159.61,5.44c0-.82.5-1.24,1.42-1.24s1.44.42,1.44,1.24-.52,1.24-1.44,1.24-1.42-.42-1.42-1.24Zm.04,13v-9.9c0-.74.5-1.2,1.38-1.2s1.4.46,1.4,1.2v9.9c0,.74-.52,1.2-1.4,1.2s-1.38-.46-1.38-1.2Z"/>
        <path d="m163.53,16.62v-6.28c0-1.98,1.08-3,3.12-3h.58c2.06,0,3.12,1.02,3.12,3v6.28c0,2.02-1.06,3.02-3.12,3.02h-.58c-2.04,0-3.12-1-3.12-3.02Zm3.46.82c.42,0,.64-.26.64-.72v-6.42c0-.46-.22-.76-.64-.76h-.12c-.4,0-.62.3-.62.76v6.42c0,.46.22.72.62.72h.12Z"/>
        <path d="m171.39,18.44v-9.9c0-.74.5-1.2,1.38-1.2.72,0,1.18.32,1.32.86.32-.32,1.1-.86,2.2-.86,1.3,0,1.98.64,1.98,2.5v8.6c0,.74-.5,1.2-1.36,1.2s-1.38-.46-1.38-1.2v-7.94c0-.6-.26-.9-.68-.9-.3,0-.56.18-.72.42v8.42c0,.74-.5,1.2-1.36,1.2s-1.38-.46-1.38-1.2Z"/>
        <path d="m183.77,20.92v-1.38c-1.4-.32-2.12-1.28-2.12-2.92v-1.48c0-.72.5-1.16,1.34-1.16s1.36.44,1.36,1.16v1.5c0,.48.26.74.7.74h.12c.46,0,.7-.26.7-.74v-1.78c0-.9-.2-1.36-1.08-1.96l-.94-.62c-1.52-1.04-2.1-2.08-2.1-3.78v-.72c0-1.58.7-2.56,2.02-2.88v-1.34c0-.2.16-.36.36-.36s.36.16.36.36v1.24c.12-.02.22-.02.34-.02h.88v-1.22c0-.2.16-.36.36-.36.18,0,.34.16.34.36v1.32c1.36.3,2.06,1.28,2.06,2.9v1.02c0,.72-.48,1.16-1.32,1.16s-1.34-.44-1.34-1.16v-1c0-.46-.24-.76-.64-.76h-.12c-.38,0-.62.3-.62.76v.82c0,.82.2,1.24,1.02,1.82l1.22.8c1.36.94,1.9,2,1.9,3.62v1.76c0,1.64-.74,2.64-2.16,2.92v1.38c0,.2-.16.36-.34.36-.2,0-.36-.16-.36-.36v-1.28h-1.22v1.28c0,.2-.16.36-.36.36s-.36-.16-.36-.36Z"/>
      </g>
    </g>
  </g>
</svg>