<?xml version="1.0" encoding="UTF-8"?>
<svg id="Layer_2" data-name="Layer 2" xmlns="http://www.w3.org/2000/svg" viewBox="0 0 796.5 436.81">
  <defs>
    <style>
      .cls-1 {
        fill: #497c72;
      }
    </style>
  </defs>
  <g id="Layer_1-2" data-name="Layer 1">
    <g>
      <path class="cls-1" d="m759.07,380.27l-.48-.98,4.23-2.12.49.97-4.24,2.12Z"/>
      <path class="cls-1" d="m754.37,389.37l-.98-.49,3.65-7.3.98.49-3.64,7.3Z"/>
      <path class="cls-1" d="m754.99,376.46l-.48-.97,11.07-5.54.49.98-11.08,5.54Z"/>
      <path class="cls-1" d="m743.25,399.88l-.98-.49,8.77-17.54.98.49-8.77,17.54Z"/>
      <path class="cls-1" d="m758.22,368.99l-.49-.98,3.53-1.76.48.98-3.52,1.76Z"/>
      <path class="cls-1" d="m739.14,396.39l-.98-.49,3.5-6.99.98.49-3.5,6.99Z"/>
      <path class="cls-1" d="m701.23,390.26l-.98-.49,1.75-3.5.98.49-1.75,3.5Z"/>
      <path class="cls-1" d="m700.41,380.2l-.98-.49,12.23-24.47.97.49-12.23,24.47Z"/>
      <path class="cls-1" d="m695.17,390.68l-.98-.49,3.5-6.99.98.49-3.5,6.99Z"/>
      <path class="cls-1" d="m694.35,380.62l-.98-.49,17.49-34.98.98.49-17.49,34.98Z"/>
      <path class="cls-1" d="m688.46,380.68l-.98-.49,19.24-38.47.97.49-19.23,38.47Z"/>
      <path class="cls-1" d="m684.35,377.19l-.98-.49,21-42.01.97.49-21,42.01Z"/>
      <path class="cls-1" d="m680.24,373.71l-.98-.49,19.24-38.47.97.49-19.23,38.47Z"/>
      <path class="cls-1" d="m676.13,370.22l-.97-.49,20.99-41.99.98.49-21,41.99Z"/>
      <path class="cls-1" d="m703.06,314.61l-.49-.98,3.53-1.76.49.98-3.53,1.77Z"/>
      <path class="cls-1" d="m670.27,370.23l-.97-.49,24.54-49.09.97.48-24.54,49.09Z"/>
      <path class="cls-1" d="m712.77,303.9l-.49-.97,3.5-1.75.49.97-3.5,1.75Z"/>
      <path class="cls-1" d="m698.74,310.92l-.49-.98,3.53-1.76.49.98-3.53,1.76Z"/>
      <path class="cls-1" d="m666.16,366.74l-.98-.49,24.53-49.07.98.49-24.53,49.07Z"/>
      <path class="cls-1" d="m701.46,303.71l-.49-.97,10.49-5.25.49.98-10.49,5.25Z"/>
      <path class="cls-1" d="m688.45,310.21l-.12-.25-.67-.34.15-.31,9.66-4.83.49.98-9.5,4.75Z"/>
      <path class="cls-1" d="m684.79,317.77l-.97-.49,1.78-3.57.97.49-1.78,3.57Z"/>
      <path class="cls-1" d="m660.29,366.76l-.98-.49,19.23-38.47.98.49-19.23,38.47Z"/>
      <path class="cls-1" d="m682.46,310.73l-.98-.49,2.42-4.83,9.24-4.62.49.98-8.92,4.46-2.25,4.5Z"/>
      <path class="cls-1" d="m654.41,366.82l-.98-.49,21.01-42.01.97.48-21.01,42.01Z"/>
      <path class="cls-1" d="m680.47,302.99l-.98-.49.5-.99,8.83-4.41.49.98-8.5,4.25-.33.67Z"/>
      <path class="cls-1" d="m676.57,310.81l-.97-.49,1.77-3.55.98.48-1.77,3.55Z"/>
      <path class="cls-1" d="m635.29,374.73l-.49-.97,12.09-6.04,25.19-50.38.97.49-25.35,50.71-12.41,6.21Z"/>
      <path class="cls-1" d="m674.22,303.78l-.98-.49,2.84-5.68,4.85-2.43.49.97-4.52,2.26-2.68,5.36Z"/>
      <path class="cls-1" d="m627.47,372.79l-.49-.98,16.01-8,24.98-49.96.97.49-25.14,50.29-16.33,8.17Z"/>
      <path class="cls-1" d="m670.11,300.3l-.97-.49,1.85-3.69.98.49-1.85,3.69Z"/>
      <path class="cls-1" d="m626.66,367.34l-.49-.97,12.92-6.46,21.28-42.55.97.49-21.44,42.88-13.24,6.62Z"/>
      <path class="cls-1" d="m666,296.81l-.97-.49,3.27-6.53.17-.08.27.51.45.22-3.18,6.36Z"/>
      <path class="cls-1" d="m625.85,361.89l-.49-.98,9.82-4.91,17.58-35.16.97.49-17.74,35.48-10.15,5.07Z"/>
      <path class="cls-1" d="m656.62,303.87l-.97-.49,3.51-7.01.97.49-3.51,7.01Z"/>
      <path class="cls-1" d="m653.12,310.86l-.97-.49,1.75-3.5.98.49-1.75,3.5Z"/>
      <path class="cls-1" d="m625.05,356.44l-.49-.98,6.72-3.36,13.87-27.75.97.49-14.04,28.08-7.04,3.52Z"/>
      <path class="cls-1" d="m656.01,293.37l-.97-.49,1.76-3.52.97.49-1.76,3.52Z"/>
      <path class="cls-1" d="m650.76,303.88l-.98-.49,3.5-7,.98.49-3.5,7Z"/>
      <path class="cls-1" d="m645.51,314.36l-.97-.49,3.5-6.99.98.49-3.5,6.99Z"/>
      <path class="cls-1" d="m624.31,350.95l-.49-.98,3.55-1.77,6.68-13.35.98.49-6.84,13.68-3.88,1.93Z"/>
      <path class="cls-1" d="m648.4,296.89l-.98-.49,5.26-10.52.97.49-5.26,10.52Z"/>
      <path class="cls-1" d="m643.15,307.38l-.98-.49,3.5-6.99.98.49-3.5,6.99Z"/>
      <path class="cls-1" d="m637.91,317.86l-.97-.49,1.74-3.49.97.49-1.74,3.49Z"/>
      <path class="cls-1" d="m624.12,345.19l-.36-.54-.38-.19,1.19-2.37.98.49-1.27,2.54-.16.08Z"/>
      <path class="cls-1" d="m633.8,314.37l-.98-.49,12.23-24.47.98.48-12.23,24.47Z"/>
      <path class="cls-1" d="m645.39,279.48l-.98-.49,3.97-7.93.98.49-3.97,7.93Z"/>
      <path class="cls-1" d="m636.64,296.99l-.97-.49,3.5-6.99.98.49-3.5,6.99Z"/>
      <path class="cls-1" d="m642.84,272.88l-.97-.49,3-6.01,4.52-2.26.49.98-4.2,2.1-2.84,5.68Z"/>
      <path class="cls-1" d="m627.08,304.4l-.97-.49,8.74-17.47.98.49-8.74,17.47Z"/>
      <path class="cls-1" d="m623.59,311.39l-.98-.49,1.75-3.49.97.49-1.75,3.49Z"/>
      <path class="cls-1" d="m640.33,266.2l-.97-.49,1.61-3.23,7.25-3.62.49.98-6.93,3.46-1.45,2.91Z"/>
      <path class="cls-1" d="m622.76,301.32l-.98-.49,12.23-24.47.97.49-12.23,24.47Z"/>
      <path class="cls-1" d="m617.52,311.81l-.98-.49,1.75-3.5.98.49-1.75,3.5Z"/>
      <path class="cls-1" d="m637.71,259.47l-.22-.43-.54-.23.11-.23,6.41-3.2.49.98-6.25,3.12Z"/>
      <path class="cls-1" d="m628.93,277.28l-.98-.49,3.5-7.01.97.49-3.5,7.01Z"/>
      <path class="cls-1" d="m616.7,301.75l-.98-.49,10.48-20.97.98.49-10.48,20.97Z"/>
      <path class="cls-1" d="m611.45,312.24l-.97-.49,3.5-7,.98.49-3.5,7Z"/>
      <path class="cls-1" d="m796.02,123.63l-1.26.63.48.98,1.26-.63-.48-.97Z"/>
      <path class="cls-1" d="m639.21,252.87l-.49-.97,3.54-1.77.49.97-3.54,1.77Z"/>
      <path class="cls-1" d="m614.13,295.18l-.97-.49,3.49-6.99.97.49-3.49,6.99Z"/>
      <path class="cls-1" d="m607.14,309.17l-.98-.49,1.75-3.51.97.49-1.75,3.51Z"/>
      <path class="cls-1" d="m790.04,121.95l-.48-.98,3.84-1.92.48.98-3.84,1.92Z"/>
      <path class="cls-1" d="m728.63,153.79l-.98-.49.92-1.83.54-.27.49.97-.22.11-.75,1.51Z"/>
      <path class="cls-1" d="m602.82,306.1l-.98-.49,3.5-7.01.98.49-3.5,7.01Z"/>
      <path class="cls-1" d="m791.96,114.71l-.97-.49,1.83-3.68.98.49-1.84,3.68Z"/>
      <path class="cls-1" d="m785.29,118.47l-.48-.98,3.66-1.83.49.97-3.67,1.83Z"/>
      <path class="cls-1" d="m720.63,158.06l-.97-.49,5-10.01,7.62-3.81.49.97-7.3,3.65-4.84,9.68Z"/>
      <path class="cls-1" d="m636.8,242.37l-.49-.97,7.01-3.51.49.97-7.01,3.51Z"/>
      <path class="cls-1" d="m598.5,303.02l-.98-.49,5.25-10.5.98.49-5.25,10.5Z"/>
      <path class="cls-1" d="m780.55,114.99l-.49-.98,7.07-3.53.2.42.57.22-.09.16-.2.17-7.06,3.53Z"/>
      <path class="cls-1" d="m749.05,130.74l-.48-.98,20.97-10.48.48.98-20.97,10.48Z"/>
      <path class="cls-1" d="m716.31,154.99l-.98-.49,5.42-10.84,13.81-6.91.49.98-13.49,6.74-5.26,10.51Z"/>
      <path class="cls-1" d="m622.1,243.86l-.23-.46-.52-.23.1-.2.17-.08,20.47-10.23.49.98-20.47,10.23Z"/>
      <path class="cls-1" d="m608.17,271.98l-.98-.49,6.99-13.99.98.49-6.99,13.99Z"/>
      <path class="cls-1" d="m595.93,296.45l-.98-.49,6.99-13.99.97.49-6.99,13.99Z"/>
      <path class="cls-1" d="m717.5,140.65l-.06-.13-.77-.38.19-.38,66.21-33.1,1.01-2.03.97.49-1.17,2.35-66.23,33.15-.04-.02-.1.05Z"/>
      <path class="cls-1" d="m694.52,186.88l-.98-.49,1.74-3.5.98.49-1.74,3.5Z"/>
      <path class="cls-1" d="m658.8,219.66l-.49-.98,25.43-12.72,2.76-5.52.97.49-2.92,5.84-25.76,12.88Z"/>
      <path class="cls-1" d="m616.13,244.34l-.98-.49,2.39-4.78,23.3-11.65.49.98-22.97,11.49-2.23,4.46Z"/>
      <path class="cls-1" d="m612.6,251.41l-.98-.49,1.76-3.52.98.49-1.76,3.52Z"/>
      <path class="cls-1" d="m603.85,268.9l-.97-.49,6.99-13.98.98.49-6.99,13.98Z"/>
      <path class="cls-1" d="m591.62,293.37l-.98-.49,7-13.99.97.49-7,13.99Z"/>
      <path class="cls-1" d="m734.7,126.2l-.48-.98,45.1-22.55.2.42.57.22-.08.16-.21.17-45.1,22.55Z"/>
      <path class="cls-1" d="m659.68,213.37l-.49-.98,20.66-10.32,10.43-20.85.97.49-10.59,21.18-20.98,10.49Z"/>
      <path class="cls-1" d="m598.84,267.21l-.98-.49,15.78-31.56,28.07-14.04.49.98-27.75,13.87-15.62,31.23Z"/>
      <path class="cls-1" d="m593.6,277.69l-.98-.49,1.75-3.5.98.49-1.75,3.5Z"/>
      <path class="cls-1" d="m588.36,288.18l-.98-.49,3.5-7,.98.49-3.5,7Z"/>
      <path class="cls-1" d="m723.39,126l-.49-.98,52.51-26.25.24.48.5.24-.09.16-.16.09-52.51,26.25Z"/>
      <path class="cls-1" d="m709.7,132.85l-.24-.48-.51-.2.08-.2,6.84-3.42.49.97-6.66,3.33Z"/>
      <path class="cls-1" d="m692.39,167.73l-.98-.49,1.75-3.5.97.49-1.74,3.5Z"/>
      <path class="cls-1" d="m688.89,174.71l-.98-.49,1.74-3.49.97.49-1.74,3.49Z"/>
      <path class="cls-1" d="m685.39,181.7l-.98-.49,1.75-3.5.98.49-1.75,3.5Z"/>
      <path class="cls-1" d="m681.89,188.72l-.98-.49,1.76-3.51.97.49-1.75,3.51Z"/>
      <path class="cls-1" d="m651.87,211.42l-.49-.98,6.99-3.5.49.98-6.99,3.5Z"/>
      <path class="cls-1" d="m589.49,274.2l-.97-.49,21.23-42.45,31.15-15.58.49.98-30.83,15.42-21.06,42.13Z"/>
      <path class="cls-1" d="m584.25,284.7l-.98-.49,3.5-7,.97.49-3.5,7Z"/>
      <path class="cls-1" d="m773.59,92.91l-.98-.49,1.83-3.65.98.49-1.83,3.65Z"/>
      <path class="cls-1" d="m704.06,132.66l-.98-.48,2.06-4.12,62.5-31.25.49.97-62.18,31.09-1.89,3.79Z"/>
      <path class="cls-1" d="m684.78,171.23l-.98-.49,6.99-13.98.98.49-6.99,13.98Z"/>
      <path class="cls-1" d="m651.05,205.97l-.49-.97,7-3.5.49.97-7,3.5Z"/>
      <path class="cls-1" d="m588.88,263.73l-.97-.49,17.94-35.88,34.24-17.12.49.98-33.91,16.96-17.78,35.55Z"/>
      <path class="cls-1" d="m767.97,92.01l-.34-.67-.27-.13,1.12-2.21.98.49-1.19,2.37-.29.15Z"/>
      <path class="cls-1" d="m698.16,132.75l-.98-.49,4.06-8.11,62.07-31.04.48.98-61.74,30.87-3.9,7.79Z"/>
      <path class="cls-1" d="m671.9,185.28l-.97-.49,19.25-38.51.98.49-19.26,38.51Z"/>
      <path class="cls-1" d="m650.23,200.53l-.49-.97,7-3.5.49.98-7,3.5Z"/>
      <path class="cls-1" d="m586.52,256.74l-.98-.49,16.4-32.8,40.81-20.4.49.98-40.49,20.24-16.23,32.48Z"/>
      <path class="cls-1" d="m692.29,132.79l-.98-.49,6.03-12.05,58.09-29.05.48.98-57.76,28.88-5.86,11.72Z"/>
      <path class="cls-1" d="m665.84,185.69l-.98-.49,19.45-38.91.98.49-19.45,38.91Z"/>
      <path class="cls-1" d="m649.41,195.09l-.49-.98,10.57-5.28.49.98-10.57,5.28Z"/>
      <path class="cls-1" d="m580.66,256.75l-.98-.49,18.35-36.71,36.9-18.45.49.97-36.57,18.29-18.19,36.38Z"/>
      <path class="cls-1" d="m684.68,136.3l-.98-.49,9.73-19.47,47.16-23.58.48.98-46.83,23.41-9.57,19.14Z"/>
      <path class="cls-1" d="m578.3,249.77l-.98-.49,16.81-33.63,66.2-33.1,16.38-32.76.97.49-16.54,33.08-66.2,33.1-16.65,33.3Z"/>
      <path class="cls-1" d="m475.4,356.24l-.97-.49,5.24-10.48.97.49-5.24,10.48Z"/>
      <path class="cls-1" d="m575.93,242.79l-.98-.49,15.28-30.55,66.2-33.11,33.1-66.2,39.75-19.87.49.98-39.43,19.71-33.1,66.2-66.2,33.11-15.11,30.22Z"/>
      <path class="cls-1" d="m551.83,281.82l-.49-.98,3.69-1.85.49.98-3.69,1.85Z"/>
      <path class="cls-1" d="m469.55,356.25l-.97-.49,13.98-27.96.97.49-13.98,27.96Z"/>
      <path class="cls-1" d="m570.08,242.79l-.98-.49,17.23-34.45,66.2-33.1,33.1-66.2,42.83-21.42.49.98-42.5,21.25-33.1,66.2-66.2,33.1-17.07,34.13Z"/>
      <path class="cls-1" d="m547.51,278.13l-.49-.98,6.37-3.19.22.46.53.23-.08.16-.18.12-6.37,3.19Z"/>
      <path class="cls-1" d="m467.19,349.27l-.98-.49,13.98-27.96.98.49-13.98,27.96Z"/>
      <path class="cls-1" d="m558.98,253.28l-.98-.49,24.42-48.85,66.2-33.1,33.1-66.2,38.92-19.46.49.97-38.6,19.3-33.1,66.2-66.2,33.1-24.26,48.53Z"/>
      <path class="cls-1" d="m539.65,276.2l-.48-.97,10.32-5.16.49.98-10.32,5.16Z"/>
      <path class="cls-1" d="m468.32,335.29l-.98-.49,1.74-3.49.98.49-1.74,3.49Z"/>
      <path class="cls-1" d="m538.86,270.74l-.49-.97,7.05-3.53,33.1-66.2,66.2-33.1,33.1-66.2,35.02-17.51.49.97-34.69,17.35-33.1,66.2-66.2,33.1-33.1,66.2-7.38,3.69Z"/>
      <path class="cls-1" d="m421.85,378.9l-.49-.97,21.1-10.55.49.98-21.1,10.55Z"/>
      <path class="cls-1" d="m538.11,265.27l-.49-.98,3.89-1.95,33.1-66.21,66.2-33.1,33.1-66.2,31.11-15.56.49.98-30.78,15.39-33.1,66.2-66.2,33.1-33.1,66.21-4.22,2.11Z"/>
      <path class="cls-1" d="m456.6,335.3l-.98-.49,6.99-13.97.98.49-6.99,13.97Z"/>
      <path class="cls-1" d="m446.09,356.34l-.97-.49,5.27-10.54.97.49-5.27,10.54Z"/>
      <path class="cls-1" d="m414.04,376.95l-.49-.97,28.66-14.33,1.05-2.1.98.49-1.21,2.42-28.99,14.49Z"/>
      <path class="cls-1" d="m533.78,261.58l-.49-.98,4.32-2.16,33.1-66.2,66.2-33.1,33.1-66.2,30.69-15.35.49.98-30.37,15.18-33.1,66.2-66.2,33.1-33.1,66.2-4.65,2.33Z"/>
      <path class="cls-1" d="m409.72,373.25l-.49-.97,29.07-14.54,21.94-43.88.98.49-22.1,44.21-29.4,14.7Z"/>
      <path class="cls-1" d="m533.84,255.69l-.49-.97.36-.18,33.1-66.2,66.21-33.1,33.1-66.2,26.78-13.39.49.98-26.46,13.23-33.1,66.2-66.21,33.1-33.1,66.2-.68.34Z"/>
      <path class="cls-1" d="m408.9,367.81l-.49-.98,26-13,33.1-66.2,12.42-6.21.49.97-12.1,6.05-33.1,66.2-26.32,13.16Z"/>
      <path class="cls-1" d="m699.56,67.67l-.49-.98,10.48-5.24.49.98-10.48,5.24Z"/>
      <path class="cls-1" d="m682.08,76.41l-.49-.98,10.48-5.24.49.98-10.49,5.24Z"/>
      <path class="cls-1" d="m533.14,246.41l-.98-.49,30.75-61.5,66.2-33.1,33.1-66.2,12.38-6.19.49.97-12.05,6.03-33.1,66.2-66.2,33.1-30.58,61.17Z"/>
      <path class="cls-1" d="m404.58,364.12l-.49-.98,26.41-13.21,33.1-66.2,19.01-9.5.49.98-18.69,9.34-33.1,66.2-26.74,13.37Z"/>
      <path class="cls-1" d="m695.24,63.98l-.49-.98,6.99-3.5.49.98-6.99,3.5Z"/>
      <path class="cls-1" d="m681.26,70.97l-.49-.98,6.99-3.5.49.98-6.99,3.5Z"/>
      <path class="cls-1" d="m663.69,79.75l-.49-.98,3.55-1.78.49.98-3.56,1.78Z"/>
      <path class="cls-1" d="m526.91,247.16l-.98-.49,33.07-66.15,66.2-33.1,33.1-66.2.53-.27.49.97-.21.1-33.1,66.2-66.2,33.1-32.91,65.82Z"/>
      <path class="cls-1" d="m403.76,358.67l-.49-.98,23.33-11.66,33.1-66.2,25.59-12.79.49.98-25.26,12.63-33.1,66.2-23.65,11.83Z"/>
      <path class="cls-1" d="m680.44,65.52l-.49-.98,13.98-6.99.49.97-13.98,6.99Z"/>
      <path class="cls-1" d="m524.91,239.46l-.97-.49,31.18-62.36,66.2-33.1,33.1-66.21,4.46-2.23.49.98-4.14,2.07-33.1,66.21-66.2,33.1-31.01,62.03Z"/>
      <path class="cls-1" d="m402.94,353.23l-.49-.97,20.25-10.12,33.1-66.2,18.18-9.09.49.98-17.86,8.93-33.1,66.2-20.58,10.29Z"/>
      <path class="cls-1" d="m676.12,61.83l-.49-.97,13.98-6.99.49.97-13.98,6.99Z"/>
      <path class="cls-1" d="m519,239.56l-.98-.49,33.18-66.35,66.2-33.1,33.1-66.2,7.61-3.81.49.98-7.28,3.64-33.1,66.2-66.2,33.1-33.01,66.03Z"/>
      <path class="cls-1" d="m402.12,347.79l-.49-.97,17.16-8.58,33.1-66.2,52.72-26.36.49.98-52.4,26.2-33.1,66.2-17.49,8.75Z"/>
      <path class="cls-1" d="m512.81,236.93l-.49-.97,1.88-.94,33.1-66.2,66.2-33.1,33.1-66.2,8.45-4.22.49.97-8.12,4.06-33.1,66.2-66.2,33.1-33.1,66.2-2.2,1.1Z"/>
      <path class="cls-1" d="m467.08,259.8l-.49-.97,38.47-19.23.49.98-38.47,19.23Z"/>
      <path class="cls-1" d="m399.04,343.47l-.49-.98,16.34-8.17,33.1-66.2,15.1-7.55.49.97-14.77,7.39-33.1,66.2-16.66,8.33Z"/>
      <path class="cls-1" d="m504.34,235.32l-.49-.97,6.44-3.22,33.1-66.2,66.21-33.1,31.68-63.36.98.49-31.84,63.69-66.21,33.1-33.1,66.2-6.77,3.39Z"/>
      <path class="cls-1" d="m465.85,254.56l-.49-.97,34.97-17.48.49.97-34.97,17.48Z"/>
      <path class="cls-1" d="m397.81,338.23l-.49-.97,13.67-6.83,33.1-66.2,14.26-7.13.49.98-13.94,6.97-33.1,66.2-13.99,7Z"/>
      <path class="cls-1" d="m492.57,235.35l-.49-.97,14.31-7.16,33.1-66.21,66.2-33.1,29.44-58.87.97.49-29.6,59.2-66.2,33.1-33.1,66.2-14.64,7.32Z"/>
      <path class="cls-1" d="m461.11,251.07l-.49-.97,27.96-13.98.49.98-27.96,13.98Z"/>
      <path class="cls-1" d="m396.59,332.99l-.49-.97,10.99-5.5,33.1-66.2,16.94-8.47.49.98-16.61,8.3-33.1,66.2-11.32,5.66Z"/>
      <path class="cls-1" d="m491.34,230.11l-.49-.97,11.64-5.82,33.1-66.2,66.2-33.1,29.02-58.04.98.49-29.18,58.36-66.2,33.1-33.1,66.2-11.96,5.98Z"/>
      <path class="cls-1" d="m459.88,245.84l-.49-.98,24.46-12.23.49.97-24.46,12.23Z"/>
      <path class="cls-1" d="m398.92,325.97l-.49-.97,4.76-2.38,33.1-66.2,19.61-9.8.49.98-19.28,9.64-33.1,66.2-5.08,2.54Z"/>
      <path class="cls-1" d="m400.29,319.15l-.98-.49,33.07-66.15,66.2-33.1,33.1-66.2,66.2-33.1,28.6-57.2.98.49-28.76,57.52-66.2,33.1-33.11,66.2-66.2,33.1-32.91,65.82Z"/>
      <path class="cls-1" d="m453.91,237.12l-.49-.97,41.26-20.63,33.1-66.2,66.2-33.1,26.43-52.86.98.49-26.59,53.18-66.2,33.1-33.1,66.2-41.59,20.8Z"/>
      <path class="cls-1" d="m398.06,311.89l-.97-.49,31.4-62.8,21.45-10.72.49.97-21.12,10.56-31.23,62.47Z"/>
      <path class="cls-1" d="m617.08,60.76l-.97-.49,7.01-14.01.97.49-7.01,14.01Z"/>
      <path class="cls-1" d="m395.54,305.23l-.97-.49,30.02-60.04,66.2-33.11,33.1-66.2,66.2-33.1,24.26-48.52.97.49-24.43,48.85-66.2,33.1-33.1,66.2-66.2,33.1-29.86,59.71Z"/>
      <path class="cls-1" d="m392.98,298.64l-.98-.49,28.67-57.35,66.2-33.1,33.1-66.2,66.2-33.1,32.95-65.89.98.49-33.11,66.22-66.2,33.1-33.1,66.2-66.2,33.1-28.51,57.02Z"/>
      <path class="cls-1" d="m230.19,435.37l-.92.46.49.97.92-.46-.49-.97Z"/>
      <path class="cls-1" d="m490,192.19l-.98-.49,27.06-54.11,66.2-33.1,30.65-61.31.97.49-30.82,61.63-66.2,33.1-26.89,53.78Z"/>
      <path class="cls-1" d="m392.36,288.18l-.97-.49,25.4-50.79,66.2-33.1.54-1.08.98.49-.7,1.4-66.2,33.1-25.23,50.46Z"/>
      <path class="cls-1" d="m218.87,436.53l-.97-.49.27-.53,8.44-4.22.49.98-8.12,4.06-.1.21Z"/>
      <path class="cls-1" d="m487.64,185.2l-.98-.49,25.51-51.02,66.2-33.1,28.67-57.34.98.49-28.83,57.67-66.2,33.1-25.35,50.69Z"/>
      <path class="cls-1" d="m446.26,217.53l-.49-.98,33.31-16.65.12-.24.98.49-.28.56-33.63,16.82Z"/>
      <path class="cls-1" d="m388.25,284.69l-.98-.49,25.6-51.2,29.4-14.7.49.97-29.07,14.54-25.44,50.88Z"/>
      <path class="cls-1" d="m213.66,435.25l-.97-.49,1.58-3.15,8.03-4.01.49.98-7.7,3.85-1.42,2.83Z"/>
      <path class="cls-1" d="m605.69,36.72l-.97-.49,1.88-3.77.98.49-1.89,3.77Z"/>
      <path class="cls-1" d="m488.78,171.22l-.97-.49,20.47-40.95,66.2-33.1,28.46-56.92.98.49-28.62,57.24-66.2,33.1-20.31,40.62Z"/>
      <path class="cls-1" d="m483.53,181.71l-.98-.49,3.5-7,.97.49-3.5,7Z"/>
      <path class="cls-1" d="m448.93,210.34l-.49-.98,26.73-13.37,5.63-11.26.98.49-5.8,11.59-27.06,13.53Z"/>
      <path class="cls-1" d="m382.38,284.71l-.97-.49,27.56-55.13,22-11,.49.98-21.67,10.84-27.4,54.8Z"/>
      <path class="cls-1" d="m209.85,431.18l-.98-.49,1.49-2.98,7.61-3.8.49.98-7.28,3.64-1.33,2.66Z"/>
      <path class="cls-1" d="m599.81,36.77l-.98-.49,3.61-7.22.97.49-3.61,7.22Z"/>
      <path class="cls-1" d="m482.92,171.23l-.97-.49,22.43-44.86,66.2-33.1,26.5-52.99.97.49-26.66,53.32-66.2,33.1-22.26,44.53Z"/>
      <path class="cls-1" d="m451.6,203.15l-.49-.97,20.16-10.08,5.42-10.85.98.49-5.59,11.17-20.49,10.24Z"/>
      <path class="cls-1" d="m441.11,208.39l-.49-.97,3.49-1.75.49.98-3.49,1.74Z"/>
      <path class="cls-1" d="m378.27,281.22l-.97-.49,27.77-55.54,21.58-10.79.49.97-21.26,10.63-27.61,55.22Z"/>
      <path class="cls-1" d="m207.11,424.7l-.12-.25-.68-.34.15-.31,14.22-7.11.49.97-14.06,7.03Z"/>
      <path class="cls-1" d="m593.94,36.79l-.97-.49,5.34-10.68.98.49-5.34,10.68Z"/>
      <path class="cls-1" d="m436.8,204.69l-.49-.97,31.06-15.53,33.1-66.2,66.2-33.1,21.04-42.09.97.49-21.2,42.41-66.2,33.1-33.1,66.2-31.38,15.69Z"/>
      <path class="cls-1" d="m426.32,209.93l-.49-.98,3.49-1.74.49.97-3.49,1.74Z"/>
      <path class="cls-1" d="m370.6,284.87l-.98-.49,31.55-63.09,7.14-3.57.49.98-6.82,3.4-31.38,62.76Z"/>
      <path class="cls-1" d="m203.2,420.79l-.07-.14-.76-.38.18-.37,24.3-12.15.49.98-23.99,12.03h-.04s-.11.04-.11.04Z"/>
      <path class="cls-1" d="m589.83,33.3l-.98-.49,5.32-10.64.98.49-5.32,10.64Z"/>
      <path class="cls-1" d="m464.07,185.2l-.21-.51-.48-.24,33.18-66.37,66.2-33.1,19.09-38.18.98.49-19.25,38.5-66.2,33.1-33.11,66.23-.19.08Z"/>
      <path class="cls-1" d="m432.48,201l-.49-.97,24.51-12.26.49.97-24.51,12.26Z"/>
      <path class="cls-1" d="m364.81,284.49l-.27-.5-.46-.23,33.18-66.37,6.72-3.36.49.98-6.39,3.2-33.1,66.2-.16.08Z"/>
      <path class="cls-1" d="m201.82,415.64l-.49-.98,21.2-10.6.49.98-21.2,10.6Z"/>
      <path class="cls-1" d="m583.97,33.32l-.97-.49,5.26-10.53.98.49-5.26,10.53Z"/>
      <path class="cls-1" d="m531.15,96.16l-.49-.97,28.2-14.1,17.13-34.27.98.49-17.3,34.6-28.53,14.26Z"/>
      <path class="cls-1" d="m460.21,181.28l-.31-.52-.42-.21,33.18-66.37,34.5-17.25.49.98-34.17,17.09-33.1,66.2-.16.08Z"/>
      <path class="cls-1" d="m428.17,197.3l-.49-.98,20.98-10.49.49.97-20.98,10.49Z"/>
      <path class="cls-1" d="m421.18,200.8l-.49-.98,3.49-1.75.49.98-3.49,1.75Z"/>
      <path class="cls-1" d="m353.18,284.45l-.49-.98,7.57-3.78,33.1-66.2,2.63-1.31.48.98-2.3,1.15-33.1,66.2-7.89,3.95Z"/>
      <path class="cls-1" d="m280.53,342.27l-.97-.49,5.24-10.48.97.49-5.24,10.48Z"/>
      <path class="cls-1" d="m204.7,408.34l-.49-.98,24.49-12.25.49.98-24.49,12.24Z"/>
      <path class="cls-1" d="m579.86,29.83l-.98-.49,7.04-14.1.98.49-7.05,14.1Z"/>
      <path class="cls-1" d="m537.32,87.22l-.49-.98,18.14-9.07,13.43-26.87.97.49-13.6,27.19-18.46,9.23Z"/>
      <path class="cls-1" d="m456.11,177.47l-.37-.75-.16-.08.06-.12v-.03s.02-.02.02-.02l33.1-66.2,44.57-22.29.49.97-44.25,22.12-33.1,66.2-.37.18Z"/>
      <path class="cls-1" d="m427.34,191.86l-.49-.98,6.99-3.5.49.98-6.99,3.5Z"/>
      <path class="cls-1" d="m416.86,197.1l-.49-.98,6.99-3.5.49.98-6.99,3.5Z"/>
      <path class="cls-1" d="m402.87,204.1l-.49-.97,3.5-1.75.49.97-3.5,1.75Z"/>
      <path class="cls-1" d="m348.86,280.75l-.49-.98,7.98-3.99,33.1-66.2,5.88-2.94.49.98-5.55,2.78-33.1,66.2-8.31,4.16Z"/>
      <path class="cls-1" d="m271.18,349.27l-.97-.49,19.94-39.89,5.69-2.84.49.98-5.36,2.68-19.78,39.57Z"/>
      <path class="cls-1" d="m238.85,385.41l-.49-.97,7-3.5.49.98-7,3.5Z"/>
      <path class="cls-1" d="m203.89,402.89l-.49-.98,31.46-15.73.49.98-31.46,15.73Z"/>
      <path class="cls-1" d="m575.75,26.34l-.98-.49,5.26-10.52.98.49-5.26,10.52Z"/>
      <path class="cls-1" d="m536.5,81.78l-.49-.98,15.05-7.53,6.23-12.46.98.49-6.4,12.79-15.38,7.69Z"/>
      <path class="cls-1" d="m444.03,177.66l-.49-.97,8.21-4.11,33.1-66.2,47.65-23.83.49.98-47.33,23.66-33.1,66.2-8.54,4.27Z"/>
      <path class="cls-1" d="m412.54,193.41l-.49-.98,24.47-12.23.49.97-24.47,12.23Z"/>
      <path class="cls-1" d="m398.55,200.4l-.49-.98,10.49-5.24.49.98-10.49,5.25Z"/>
      <path class="cls-1" d="m344.54,277.06l-.49-.98,8.4-4.2,33.11-66.2,9-4.5.48.98-8.67,4.34-33.1,66.2-8.73,4.36Z"/>
      <path class="cls-1" d="m206.58,395.7l-.49-.98,47.06-23.53,33.1-66.21,1.02-.51.49.97-.7.35-33.1,66.2-47.39,23.69Z"/>
      <path class="cls-1" d="m573.39,19.35l-.98-.49,3.51-7.01.98.49-3.51,7.01Z"/>
      <path class="cls-1" d="m535.68,76.33l-.48-.97,11.96-5.98,4.27-8.53.97.49-4.43,8.86-12.29,6.14Z"/>
      <path class="cls-1" d="m521.69,83.32l-.49-.98,10.49-5.24.49.98-10.49,5.24Z"/>
      <path class="cls-1" d="m443.25,172.19l-.49-.98,5.09-2.54,33.1-66.2,36.76-18.38.49.98-36.43,18.21-33.1,66.2-5.41,2.71Z"/>
      <path class="cls-1" d="m415.21,186.21l-.49-.97,24.49-12.25.49.97-24.49,12.25Z"/>
      <path class="cls-1" d="m404.73,191.46l-.49-.98,6.99-3.49.49.98-6.99,3.49Z"/>
      <path class="cls-1" d="m340.22,273.37l-.49-.98,8.82-4.41,33.1-66.2.64-.32.48.98-.31.16-33.1,66.2-9.14,4.57Z"/>
      <path class="cls-1" d="m205.75,390.25l-.49-.97,43.98-21.99,33.1-66.2.5-.25.49.97-.17.09-33.1,66.2-44.3,22.15Z"/>
      <path class="cls-1" d="m567.53,19.36l-.98-.49,1.75-3.5.97.49-1.75,3.5Z"/>
      <path class="cls-1" d="m520.87,77.88l-.49-.98,10.49-5.25.49.97-10.49,5.25Z"/>
      <path class="cls-1" d="m410.9,182.52l-.49-.97,33.54-16.77,33.1-66.2,36.34-18.17.49.98-36.01,18.01-33.1,66.2-33.87,16.93Z"/>
      <path class="cls-1" d="m400.41,187.76l-.49-.97,6.99-3.49.49.97-6.99,3.49Z"/>
      <path class="cls-1" d="m389.92,193.01l-.49-.97,3.5-1.75.49.98-3.5,1.75Z"/>
      <path class="cls-1" d="m335.9,269.67l-.49-.98,9.24-4.62,32-64,.97.49-32.16,64.32-9.56,4.78Z"/>
      <path class="cls-1" d="m208.43,383.06l-.49-.97,37.4-18.7,31.89-63.77.98.49-32.05,64.1-37.73,18.86Z"/>
      <path class="cls-1" d="m520.05,72.44l-.49-.98,14.05-7.02.49.98-14.05,7.02Z"/>
      <path class="cls-1" d="m502.58,81.17l-.49-.98,3.49-1.74.49.98-3.49,1.74Z"/>
      <path class="cls-1" d="m396.1,184.07l-.49-.97,44.44-22.22,33.1-66.2,18.46-9.23.49.98-18.13,9.06-33.1,66.2-44.76,22.38Z"/>
      <path class="cls-1" d="m389.1,187.56l-.49-.97,3.5-1.75.49.97-3.5,1.75Z"/>
      <path class="cls-1" d="m374.58,194.83l-.49-.98,7.5-3.75.49.98-7.5,3.75Z"/>
      <path class="cls-1" d="m335.11,264.21l-.49-.98,6.12-3.06,28.15-56.32.98.49-28.32,56.64-6.45,3.22Z"/>
      <path class="cls-1" d="m207.6,377.62l-.49-.98,34.32-17.16,31.65-63.3.98.49-31.82,63.63-34.65,17.33Z"/>
      <path class="cls-1" d="m526.24,63.49l-.49-.98,3.53-1.77.49.98-3.53,1.77Z"/>
      <path class="cls-1" d="m494.77,79.23l-.49-.98,3.49-1.75.49.98-3.49,1.75Z"/>
      <path class="cls-1" d="m402.26,175.13l-.49-.98,34.37-17.19,33.1-66.2,3.93-1.96.49.98-3.6,1.8-33.1,66.2-34.7,17.35Z"/>
      <path class="cls-1" d="m391.78,180.37l-.49-.97,6.99-3.5.49.98-6.99,3.5Z"/>
      <path class="cls-1" d="m330.78,260.52l-.49-.98,6.55-3.27,33.1-66.2,7.33-3.66.49.98-7,3.5-33.1,66.2-6.87,3.43Z"/>
      <path class="cls-1" d="m210.28,370.43l-.49-.98,27.75-13.87,31.43-62.85.98.49-31.59,63.18-28.07,14.04Z"/>
      <path class="cls-1" d="m490.45,75.53l-.49-.98,6.99-3.5.49.97-6.99,3.5Z"/>
      <path class="cls-1" d="m476.45,82.53l-.49-.97,3.51-1.75.49.98-3.51,1.75Z"/>
      <path class="cls-1" d="m358.15,204.38l-.97-.49,8.86-17.73,66.2-33.1,26.08-52.16.98.49-26.24,52.48-66.2,33.11-8.7,17.4Z"/>
      <path class="cls-1" d="m333.63,253.24l-.29-.47-.48-.24,22.57-45.14.97.49-22.64,45.28-.13.08Z"/>
      <path class="cls-1" d="m209.45,364.98l-.49-.98,24.67-12.33,29.41-58.82.97.49-29.57,59.15-24.99,12.5Z"/>
      <path class="cls-1" d="m486.13,71.84l-.49-.98,10.48-5.24.49.97-10.48,5.24Z"/>
      <path class="cls-1" d="m455.19,97.9l-.97-.49,5.31-10.62.98.49-5.31,10.62Z"/>
      <path class="cls-1" d="m352.3,204.39l-.98-.49,10.82-21.64,66.2-33.1,22.38-44.75.98.49-22.54,45.08-66.2,33.1-10.65,21.31Z"/>
      <path class="cls-1" d="m331.21,246.55l-.98-.49,1.83-3.66.97.49-1.83,3.66Z"/>
      <path class="cls-1" d="m212.13,357.79l-.49-.97,18.09-9.04,29.2-58.41.98.49-29.36,58.73-18.42,9.21Z"/>
      <path class="cls-1" d="m485.31,66.39l-.49-.97,20.97-10.48.49.97-20.97,10.48Z"/>
      <path class="cls-1" d="m451.08,94.42l-.97-.49,5.3-10.6.97.49-5.3,10.6Z"/>
      <path class="cls-1" d="m368.32,174.54l-.49-.98,56.61-28.3,23.91-47.83.98.49-24.08,48.16-56.94,28.47Z"/>
      <path class="cls-1" d="m351.69,193.9l-.98-.49,7.37-14.73.98.49-7.36,14.73Z"/>
      <path class="cls-1" d="m211.31,352.35l-.49-.97,15.01-7.5,28.99-57.99.97.49-29.16,58.31-15.33,7.67Z"/>
      <path class="cls-1" d="m491.48,57.45l-.49-.97,28.85-14.43.94-1.88.98.49-1.1,2.2-29.18,14.59Z"/>
      <path class="cls-1" d="m364,170.84l-.49-.98,57.02-28.51,28.97-57.94.97.49-29.13,58.27-57.35,28.67Z"/>
      <path class="cls-1" d="m351.08,183.4l-.98-.49,3.96-7.92.97.49-3.96,7.92Z"/>
      <path class="cls-1" d="m214.01,345.15l-.49-.97,8.4-4.2,28.78-57.56.97.49-28.95,57.89-8.73,4.37Z"/>
      <path class="cls-1" d="m423.37,126.41l-.97-.49,22.74-45.47.98.49-22.74,45.47Z"/>
      <path class="cls-1" d="m415.46,139.26l-.49-.98,1.66-.83,4.01-8.01.98.49-4.17,8.34-1.99.99Z"/>
      <path class="cls-1" d="m362.68,165.65l-.49-.98,49.01-24.5.49.97-49.01,24.51Z"/>
      <path class="cls-1" d="m212.71,339.94l-.49-.97,5.8-2.9,30.09-60.17.97.49-30.25,60.5-6.13,3.06Z"/>
      <path class="cls-1" d="m420.81,119.84l-.97-.49,20.98-41.97.98.49-20.98,41.97Z"/>
      <path class="cls-1" d="m378.93,151.67l-.49-.98,17.47-8.74.49.97-17.47,8.74Z"/>
      <path class="cls-1" d="m368.45,156.91l-.49-.98,6.99-3.49.49.98-6.99,3.49Z"/>
      <path class="cls-1" d="m211.57,334.66l-.49-.98,3.03-1.52,27.9-55.8.98.49-28.06,56.13-3.36,1.68Z"/>
      <path class="cls-1" d="m423.49,102.78l-.98-.49,15.75-31.5.97.49-15.75,31.5Z"/>
      <path class="cls-1" d="m419.99,109.76l-.97-.49,1.75-3.5.97.49-1.75,3.5Z"/>
      <path class="cls-1" d="m412.97,123.8l-.97-.49,1.76-3.53.97.49-1.76,3.53Z"/>
      <path class="cls-1" d="m398.68,135.94l-.49-.97,10.78-5.39.49.98-10.77,5.39Z"/>
      <path class="cls-1" d="m391.67,139.45l-.49-.98,3.5-1.75.49.98-3.5,1.75Z"/>
      <path class="cls-1" d="m356.72,156.92l-.49-.97,17.48-8.74.49.98-17.48,8.74Z"/>
      <path class="cls-1" d="m206.79,331.19l-.49-.98,3.91-1.96,27.48-54.97.97.49-27.65,55.29-4.24,2.12Z"/>
      <path class="cls-1" d="m386.94,135.96l-.49-.98,18.47-9.23,27.25-54.51.98.49-27.41,54.83-18.79,9.4Z"/>
      <path class="cls-1" d="m355.49,151.68l-.49-.97,17.47-8.74.49.97-17.47,8.74Z"/>
      <path class="cls-1" d="m202.03,327.71l-.49-.98,4.77-2.38,27.06-54.13.98.49-27.23,54.46-5.1,2.55Z"/>
      <path class="cls-1" d="m389.21,128.97l-.49-.98,12.3-6.15,25.08-50.17.98.49-25.25,50.49-12.62,6.31Z"/>
      <path class="cls-1" d="m357.75,144.7l-.49-.98,10.48-5.24.49.98-10.48,5.24Z"/>
      <path class="cls-1" d="m343.73,151.7l-.49-.98,10.52-5.26.49.98-10.52,5.26Z"/>
      <path class="cls-1" d="m201.01,322.38l-.49-.98,1.9-.95,26.65-53.31.98.49-26.81,53.63-2.22,1.11Z"/>
      <path class="cls-1" d="m380.98,127.23l-.49-.97,16.63-8.32,21.17-42.35.98.49-21.34,42.67-16.96,8.48Z"/>
      <path class="cls-1" d="m346.02,144.71l-.49-.98,17.48-8.74.49.98-17.48,8.74Z"/>
      <path class="cls-1" d="m196.16,318.95l-.49-.98,2.84-1.42,24.49-48.97.98.49-24.65,49.3-3.16,1.58Z"/>
      <path class="cls-1" d="m383.25,120.24l-.49-.98,10.45-5.22,17.27-34.53.97.49-17.43,34.86-10.77,5.39Z"/>
      <path class="cls-1" d="m351.78,135.98l-.49-.98,13.98-6.99.49.98-13.98,6.99Z"/>
      <path class="cls-1" d="m195.25,313.55l-.28-.52-.44-.22,25.9-51.81.98.49-25.99,51.97-.17.08Z"/>
      <path class="cls-1" d="m382.03,115l-.49-.98,7.77-3.88.98-1.97.98.49-1.15,2.29-8.09,4.05Z"/>
      <path class="cls-1" d="m354.04,128.99l-.49-.98,10.48-5.24.49.98-10.49,5.24Z"/>
      <path class="cls-1" d="m190.97,309.83l-.49-.97.22-.11,21.91-43.82.97.49-22.07,44.14-.55.27Z"/>
      <path class="cls-1" d="m211.02,258.84l-.97-.49,1.75-3.5.97.49-1.75,3.5Z"/>
      <path class="cls-1" d="m190,300.88l-.98-.49,17.52-35.05.98.49-17.52,35.05Z"/>
      <path class="cls-1" d="m204.48,260.22l-.98-.49,3.5-6.99.98.49-3.5,6.99Z"/>
      <path class="cls-1" d="m197.49,274.2l-.97-.49,1.75-3.5.98.49-1.75,3.5Z"/>
      <path class="cls-1" d="m200.37,256.73l-.98-.49,1.74-3.49.98.49-1.74,3.49Z"/>
      <path class="cls-1" d="m189.88,277.7l-.97-.49,3.5-6.99.98.49-3.5,6.99Z"/>
      <path class="cls-1" d="m196.26,253.24l-.98-.49,3.5-6.99.98.49-3.5,6.99Z"/>
      <path class="cls-1" d="m185.77,274.21l-.98-.49,1.75-3.49.98.49-1.75,3.49Z"/>
      <path class="cls-1" d="m193.21,247.63l-.97-.49,3.5-6.99.97.49-3.5,6.99Z"/>
      <path class="cls-1" d="m189.72,254.62l-.98-.49,1.75-3.5.97.49-1.74,3.5Z"/>
      <path class="cls-1" d="m182.73,268.6l-.97-.49,5.24-10.48.97.49-5.24,10.49Z"/>
      <path class="cls-1" d="m322.73,109.52l-.49-.98,20.97-10.48.49.98-20.97,10.48Z"/>
      <path class="cls-1" d="m189.72,242.9l-.97-.49,1.75-3.49.97.49-1.75,3.49Z"/>
      <path class="cls-1" d="m177.49,267.36l-.97-.49,5.24-10.48.97.49-5.24,10.49Z"/>
      <path class="cls-1" d="m317.91,106.08l-.49-.98,24.46-12.23.49.97-24.46,12.23Z"/>
      <path class="cls-1" d="m190.6,229.42l-.98-.49,1.76-3.51.98.49-1.76,3.51Z"/>
      <path class="cls-1" d="m183.61,243.41l-.98-.49,1.75-3.49.98.49-1.75,3.49Z"/>
      <path class="cls-1" d="m173.13,264.38l-.97-.49,3.5-6.99.98.49-3.5,6.99Z"/>
      <path class="cls-1" d="m314.42,101.97l-.49-.98,6.99-3.49.49.98-6.99,3.49Z"/>
      <path class="cls-1" d="m186.91,225.11l-.98-.49,6.65-13.3,11.36-5.68.49.98-11.04,5.52-6.49,12.97Z"/>
      <path class="cls-1" d="m167.68,263.56l-.98-.49,10.49-20.97.97.49-10.49,20.97Z"/>
      <path class="cls-1" d="m314.43,96.11l-.49-.98,3.49-1.74.49.98-3.49,1.74Z"/>
      <path class="cls-1" d="m181.46,224.29l-.98-.49,8.19-16.38,15.29-7.64.48.98-14.95,7.48-8.03,16.06Z"/>
      <path class="cls-1" d="m163.99,259.24l-.98-.49,8.74-17.48.97.49-8.74,17.48Z"/>
      <path class="cls-1" d="m275.42,123.98l-.98-.49,3.5-7,.98.49-3.5,7Z"/>
      <path class="cls-1" d="m250.5,171.87l-.49-.97.97-.49,2.45-4.9.98.49-2.61,5.22-1.29.65Z"/>
      <path class="cls-1" d="m176.02,223.47l-.97-.49,9.73-19.47,22.69-11.35.49.97-22.36,11.18-9.57,19.14Z"/>
      <path class="cls-1" d="m158.54,258.43l-.98-.49,3.5-7.01.97.49-3.5,7.01Z"/>
      <path class="cls-1" d="m307.45,87.89l-.49-.98,13.97-6.99.49.98-13.97,6.99Z"/>
      <path class="cls-1" d="m269.97,123.16l-.98-.49,11.18-22.37,19.79-9.89.49.97-19.47,9.73-11.02,22.04Z"/>
      <path class="cls-1" d="m247.36,167.59l-.49-.98.21-.1,2.66-5.32.97.49-2.82,5.65-.53.26Z"/>
      <path class="cls-1" d="m225.44,178.55l-.49-.98,14.01-7.01.49.97-14.01,7.01Z"/>
      <path class="cls-1" d="m168.83,226.15l-.97-.49,13.02-26.05,37.08-18.54.49.97-36.75,18.38-12.86,25.72Z"/>
      <path class="cls-1" d="m153.09,257.63l-.98-.49,5.26-10.51.98.49-5.26,10.51Z"/>
      <path class="cls-1" d="m266.28,118.84l-.98-.49,10.97-21.95,44.67-22.34.49.98-44.34,22.17-10.81,21.62Z"/>
      <path class="cls-1" d="m239.53,165.65l-.49-.98,4.13-2.06,4.64-9.28.97.49-4.8,9.61-4.46,2.23Z"/>
      <path class="cls-1" d="m163.39,225.32l-.98-.49,14.57-29.12,51.48-25.74.49.97-51.15,25.58-14.4,28.8Z"/>
      <path class="cls-1" d="m149.4,253.31l-.98-.49,5.25-10.51.98.49-5.25,10.51Z"/>
      <path class="cls-1" d="m260.84,118.02l-.97-.49,12.52-25.03,48.58-24.29.49.97-48.25,24.13-12.35,24.71Z"/>
      <path class="cls-1" d="m241.51,156.67l-.98-.49,5.34-10.69.98.49-5.35,10.69Z"/>
      <path class="cls-1" d="m143.94,252.52l-.98-.49,30.11-60.23,62.5-31.25.49.98-62.18,31.09-29.95,59.9Z"/>
      <path class="cls-1" d="m257.14,113.7l-.97-.49,12.31-24.62,56-28,.49.97-55.68,27.84-12.15,24.29Z"/>
      <path class="cls-1" d="m138.43,251.83l-.97-.49,31.72-63.44,66.2-33.1,6.81-13.62.98.49-6.97,13.95-66.2,33.1-31.55,63.11Z"/>
      <path class="cls-1" d="m253.45,109.39l-.97-.49,12.1-24.2,63.58-31.79.49.98-63.26,31.63-11.94,23.88Z"/>
      <path class="cls-1" d="m136.55,243.87l-.98-.49,29.69-59.38,66.21-33.1,5.26-10.53.97.49-5.43,10.85-66.21,33.1-29.53,59.05Z"/>
      <path class="cls-1" d="m251.5,101.58l-.98-.49,10.15-20.3,66.22-33.13h.02s.12-.05.12-.05l.08.16.75.38-.18.36-.16.08-66.04,33.02-9.99,19.97Z"/>
      <path class="cls-1" d="m132.86,239.55l-.98-.49,29.48-58.96,66.2-33.1,7.22-14.45.98.49-7.39,14.78-66.2,33.1-29.32,58.64Z"/>
      <path class="cls-1" d="m338.48,15.21l-.98-.49,5.3-10.6.97.49-5.3,10.6Z"/>
      <path class="cls-1" d="m251.3,90.26l-.97-.49,6.44-12.88,66.2-33.1,5.78-11.55.98.49-5.94,11.88-66.2,33.1-6.28,12.56Z"/>
      <path class="cls-1" d="m129.16,235.23l-.98-.49,29.27-58.54,66.2-33.11,7.43-14.86.97.49-7.6,15.19-66.2,33.11-29.11,58.22Z"/>
      <path class="cls-1" d="m249.36,82.43l-.98-.49,4.47-8.95,66.2-33.1,16.51-33.02.98.49-16.67,33.35-66.2,33.1-4.31,8.63Z"/>
      <path class="cls-1" d="m121.52,238.81l-.98-.49,33.01-66.02,66.2-33.1,7.64-15.28.97.49-7.8,15.61-66.2,33.1-32.85,65.7Z"/>
      <path class="cls-1" d="m247.44,74.56l-.97-.49,2.49-4.98,66.21-33.1,14.98-29.96.97.49-15.14,30.28-66.21,33.1-2.33,4.66Z"/>
      <path class="cls-1" d="m233.42,102.61l-.97-.49,1.74-3.5.97.49-1.74,3.5Z"/>
      <path class="cls-1" d="m226.43,116.58l-.97-.49,1.75-3.5.97.49-1.75,3.5Z"/>
      <path class="cls-1" d="m194.03,147.42l-.49-.97,22.32-11.16,4.34-8.68.98.49-4.5,9-22.64,11.32Z"/>
      <path class="cls-1" d="m120,230.13l-.97-.49,30.63-61.26,40.39-20.2.49.97-40.07,20.03-30.47,60.93Z"/>
      <path class="cls-1" d="m247.8,65.03l-.49-.98,63.94-31.97,11.68-23.35.97.49-11.84,23.68-64.27,32.14Z"/>
      <path class="cls-1" d="m219.24,119.26l-.98-.49,13.98-27.97.97.49-13.98,27.97Z"/>
      <path class="cls-1" d="m197.54,139.82l-.49-.98,14.9-7.45,4.55-9.1.97.49-4.71,9.42-15.23,7.62Z"/>
      <path class="cls-1" d="m114.42,229.59l-.98-.49,32.31-64.62,44.3-22.15.49.97-43.98,21.99-32.14,64.29Z"/>
      <path class="cls-1" d="m244.39,60.88l-.49-.98,63.46-31.73,13.73-27.45.98.49-13.89,27.78-63.78,31.89Z"/>
      <path class="cls-1" d="m215.54,114.95l-.98-.49,12.24-24.47.97.49-12.24,24.47Z"/>
      <path class="cls-1" d="m197.55,133.95l-.49-.98,10.98-5.49,4.76-9.51.97.49-4.92,9.84-11.31,5.66Z"/>
      <path class="cls-1" d="m112.62,221.48l-.98-.49,30.2-60.41,41.23-20.61.49.98-40.9,20.44-30.04,60.09Z"/>
      <path class="cls-1" d="m244.56,54.94l-.49-.98,59.38-29.69,11.89-23.77.98.49-12.05,24.1-59.71,29.85Z"/>
      <path class="cls-1" d="m211.85,110.63l-.98-.49,10.49-20.97.98.49-10.49,20.97Z"/>
      <path class="cls-1" d="m197.59,128.08l-.49-.97,7.05-3.52,4.96-9.93.97.49-5.13,10.26-7.37,3.68Z"/>
      <path class="cls-1" d="m108.93,217.16l-.98-.49,29.99-59.99,38.14-19.07.49.98-37.81,18.91-29.83,59.66Z"/>
      <path class="cls-1" d="m241.08,50.83l-.49-.98,58.96-29.48,10.19-20.38.97.49-10.35,20.7-59.29,29.64Z"/>
      <path class="cls-1" d="m206.4,109.82l-.98-.49,13.99-27.98.98.49-13.99,27.98Z"/>
      <path class="cls-1" d="m197.72,122.16l-.49-.98,3.01-1.51,1.61-3.22.97.49-1.77,3.55-3.34,1.67Z"/>
      <path class="cls-1" d="m105.24,212.83l-.98-.49,29.79-59.57,35.06-17.53.49.98-34.74,17.37-29.62,59.24Z"/>
      <path class="cls-1" d="m232.26,49.39l-.49-.98,63.88-31.94,8.23-16.47.98.49-8.4,16.8-64.2,32.1Z"/>
      <path class="cls-1" d="m208.9,93.11l-.97-.49,8.74-17.47.98.49-8.74,17.47Z"/>
      <path class="cls-1" d="m200.13,110.65l-.97-.49,3.52-7.05.98.49-3.52,7.05Z"/>
      <path class="cls-1" d="m192.56,118.89l-.49-.98,4.27-2.13.94-1.89.98.49-1.11,2.21-4.59,2.3Z"/>
      <path class="cls-1" d="m100.73,210.14l-.98-.49,30.39-60.78,33.87-16.94.49.98-33.55,16.78-30.23,60.45Z"/>
      <path class="cls-1" d="m226.19,46.56l-.24-.48-.52-.17.07-.22,66.24-33.12,6.29-12.57.98.49-6.45,12.89-66.37,33.18Z"/>
      <path class="cls-1" d="m201.91,95.37l-.98-.49,10.48-20.97.98.49-10.48,20.97Z"/>
      <path class="cls-1" d="m182.41,118.11l-.49-.98,10.67-5.33.49.98-10.67,5.33Z"/>
      <path class="cls-1" d="m97.25,205.4l-.98-.49,29.97-59.94,34.7-17.35.49.98-34.37,17.19-29.8,59.61Z"/>
      <path class="cls-1" d="m219.42,48.64l-.98-.49,3.19-6.39,66.2-33.1,4.33-8.67.98.49-4.5,8.99-66.2,33.1-3.03,6.06Z"/>
      <path class="cls-1" d="m201.92,83.65l-.97-.49,6.99-13.97.97.49-6.99,13.98Z"/>
      <path class="cls-1" d="m179.34,113.79l-.49-.98,9.85-4.92.22.45.53.24-.08.16-.19.13-9.85,4.92Z"/>
      <path class="cls-1" d="m95.53,197.13l-.98-.49,27.79-55.57,39.02-19.51.48.97-38.69,19.35-27.62,55.25Z"/>
      <path class="cls-1" d="m215.94,43.89l-.98-.49,2.77-5.54L283.94,4.76l2.38-4.76.98.49-2.55,5.09-66.2,33.1-2.61,5.21Z"/>
      <path class="cls-1" d="m196.68,82.41l-.97-.49,6.99-13.98.97.49-6.99,13.98Z"/>
      <path class="cls-1" d="m95.54,185.39l-.98-.49,23.87-47.74,66.2-33.1,4.07-8.13.97.49-4.23,8.46-66.2,33.1-23.71,47.41Z"/>
      <path class="cls-1" d="m210.69,42.7l-.98-.49,4.13-8.25L280.2.78l.12.25.67.34-.15.31-.16.08-66.04,33.02-3.96,7.92Z"/>
      <path class="cls-1" d="m95.55,173.67l-.98-.49,19.96-39.92,66.2-33.1,18.48-36.95.98.49-18.64,37.28-66.2,33.1-19.8,39.59Z"/>
      <path class="cls-1" d="m224.15,24.17l-.49-.98,34.97-17.49.49.98-34.97,17.49Z"/>
      <path class="cls-1" d="m207.2,37.96l-.97-.49,1.79-3.59.98.49-1.79,3.59Z"/>
      <path class="cls-1" d="m93.81,165.45l-.98-.49,17.8-35.6,66.2-33.1,17.14-34.28.98.49-17.3,34.61-66.2,33.1-17.63,35.27Z"/>
      <path class="cls-1" d="m224.58,18.1l-.49-.98,10.49-5.24.49.98-10.49,5.25Z"/>
      <path class="cls-1" d="m201.96,36.74l-.98-.49,5.05-10.1,7.53-3.77.49.98-7.21,3.61-4.89,9.77Z"/>
      <path class="cls-1" d="m191.46,57.73l-.98-.49,6.99-13.98.97.49-6.99,13.98Z"/>
      <path class="cls-1" d="m177.46,85.74l-.98-.49,10.5-21.01.98.49-10.5,21.01Z"/>
      <path class="cls-1" d="m88.57,164.21l-.98-.49,19.13-38.26,66.2-33.1,1.76-3.52.98.49-1.92,3.85-66.2,33.1-18.97,37.94Z"/>
      <path class="cls-1" d="m184.48,59.99l-.97-.49,18.63-37.25,32.9-16.45.49.98-32.57,16.29-18.47,36.92Z"/>
      <path class="cls-1" d="m173.98,81l-.98-.49,8.76-17.51.97.49-8.76,17.51Z"/>
      <path class="cls-1" d="m86.83,155.99l-.98-.49,16.97-33.94,66.21-33.1.05-.11.08.04h.03s.02.03.02.03l.85.42-.22.43-66.2,33.1-16.81,33.61Z"/>
      <path class="cls-1" d="m184.48,48.28l-.97-.49,14.72-29.44,26.75-13.37.49.98-26.42,13.21-14.56,29.11Z"/>
      <path class="cls-1" d="m177.49,62.26l-.97-.49,5.24-10.49.97.49-5.24,10.48Z"/>
      <path class="cls-1" d="m170.49,76.26l-.97-.49,5.26-10.51.97.49-5.26,10.51Z"/>
      <path class="cls-1" d="m150.39,93.14l-.49-.98,15.22-7.61.7-1.4.98.49-.86,1.73-15.55,7.78Z"/>
      <path class="cls-1" d="m81.59,154.76l-.98-.49,18.31-36.61,43.98-21.99.49.98-43.66,21.83-18.14,36.29Z"/>
      <path class="cls-1" d="m177.29,50.95l-.97-.49,18.01-36.02,16.67-8.33.49.98-16.34,8.17-17.85,35.69Z"/>
      <path class="cls-1" d="m172.05,61.43l-.97-.48,3.5-6.99.97.49-3.5,6.99Z"/>
      <path class="cls-1" d="m166.79,71.95l-.98-.49,1.76-3.51.98.49-1.76,3.51Z"/>
      <path class="cls-1" d="m157.48,83.74l-.49-.98,4.22-2.11,2.83-5.66.98.49-2.99,5.98-4.55,2.27Z"/>
      <path class="cls-1" d="m76.14,153.93l-.98-.49,19.85-39.69,51.39-25.7.49.98-51.07,25.54-19.69,39.37Z"/>
      <path class="cls-1" d="m175.34,43.14l-.97-.49,16.05-32.11,10.08-5.04.49.98-9.75,4.88-15.89,31.78Z"/>
      <path class="cls-1" d="m166.61,60.62l-.98-.49,6.99-13.98.98.49-6.99,13.98Z"/>
      <path class="cls-1" d="m157.97,77.64l-.3-.52-.43-.21,6.64-13.28.98.49-6.73,13.45-.16.08Z"/>
      <path class="cls-1" d="m125.93,93.66l-.49-.98,17.48-8.74.49.98-17.48,8.74Z"/>
      <path class="cls-1" d="m74.2,146.12l-.98-.49,17.89-35.79,27.34-13.67.49.97-27.02,13.51-17.73,35.46Z"/>
      <path class="cls-1" d="m171.65,38.83l-.98-.49,15.85-31.7.29-.15.32.66.28.13-15.77,31.53Z"/>
      <path class="cls-1" d="m164.66,52.8l-.98-.49,5.24-10.49.98.49-5.24,10.48Z"/>
      <path class="cls-1" d="m161.16,59.8l-.98-.49,1.75-3.5.98.49-1.75,3.5Z"/>
      <path class="cls-1" d="m157.64,66.84l-.98-.49,1.76-3.53.98.49-1.76,3.53Z"/>
      <path class="cls-1" d="m146.95,77.3l-.49-.98,6.95-3.47,1.44-2.88.98.49-1.6,3.2-7.28,3.64Z"/>
      <path class="cls-1" d="m70.5,141.81l-.98-.49,17.69-35.37,52.23-26.11.49.98-51.9,25.95-17.52,35.05Z"/>
      <path class="cls-1" d="m166.2,38l-.98-.49,12.24-24.49.98.49-12.24,24.49Z"/>
      <path class="cls-1" d="m162.71,44.99l-.98-.49,1.75-3.49.98.49-1.75,3.49Z"/>
      <path class="cls-1" d="m159.22,51.98l-.98-.49,1.75-3.5.98.49-1.75,3.5Z"/>
      <path class="cls-1" d="m155.71,58.99l-.98-.49,1.75-3.51.97.49-1.75,3.51Z"/>
      <path class="cls-1" d="m143.47,73.18l-.49-.98,6.53-3.26,1.66-3.32.97.49-1.83,3.65-6.86,3.43Z"/>
      <path class="cls-1" d="m66.81,137.49l-.97-.49,17.48-34.96,56.15-28.07.49.98-55.82,27.91-17.31,34.63Z"/>
      <path class="cls-1" d="m164.25,30.19l-.98-.49,8.75-17.49.97.49-8.75,17.49Z"/>
      <path class="cls-1" d="m157.27,44.17l-.98-.49,3.5-6.99.98.49-3.49,6.99Z"/>
      <path class="cls-1" d="m148.47,61.77l-.98-.49,5.3-10.61.97.49-5.3,10.61Z"/>
      <path class="cls-1" d="m143.64,67.24l-.49-.97,2.62-1.31.22.44.54.23-.08.16-.2.15-2.62,1.31Z"/>
      <path class="cls-1" d="m108.48,84.83l-.49-.98,31.51-15.76.49.98-31.51,15.76Z"/>
      <path class="cls-1" d="m61.36,136.67l-.97-.49,19.02-38.04,18.1-9.05.49.98-17.77,8.89-18.85,37.71Z"/>
      <path class="cls-1" d="m157.07,32.86l-.98-.49,6.99-13.98.98.49-6.99,13.98Z"/>
      <path class="cls-1" d="m153.57,39.85l-.97-.48,1.75-3.5.98.49-1.75,3.49Z"/>
      <path class="cls-1" d="m144.78,57.43l-.97-.49,3.54-7.08.98.49-3.54,7.08Z"/>
      <path class="cls-1" d="m108.48,78.97l-.49-.98,10.48-5.24.49.98-10.48,5.24Z"/>
      <path class="cls-1" d="m98,84.21l-.49-.98,6.99-3.5.49.98-6.99,3.5Z"/>
      <path class="cls-1" d="m57.67,132.35l-.97-.49,18.81-37.62,15.01-7.51.49.97-14.69,7.34-18.65,37.3Z"/>
      <path class="cls-1" d="m151.62,32.04l-.97-.49,1.75-3.5.97.49-1.75,3.5Z"/>
      <path class="cls-1" d="m146.38,42.53l-.97-.49,3.5-7,.97.49-3.5,7Z"/>
      <path class="cls-1" d="m133.03,60.84l-.49-.97,5.26-2.63,4.09-8.18.97.49-4.25,8.5-5.59,2.79Z"/>
      <path class="cls-1" d="m91.02,81.85l-.49-.97,24.46-12.23.49.98-24.46,12.23Z"/>
      <path class="cls-1" d="m52.23,131.53l-.98-.49,19.4-38.81.97.49-19.4,38.81Z"/>
      <path class="cls-1" d="m146.18,31.21l-.97-.49,3.5-7,.98.49-3.5,7Z"/>
      <path class="cls-1" d="m140.93,41.71l-.98-.49,3.5-7,.97.49-3.5,7Z"/>
      <path class="cls-1" d="m137.4,48.77l-.98-.49,1.77-3.55.97.49-1.77,3.55Z"/>
      <path class="cls-1" d="m115.48,63.76l-.49-.98,18.91-9.45.55-1.1.97.49-.71,1.43-19.23,9.61Z"/>
      <path class="cls-1" d="m91.02,75.99l-.49-.98,17.47-8.74.49.98-17.47,8.74Z"/>
      <path class="cls-1" d="m46.78,130.71l-.98-.49,17.49-34.97.98.48-17.49,34.98Z"/>
      <path class="cls-1" d="m137.24,37.39l-.98-.49,1.76-3.51.97.49-1.75,3.51Z"/>
      <path class="cls-1" d="m126.08,52.61l-.49-.98,4.41-2.2.86-1.72.98.49-1.02,2.05-4.74,2.37Z"/>
      <path class="cls-1" d="m108.5,61.4l-.49-.98,14.02-7.01.49.98-14.02,7.01Z"/>
      <path class="cls-1" d="m94.52,68.39l-.49-.97,6.99-3.5.49.98-6.99,3.5Z"/>
      <path class="cls-1" d="m39.59,133.38l-.97-.49,19.23-38.46.97.49-19.23,38.46Z"/>
      <path class="cls-1" d="m101.52,59.04l-.49-.97,25.07-12.54,4.72-9.43.97.49-4.88,9.76-25.39,12.7Z"/>
      <path class="cls-1" d="m28.77,143.32l-.98-.48,24.6-49.21.98.49-24.6,49.21Z"/>
      <path class="cls-1" d="m115.55,46.17l-.49-.98,7.13-3.56,1.34-2.69.98.49-1.51,3.02-7.46,3.73Z"/>
      <path class="cls-1" d="m98.03,54.93l-.49-.98,14-7,.49.97-14,7Z"/>
      <path class="cls-1" d="m5.41,150.89l-.49-.98,17.97-8.98,24.06-48.13.98.49-24.22,48.45-18.3,9.14Z"/>
      <path class="cls-1" d="m16.13,139.67l-.48-.97,3.34-1.67,22.52-45.04.97.49-22.68,45.37-3.67,1.83Z"/>
      <path class="cls-1" d="m9.02,137.38l-.48-.98,6.55-3.28,20.98-41.96.97.49-21.14,42.29-6.88,3.44Z"/>
      <path class="cls-1" d="m1.28,135.39l-.49-.98,10.38-5.19,19.44-38.88.98.49-19.6,39.21-10.71,5.35Z"/>
      <path class="cls-1" d="m12.15,118l-.98-.49,15.75-31.49.98.49-15.75,31.49Z"/>
      <path class="cls-1" d="m5.7,127.33l-.49-.98,2.06-1.03,2.12-4.24.98.49-2.28,4.57-2.39,1.19Z"/>
      <path class="cls-1" d="m4.27,122.07l-.98-.48,16.44-32.89.98.49L4.27,122.07Z"/>
      <path class="cls-1" d="m6.6,105.7l-.98-.49,5.25-10.5.98.49-5.25,10.5Z"/>
      <path class="cls-1" d="m.98,116.95l-.98-.49,2.09-4.19.98.49-2.09,4.19Z"/>
    </g>
  </g>
</svg>