<?xml version="1.0" encoding="UTF-8"?>
<svg id="Layer_2" data-name="Layer 2" xmlns="http://www.w3.org/2000/svg" viewBox="0 0 18.38 24.51">
  <defs>
    <style>
      .cls-1 {
        fill: #db3e51;
      }
    </style>
  </defs>
  <g id="Layer_1-2" data-name="Layer 1">
    <path class="cls-1" d="m9.19,0C4.12,0,0,4.12,0,9.19c0,2,.66,3.83,1.74,5.34.02.04.02.08.04.11l6.13,9.19c.28.43.76.68,1.27.68s.99-.26,1.27-.68l6.13-9.19s.03-.07.04-.11c1.09-1.5,1.74-3.34,1.74-5.34C18.38,4.12,14.27,0,9.19,0Zm0,12.26c-1.69,0-3.06-1.37-3.06-3.06s1.37-3.06,3.06-3.06,3.06,1.37,3.06,3.06-1.37,3.06-3.06,3.06Z"/>
  </g>
</svg>