<?xml version="1.0" encoding="UTF-8"?>
<svg id="Layer_2" data-name="Layer 2" xmlns="http://www.w3.org/2000/svg" viewBox="0 0 25.36 23.73">
  <defs>
    <style>
      .cls-1 {
        fill: #017373;
      }
    </style>
  </defs>
  <g id="Layer_1-2" data-name="Layer 1">
    <g>
      <path class="cls-1" d="m.25,3.73c-.01.92.37,1.81,1.05,2.47l3.24,3.16c.14.13.28.27.31.32.02.03.03.06.03.1,0,.05-.05.23-.09.42l-2.02,8.12c-.1.4-.15.64-.13.93.02.26.1.51.23.74.14.26.33.44.64.72l.43.4c.81.76,1.26,1.17,1.9,1.27.56.1,1.13-.03,1.59-.34.52-.36.72-.92,1.09-1.93l1.89-5.26,2.88,2.68c.13.11.26.24.28.28.02.02.03.05.03.08,0,.04-.02.21-.04.38l-.21,1.79c-.04.35-.07.57-.03.82.04.23.12.45.24.65.14.23.31.39.58.63l.23.22c.64.6,1,.93,1.54,1.06.18.04.35.06.52.06.31,0,.62-.06.9-.19.51-.23.78-.61,1.29-1.32l1.83-2.55c.04-.06.09-.12.1-.13l.03-.03.14-.09,2.75-1.7c.73-.45,1.18-.73,1.42-1.2.21-.41.26-.88.14-1.32-.14-.5-.5-.83-1.14-1.43l-.23-.22c-.26-.24-.43-.4-.68-.53-.21-.11-.45-.19-.69-.23-.28-.04-.51-.02-.89.02l-1.93.2c-.18.02-.37.04-.41.03-.03,0-.06-.01-.09-.03-.04-.02-.17-.15-.3-.26l-2.88-2.68,5.66-1.75c1.09-.34,1.69-.52,2.08-1.01.34-.42.47-.96.38-1.47-.11-.6-.56-1.01-1.37-1.77l-.43-.4c-.31-.29-.5-.46-.78-.6-.25-.12-.52-.19-.8-.21-.31-.02-.57.03-1,.12l-8.71,1.86c-.2.04-.4.09-.45.09h0s-.07,0-.11-.03c-.04-.03-.19-.17-.33-.3l-3.16-3.04c-.71-.68-1.67-1.06-2.7-1.07-1.03,0-1.99.36-2.71,1.03C.66,1.94.26,2.81.25,3.73Zm2.35,1.32c-.74-.72-.73-1.89.04-2.6.38-.35.88-.55,1.41-.55h.02c.54,0,1.05.21,1.42.57l3.17,3.04c.3.29.48.46.75.6.26.13.55.22.85.23.31.02.56-.03.99-.12l8.71-1.87c.2-.04.41-.09.46-.09.04,0,.07.01.1.03.05.02.2.16.34.3l.43.4c.4.37.81.75.88.89.01.06,0,.12-.04.17-.13.1-.68.27-1.22.44l-7.04,2.18c-.29.09-.52.32-.59.59-.07.28.02.58.24.78l3.91,3.63c.26.24.43.4.68.53.22.11.45.19.7.23.27.04.51.01.89-.02l1.93-.2c.18-.02.36-.04.41-.03.03,0,.06.01.09.03.04.02.17.14.29.26l.23.21c.3.29.62.58.68.68.02.05.01.11-.02.16-.08.1-.45.33-.81.55l-2.74,1.7c-.13.08-.22.13-.31.21-.08.07-.16.14-.23.22-.08.09-.14.17-.23.29l-1.83,2.55c-.24.33-.49.68-.59.75-.06.02-.11.03-.17.02-.11-.05-.43-.34-.74-.63l-.23-.22c-.12-.12-.26-.24-.28-.28-.02-.02-.03-.05-.03-.08,0-.04.02-.22.04-.38l.22-1.8c.04-.35.07-.57.02-.82-.04-.23-.12-.45-.24-.64-.14-.23-.31-.39-.57-.63l-3.9-3.63c-.22-.21-.54-.29-.84-.22-.3.06-.55.27-.64.55l-2.35,6.54c-.18.49-.36,1.01-.46,1.13-.06.03-.12.05-.19.04-.15-.07-.56-.45-.96-.82l-.43-.4c-.14-.13-.29-.27-.32-.32-.02-.03-.03-.06-.03-.1,0-.05.05-.24.09-.43l2.02-8.12c.09-.37.15-.62.13-.91-.02-.26-.09-.5-.22-.73-.14-.26-.31-.43-.61-.72l-3.24-3.16Z"/>
      <path class="cls-1" d="m15.13,20.23c-.02.16-.04.34-.04.38,0,.03.02.06.03.08.03.04.16.16.28.28l.23.22c.3.28.62.57.74.63.06,0,.11,0,.17-.02.1-.07.35-.42.59-.75l1.83-2.55c.09-.12.14-.2.23-.29.07-.08.14-.15.23-.22.09-.07.18-.12.31-.21l2.74-1.7c.36-.22.73-.45.81-.55.03-.05.03-.11.02-.16-.06-.11-.37-.4-.68-.68l-.23-.21c-.12-.12-.26-.24-.29-.26-.03-.01-.06-.02-.09-.03-.05,0-.23.01-.41.03l-1.93.2c-.38.04-.61.06-.89.02-.25-.04-.48-.11-.7-.23-.24-.13-.41-.29-.68-.53l-3.91-3.63c-.22-.2-.31-.5-.24-.78.07-.28.29-.5.59-.59l7.04-2.18c.54-.17,1.09-.34,1.22-.44.04-.05.05-.11.04-.17-.07-.14-.48-.52-.88-.89l-.43-.4c-.14-.14-.29-.28-.34-.3-.03-.01-.07-.02-.1-.03-.06,0-.26.04-.46.09l-8.71,1.87c-.42.09-.68.14-.99.12-.29-.02-.59-.1-.85-.23-.27-.14-.45-.31-.75-.6l-3.17-3.04c-.38-.36-.88-.56-1.42-.57h-.02c-.54,0-1.04.19-1.41.55-.76.71-.78,1.87-.04,2.6l3.24,3.16c.3.29.47.46.61.72.12.23.2.47.22.73.02.28-.04.53-.13.91l-2.02,8.12c-.05.19-.09.38-.09.43,0,.03.01.07.03.1.03.04.18.18.32.32l.43.4c.4.37.81.75.96.82.07,0,.13,0,.19-.04.1-.12.29-.63.46-1.13l2.35-6.54c.1-.27.34-.48.64-.55.3-.07.62.01.84.22l3.9,3.63c.26.24.43.41.57.63.12.2.21.42.24.64.05.26.02.47-.02.82l-.22,1.8Z"/>
    </g>
  </g>
</svg>