<?xml version="1.0" encoding="UTF-8"?>
<svg id="Layer_2" data-name="Layer 2" xmlns="http://www.w3.org/2000/svg" viewBox="0 0 868.46 486.02">
  <defs>
    <style>
      .cls-1 {
        fill: #017373;
      }
    </style>
  </defs>
  <g id="Layer_1-2" data-name="Layer 1">
    <path class="cls-1" d="m833.96,486.02h-12.03c-.28,0-.5-.22-.5-.5s.22-.5.5-.5h12.17s0,0,0,0c.27,0,.5.22.5.5,0,.28-.22.5-.5.5h-.15Zm-24.06,0h-12.03c-.28,0-.5-.22-.5-.5s.22-.5.5-.5h12.03c.28,0,.5.22.5.5s-.22.5-.5.5Zm-24.06,0h-12.03c-.28,0-.5-.22-.5-.5s.22-.5.5-.5h12.03c.28,0,.5.22.5.5s-.22.5-.5.5Zm-24.06,0h-12.03c-.28,0-.5-.22-.5-.5s.22-.5.5-.5h12.03c.28,0,.5.22.5.5s-.22.5-.5.5Zm-24.06,0h-12.03c-.28,0-.5-.22-.5-.5s.22-.5.5-.5h12.03c.28,0,.5.22.5.5s-.22.5-.5.5Zm-24.06,0h-12.03c-.28,0-.5-.22-.5-.5s.22-.5.5-.5h12.03c.28,0,.5.22.5.5s-.22.5-.5.5Zm-24.06,0h-12.03c-.28,0-.5-.22-.5-.5s.22-.5.5-.5h12.03c.28,0,.5.22.5.5s-.22.5-.5.5Zm-24.06,0h-12.03c-.28,0-.5-.22-.5-.5s.22-.5.5-.5h12.03c.28,0,.5.22.5.5s-.22.5-.5.5Zm-24.06,0h-12.03c-.28,0-.5-.22-.5-.5s.22-.5.5-.5h12.03c.28,0,.5.22.5.5s-.22.5-.5.5Zm-24.06,0h-12.03c-.28,0-.5-.22-.5-.5s.22-.5.5-.5h12.03c.28,0,.5.22.5.5s-.22.5-.5.5Zm-24.06,0h-12.03c-.28,0-.5-.22-.5-.5s.22-.5.5-.5h12.03c.28,0,.5.22.5.5s-.22.5-.5.5Zm-24.06,0h-12.03c-.28,0-.5-.22-.5-.5s.22-.5.5-.5h12.03c.28,0,.5.22.5.5s-.22.5-.5.5Zm-24.06,0h-12.03c-.28,0-.5-.22-.5-.5s.22-.5.5-.5h12.03c.28,0,.5.22.5.5s-.22.5-.5.5Zm-24.06,0h-12.03c-.28,0-.5-.22-.5-.5s.22-.5.5-.5h12.03c.28,0,.5.22.5.5s-.22.5-.5.5Zm-24.06,0h-12.03c-.28,0-.5-.22-.5-.5s.22-.5.5-.5h12.03c.28,0,.5.22.5.5s-.22.5-.5.5Zm-24.06,0h-12.03c-.28,0-.5-.22-.5-.5s.22-.5.5-.5h12.03c.28,0,.5.22.5.5s-.22.5-.5.5Zm-24.06,0h-12.03c-.28,0-.5-.22-.5-.5s.22-.5.5-.5h12.03c.28,0,.5.22.5.5s-.22.5-.5.5Zm-24.06,0h-12.03c-.28,0-.5-.22-.5-.5s.22-.5.5-.5h12.03c.28,0,.5.22.5.5s-.22.5-.5.5Zm-24.06,0h-12.03c-.28,0-.5-.22-.5-.5s.22-.5.5-.5h12.03c.28,0,.5.22.5.5s-.22.5-.5.5Zm-24.06,0h-12.03c-.28,0-.5-.22-.5-.5s.22-.5.5-.5h12.03c.28,0,.5.22.5.5s-.22.5-.5.5Zm-24.06,0h-12.03c-.28,0-.5-.22-.5-.5s.22-.5.5-.5h12.03c.28,0,.5.22.5.5s-.22.5-.5.5Zm-24.06,0h-12.03c-.28,0-.5-.22-.5-.5s.22-.5.5-.5h12.03c.28,0,.5.22.5.5s-.22.5-.5.5Zm-24.06,0h-12.03c-.28,0-.5-.22-.5-.5s.22-.5.5-.5h12.03c.28,0,.5.22.5.5s-.22.5-.5.5Zm-24.06,0h-12.03c-.28,0-.5-.22-.5-.5s.22-.5.5-.5h12.03c.28,0,.5.22.5.5s-.22.5-.5.5Zm-24.06,0h-12.03c-.28,0-.5-.22-.5-.5s.22-.5.5-.5h12.03c.28,0,.5.22.5.5s-.22.5-.5.5Zm-24.06,0h-12.03c-.28,0-.5-.22-.5-.5s.22-.5.5-.5h12.03c.28,0,.5.22.5.5s-.22.5-.5.5Zm-24.06,0h-12.03c-.28,0-.5-.22-.5-.5s.22-.5.5-.5h12.03c.28,0,.5.22.5.5s-.22.5-.5.5Zm-24.06,0h-12.03c-.28,0-.5-.22-.5-.5s.22-.5.5-.5h12.03c.28,0,.5.22.5.5s-.22.5-.5.5Zm-24.06,0h-12.03c-.28,0-.5-.22-.5-.5s.22-.5.5-.5h12.03c.28,0,.5.22.5.5s-.22.5-.5.5Zm-24.06,0h-12.03c-.28,0-.5-.22-.5-.5s.22-.5.5-.5h12.03c.28,0,.5.22.5.5s-.22.5-.5.5Zm-24.06,0h-12.03c-.28,0-.5-.22-.5-.5s.22-.5.5-.5h12.03c.28,0,.5.22.5.5s-.22.5-.5.5Zm-24.06,0h-12.03c-.28,0-.5-.22-.5-.5s.22-.5.5-.5h12.03c.28,0,.5.22.5.5s-.22.5-.5.5Zm-24.06,0h-12.03c-.28,0-.5-.22-.5-.5s.22-.5.5-.5h12.03c.28,0,.5.22.5.5s-.22.5-.5.5Zm-24.06,0h-5.54c-2.2,0-4.4-.21-6.54-.63-.27-.05-.45-.32-.4-.59.05-.27.32-.45.59-.4,2.08.4,4.22.61,6.35.61h5.54c.28,0,.5.22.5.5s-.22.5-.5.5Zm805.83-2.17c-.2,0-.39-.12-.47-.32-.1-.26.03-.55.29-.64,3.7-1.4,7.11-3.43,10.12-6.03.21-.18.52-.16.71.05.18.21.16.52-.05.71-3.1,2.68-6.61,4.78-10.43,6.21-.06.02-.12.03-.18.03Zm-828.98-2.78c-.09,0-.18-.02-.26-.07-3.49-2.13-6.55-4.83-9.11-8.03-.17-.22-.14-.53.08-.7.22-.17.53-.14.7.08,2.48,3.11,5.46,5.73,8.85,7.8.24.14.31.45.17.69-.09.15-.26.24-.43.24Zm846.8-12.63c-.08,0-.17-.02-.24-.06-.24-.13-.33-.44-.19-.68,1.94-3.48,3.22-7.23,3.82-11.15.04-.27.3-.46.57-.42.27.04.46.3.42.57-.62,4.04-1.94,7.9-3.93,11.49-.09.16-.26.26-.44.26ZM2.21,462.66c-.21,0-.4-.13-.47-.34-1.15-3.48-1.74-7.11-1.74-10.79v-1.21c0-.28.22-.5.5-.5s.5.22.5.5v1.21c0,3.58.57,7.1,1.69,10.48.09.26-.06.55-.32.63-.05.02-.11.03-.16.03Zm865.75-17.53c-.28,0-.5-.22-.5-.5v-12.03c0-.28.22-.5.5-.5s.5.22.5.5v12.03c0,.28-.22.5-.5.5ZM.5,438.79c-.28,0-.5-.22-.5-.5v-12.03c0-.28.22-.5.5-.5s.5.22.5.5v12.03c0,.28-.22.5-.5.5Zm867.46-17.72c-.28,0-.5-.22-.5-.5v-12.03c0-.28.22-.5.5-.5s.5.22.5.5v12.03c0,.28-.22.5-.5.5ZM.5,414.73c-.28,0-.5-.22-.5-.5v-12.03c0-.28.22-.5.5-.5s.5.22.5.5v12.03c0,.28-.22.5-.5.5Zm867.46-17.72c-.28,0-.5-.22-.5-.5v-12.03c0-.28.22-.5.5-.5s.5.22.5.5v12.03c0,.28-.22.5-.5.5ZM.5,390.67c-.28,0-.5-.22-.5-.5v-12.03c0-.28.22-.5.5-.5s.5.22.5.5v12.03c0,.28-.22.5-.5.5Zm867.46-17.72c-.28,0-.5-.22-.5-.5v-12.03c0-.28.22-.5.5-.5s.5.22.5.5v12.03c0,.28-.22.5-.5.5ZM.5,366.61c-.28,0-.5-.22-.5-.5v-12.03c0-.28.22-.5.5-.5s.5.22.5.5v12.03c0,.28-.22.5-.5.5Zm867.46-17.72c-.28,0-.5-.22-.5-.5v-12.03c0-.28.22-.5.5-.5s.5.22.5.5v12.03c0,.28-.22.5-.5.5ZM.5,342.55c-.28,0-.5-.22-.5-.5v-12.03c0-.28.22-.5.5-.5s.5.22.5.5v12.03c0,.28-.22.5-.5.5Zm867.46-17.72c-.28,0-.5-.22-.5-.5v-12.03c0-.28.22-.5.5-.5s.5.22.5.5v12.03c0,.28-.22.5-.5.5ZM.5,318.49c-.28,0-.5-.22-.5-.5v-12.03c0-.28.22-.5.5-.5s.5.22.5.5v12.03c0,.28-.22.5-.5.5Zm867.46-17.72c-.28,0-.5-.22-.5-.5v-12.03c0-.28.22-.5.5-.5s.5.22.5.5v12.03c0,.28-.22.5-.5.5ZM.5,294.44c-.28,0-.5-.22-.5-.5v-12.03c0-.28.22-.5.5-.5s.5.22.5.5v12.03c0,.28-.22.5-.5.5Zm867.46-17.72c-.28,0-.5-.22-.5-.5v-12.03c0-.28.22-.5.5-.5s.5.22.5.5v12.03c0,.28-.22.5-.5.5ZM.5,270.38c-.28,0-.5-.22-.5-.5v-12.03c0-.28.22-.5.5-.5s.5.22.5.5v12.03c0,.28-.22.5-.5.5Zm867.46-17.72c-.28,0-.5-.22-.5-.5v-12.03c0-.28.22-.5.5-.5s.5.22.5.5v12.03c0,.28-.22.5-.5.5ZM.5,246.32c-.28,0-.5-.22-.5-.5v-12.03c0-.28.22-.5.5-.5s.5.22.5.5v12.03c0,.28-.22.5-.5.5Zm867.46-17.72c-.28,0-.5-.22-.5-.5v-12.03c0-.28.22-.5.5-.5s.5.22.5.5v12.03c0,.28-.22.5-.5.5ZM.5,222.26c-.28,0-.5-.22-.5-.5v-12.03c0-.28.22-.5.5-.5s.5.22.5.5v12.03c0,.28-.22.5-.5.5Zm867.46-17.72c-.28,0-.5-.22-.5-.5v-12.03c0-.28.22-.5.5-.5s.5.22.5.5v12.03c0,.28-.22.5-.5.5ZM.5,198.2c-.28,0-.5-.22-.5-.5v-12.03c0-.28.22-.5.5-.5s.5.22.5.5v12.03c0,.28-.22.5-.5.5Zm867.46-17.72c-.28,0-.5-.22-.5-.5v-12.03c0-.28.22-.5.5-.5s.5.22.5.5v12.03c0,.28-.22.5-.5.5ZM.5,174.14c-.28,0-.5-.22-.5-.5v-12.03c0-.28.22-.5.5-.5s.5.22.5.5v12.03c0,.28-.22.5-.5.5Zm867.46-17.72c-.28,0-.5-.22-.5-.5v-12.03c0-.28.22-.5.5-.5s.5.22.5.5v12.03c0,.28-.22.5-.5.5ZM.5,150.09c-.28,0-.5-.22-.5-.5v-12.03c0-.28.22-.5.5-.5s.5.22.5.5v12.03c0,.28-.22.5-.5.5Zm867.46-17.72c-.28,0-.5-.22-.5-.5v-12.03c0-.28.22-.5.5-.5s.5.22.5.5v12.03c0,.28-.22.5-.5.5ZM.5,126.03c-.28,0-.5-.22-.5-.5v-12.03c0-.28.22-.5.5-.5s.5.22.5.5v12.03c0,.28-.22.5-.5.5Zm867.46-17.72c-.28,0-.5-.22-.5-.5v-12.03c0-.28.22-.5.5-.5s.5.22.5.5v12.03c0,.28-.22.5-.5.5ZM.5,101.97c-.28,0-.5-.22-.5-.5v-12.03c0-.28.22-.5.5-.5s.5.22.5.5v12.03c0,.28-.22.5-.5.5Zm867.46-17.72c-.28,0-.5-.22-.5-.5v-12.03c0-.28.22-.5.5-.5s.5.22.5.5v12.03c0,.28-.22.5-.5.5ZM.5,77.91c-.28,0-.5-.22-.5-.5v-12.03c0-.28.22-.5.5-.5s.5.22.5.5v12.03c0,.28-.22.5-.5.5Zm867.46-17.72c-.28,0-.5-.22-.5-.5v-12.03c0-.28.22-.5.5-.5s.5.22.5.5v12.03c0,.28-.22.5-.5.5ZM.5,53.85c-.28,0-.5-.22-.5-.5v-12.03c0-.28.22-.5.5-.5s.5.22.5.5v12.03c0,.28-.22.5-.5.5Zm867.46-17.72c-.28,0-.5-.22-.5-.5v-1.13c0-3.6-.58-7.15-1.71-10.55-.09-.26.05-.55.32-.63.26-.09.55.05.63.32,1.17,3.5,1.76,7.15,1.76,10.86v1.13c0,.28-.22.5-.5.5ZM.9,29.82s-.05,0-.08,0c-.27-.04-.46-.3-.42-.57.62-4.04,1.96-7.9,3.96-11.48.13-.24.44-.33.68-.19.24.13.33.44.19.68-1.94,3.48-3.24,7.23-3.84,11.14-.04.25-.25.42-.49.42ZM860.49,13.8c-.15,0-.29-.06-.39-.19-2.49-3.1-5.47-5.72-8.86-7.78-.24-.14-.31-.45-.17-.69.14-.24.45-.31.69-.17,3.49,2.12,6.56,4.81,9.12,8.01.17.22.14.53-.08.7-.09.07-.2.11-.31.11ZM12.37,9.24c-.14,0-.28-.06-.38-.17-.18-.21-.16-.53.05-.71,3.11-2.68,6.62-4.76,10.44-6.19.26-.1.55.03.64.29.1.26-.03.55-.29.64-3.71,1.39-7.12,3.41-10.14,6.01-.09.08-.21.12-.33.12ZM840.34,1.6s-.06,0-.09,0c-2.06-.39-4.17-.59-6.28-.59h-5.62c-.28,0-.5-.22-.5-.5s.22-.5.5-.5h5.62c2.17,0,4.35.21,6.47.61.27.05.45.31.4.58-.05.24-.26.41-.49.41Zm-24.02-.6h-12.03c-.28,0-.5-.22-.5-.5s.22-.5.5-.5h12.03c.28,0,.5.22.5.5s-.22.5-.5.5Zm-24.06,0h-12.03c-.28,0-.5-.22-.5-.5s.22-.5.5-.5h12.03c.28,0,.5.22.5.5s-.22.5-.5.5Zm-24.06,0h-12.03c-.28,0-.5-.22-.5-.5s.22-.5.5-.5h12.03c.28,0,.5.22.5.5s-.22.5-.5.5Zm-24.06,0h-12.03c-.28,0-.5-.22-.5-.5s.22-.5.5-.5h12.03c.28,0,.5.22.5.5s-.22.5-.5.5Zm-24.06,0h-12.03c-.28,0-.5-.22-.5-.5s.22-.5.5-.5h12.03c.28,0,.5.22.5.5s-.22.5-.5.5Zm-24.06,0h-12.03c-.28,0-.5-.22-.5-.5s.22-.5.5-.5h12.03c.28,0,.5.22.5.5s-.22.5-.5.5Zm-24.06,0h-12.03c-.28,0-.5-.22-.5-.5s.22-.5.5-.5h12.03c.28,0,.5.22.5.5s-.22.5-.5.5Zm-24.06,0h-12.03c-.28,0-.5-.22-.5-.5s.22-.5.5-.5h12.03c.28,0,.5.22.5.5s-.22.5-.5.5Zm-24.06,0h-12.03c-.28,0-.5-.22-.5-.5s.22-.5.5-.5h12.03c.28,0,.5.22.5.5s-.22.5-.5.5Zm-24.06,0h-12.03c-.28,0-.5-.22-.5-.5s.22-.5.5-.5h12.03c.28,0,.5.22.5.5s-.22.5-.5.5Zm-24.06,0h-12.03c-.28,0-.5-.22-.5-.5s.22-.5.5-.5h12.03c.28,0,.5.22.5.5s-.22.5-.5.5Zm-24.06,0h-12.03c-.28,0-.5-.22-.5-.5s.22-.5.5-.5h12.03c.28,0,.5.22.5.5s-.22.5-.5.5Zm-24.06,0h-12.03c-.28,0-.5-.22-.5-.5s.22-.5.5-.5h12.03c.28,0,.5.22.5.5s-.22.5-.5.5Zm-24.06,0h-12.03c-.28,0-.5-.22-.5-.5s.22-.5.5-.5h12.03c.28,0,.5.22.5.5s-.22.5-.5.5Zm-24.06,0h-12.03c-.28,0-.5-.22-.5-.5s.22-.5.5-.5h12.03c.28,0,.5.22.5.5s-.22.5-.5.5Zm-24.06,0h-12.03c-.28,0-.5-.22-.5-.5s.22-.5.5-.5h12.03c.28,0,.5.22.5.5s-.22.5-.5.5Zm-24.06,0h-12.03c-.28,0-.5-.22-.5-.5s.22-.5.5-.5h12.03c.28,0,.5.22.5.5s-.22.5-.5.5Zm-24.06,0h-12.03c-.28,0-.5-.22-.5-.5s.22-.5.5-.5h12.03c.28,0,.5.22.5.5s-.22.5-.5.5Zm-24.06,0h-12.03c-.28,0-.5-.22-.5-.5s.22-.5.5-.5h12.03c.28,0,.5.22.5.5s-.22.5-.5.5Zm-24.06,0h-12.03c-.28,0-.5-.22-.5-.5s.22-.5.5-.5h12.03c.28,0,.5.22.5.5s-.22.5-.5.5Zm-24.06,0h-12.03c-.28,0-.5-.22-.5-.5s.22-.5.5-.5h12.03c.28,0,.5.22.5.5s-.22.5-.5.5Zm-24.06,0h-12.03c-.28,0-.5-.22-.5-.5s.22-.5.5-.5h12.03c.28,0,.5.22.5.5s-.22.5-.5.5Zm-24.06,0h-12.03c-.28,0-.5-.22-.5-.5s.22-.5.5-.5h12.03c.28,0,.5.22.5.5s-.22.5-.5.5Zm-24.06,0h-12.03c-.28,0-.5-.22-.5-.5s.22-.5.5-.5h12.03c.28,0,.5.22.5.5s-.22.5-.5.5Zm-24.06,0h-12.03c-.28,0-.5-.22-.5-.5s.22-.5.5-.5h12.03c.28,0,.5.22.5.5s-.22.5-.5.5Zm-24.06,0h-12.03c-.28,0-.5-.22-.5-.5s.22-.5.5-.5h12.03c.28,0,.5.22.5.5s-.22.5-.5.5Zm-24.06,0h-12.03c-.28,0-.5-.22-.5-.5s.22-.5.5-.5h12.03c.28,0,.5.22.5.5s-.22.5-.5.5Zm-24.06,0h-12.03c-.28,0-.5-.22-.5-.5s.22-.5.5-.5h12.03c.28,0,.5.22.5.5s-.22.5-.5.5Zm-24.06,0h-12.03c-.28,0-.5-.22-.5-.5s.22-.5.5-.5h12.03c.28,0,.5.22.5.5s-.22.5-.5.5Zm-24.06,0h-12.03c-.28,0-.5-.22-.5-.5s.22-.5.5-.5h12.03c.28,0,.5.22.5.5s-.22.5-.5.5Zm-24.06,0h-12.03c-.28,0-.5-.22-.5-.5s.22-.5.5-.5h12.03c.28,0,.5.22.5.5s-.22.5-.5.5Zm-24.06,0h-12.03c-.28,0-.5-.22-.5-.5s.22-.5.5-.5h12.03c.28,0,.5.22.5.5s-.22.5-.5.5Zm-24.06,0h-11.96c-.28,0-.54-.22-.54-.5s.19-.5.46-.5h12.03c.28,0,.5.22.5.5s-.22.5-.5.5Z"/>
  </g>
</svg>