<?xml version="1.0" encoding="UTF-8"?>
<svg id="Layer_2" data-name="Layer 2" xmlns="http://www.w3.org/2000/svg" viewBox="0 0 1057.32 267.64">
  <g id="Layer_1-2" data-name="Layer 1">
    <path d="m1027.43,267.64l-.96-.29c19.71-65.49,29.74-117.16,29.78-153.58.04-30.17-6.73-50.15-20.13-59.39-31.15-21.49-88.57,22.13-89.14,22.57l-.13.1h-.17c-.06,0-1.57.05-3.26,1.91-2.58,2.85-5.38,9.75-4.04,26.39,1.48,18.23-30.74,53.22-44.66,67.41-25.23,25.73-53.12,48.06-66.33,53.11-.69.26-1.51.39-2.44.39-21.44,0-104.27-68.86-177.72-129.91-46.53-38.68-90.48-75.22-111.38-87.96-47.77-29.13-118.5,34.36-165.31,76.38-6.61,5.94-12.86,11.55-18.42,16.32-7.14,6.13-16.4,15.02-27.14,25.31-28.4,27.24-67.31,64.54-109.28,92.19-49.66,32.71-92.29,43.82-126.7,33.01-48.84-15.34-70.69-33.46-80.42-45.96C-1.02,192,0,182.12.05,181.71l.99.12c-.01.1-1,9.97,9.43,23.31,9.66,12.36,31.36,30.29,79.85,45.51,34.11,10.71,76.46-.35,125.85-32.89,41.9-27.6,80.76-64.86,109.14-92.08,10.74-10.3,20.02-19.2,27.17-25.35,5.55-4.77,11.79-10.37,18.4-16.31,47.02-42.21,118.08-106.01,166.5-76.48,20.96,12.78,64.94,49.34,111.5,88.04,76.41,63.52,163.02,135.52,179.16,129.35,26.5-10.13,112.66-91.01,110.35-119.51-1.39-17.08,1.6-24.22,4.35-27.2,1.65-1.79,3.23-2.11,3.76-2.16,1.44-1.09,15.5-11.57,32.91-19.49,24.32-11.05,44.13-12.1,57.29-3.02,30.32,20.92,27.21,92.95-9.26,214.09Z"/>
  </g>
</svg>