<?xml version="1.0" encoding="UTF-8"?>
<svg id="Layer_2" data-name="Layer 2" xmlns="http://www.w3.org/2000/svg" viewBox="0 0 51.64 34">
  <defs>
    <style>
      .cls-1 {
        fill: #017373;
      }
    </style>
  </defs>
  <g id="Layer_1-2" data-name="Layer 1">
    <path class="cls-1" d="m0,20.87l1.21,10.46c.17,1.52,1.56,2.67,3.2,2.67h33.18c2.36,0,4.53-1.2,5.66-3.12l8.14-13.85c.4-.67.34-1.5-.14-2.12-.48-.62-1.31-.93-2.12-.79l-18.38,3.1-1.44-9.01h-8.19S19.44,0,19.44,0h-8.08s0,8.21,0,8.21h-6.57s0,12.66,0,12.66H0Zm19.38-8.32h3.79v3.52h-3.79v-3.52Zm-9.47,0h3.79v3.52h-3.79v-3.52Z"/>
  </g>
</svg>