<?xml version="1.0" encoding="UTF-8"?>
<svg id="Layer_2" data-name="Layer 2" xmlns="http://www.w3.org/2000/svg" viewBox="0 0 157.73 75.92">
  <defs>
    <style>
      .cls-1 {
        fill: #bfd1d0;
      }
    </style>
  </defs>
  <g id="Layer_1-2" data-name="Layer 1">
    <g>
      <rect class="cls-1" y="0" width="157.73" height="75.92" rx="12.9" ry="12.9"/>
      <g>
        <path d="m16.31,10.28c-.07-1.41-.17-3.11-.15-4.37h-.04c-.35,1.18-.77,2.45-1.28,3.84l-1.79,4.91h-.99l-1.63-4.82c-.48-1.42-.89-2.73-1.17-3.93h-.03c-.03,1.26-.11,2.96-.2,4.47l-.27,4.33h-1.25l.71-10.11h1.67l1.72,4.89c.42,1.25.76,2.35,1.02,3.41h.04c.26-1.02.62-2.13,1.07-3.41l1.8-4.89h1.67l.63,10.11h-1.27l-.26-4.44Z"/>
        <path d="m23.91,14.72l-.11-.92h-.04c-.41.57-1.18,1.08-2.22,1.08-1.47,0-2.22-1.04-2.22-2.08,0-1.75,1.56-2.71,4.36-2.7v-.15c0-.6-.17-1.68-1.65-1.68-.68,0-1.38.21-1.89.54l-.3-.87c.6-.39,1.47-.65,2.38-.65,2.22,0,2.76,1.51,2.76,2.97v2.71c0,.63.03,1.25.12,1.74h-1.2Zm-.2-3.71c-1.44-.03-3.08.23-3.08,1.63,0,.86.57,1.26,1.25,1.26.95,0,1.54-.6,1.75-1.22.04-.13.08-.28.08-.42v-1.26Z"/>
        <path d="m27.12,4.07h1.32v10.65h-1.32V4.07Z"/>
        <path d="m35.84,14.45c-.34.18-1.11.42-2.08.42-2.19,0-3.61-1.49-3.61-3.71s1.53-3.86,3.9-3.86c.78,0,1.47.2,1.83.38l-.3,1.02c-.32-.18-.81-.34-1.53-.34-1.67,0-2.56,1.23-2.56,2.74,0,1.68,1.08,2.71,2.52,2.71.75,0,1.25-.19,1.62-.36l.22.99Z"/>
        <path d="m43.86,11.03c0,2.68-1.86,3.85-3.62,3.85-1.96,0-3.48-1.44-3.48-3.74,0-2.43,1.59-3.85,3.6-3.85s3.5,1.51,3.5,3.74Zm-5.76.07c0,1.59.92,2.79,2.2,2.79s2.21-1.18,2.21-2.82c0-1.23-.61-2.79-2.17-2.79s-2.23,1.44-2.23,2.82Z"/>
        <path d="m45.53,4.07h1.32v10.65h-1.32V4.07Z"/>
        <path d="m49.07,9.43c0-.75-.01-1.37-.06-1.96h1.15l.06,1.17h.04c.41-.69,1.08-1.33,2.28-1.33.99,0,1.74.6,2.05,1.46h.03c.22-.41.51-.72.81-.95.43-.33.92-.51,1.6-.51.96,0,2.39.63,2.39,3.15v4.27h-1.29v-4.11c0-1.4-.51-2.24-1.58-2.24-.75,0-1.33.55-1.56,1.2-.06.18-.11.42-.11.66v4.48h-1.29v-4.35c0-1.16-.51-2-1.51-2-.83,0-1.42.66-1.63,1.32-.08.19-.11.42-.11.64v4.38h-1.29v-5.29Z"/>
        <path d="m79.58,10.28c-.07-1.41-.17-3.11-.15-4.37h-.04c-.34,1.18-.77,2.45-1.28,3.84l-1.79,4.91h-.99l-1.63-4.82c-.48-1.42-.89-2.73-1.17-3.93h-.03c-.03,1.26-.11,2.96-.2,4.47l-.27,4.33h-1.25l.71-10.11h1.67l1.72,4.89c.42,1.25.76,2.35,1.02,3.41h.04c.26-1.02.62-2.13,1.07-3.41l1.8-4.89h1.67l.63,10.11h-1.27l-.26-4.44Z"/>
        <path d="m88.34,14.45c-.34.18-1.11.42-2.08.42-2.19,0-3.61-1.49-3.61-3.71s1.53-3.86,3.9-3.86c.78,0,1.47.2,1.83.38l-.3,1.02c-.32-.18-.81-.34-1.53-.34-1.67,0-2.56,1.23-2.56,2.74,0,1.68,1.08,2.71,2.52,2.71.75,0,1.25-.19,1.62-.36l.22.99Z"/>
        <path d="m89.88,4.07h1.32v10.65h-1.32V4.07Z"/>
        <path d="m97.44,14.72l-.11-.92h-.04c-.41.57-1.18,1.08-2.22,1.08-1.47,0-2.22-1.04-2.22-2.08,0-1.75,1.56-2.71,4.36-2.7v-.15c0-.6-.17-1.68-1.65-1.68-.68,0-1.38.21-1.89.54l-.3-.87c.6-.39,1.47-.65,2.38-.65,2.22,0,2.76,1.51,2.76,2.97v2.71c0,.63.03,1.25.12,1.74h-1.2Zm-.2-3.71c-1.44-.03-3.08.23-3.08,1.63,0,.86.57,1.26,1.25,1.26.95,0,1.54-.6,1.75-1.22.04-.13.08-.28.08-.42v-1.26Z"/>
        <path d="m100.65,9.73c0-.85-.01-1.59-.06-2.26h1.15l.05,1.42h.06c.33-.97,1.12-1.59,2.01-1.59.15,0,.25.01.38.04v1.25c-.13-.03-.27-.04-.45-.04-.93,0-1.59.71-1.77,1.7-.03.18-.06.39-.06.61v3.87h-1.3v-5Z"/>
        <path d="m106.14,11.33c.03,1.79,1.17,2.52,2.49,2.52.95,0,1.52-.17,2.01-.38l.22.95c-.46.21-1.26.45-2.42.45-2.23,0-3.57-1.47-3.57-3.66s1.29-3.92,3.4-3.92c2.37,0,3,2.08,3,3.42,0,.27-.03.48-.04.62h-5.1Zm3.87-.95c.01-.84-.35-2.14-1.83-2.14-1.33,0-1.92,1.23-2.03,2.14h3.86Z"/>
        <path d="m112.92,9.43c0-.75-.01-1.37-.06-1.96h1.17l.08,1.2h.03c.36-.69,1.2-1.37,2.4-1.37,1,0,2.56.6,2.56,3.09v4.33h-1.32v-4.18c0-1.17-.44-2.15-1.68-2.15-.87,0-1.54.62-1.77,1.35-.06.17-.09.39-.09.61v4.37h-1.32v-5.29Z"/>
        <path d="m130.68,4.07h1.32v4.53h.03c.21-.38.54-.71.94-.93.39-.22.86-.38,1.35-.38.97,0,2.53.6,2.53,3.11v4.32h-1.32v-4.17c0-1.17-.44-2.16-1.68-2.16-.85,0-1.53.6-1.77,1.32-.08.18-.09.38-.09.63v4.38h-1.32V4.07Z"/>
        <path d="m143.03,14.72l-.11-.92h-.04c-.41.57-1.18,1.08-2.22,1.08-1.47,0-2.22-1.04-2.22-2.08,0-1.75,1.56-2.71,4.36-2.7v-.15c0-.6-.17-1.68-1.65-1.68-.68,0-1.38.21-1.89.54l-.3-.87c.6-.39,1.47-.65,2.38-.65,2.22,0,2.76,1.51,2.76,2.97v2.71c0,.63.03,1.25.12,1.74h-1.2Zm-.2-3.71c-1.44-.03-3.08.23-3.08,1.63,0,.86.57,1.26,1.25,1.26.95,0,1.54-.6,1.75-1.22.04-.13.08-.28.08-.42v-1.26Z"/>
        <path d="m146.06,13.37c.39.25,1.08.52,1.74.52.96,0,1.41-.48,1.41-1.08s-.38-.97-1.35-1.33c-1.3-.46-1.92-1.18-1.92-2.05,0-1.17.95-2.13,2.5-2.13.74,0,1.38.21,1.79.45l-.33.96c-.29-.18-.81-.42-1.49-.42-.78,0-1.21.45-1.21.99,0,.6.44.87,1.38,1.23,1.26.48,1.91,1.11,1.91,2.19,0,1.28-.99,2.18-2.71,2.18-.79,0-1.53-.2-2.04-.5l.33-1Z"/>
        <path d="m7.57,31.37c.39.25,1.08.52,1.74.52.96,0,1.41-.48,1.41-1.08s-.38-.97-1.35-1.33c-1.3-.46-1.92-1.18-1.92-2.05,0-1.17.95-2.13,2.5-2.13.74,0,1.38.21,1.79.45l-.33.96c-.29-.18-.81-.42-1.49-.42-.78,0-1.21.45-1.21.99,0,.6.44.87,1.38,1.23,1.26.48,1.91,1.11,1.91,2.19,0,1.28-.99,2.18-2.71,2.18-.79,0-1.53-.2-2.04-.5l.33-1Z"/>
        <path d="m15.27,23.38v2.08h1.89v1h-1.89v3.92c0,.9.25,1.41.99,1.41.34,0,.6-.04.76-.09l.06.99c-.25.11-.66.18-1.17.18-.62,0-1.11-.2-1.42-.56-.38-.39-.51-1.04-.51-1.89v-3.96h-1.12v-1h1.12v-1.74l1.29-.34Z"/>
        <path d="m22.67,32.72l-.11-.92h-.04c-.41.57-1.18,1.08-2.22,1.08-1.47,0-2.22-1.04-2.22-2.08,0-1.75,1.56-2.71,4.36-2.7v-.15c0-.6-.17-1.68-1.65-1.68-.68,0-1.38.21-1.89.54l-.3-.87c.6-.39,1.47-.65,2.38-.65,2.22,0,2.76,1.51,2.76,2.97v2.71c0,.63.03,1.25.12,1.74h-1.2Zm-.2-3.71c-1.44-.03-3.08.23-3.08,1.63,0,.86.57,1.26,1.25,1.26.95,0,1.54-.6,1.75-1.22.04-.13.08-.28.08-.42v-1.26Z"/>
        <path d="m25.88,27.73c0-.85-.01-1.59-.06-2.26h1.15l.05,1.42h.06c.33-.97,1.12-1.59,2.01-1.59.15,0,.25.01.38.04v1.25c-.13-.03-.27-.04-.45-.04-.93,0-1.59.71-1.77,1.7-.03.18-.06.39-.06.61v3.87h-1.3v-5Z"/>
        <path d="m32.73,23.38v2.08h1.89v1h-1.89v3.92c0,.9.25,1.41.99,1.41.34,0,.6-.04.76-.09l.06.99c-.25.11-.66.18-1.17.18-.62,0-1.11-.2-1.42-.56-.38-.39-.51-1.04-.51-1.89v-3.96h-1.12v-1h1.12v-1.74l1.29-.34Z"/>
        <path d="m36.75,29.33c.03,1.79,1.17,2.52,2.49,2.52.94,0,1.51-.17,2.01-.38l.22.95c-.46.21-1.26.45-2.42.45-2.23,0-3.57-1.47-3.57-3.66s1.29-3.92,3.4-3.92c2.37,0,3,2.08,3,3.42,0,.27-.03.48-.04.62h-5.1Zm3.87-.95c.01-.84-.35-2.14-1.83-2.14-1.33,0-1.92,1.23-2.03,2.14h3.86Z"/>
        <path d="m49.8,22.07v8.77c0,.65.02,1.38.06,1.88h-1.19l-.06-1.26h-.03c-.4.81-1.29,1.42-2.47,1.42-1.75,0-3.1-1.49-3.1-3.69-.02-2.42,1.48-3.9,3.25-3.9,1.11,0,1.86.53,2.19,1.11h.03v-4.33h1.32Zm-1.32,6.34c0-.17-.02-.39-.06-.55-.19-.84-.92-1.53-1.9-1.53-1.37,0-2.17,1.2-2.17,2.8,0,1.47.72,2.68,2.14,2.68.88,0,1.7-.58,1.93-1.57.04-.18.06-.36.06-.57v-1.26Z"/>
        <path d="m60.5,29.33c.03,1.79,1.17,2.52,2.49,2.52.95,0,1.52-.17,2.01-.38l.22.95c-.46.21-1.26.45-2.42.45-2.23,0-3.57-1.47-3.57-3.66s1.29-3.92,3.4-3.92c2.37,0,3,2.08,3,3.42,0,.27-.03.48-.04.62h-5.1Zm3.87-.95c.01-.84-.35-2.14-1.83-2.14-1.33,0-1.92,1.23-2.03,2.14h3.86Z"/>
        <path d="m67.85,25.46l1.04,1.56c.27.41.5.78.73,1.19h.04c.24-.44.48-.81.72-1.2l1.02-1.54h1.42l-2.47,3.51,2.55,3.75h-1.5l-1.06-1.63c-.29-.42-.53-.83-.78-1.26h-.03c-.24.43-.5.82-.76,1.26l-1.05,1.63h-1.46l2.58-3.71-2.46-3.55h1.47Z"/>
        <path d="m74.18,27.83c0-.93-.03-1.68-.06-2.37h1.18l.06,1.25h.03c.54-.88,1.4-1.41,2.58-1.41,1.75,0,3.08,1.49,3.08,3.69,0,2.61-1.59,3.9-3.3,3.9-.96,0-1.8-.42-2.24-1.14h-.03v3.94h-1.31v-7.86Zm1.31,1.93c0,.2.03.38.06.54.24.92,1.04,1.54,1.98,1.54,1.4,0,2.21-1.14,2.21-2.8,0-1.46-.76-2.7-2.16-2.7-.9,0-1.74.65-1.99,1.63-.04.17-.09.36-.09.54v1.25Z"/>
        <path d="m83.45,29.33c.03,1.79,1.17,2.52,2.49,2.52.94,0,1.51-.17,2.01-.38l.22.95c-.46.21-1.26.45-2.42.45-2.23,0-3.57-1.47-3.57-3.66s1.29-3.92,3.4-3.92c2.37,0,3,2.08,3,3.42,0,.27-.03.48-.04.62h-5.1Zm3.87-.95c.01-.84-.35-2.14-1.83-2.14-1.33,0-1.92,1.23-2.03,2.14h3.86Z"/>
        <path d="m90.23,27.73c0-.85-.01-1.59-.06-2.26h1.15l.05,1.42h.06c.33-.97,1.12-1.59,2.01-1.59.15,0,.25.01.38.04v1.25c-.13-.03-.27-.04-.45-.04-.93,0-1.59.71-1.77,1.7-.03.18-.06.39-.06.61v3.87h-1.3v-5Z"/>
        <path d="m96.66,23.42c.02.45-.31.81-.84.81-.46,0-.79-.36-.79-.81s.35-.83.83-.83.81.36.81.83Zm-1.47,9.3v-7.26h1.32v7.26h-1.32Z"/>
        <path d="m98.7,27.43c0-.75-.01-1.37-.06-1.96h1.15l.06,1.17h.04c.41-.69,1.08-1.33,2.28-1.33.99,0,1.74.6,2.05,1.46h.03c.22-.41.51-.72.81-.95.43-.33.92-.51,1.6-.51.96,0,2.39.63,2.39,3.15v4.27h-1.29v-4.11c0-1.4-.51-2.24-1.58-2.24-.75,0-1.33.55-1.56,1.2-.06.18-.11.42-.11.66v4.48h-1.29v-4.35c0-1.16-.51-2-1.51-2-.83,0-1.42.66-1.63,1.32-.08.19-.11.42-.11.64v4.38h-1.29v-5.29Z"/>
        <path d="m111.95,29.33c.03,1.79,1.17,2.52,2.49,2.52.94,0,1.51-.17,2.01-.38l.22.95c-.46.21-1.26.45-2.42.45-2.23,0-3.57-1.47-3.57-3.66s1.29-3.92,3.4-3.92c2.37,0,3,2.08,3,3.42,0,.27-.03.48-.04.62h-5.1Zm3.87-.95c.01-.84-.35-2.14-1.83-2.14-1.33,0-1.92,1.23-2.03,2.14h3.86Z"/>
        <path d="m118.73,27.43c0-.75-.01-1.37-.06-1.96h1.17l.08,1.2h.03c.36-.69,1.2-1.37,2.4-1.37,1,0,2.56.6,2.56,3.09v4.33h-1.32v-4.18c0-1.17-.44-2.15-1.68-2.15-.87,0-1.54.62-1.77,1.35-.06.17-.09.39-.09.61v4.37h-1.32v-5.29Z"/>
        <path d="m128.58,23.38v2.08h1.89v1h-1.89v3.92c0,.9.25,1.41.99,1.41.34,0,.6-.04.76-.09l.06.99c-.25.11-.66.18-1.17.18-.62,0-1.11-.2-1.42-.56-.38-.39-.51-1.04-.51-1.89v-3.96h-1.12v-1h1.12v-1.74l1.29-.34Z"/>
        <path d="m133.43,23.42c.02.45-.31.81-.84.81-.46,0-.79-.36-.79-.81s.35-.83.83-.83.81.36.81.83Zm-1.47,9.3v-7.26h1.32v7.26h-1.32Z"/>
        <path d="m135.47,27.43c0-.75-.01-1.37-.06-1.96h1.17l.08,1.2h.03c.36-.69,1.2-1.37,2.4-1.37,1,0,2.56.6,2.56,3.09v4.33h-1.32v-4.18c0-1.17-.44-2.15-1.68-2.15-.87,0-1.54.62-1.77,1.35-.06.17-.09.39-.09.61v4.37h-1.32v-5.29Z"/>
        <path d="m150.05,25.46c-.03.53-.06,1.11-.06,2v4.21c0,1.67-.33,2.68-1.04,3.31-.71.66-1.72.87-2.64.87s-1.83-.21-2.42-.6l.33-1c.48.3,1.23.57,2.13.57,1.35,0,2.34-.71,2.34-2.53v-.81h-.03c-.41.67-1.18,1.21-2.31,1.21-1.8,0-3.09-1.53-3.09-3.54,0-2.46,1.6-3.85,3.27-3.85,1.26,0,1.95.66,2.26,1.26h.03l.06-1.09h1.16Zm-1.37,2.87c0-.23-.01-.42-.07-.6-.24-.76-.89-1.39-1.85-1.39-1.26,0-2.16,1.06-2.16,2.75,0,1.42.72,2.61,2.14,2.61.81,0,1.54-.51,1.83-1.35.08-.23.1-.48.1-.71v-1.3Z"/>
        <path d="m8.27,43.46l.96,3.69c.21.81.41,1.56.54,2.31h.04c.17-.74.41-1.51.64-2.29l1.19-3.71h1.11l1.12,3.63c.27.87.48,1.63.65,2.37h.04c.12-.74.31-1.5.55-2.36l1.04-3.64h1.3l-2.34,7.26h-1.2l-1.11-3.46c-.25-.81-.46-1.53-.65-2.38h-.03c-.18.87-.41,1.62-.66,2.4l-1.17,3.45h-1.2l-2.19-7.26h1.35Z"/>
        <path d="m20.25,41.42c.02.45-.31.81-.84.81-.46,0-.79-.36-.79-.81s.35-.83.83-.83.81.36.81.83Zm-1.47,9.3v-7.26h1.32v7.26h-1.32Z"/>
        <path d="m23.88,41.38v2.08h1.89v1h-1.89v3.92c0,.9.25,1.41.99,1.41.34,0,.6-.04.76-.09l.06.99c-.25.11-.66.18-1.17.18-.62,0-1.11-.2-1.42-.56-.38-.39-.51-1.04-.51-1.89v-3.96h-1.12v-1h1.12v-1.74l1.29-.34Z"/>
        <path d="m27.26,40.07h1.32v4.53h.03c.21-.38.54-.71.94-.93.39-.22.86-.38,1.35-.38.97,0,2.53.6,2.53,3.11v4.32h-1.32v-4.17c0-1.17-.44-2.16-1.68-2.16-.85,0-1.53.6-1.77,1.32-.08.18-.09.38-.09.63v4.38h-1.32v-10.65Z"/>
        <path d="m39.82,41.38v2.08h1.89v1h-1.89v3.92c0,.9.25,1.41.99,1.41.34,0,.6-.04.76-.09l.06.99c-.25.11-.66.18-1.17.18-.62,0-1.11-.2-1.42-.56-.38-.39-.51-1.04-.51-1.89v-3.96h-1.12v-1h1.12v-1.74l1.29-.34Z"/>
        <path d="m43.2,40.07h1.32v4.53h.03c.21-.38.54-.71.94-.93.39-.22.86-.38,1.35-.38.97,0,2.53.6,2.53,3.11v4.32h-1.32v-4.17c0-1.17-.44-2.16-1.68-2.16-.85,0-1.53.6-1.77,1.32-.08.18-.09.38-.09.63v4.38h-1.32v-10.65Z"/>
        <path d="m52.26,47.33c.03,1.79,1.17,2.52,2.49,2.52.94,0,1.51-.17,2.01-.38l.22.95c-.46.21-1.26.45-2.42.45-2.23,0-3.57-1.47-3.57-3.66s1.29-3.92,3.4-3.92c2.37,0,3,2.08,3,3.42,0,.27-.03.48-.04.62h-5.1Zm3.87-.95c.01-.84-.35-2.14-1.83-2.14-1.33,0-1.92,1.23-2.03,2.14h3.86Z"/>
        <path d="m63.27,41.38v2.08h1.89v1h-1.89v3.92c0,.9.25,1.41.99,1.41.34,0,.6-.04.76-.09l.06.99c-.25.11-.66.18-1.17.18-.62,0-1.11-.2-1.42-.56-.38-.39-.51-1.04-.51-1.89v-3.96h-1.12v-1h1.12v-1.74l1.29-.34Z"/>
        <path d="m66.65,45.73c0-.85-.01-1.59-.06-2.26h1.15l.05,1.42h.06c.33-.97,1.12-1.59,2.01-1.59.15,0,.25.01.38.04v1.25c-.13-.03-.27-.04-.45-.04-.93,0-1.59.71-1.77,1.7-.03.18-.06.39-.06.61v3.87h-1.31v-5Z"/>
        <path d="m75.5,50.72l-.11-.92h-.04c-.41.57-1.18,1.08-2.22,1.08-1.47,0-2.22-1.04-2.22-2.08,0-1.75,1.56-2.71,4.36-2.7v-.15c0-.6-.17-1.68-1.65-1.68-.68,0-1.38.21-1.89.54l-.3-.87c.6-.39,1.47-.65,2.38-.65,2.22,0,2.76,1.51,2.76,2.97v2.71c0,.63.03,1.25.12,1.74h-1.2Zm-.2-3.71c-1.44-.03-3.08.23-3.08,1.63,0,.86.57,1.26,1.25,1.26.95,0,1.54-.6,1.75-1.22.04-.13.08-.28.08-.42v-1.26Z"/>
        <path d="m78.71,45.43c0-.75-.01-1.37-.06-1.96h1.17l.08,1.2h.03c.36-.69,1.2-1.37,2.4-1.37,1,0,2.56.6,2.56,3.09v4.33h-1.32v-4.18c0-1.17-.44-2.15-1.68-2.15-.87,0-1.54.62-1.77,1.35-.06.17-.09.39-.09.61v4.37h-1.32v-5.29Z"/>
        <path d="m86.85,49.37c.39.25,1.08.52,1.74.52.96,0,1.41-.48,1.41-1.08s-.38-.97-1.35-1.33c-1.3-.46-1.92-1.18-1.92-2.05,0-1.17.95-2.13,2.5-2.13.74,0,1.38.21,1.79.45l-.33.96c-.29-.18-.81-.42-1.49-.42-.78,0-1.21.45-1.21.99,0,.6.44.87,1.38,1.23,1.26.48,1.91,1.11,1.91,2.19,0,1.28-.99,2.18-2.71,2.18-.79,0-1.53-.2-2.04-.5l.33-1Z"/>
        <path d="m92.97,45.83c0-.93-.03-1.68-.06-2.37h1.18l.06,1.25h.03c.54-.88,1.4-1.41,2.58-1.41,1.75,0,3.08,1.49,3.08,3.69,0,2.61-1.59,3.9-3.3,3.9-.96,0-1.8-.42-2.24-1.14h-.03v3.94h-1.3v-7.86Zm1.3,1.93c0,.2.03.38.06.54.24.92,1.04,1.54,1.98,1.54,1.4,0,2.21-1.14,2.21-2.8,0-1.46-.76-2.7-2.16-2.7-.9,0-1.74.65-1.99,1.63-.04.17-.09.36-.09.54v1.25Z"/>
        <path d="m108.08,47.03c0,2.68-1.86,3.85-3.62,3.85-1.96,0-3.48-1.44-3.48-3.74,0-2.43,1.59-3.85,3.6-3.85s3.5,1.51,3.5,3.74Zm-5.76.07c0,1.59.92,2.79,2.2,2.79s2.21-1.18,2.21-2.82c0-1.23-.61-2.79-2.17-2.79s-2.23,1.44-2.23,2.82Z"/>
        <path d="m109.74,45.73c0-.85-.01-1.59-.06-2.26h1.15l.05,1.42h.06c.33-.97,1.12-1.59,2.01-1.59.15,0,.25.01.38.04v1.25c-.13-.03-.27-.04-.45-.04-.93,0-1.59.71-1.77,1.7-.03.18-.06.39-.06.61v3.87h-1.31v-5Z"/>
        <path d="m116.6,41.38v2.08h1.89v1h-1.89v3.92c0,.9.25,1.41.99,1.41.34,0,.6-.04.76-.09l.06.99c-.25.11-.66.18-1.17.18-.62,0-1.11-.2-1.42-.56-.38-.39-.51-1.04-.51-1.89v-3.96h-1.12v-1h1.12v-1.74l1.29-.34Z"/>
        <path d="m124,50.72l-.11-.92h-.04c-.41.57-1.18,1.08-2.22,1.08-1.47,0-2.22-1.04-2.22-2.08,0-1.75,1.56-2.71,4.36-2.7v-.15c0-.6-.17-1.68-1.65-1.68-.68,0-1.38.21-1.89.54l-.3-.87c.6-.39,1.47-.65,2.38-.65,2.22,0,2.76,1.51,2.76,2.97v2.71c0,.63.03,1.25.12,1.74h-1.2Zm-.2-3.71c-1.44-.03-3.08.23-3.08,1.63,0,.86.57,1.26,1.25,1.26.95,0,1.54-.6,1.75-1.22.04-.13.08-.28.08-.42v-1.26Z"/>
        <path d="m128.73,41.38v2.08h1.89v1h-1.89v3.92c0,.9.25,1.41.99,1.41.34,0,.6-.04.76-.09l.06.99c-.25.11-.66.18-1.17.18-.62,0-1.11-.2-1.42-.56-.38-.39-.51-1.04-.51-1.89v-3.96h-1.12v-1h1.12v-1.74l1.29-.34Z"/>
        <path d="m133.58,41.42c.02.45-.31.81-.84.81-.46,0-.79-.36-.79-.81s.35-.83.83-.83.81.36.81.83Zm-1.47,9.3v-7.26h1.32v7.26h-1.32Z"/>
        <path d="m142.19,47.03c0,2.68-1.86,3.85-3.62,3.85-1.96,0-3.48-1.44-3.48-3.74,0-2.43,1.59-3.85,3.6-3.85s3.5,1.51,3.5,3.74Zm-5.76.07c0,1.59.92,2.79,2.2,2.79s2.21-1.18,2.21-2.82c0-1.23-.61-2.79-2.17-2.79s-2.23,1.44-2.23,2.82Z"/>
        <path d="m143.85,45.43c0-.75-.01-1.37-.06-1.96h1.17l.08,1.2h.03c.36-.69,1.2-1.37,2.4-1.37,1,0,2.56.6,2.56,3.09v4.33h-1.32v-4.18c0-1.17-.44-2.15-1.68-2.15-.87,0-1.54.62-1.77,1.35-.06.17-.09.39-.09.61v4.37h-1.32v-5.29Z"/>
        <path d="m14.32,65.03c0,2.68-1.86,3.85-3.62,3.85-1.96,0-3.48-1.44-3.48-3.74,0-2.43,1.59-3.85,3.6-3.85s3.5,1.51,3.5,3.74Zm-5.76.07c0,1.59.92,2.79,2.2,2.79s2.21-1.18,2.21-2.82c0-1.23-.61-2.79-2.17-2.79s-2.23,1.44-2.23,2.82Z"/>
        <path d="m16.12,68.72v-6.25h-1.02v-1h1.02v-.34c0-1.02.23-1.95.84-2.54.49-.48,1.15-.67,1.77-.67.46,0,.87.1,1.12.21l-.18,1.02c-.2-.09-.47-.17-.84-.17-1.12,0-1.41.99-1.41,2.1v.39h1.75v1h-1.75v6.25h-1.31Z"/>
        <path d="m29.79,61.46c-.03.53-.06,1.11-.06,2v4.21c0,1.67-.33,2.68-1.04,3.31-.71.66-1.72.87-2.64.87s-1.83-.21-2.42-.6l.33-1c.48.3,1.23.57,2.13.57,1.35,0,2.34-.71,2.34-2.53v-.81h-.03c-.41.67-1.18,1.21-2.31,1.21-1.8,0-3.09-1.53-3.09-3.54,0-2.46,1.6-3.85,3.27-3.85,1.26,0,1.95.66,2.26,1.26h.03l.06-1.09h1.16Zm-1.37,2.87c0-.23-.01-.42-.07-.6-.24-.76-.89-1.39-1.85-1.39-1.26,0-2.16,1.06-2.16,2.75,0,1.42.72,2.61,2.14,2.61.81,0,1.54-.51,1.83-1.35.08-.23.1-.48.1-.71v-1.3Z"/>
        <path d="m38.49,65.03c0,2.68-1.86,3.85-3.62,3.85-1.96,0-3.48-1.44-3.48-3.74,0-2.43,1.59-3.85,3.6-3.85s3.5,1.51,3.5,3.74Zm-5.76.07c0,1.59.92,2.79,2.2,2.79s2.21-1.18,2.21-2.82c0-1.23-.61-2.79-2.17-2.79s-2.23,1.44-2.23,2.82Z"/>
        <path d="m46.73,65.03c0,2.68-1.86,3.85-3.62,3.85-1.96,0-3.48-1.44-3.48-3.74,0-2.43,1.59-3.85,3.6-3.85s3.5,1.51,3.5,3.74Zm-5.76.07c0,1.59.92,2.79,2.2,2.79s2.21-1.18,2.21-2.82c0-1.23-.61-2.79-2.17-2.79s-2.23,1.44-2.23,2.82Z"/>
        <path d="m54.66,58.07v8.77c0,.65.02,1.38.06,1.88h-1.18l-.06-1.26h-.03c-.4.81-1.29,1.42-2.47,1.42-1.75,0-3.1-1.49-3.1-3.69-.02-2.42,1.48-3.9,3.25-3.9,1.11,0,1.86.53,2.19,1.11h.03v-4.33h1.32Zm-1.32,6.34c0-.17-.02-.39-.06-.55-.19-.84-.92-1.53-1.9-1.53-1.37,0-2.17,1.2-2.17,2.8,0,1.47.72,2.68,2.14,2.68.88,0,1.7-.58,1.93-1.57.04-.18.06-.36.06-.57v-1.26Z"/>
        <path d="m56.68,67.37c.39.25,1.08.52,1.74.52.96,0,1.41-.48,1.41-1.08s-.38-.97-1.35-1.33c-1.3-.46-1.92-1.18-1.92-2.05,0-1.17.95-2.13,2.5-2.13.74,0,1.38.21,1.79.45l-.33.96c-.29-.18-.81-.42-1.49-.42-.78,0-1.21.45-1.21.99,0,.6.44.87,1.38,1.23,1.26.48,1.91,1.11,1.91,2.19,0,1.28-.99,2.18-2.71,2.18-.79,0-1.53-.2-2.04-.5l.33-1Z"/>
        <path d="m67.45,59.42c.02.45-.31.81-.84.81-.46,0-.79-.36-.79-.81s.35-.83.83-.83.81.36.81.83Zm-1.47,9.3v-7.26h1.32v7.26h-1.32Z"/>
        <path d="m69.49,63.43c0-.75-.01-1.37-.06-1.96h1.17l.08,1.2h.03c.36-.69,1.2-1.37,2.4-1.37,1,0,2.56.6,2.56,3.09v4.33h-1.32v-4.18c0-1.17-.44-2.15-1.68-2.15-.87,0-1.54.62-1.77,1.35-.06.17-.09.39-.09.61v4.37h-1.32v-5.29Z"/>
        <path d="m86.16,68.45c-.34.18-1.11.42-2.08.42-2.19,0-3.61-1.49-3.61-3.71s1.53-3.86,3.9-3.86c.78,0,1.47.2,1.83.38l-.3,1.02c-.32-.18-.81-.34-1.53-.34-1.67,0-2.56,1.23-2.56,2.74,0,1.68,1.08,2.71,2.52,2.71.75,0,1.25-.19,1.62-.36l.22.99Z"/>
        <path d="m94.19,65.03c0,2.68-1.86,3.85-3.62,3.85-1.96,0-3.48-1.44-3.48-3.74,0-2.43,1.59-3.85,3.6-3.85s3.5,1.51,3.5,3.74Zm-5.76.07c0,1.59.92,2.79,2.2,2.79s2.21-1.18,2.21-2.82c0-1.23-.61-2.79-2.17-2.79s-2.23,1.44-2.23,2.82Z"/>
        <path d="m95.86,63.43c0-.75-.01-1.37-.06-1.96h1.17l.08,1.2h.03c.36-.69,1.2-1.37,2.4-1.37,1,0,2.56.6,2.56,3.09v4.33h-1.32v-4.18c0-1.17-.44-2.15-1.68-2.15-.87,0-1.54.62-1.77,1.35-.06.17-.09.39-.09.61v4.37h-1.32v-5.29Z"/>
        <path d="m105.71,59.38v2.08h1.89v1h-1.89v3.92c0,.9.25,1.41.99,1.41.34,0,.6-.04.76-.09l.06.99c-.25.11-.66.18-1.17.18-.62,0-1.11-.2-1.42-.56-.38-.39-.51-1.04-.51-1.89v-3.96h-1.12v-1h1.12v-1.74l1.29-.34Z"/>
        <path d="m113.11,68.72l-.11-.92h-.04c-.41.57-1.18,1.08-2.22,1.08-1.47,0-2.22-1.04-2.22-2.08,0-1.75,1.56-2.71,4.36-2.7v-.15c0-.6-.17-1.68-1.65-1.68-.68,0-1.38.21-1.89.54l-.3-.87c.6-.39,1.47-.65,2.38-.65,2.22,0,2.76,1.51,2.76,2.97v2.71c0,.63.03,1.25.12,1.74h-1.2Zm-.2-3.71c-1.44-.03-3.08.23-3.08,1.63,0,.86.57,1.26,1.25,1.26.95,0,1.54-.6,1.75-1.22.04-.13.08-.28.08-.42v-1.26Z"/>
        <path d="m117.78,59.42c.02.45-.31.81-.84.81-.46,0-.79-.36-.79-.81s.35-.83.83-.83.81.36.81.83Zm-1.47,9.3v-7.26h1.32v7.26h-1.32Z"/>
        <path d="m119.82,63.43c0-.75-.01-1.37-.06-1.96h1.17l.08,1.2h.03c.36-.69,1.2-1.37,2.4-1.37,1,0,2.56.6,2.56,3.09v4.33h-1.32v-4.18c0-1.17-.44-2.15-1.68-2.15-.87,0-1.54.62-1.77,1.35-.06.17-.09.39-.09.61v4.37h-1.32v-5.29Z"/>
        <path d="m128.88,65.33c.03,1.79,1.17,2.52,2.49,2.52.94,0,1.51-.17,2.01-.38l.22.95c-.46.21-1.26.45-2.42.45-2.23,0-3.57-1.47-3.57-3.66s1.29-3.92,3.4-3.92c2.37,0,3,2.08,3,3.42,0,.27-.03.48-.04.62h-5.1Zm3.87-.95c.01-.84-.35-2.14-1.83-2.14-1.33,0-1.92,1.23-2.03,2.14h3.86Z"/>
        <path d="m135.66,63.73c0-.85-.01-1.59-.06-2.26h1.15l.05,1.42h.06c.33-.97,1.12-1.59,2.01-1.59.15,0,.25.01.38.04v1.25c-.13-.03-.27-.04-.45-.04-.93,0-1.59.71-1.77,1.7-.03.18-.06.39-.06.61v3.87h-1.3v-5Z"/>
        <path d="m140.39,67.37c.39.25,1.08.52,1.74.52.96,0,1.41-.48,1.41-1.08s-.38-.97-1.35-1.33c-1.3-.46-1.92-1.18-1.92-2.05,0-1.17.95-2.13,2.5-2.13.74,0,1.38.21,1.79.45l-.33.96c-.29-.18-.81-.42-1.49-.42-.78,0-1.21.45-1.21.99,0,.6.44.87,1.38,1.23,1.26.48,1.91,1.11,1.91,2.19,0,1.28-.99,2.18-2.71,2.18-.79,0-1.53-.2-2.04-.5l.33-1Z"/>
      </g>
    </g>
  </g>
</svg>