<?xml version="1.0" encoding="UTF-8"?>
<svg id="Layer_2" data-name="Layer 2" xmlns="http://www.w3.org/2000/svg" viewBox="0 0 174.92 75.92">
  <defs>
    <style>
      .cls-1 {
        fill: #bfd1d0;
      }
    </style>
  </defs>
  <g id="Layer_1-2" data-name="Layer 1">
    <g>
      <rect class="cls-1" y="0" width="174.92" height="75.92" rx="12.9" ry="12.9"/>
      <g>
        <path d="m14.43,14.52c-.06-1.22-.14-2.69-.13-3.78h-.04c-.3,1.03-.66,2.12-1.1,3.33l-1.55,4.25h-.86l-1.42-4.17c-.42-1.23-.77-2.37-1.01-3.41h-.03c-.03,1.09-.09,2.56-.17,3.87l-.23,3.76h-1.08l.61-8.76h1.44l1.49,4.24c.36,1.08.66,2.04.88,2.95h.04c.22-.88.53-1.85.92-2.95l1.56-4.24h1.44l.55,8.76h-1.1l-.22-3.85Z"/>
        <path d="m21.02,18.37l-.09-.79h-.04c-.35.49-1.03.94-1.92.94-1.27,0-1.92-.9-1.92-1.81,0-1.52,1.35-2.35,3.78-2.34v-.13c0-.52-.14-1.46-1.43-1.46-.58,0-1.2.18-1.64.47l-.26-.75c.52-.34,1.27-.56,2.07-.56,1.92,0,2.39,1.31,2.39,2.57v2.35c0,.55.03,1.08.1,1.51h-1.04Zm-.17-3.21c-1.25-.03-2.67.2-2.67,1.42,0,.74.49,1.09,1.08,1.09.82,0,1.34-.52,1.52-1.05.04-.12.07-.25.07-.36v-1.09Z"/>
        <path d="m24.44,15.43c.03,1.55,1.01,2.18,2.16,2.18.82,0,1.31-.14,1.74-.33l.2.82c-.4.18-1.09.39-2.09.39-1.94,0-3.09-1.27-3.09-3.17s1.12-3.39,2.95-3.39c2.05,0,2.6,1.81,2.6,2.96,0,.23-.03.42-.04.53h-4.42Zm3.35-.82c.01-.73-.3-1.86-1.59-1.86-1.16,0-1.66,1.07-1.76,1.86h3.34Z"/>
        <path d="m30.31,14.04c0-.74-.01-1.38-.05-1.96h1l.04,1.23h.05c.29-.84.97-1.38,1.74-1.38.13,0,.22.01.33.04v1.08c-.12-.03-.23-.04-.39-.04-.81,0-1.38.61-1.53,1.47-.03.16-.05.34-.05.53v3.35h-1.13v-4.33Z"/>
        <path d="m34.41,17.2c.34.22.94.46,1.51.46.83,0,1.22-.42,1.22-.94s-.33-.84-1.17-1.16c-1.13-.4-1.66-1.03-1.66-1.78,0-1.01.82-1.85,2.17-1.85.64,0,1.2.18,1.55.39l-.29.83c-.25-.16-.7-.36-1.29-.36-.68,0-1.05.39-1.05.86,0,.52.38.75,1.2,1.07,1.09.42,1.65.96,1.65,1.9,0,1.1-.86,1.88-2.35,1.88-.69,0-1.33-.17-1.77-.43l.29-.87Z"/>
        <path d="m40.84,14.96h.03c.16-.22.38-.49.56-.71l1.85-2.17h1.38l-2.43,2.59,2.77,3.71h-1.39l-2.17-3.02-.58.65v2.37h-1.13v-9.23h1.13v5.82Z"/>
        <path d="m64.25,9.14h1.14v3.93h.03c.18-.32.47-.61.82-.81.34-.2.74-.33,1.17-.33.84,0,2.2.52,2.2,2.69v3.74h-1.14v-3.61c0-1.01-.38-1.87-1.46-1.87-.74,0-1.33.52-1.53,1.14-.06.16-.08.32-.08.55v3.8h-1.14v-9.23Z"/>
        <path d="m74.95,18.37l-.09-.79h-.04c-.35.49-1.03.94-1.92.94-1.27,0-1.92-.9-1.92-1.81,0-1.52,1.35-2.35,3.78-2.34v-.13c0-.52-.14-1.46-1.43-1.46-.58,0-1.2.18-1.64.47l-.26-.75c.52-.34,1.27-.56,2.07-.56,1.92,0,2.39,1.31,2.39,2.57v2.35c0,.55.03,1.08.1,1.51h-1.04Zm-.17-3.21c-1.25-.03-2.67.2-2.67,1.42,0,.74.49,1.09,1.08,1.09.82,0,1.34-.52,1.52-1.05.04-.12.07-.25.07-.36v-1.09Z"/>
        <path d="m77.57,17.2c.34.22.94.46,1.51.46.83,0,1.22-.42,1.22-.94s-.33-.84-1.17-1.16c-1.13-.4-1.66-1.03-1.66-1.78,0-1.01.82-1.85,2.17-1.85.64,0,1.2.18,1.55.39l-.29.83c-.25-.16-.7-.36-1.29-.36-.68,0-1.05.39-1.05.86,0,.52.38.75,1.2,1.07,1.09.42,1.65.96,1.65,1.9,0,1.1-.86,1.88-2.35,1.88-.69,0-1.33-.17-1.77-.43l.29-.87Z"/>
        <path d="m101.32,14.04c0-.74-.01-1.38-.05-1.96h1l.04,1.23h.05c.29-.84.97-1.38,1.74-1.38.13,0,.22.01.32.04v1.08c-.12-.03-.23-.04-.39-.04-.81,0-1.38.61-1.53,1.47-.03.16-.05.34-.05.53v3.35h-1.13v-4.33Z"/>
        <path d="m106.08,15.43c.03,1.55,1.01,2.18,2.16,2.18.82,0,1.31-.14,1.74-.33l.2.82c-.4.18-1.09.39-2.09.39-1.94,0-3.09-1.27-3.09-3.17s1.12-3.39,2.95-3.39c2.05,0,2.6,1.81,2.6,2.96,0,.23-.03.42-.04.53h-4.42Zm3.35-.82c.01-.73-.3-1.86-1.59-1.86-1.16,0-1.66,1.07-1.76,1.86h3.34Z"/>
        <path d="m115.44,18.37l-.09-.79h-.04c-.35.49-1.03.94-1.92.94-1.27,0-1.92-.9-1.92-1.81,0-1.52,1.35-2.35,3.78-2.34v-.13c0-.52-.14-1.46-1.43-1.46-.59,0-1.2.18-1.64.47l-.26-.75c.52-.34,1.27-.56,2.07-.56,1.92,0,2.39,1.31,2.39,2.57v2.35c0,.55.03,1.08.1,1.51h-1.04Zm-.17-3.21c-1.25-.03-2.67.2-2.67,1.42,0,.74.49,1.09,1.08,1.09.82,0,1.34-.52,1.52-1.05.04-.12.06-.25.06-.36v-1.09Z"/>
        <path d="m122.7,18.13c-.3.16-.96.36-1.81.36-1.9,0-3.13-1.29-3.13-3.21s1.33-3.34,3.38-3.34c.68,0,1.27.17,1.59.32l-.26.88c-.27-.16-.7-.3-1.33-.3-1.44,0-2.22,1.07-2.22,2.38,0,1.46.94,2.35,2.18,2.35.65,0,1.08-.17,1.4-.31l.2.86Z"/>
        <path d="m124.04,9.14h1.14v3.93h.03c.18-.32.47-.61.82-.81.34-.2.74-.33,1.17-.33.84,0,2.2.52,2.2,2.69v3.74h-1.14v-3.61c0-1.01-.38-1.87-1.46-1.87-.74,0-1.33.52-1.53,1.14-.06.16-.08.32-.08.55v3.8h-1.14v-9.23Z"/>
        <path d="m131.89,15.43c.03,1.55,1.01,2.18,2.16,2.18.82,0,1.31-.14,1.74-.33l.2.82c-.4.18-1.09.39-2.09.39-1.94,0-3.09-1.27-3.09-3.17s1.12-3.39,2.95-3.39c2.05,0,2.6,1.81,2.6,2.96,0,.23-.03.42-.04.53h-4.42Zm3.35-.82c.01-.73-.3-1.86-1.59-1.86-1.16,0-1.66,1.07-1.76,1.86h3.34Z"/>
        <path d="m143.2,9.14v7.61c0,.56.01,1.2.05,1.62h-1.03l-.05-1.09h-.03c-.35.7-1.12,1.23-2.14,1.23-1.52,0-2.69-1.29-2.69-3.2-.01-2.09,1.29-3.38,2.82-3.38.96,0,1.61.46,1.9.96h.03v-3.76h1.14Zm-1.14,5.5c0-.14-.01-.34-.05-.48-.17-.73-.79-1.33-1.65-1.33-1.18,0-1.88,1.04-1.88,2.43,0,1.27.62,2.33,1.86,2.33.77,0,1.47-.51,1.68-1.37.04-.16.05-.31.05-.49v-1.09Z"/>
        <path d="m167.02,18.37l-.09-.79h-.04c-.35.49-1.03.94-1.92.94-1.27,0-1.92-.9-1.92-1.81,0-1.52,1.35-2.35,3.78-2.34v-.13c0-.52-.14-1.46-1.43-1.46-.58,0-1.2.18-1.64.47l-.26-.75c.52-.34,1.27-.56,2.07-.56,1.92,0,2.39,1.31,2.39,2.57v2.35c0,.55.03,1.08.1,1.51h-1.04Zm-.17-3.21c-1.25-.03-2.67.2-2.67,1.42,0,.74.49,1.09,1.08,1.09.82,0,1.34-.52,1.52-1.05.04-.12.07-.25.07-.36v-1.09Z"/>
        <path d="m6.85,32.8c.34.22.94.46,1.51.46.83,0,1.22-.42,1.22-.94s-.33-.84-1.17-1.16c-1.13-.4-1.66-1.03-1.66-1.78,0-1.01.82-1.85,2.17-1.85.64,0,1.2.18,1.55.39l-.29.83c-.25-.16-.7-.36-1.29-.36-.68,0-1.05.39-1.05.86,0,.52.38.75,1.2,1.07,1.09.42,1.65.96,1.65,1.9,0,1.1-.86,1.88-2.35,1.88-.69,0-1.33-.17-1.77-.43l.29-.87Z"/>
        <path d="m13.43,25.91c.01.39-.27.7-.73.7-.4,0-.69-.31-.69-.7s.3-.71.72-.71.7.31.7.71Zm-1.27,8.06v-6.29h1.14v6.29h-1.14Z"/>
        <path d="m20.62,27.68c-.03.46-.05.96-.05,1.73v3.65c0,1.44-.29,2.33-.9,2.87-.61.57-1.5.75-2.29.75s-1.59-.18-2.09-.52l.29-.87c.42.26,1.07.49,1.85.49,1.17,0,2.03-.61,2.03-2.2v-.7h-.03c-.35.58-1.03,1.05-2,1.05-1.56,0-2.68-1.33-2.68-3.07,0-2.13,1.39-3.34,2.83-3.34,1.09,0,1.69.57,1.96,1.09h.03l.05-.95h1Zm-1.18,2.48c0-.19-.01-.36-.07-.52-.21-.66-.77-1.21-1.6-1.21-1.09,0-1.87.92-1.87,2.38,0,1.24.62,2.26,1.86,2.26.7,0,1.34-.44,1.59-1.17.06-.19.09-.42.09-.61v-1.13Z"/>
        <path d="m22.38,29.38c0-.65-.01-1.18-.05-1.7h1.01l.07,1.04h.03c.31-.6,1.04-1.18,2.08-1.18.87,0,2.22.52,2.22,2.68v3.76h-1.14v-3.63c0-1.01-.38-1.86-1.46-1.86-.75,0-1.34.53-1.53,1.17-.05.14-.08.34-.08.53v3.78h-1.14v-4.59Z"/>
        <path d="m30.87,25.91c.01.39-.27.7-.73.7-.4,0-.69-.31-.69-.7s.3-.71.72-.71.7.31.7.71Zm-1.27,8.06v-6.29h1.14v6.29h-1.14Z"/>
        <path d="m32.76,33.97v-5.42h-.88v-.87h.88v-.34c0-1.66.97-2.74,2.74-2.74.58,0,1.27.18,1.6.42l-.33.87c-.27-.2-.77-.36-1.33-.36-1.21,0-1.56.84-1.56,1.85v.31h3.65v6.29h-1.13v-5.42h-2.52v5.42h-1.13Z"/>
        <path d="m43.93,33.73c-.3.16-.96.36-1.81.36-1.9,0-3.13-1.29-3.13-3.21s1.33-3.34,3.38-3.34c.68,0,1.27.17,1.59.32l-.26.88c-.27-.16-.7-.3-1.33-.3-1.44,0-2.22,1.07-2.22,2.38,0,1.46.94,2.35,2.18,2.35.65,0,1.08-.17,1.4-.31l.2.86Z"/>
        <path d="m48.75,33.97l-.09-.79h-.04c-.35.49-1.03.94-1.92.94-1.27,0-1.92-.9-1.92-1.81,0-1.52,1.35-2.35,3.78-2.34v-.13c0-.52-.14-1.46-1.43-1.46-.58,0-1.2.18-1.64.47l-.26-.75c.52-.34,1.27-.56,2.07-.56,1.92,0,2.39,1.31,2.39,2.57v2.35c0,.55.03,1.08.1,1.51h-1.04Zm-.17-3.21c-1.25-.03-2.67.19-2.67,1.42,0,.74.49,1.09,1.08,1.09.82,0,1.34-.52,1.52-1.05.04-.12.07-.25.07-.36v-1.09Z"/>
        <path d="m51.53,29.38c0-.65-.01-1.18-.05-1.7h1.01l.06,1.04h.03c.31-.6,1.04-1.18,2.08-1.18.87,0,2.22.52,2.22,2.68v3.76h-1.14v-3.63c0-1.01-.38-1.86-1.46-1.86-.75,0-1.34.53-1.53,1.17-.05.14-.08.34-.08.53v3.78h-1.14v-4.59Z"/>
        <path d="m60.07,25.87v1.81h1.64v.87h-1.64v3.39c0,.78.22,1.22.86,1.22.3,0,.52-.04.66-.08l.05.86c-.22.09-.57.16-1.01.16-.53,0-.96-.17-1.23-.48-.33-.34-.44-.9-.44-1.64v-3.43h-.97v-.87h.97v-1.51l1.12-.3Z"/>
        <path d="m65.38,29.38c0-.65-.01-1.18-.05-1.7h1l.05,1.01h.04c.35-.6.94-1.16,1.98-1.16.86,0,1.51.52,1.78,1.26h.03c.19-.35.44-.62.7-.82.38-.29.79-.44,1.39-.44.83,0,2.07.55,2.07,2.73v3.71h-1.12v-3.56c0-1.21-.44-1.94-1.37-1.94-.65,0-1.16.48-1.35,1.04-.05.16-.09.36-.09.57v3.89h-1.12v-3.77c0-1-.44-1.73-1.31-1.73-.71,0-1.24.57-1.42,1.14-.07.17-.09.36-.09.56v3.8h-1.12v-4.59Z"/>
        <path d="m77.49,25.91c.01.39-.27.7-.73.7-.4,0-.69-.31-.69-.7s.3-.71.72-.71.7.31.7.71Zm-1.27,8.06v-6.29h1.14v6.29h-1.14Z"/>
        <path d="m79.26,24.74h1.14v9.23h-1.14v-9.23Z"/>
        <path d="m82.33,24.74h1.14v9.23h-1.14v-9.23Z"/>
        <path d="m86.67,25.91c.01.39-.27.7-.73.7-.4,0-.69-.31-.69-.7s.3-.71.72-.71.7.31.7.71Zm-1.27,8.06v-6.29h1.14v6.29h-1.14Z"/>
        <path d="m94.13,30.77c0,2.33-1.61,3.34-3.13,3.34-1.7,0-3.02-1.25-3.02-3.24,0-2.11,1.38-3.34,3.12-3.34s3.03,1.31,3.03,3.24Zm-4.99.07c0,1.38.79,2.42,1.91,2.42s1.91-1.03,1.91-2.44c0-1.07-.53-2.42-1.89-2.42s-1.94,1.25-1.94,2.44Z"/>
        <path d="m95.58,29.38c0-.65-.01-1.18-.05-1.7h1.01l.07,1.04h.03c.31-.6,1.04-1.18,2.08-1.18.87,0,2.22.52,2.22,2.68v3.76h-1.14v-3.63c0-1.01-.38-1.86-1.46-1.86-.75,0-1.34.53-1.53,1.17-.05.14-.08.34-.08.53v3.78h-1.14v-4.59Z"/>
        <path d="m104.12,25.87v1.81h1.64v.87h-1.64v3.39c0,.78.22,1.22.86,1.22.3,0,.52-.04.66-.08l.05.86c-.22.09-.57.16-1.01.16-.53,0-.96-.17-1.23-.48-.33-.34-.44-.9-.44-1.64v-3.43h-.97v-.87h.97v-1.51l1.12-.3Z"/>
        <path d="m107.04,24.74h1.14v3.93h.03c.18-.33.47-.61.82-.81.34-.2.74-.33,1.17-.33.84,0,2.2.52,2.2,2.69v3.74h-1.14v-3.61c0-1.01-.38-1.87-1.46-1.87-.74,0-1.33.52-1.53,1.14-.06.16-.08.32-.08.55v3.8h-1.14v-9.23Z"/>
        <path d="m116.64,29.38c0-.65-.01-1.18-.05-1.7h1l.05,1.01h.04c.35-.6.94-1.16,1.98-1.16.86,0,1.51.52,1.78,1.26h.03c.19-.35.44-.62.7-.82.38-.29.79-.44,1.39-.44.83,0,2.07.55,2.07,2.73v3.71h-1.12v-3.56c0-1.21-.44-1.94-1.37-1.94-.65,0-1.16.48-1.35,1.04-.05.16-.09.36-.09.57v3.89h-1.12v-3.77c0-1-.44-1.73-1.31-1.73-.71,0-1.24.57-1.42,1.14-.07.17-.09.36-.09.56v3.8h-1.12v-4.59Z"/>
        <path d="m133.17,30.77c0,2.33-1.61,3.34-3.13,3.34-1.7,0-3.02-1.25-3.02-3.24,0-2.11,1.38-3.34,3.12-3.34s3.03,1.31,3.03,3.24Zm-4.99.07c0,1.38.79,2.42,1.91,2.42s1.91-1.03,1.91-2.44c0-1.07-.53-2.42-1.89-2.42s-1.94,1.25-1.94,2.44Z"/>
        <path d="m134.62,29.38c0-.65-.01-1.18-.05-1.7h1l.05,1.01h.04c.35-.6.94-1.16,1.98-1.16.86,0,1.51.52,1.78,1.26h.03c.19-.35.44-.62.7-.82.38-.29.79-.44,1.39-.44.83,0,2.07.55,2.07,2.73v3.71h-1.12v-3.56c0-1.21-.44-1.94-1.37-1.94-.65,0-1.16.48-1.35,1.04-.05.16-.09.36-.09.57v3.89h-1.12v-3.77c0-1-.44-1.73-1.31-1.73-.71,0-1.24.57-1.42,1.14-.07.17-.09.36-.09.56v3.8h-1.12v-4.59Z"/>
        <path d="m146.09,31.03c.03,1.55,1.01,2.18,2.16,2.18.82,0,1.31-.14,1.74-.33l.2.82c-.4.18-1.09.39-2.09.39-1.94,0-3.09-1.27-3.09-3.17s1.12-3.39,2.95-3.39c2.05,0,2.6,1.81,2.6,2.96,0,.23-.03.42-.04.53h-4.42Zm3.35-.82c.01-.73-.3-1.86-1.59-1.86-1.16,0-1.66,1.07-1.76,1.86h3.34Z"/>
        <path d="m151.97,29.38c0-.65-.01-1.18-.05-1.7h1.01l.07,1.04h.03c.31-.6,1.04-1.18,2.08-1.18.87,0,2.22.52,2.22,2.68v3.76h-1.14v-3.63c0-1.01-.38-1.86-1.46-1.86-.75,0-1.34.53-1.53,1.17-.05.14-.08.34-.08.53v3.78h-1.14v-4.59Z"/>
        <path d="m160.51,25.87v1.81h1.64v.87h-1.64v3.39c0,.78.22,1.22.86,1.22.3,0,.52-.04.66-.08l.05.86c-.22.09-.57.16-1.01.16-.53,0-.96-.17-1.23-.48-.33-.34-.44-.9-.44-1.64v-3.43h-.97v-.87h.97v-1.51l1.12-.3Z"/>
        <path d="m168.47,30.03v.85h-3.21v-.85h3.21Z"/>
        <path d="m8.38,41.47v1.81h1.64v.87h-1.64v3.39c0,.78.22,1.22.86,1.22.3,0,.52-.04.66-.08l.05.86c-.22.09-.57.16-1.01.16-.53,0-.96-.17-1.23-.48-.33-.34-.44-.9-.44-1.64v-3.43h-.97v-.87h.97v-1.51l1.12-.3Z"/>
        <path d="m11.31,40.34h1.14v3.93h.03c.18-.33.47-.61.82-.81.34-.2.74-.33,1.17-.33.84,0,2.2.52,2.2,2.69v3.74h-1.14v-3.61c0-1.01-.38-1.87-1.46-1.87-.74,0-1.33.52-1.53,1.14-.06.16-.08.32-.08.55v3.8h-1.14v-9.23Z"/>
        <path d="m19.16,46.63c.03,1.55,1.01,2.18,2.16,2.18.82,0,1.31-.14,1.74-.33l.2.82c-.4.18-1.09.39-2.09.39-1.94,0-3.09-1.27-3.09-3.17s1.12-3.39,2.95-3.39c2.05,0,2.6,1.81,2.6,2.96,0,.23-.03.42-.04.53h-4.42Zm3.35-.82c.01-.73-.3-1.86-1.59-1.86-1.16,0-1.66,1.07-1.76,1.86h3.34Z"/>
        <path d="m32.14,41.47v1.81h1.64v.87h-1.64v3.39c0,.78.22,1.22.86,1.22.3,0,.52-.04.66-.08l.05.86c-.22.09-.57.16-1.01.16-.53,0-.96-.17-1.23-.48-.33-.34-.44-.9-.44-1.64v-3.43h-.97v-.87h.97v-1.51l1.12-.3Z"/>
        <path d="m35.07,45.24c0-.74-.01-1.38-.05-1.96h1l.04,1.23h.05c.29-.84.97-1.38,1.74-1.38.13,0,.22.01.33.04v1.08c-.12-.03-.23-.04-.39-.04-.81,0-1.38.61-1.53,1.47-.03.16-.05.34-.05.53v3.35h-1.13v-4.33Z"/>
        <path d="m42.74,49.57l-.09-.79h-.04c-.35.49-1.03.94-1.92.94-1.27,0-1.92-.9-1.92-1.81,0-1.52,1.35-2.35,3.78-2.34v-.13c0-.52-.14-1.46-1.43-1.46-.58,0-1.2.18-1.64.47l-.26-.75c.52-.34,1.27-.56,2.07-.56,1.92,0,2.39,1.31,2.39,2.57v2.35c0,.55.03,1.08.1,1.51h-1.04Zm-.17-3.21c-1.25-.03-2.67.19-2.67,1.42,0,.74.49,1.09,1.08,1.09.82,0,1.34-.52,1.52-1.05.04-.12.07-.25.07-.36v-1.09Z"/>
        <path d="m45.52,44.98c0-.65-.01-1.18-.05-1.7h1.01l.06,1.04h.03c.31-.6,1.04-1.18,2.08-1.18.87,0,2.22.52,2.22,2.68v3.76h-1.14v-3.63c0-1.01-.38-1.86-1.46-1.86-.75,0-1.34.53-1.53,1.17-.05.14-.08.34-.08.53v3.78h-1.14v-4.59Z"/>
        <path d="m52.58,48.4c.34.22.94.46,1.51.46.83,0,1.22-.42,1.22-.94s-.33-.84-1.17-1.16c-1.13-.4-1.66-1.03-1.66-1.78,0-1.01.82-1.85,2.17-1.85.64,0,1.2.18,1.55.39l-.29.83c-.25-.16-.7-.36-1.29-.36-.68,0-1.05.39-1.05.86,0,.52.38.75,1.2,1.07,1.09.42,1.65.96,1.65,1.9,0,1.1-.86,1.88-2.35,1.88-.69,0-1.33-.17-1.77-.43l.29-.87Z"/>
        <path d="m57.88,45.33c0-.81-.03-1.46-.05-2.05h1.03l.05,1.08h.03c.47-.77,1.21-1.22,2.24-1.22,1.52,0,2.67,1.29,2.67,3.2,0,2.26-1.38,3.38-2.86,3.38-.83,0-1.56-.36-1.94-.99h-.03v3.42h-1.13v-6.81Zm1.13,1.68c0,.17.03.33.05.47.21.79.9,1.34,1.72,1.34,1.21,0,1.91-.99,1.91-2.43,0-1.26-.66-2.34-1.87-2.34-.78,0-1.51.56-1.73,1.42-.04.14-.08.31-.08.47v1.08Z"/>
        <path d="m70.97,46.37c0,2.33-1.61,3.34-3.13,3.34-1.7,0-3.02-1.25-3.02-3.24,0-2.11,1.38-3.34,3.12-3.34s3.03,1.31,3.03,3.24Zm-4.99.07c0,1.38.79,2.42,1.91,2.42s1.91-1.03,1.91-2.44c0-1.07-.53-2.42-1.89-2.42s-1.94,1.25-1.94,2.44Z"/>
        <path d="m72.42,45.24c0-.74-.01-1.38-.05-1.96h1l.04,1.23h.05c.29-.84.97-1.38,1.74-1.38.13,0,.22.01.32.04v1.08c-.12-.03-.23-.04-.39-.04-.81,0-1.38.61-1.53,1.47-.03.16-.05.34-.05.53v3.35h-1.13v-4.33Z"/>
        <path d="m78.36,41.47v1.81h1.64v.87h-1.64v3.39c0,.78.22,1.22.86,1.22.3,0,.52-.04.66-.08l.05.86c-.22.09-.57.16-1.01.16-.53,0-.96-.17-1.23-.48-.33-.34-.44-.9-.44-1.64v-3.43h-.97v-.87h.97v-1.51l1.12-.3Z"/>
        <path d="m84.76,49.57l-.09-.79h-.04c-.35.49-1.03.94-1.92.94-1.27,0-1.92-.9-1.92-1.81,0-1.52,1.35-2.35,3.78-2.34v-.13c0-.52-.14-1.46-1.43-1.46-.58,0-1.2.18-1.64.47l-.26-.75c.52-.34,1.27-.56,2.07-.56,1.92,0,2.39,1.31,2.39,2.57v2.35c0,.55.03,1.08.1,1.51h-1.04Zm-.17-3.21c-1.25-.03-2.67.19-2.67,1.42,0,.74.49,1.09,1.08,1.09.82,0,1.34-.52,1.52-1.05.04-.12.07-.25.07-.36v-1.09Z"/>
        <path d="m88.87,41.47v1.81h1.64v.87h-1.64v3.39c0,.78.22,1.22.86,1.22.3,0,.52-.04.66-.08l.05.86c-.22.09-.57.16-1.01.16-.53,0-.96-.17-1.23-.48-.33-.34-.44-.9-.44-1.64v-3.43h-.97v-.87h.97v-1.51l1.12-.3Z"/>
        <path d="m93.07,41.51c.01.39-.27.7-.73.7-.4,0-.69-.31-.69-.7s.3-.71.72-.71.7.31.7.71Zm-1.27,8.06v-6.29h1.14v6.29h-1.14Z"/>
        <path d="m100.53,46.37c0,2.33-1.61,3.34-3.13,3.34-1.7,0-3.02-1.25-3.02-3.24,0-2.11,1.38-3.34,3.12-3.34s3.03,1.31,3.03,3.24Zm-4.99.07c0,1.38.79,2.42,1.91,2.42s1.91-1.03,1.91-2.44c0-1.07-.53-2.42-1.89-2.42s-1.94,1.25-1.94,2.44Z"/>
        <path d="m101.98,44.98c0-.65-.01-1.18-.05-1.7h1.01l.06,1.04h.03c.31-.6,1.04-1.18,2.08-1.18.87,0,2.22.52,2.22,2.68v3.76h-1.14v-3.63c0-1.01-.38-1.86-1.46-1.86-.75,0-1.34.53-1.53,1.17-.05.14-.08.34-.08.53v3.78h-1.14v-4.59Z"/>
        <path d="m120.61,46.37c0,2.33-1.61,3.34-3.13,3.34-1.7,0-3.02-1.25-3.02-3.24,0-2.11,1.38-3.34,3.12-3.34s3.03,1.31,3.03,3.24Zm-4.99.07c0,1.38.79,2.42,1.91,2.42s1.91-1.03,1.91-2.44c0-1.07-.53-2.42-1.89-2.42s-1.94,1.25-1.94,2.44Z"/>
        <path d="m122.17,49.57v-5.42h-.88v-.87h.88v-.3c0-.88.19-1.69.73-2.2.43-.42,1-.58,1.53-.58.4,0,.75.09.97.18l-.16.88c-.17-.08-.4-.14-.73-.14-.97,0-1.22.86-1.22,1.82v.34h1.52v.87h-1.52v5.42h-1.13Z"/>
        <path d="m132.85,41.51c.01.39-.27.7-.73.7-.4,0-.69-.31-.69-.7s.3-.71.72-.71.7.31.7.71Zm-1.27,8.06v-6.29h1.14v6.29h-1.14Z"/>
        <path d="m136,41.47v1.81h1.64v.87h-1.64v3.39c0,.78.22,1.22.86,1.22.3,0,.52-.04.66-.08l.05.86c-.22.09-.57.16-1.01.16-.53,0-.96-.17-1.23-.48-.33-.34-.44-.9-.44-1.64v-3.43h-.97v-.87h.97v-1.51l1.12-.3Z"/>
        <path d="m138.77,48.4c.34.22.94.46,1.51.46.83,0,1.22-.42,1.22-.94s-.33-.84-1.17-1.16c-1.13-.4-1.66-1.03-1.66-1.78,0-1.01.82-1.85,2.17-1.85.64,0,1.2.18,1.55.39l-.29.83c-.25-.16-.7-.36-1.29-.36-.68,0-1.05.39-1.05.86,0,.52.38.75,1.2,1.07,1.09.42,1.65.96,1.65,1.9,0,1.1-.86,1.88-2.35,1.88-.69,0-1.33-.17-1.77-.43l.29-.87Z"/>
        <path d="m151.92,42.18h-.03l-1.47.79-.22-.87,1.85-.99h.97v8.45h-1.1v-7.38Z"/>
        <path d="m161.72,45.25c0,2.87-1.07,4.46-2.94,4.46-1.65,0-2.77-1.55-2.79-4.34,0-2.83,1.22-4.39,2.94-4.39s2.79,1.59,2.79,4.28Zm-4.59.13c0,2.2.68,3.45,1.72,3.45,1.17,0,1.73-1.37,1.73-3.52s-.53-3.44-1.72-3.44c-1,0-1.73,1.22-1.73,3.52Z"/>
        <path d="m168.39,45.25c0,2.87-1.07,4.46-2.94,4.46-1.65,0-2.77-1.55-2.79-4.34,0-2.83,1.22-4.39,2.94-4.39s2.79,1.59,2.79,4.28Zm-4.59.13c0,2.2.68,3.45,1.72,3.45,1.17,0,1.73-1.37,1.73-3.52s-.53-3.44-1.72-3.44c-1,0-1.73,1.22-1.73,3.52Z"/>
        <path d="m7.01,60.58c0-.65-.01-1.18-.05-1.7h1l.05,1.01h.04c.35-.6.94-1.16,1.98-1.16.86,0,1.51.52,1.78,1.26h.03c.19-.35.44-.62.7-.82.38-.29.79-.44,1.39-.44.83,0,2.07.55,2.07,2.73v3.71h-1.12v-3.56c0-1.21-.44-1.94-1.37-1.94-.65,0-1.16.48-1.35,1.04-.05.16-.09.36-.09.57v3.89h-1.12v-3.77c0-1-.44-1.73-1.31-1.73-.71,0-1.24.57-1.42,1.14-.07.17-.09.36-.09.56v3.8h-1.12v-4.59Z"/>
        <path d="m19.12,57.11c.01.39-.27.7-.73.7-.4,0-.69-.31-.69-.7s.3-.71.72-.71.7.31.7.71Zm-1.27,8.06v-6.29h1.14v6.29h-1.14Z"/>
        <path d="m20.89,55.94h1.14v9.23h-1.14v-9.23Z"/>
        <path d="m23.96,55.94h1.14v9.23h-1.14v-9.23Z"/>
        <path d="m28.3,57.11c.01.39-.27.7-.73.7-.4,0-.69-.31-.69-.7s.3-.71.72-.71.7.31.7.71Zm-1.27,8.06v-6.29h1.14v6.29h-1.14Z"/>
        <path d="m35.76,61.97c0,2.33-1.61,3.34-3.13,3.34-1.7,0-3.02-1.25-3.02-3.24,0-2.11,1.38-3.34,3.12-3.34s3.03,1.31,3.03,3.24Zm-4.99.07c0,1.38.79,2.42,1.91,2.42s1.91-1.03,1.91-2.44c0-1.07-.53-2.42-1.89-2.42s-1.94,1.25-1.94,2.44Z"/>
        <path d="m37.21,60.58c0-.65-.01-1.18-.05-1.7h1.01l.07,1.04h.03c.31-.6,1.04-1.18,2.08-1.18.87,0,2.22.52,2.22,2.68v3.76h-1.14v-3.63c0-1.01-.38-1.86-1.46-1.86-.75,0-1.34.53-1.53,1.17-.05.14-.08.34-.08.53v3.78h-1.14v-4.59Z"/>
        <path d="m45.75,57.07v1.81h1.64v.87h-1.64v3.39c0,.78.22,1.22.86,1.22.3,0,.52-.04.66-.08l.05.86c-.22.09-.57.16-1.01.16-.53,0-.96-.17-1.23-.48-.33-.34-.44-.9-.44-1.64v-3.43h-.97v-.87h.97v-1.51l1.12-.3Z"/>
        <path d="m48.67,55.94h1.14v3.93h.03c.18-.32.47-.61.82-.81.34-.2.74-.33,1.17-.33.84,0,2.2.52,2.2,2.69v3.74h-1.14v-3.61c0-1.01-.38-1.87-1.46-1.87-.74,0-1.33.52-1.53,1.14-.06.16-.08.32-.08.55v3.8h-1.14v-9.23Z"/>
        <path d="m63.13,64.93c-.3.16-.96.36-1.81.36-1.9,0-3.13-1.29-3.13-3.21s1.33-3.34,3.38-3.34c.68,0,1.27.17,1.59.32l-.26.88c-.27-.16-.7-.3-1.33-.3-1.44,0-2.22,1.07-2.22,2.38,0,1.46.94,2.35,2.18,2.35.65,0,1.08-.17,1.4-.31l.2.86Z"/>
        <path d="m70.08,61.97c0,2.33-1.61,3.34-3.13,3.34-1.7,0-3.02-1.25-3.02-3.24,0-2.11,1.38-3.34,3.12-3.34s3.03,1.31,3.03,3.24Zm-4.99.07c0,1.38.79,2.42,1.91,2.42s1.91-1.03,1.91-2.44c0-1.07-.53-2.42-1.89-2.42s-1.94,1.25-1.94,2.44Z"/>
        <path d="m71.52,60.58c0-.65-.01-1.18-.05-1.7h1.01l.06,1.04h.03c.31-.6,1.04-1.18,2.08-1.18.87,0,2.22.52,2.22,2.68v3.76h-1.14v-3.63c0-1.01-.38-1.86-1.46-1.86-.75,0-1.34.53-1.53,1.17-.05.14-.08.34-.08.53v3.78h-1.14v-4.59Z"/>
        <path d="m80.07,57.07v1.81h1.64v.87h-1.64v3.39c0,.78.22,1.22.86,1.22.3,0,.52-.04.66-.08l.05.86c-.22.09-.57.16-1.01.16-.53,0-.96-.17-1.23-.48-.33-.34-.44-.9-.44-1.64v-3.43h-.97v-.87h.97v-1.51l1.12-.3Z"/>
        <path d="m86.47,65.17l-.09-.79h-.04c-.35.49-1.03.94-1.92.94-1.27,0-1.92-.9-1.92-1.81,0-1.52,1.35-2.35,3.78-2.34v-.13c0-.52-.14-1.46-1.43-1.46-.59,0-1.2.18-1.64.47l-.26-.75c.52-.34,1.27-.56,2.07-.56,1.92,0,2.39,1.31,2.39,2.57v2.35c0,.55.03,1.08.1,1.51h-1.04Zm-.17-3.21c-1.25-.03-2.67.2-2.67,1.42,0,.74.49,1.09,1.08,1.09.82,0,1.34-.52,1.52-1.05.04-.12.06-.25.06-.36v-1.09Z"/>
        <path d="m90.53,57.11c.01.39-.27.7-.73.7-.4,0-.69-.31-.69-.7s.3-.71.72-.71.7.31.7.71Zm-1.27,8.06v-6.29h1.14v6.29h-1.14Z"/>
        <path d="m92.3,60.58c0-.65-.01-1.18-.05-1.7h1.01l.06,1.04h.03c.31-.6,1.04-1.18,2.08-1.18.87,0,2.22.52,2.22,2.68v3.76h-1.14v-3.63c0-1.01-.38-1.86-1.46-1.86-.75,0-1.34.53-1.53,1.17-.05.14-.08.34-.08.53v3.78h-1.14v-4.59Z"/>
        <path d="m100.15,62.23c.03,1.55,1.01,2.18,2.16,2.18.82,0,1.31-.14,1.74-.33l.2.82c-.4.18-1.09.39-2.09.39-1.94,0-3.09-1.27-3.09-3.17s1.12-3.39,2.95-3.39c2.05,0,2.6,1.81,2.6,2.96,0,.23-.03.42-.04.53h-4.42Zm3.35-.82c.01-.73-.3-1.86-1.59-1.86-1.16,0-1.66,1.07-1.76,1.86h3.34Z"/>
        <path d="m106.03,60.84c0-.74-.01-1.38-.05-1.96h1l.04,1.23h.05c.29-.84.97-1.38,1.74-1.38.13,0,.22.01.33.04v1.08c-.12-.03-.23-.04-.39-.04-.81,0-1.38.61-1.53,1.47-.03.16-.05.34-.05.53v3.35h-1.13v-4.33Z"/>
        <path d="m109.31,64.49c0-.48.33-.82.78-.82s.77.34.77.82-.3.82-.78.82c-.46,0-.77-.35-.77-.82Z"/>
      </g>
    </g>
  </g>
</svg>