<?xml version="1.0" encoding="UTF-8"?>
<svg id="Layer_2" data-name="Layer 2" xmlns="http://www.w3.org/2000/svg" viewBox="0 0 118.78 114.07">
  <defs>
    <style>
      .cls-1 {
        fill: #fff;
        stroke: #497c72;
        stroke-miterlimit: 10;
        stroke-width: 2px;
      }

      .cls-2 {
        fill: #017373;
      }

      .cls-3 {
        fill: #302a2a;
      }
    </style>
  </defs>
  <g id="Layer_1-2" data-name="Layer 1">
    <g>
      <rect class="cls-1" x="1" y="1" width="116.78" height="112.07" rx="23.04" ry="23.04"/>
      <g>
        <path class="cls-3" d="m12.13,18.06h-2.24v5.57h-1.63v-5.57h-2.25l.07-1.24h5.99l.05,1.24Z"/>
        <path class="cls-3" d="m17.53,21.29v2.35h-1.53v-2.7c0-.89-.18-1.23-.83-1.23-.26,0-.51.06-.77.19v3.74h-1.53v-7.12l1.32-.2h.21v2.83c.48-.4,1.03-.57,1.55-.57.83,0,1.34.43,1.49,1.08.07.33.08.75.08,1.63Z"/>
        <path class="cls-3" d="m23.01,21.38h-3.16c.05.95.49,1.36,1.28,1.36.53,0,1.12-.14,1.62-.43l.2,1.07c-.45.25-1.18.4-1.95.4-1.8,0-2.68-.92-2.68-2.54s1.03-2.72,2.5-2.72,2.19.8,2.19,2.36v.5Zm-1.5-.86c0-.78-.25-1.08-.7-1.08-.48,0-.81.38-.92,1.15l1.62-.07Z"/>
        <path class="cls-2" d="m35.52,22.97v-7.4c0-.67.37-1.04,1.04-1.04h1.21c1.28,0,1.95.62,1.95,1.82v1.88c0,1.2-.67,1.81-1.95,1.81h-.57v2.92c0,.45-.31.72-.84.72s-.84-.27-.84-.72Zm1.68-4.3h.43c.25,0,.4-.15.4-.42v-1.85c0-.27-.15-.45-.4-.45h-.43v2.71Z"/>
        <path class="cls-2" d="m40,22.14v-.74c0-1.09.76-1.61,1.75-1.61.38,0,.64.07.81.15v-2.03c0-.29-.14-.47-.37-.47h-.07c-.24,0-.37.19-.37.47v.58c0,.43-.3.71-.81.71s-.82-.27-.82-.71v-.71c0-1.15.66-1.71,1.88-1.71h.36c1.24,0,1.87.62,1.87,1.85v5.06c0,.45-.3.72-.84.72-.47,0-.77-.22-.82-.58-.2.25-.66.58-1.29.58-.74,0-1.28-.43-1.28-1.55Zm2.11.27c.17,0,.35-.11.45-.26v-1.16c-.09-.05-.21-.07-.36-.07-.32,0-.51.19-.51.56v.38c0,.37.16.56.42.56Z"/>
        <path class="cls-2" d="m44.76,21.82v-3.89c0-1.23.67-1.86,1.93-1.86h.36c1.26,0,1.93.63,1.93,1.86v.53c0,.45-.31.73-.84.73s-.84-.29-.84-.73v-.56c0-.29-.14-.47-.4-.47h-.07c-.25,0-.38.19-.38.47v3.98c0,.29.14.45.38.45h.07c.26,0,.4-.16.4-.45v-.98c0-.45.31-.72.84-.72s.84.27.84.72v.92c0,1.25-.67,1.87-1.93,1.87h-.36c-1.26,0-1.93-.62-1.93-1.87Z"/>
        <path class="cls-2" d="m49.52,14.89c0-.51.31-.77.88-.77s.89.26.89.77-.32.77-.89.77-.88-.26-.88-.77Zm.02,8.05v-6.13c0-.46.31-.74.86-.74s.87.29.87.74v6.13c0,.46-.32.74-.87.74s-.86-.29-.86-.74Z"/>
        <path class="cls-2" d="m52.09,22.96v-5.48c-.33-.02-.53-.27-.53-.67,0-.42.22-.67.56-.67.14-1.19,1.02-1.66,2.49-1.66.64,0,1.14.06,1.45.21.22.11.35.28.35.53,0,.35-.26.57-.73.57-.61,0-1.21-.2-1.54-.1-.22.06-.37.24-.37.45h1.56c.68,0,1.04.37,1.04,1.04v5.76c0,.46-.31.74-.86.74s-.87-.29-.87-.74v-5.46h-.88v5.48c0,.45-.3.73-.83.73s-.84-.29-.84-.73Z"/>
        <path class="cls-2" d="m56.92,21.82v-3.89c0-1.23.67-1.86,1.93-1.86h.36c1.26,0,1.93.63,1.93,1.86v.53c0,.45-.31.73-.84.73s-.84-.29-.84-.73v-.56c0-.29-.14-.47-.4-.47h-.07c-.25,0-.38.19-.38.47v3.98c0,.29.14.45.38.45h.07c.26,0,.4-.16.4-.45v-.98c0-.45.31-.72.84-.72s.84.27.84.72v.92c0,1.25-.67,1.87-1.93,1.87h-.36c-1.26,0-1.93-.62-1.93-1.87Z"/>
        <path class="cls-2" d="m70.47,21.82v-5.48c0-1.23.67-1.86,1.93-1.86h.36c1.28,0,1.93.63,1.93,1.86v5.48c0,1.25-.66,1.87-1.93,1.87h-.36c-1.26,0-1.93-.62-1.93-1.87Zm2.14.47c.26,0,.41-.16.41-.46v-5.48c0-.29-.15-.47-.41-.47h-.07c-.25,0-.38.19-.38.47v5.48c0,.3.14.46.38.46h.07Z"/>
        <path class="cls-2" d="m75.24,21.82v-3.89c0-1.23.67-1.86,1.93-1.86h.36c1.26,0,1.93.63,1.93,1.86v.53c0,.45-.31.73-.84.73s-.84-.29-.84-.73v-.56c0-.29-.14-.47-.4-.47h-.07c-.25,0-.38.19-.38.47v3.98c0,.29.14.45.38.45h.07c.26,0,.4-.16.4-.45v-.98c0-.45.31-.72.84-.72s.84.27.84.72v.92c0,1.25-.67,1.87-1.93,1.87h-.36c-1.26,0-1.93-.62-1.93-1.87Z"/>
        <path class="cls-2" d="m79.94,21.82v-3.89c0-1.23.67-1.86,1.93-1.86h.37c1.28,0,1.95.63,1.95,1.86v.54c0,.68-.37,1.05-1.05,1.05h-1.51v2.35c0,.29.14.45.38.45h.09c.27,0,.41-.16.41-.45v-.98c0-.45.31-.72.84-.72s.84.27.84.72v.92c0,1.25-.67,1.87-1.95,1.87h-.37c-1.26,0-1.93-.62-1.93-1.87Zm1.68-3.28h.88v-.63c0-.29-.14-.47-.41-.47h-.09c-.25,0-.38.19-.38.47v.63Z"/>
        <path class="cls-2" d="m84.62,22.14v-.74c0-1.09.76-1.61,1.75-1.61.38,0,.64.07.81.15v-2.03c0-.29-.14-.47-.37-.47h-.07c-.24,0-.37.19-.37.47v.58c0,.43-.3.71-.81.71s-.82-.27-.82-.71v-.71c0-1.15.66-1.71,1.88-1.71h.36c1.24,0,1.87.62,1.87,1.85v5.06c0,.45-.3.72-.84.72-.47,0-.77-.22-.82-.58-.2.25-.66.58-1.29.58-.74,0-1.28-.43-1.28-1.55Zm2.11.27c.17,0,.35-.11.45-.26v-1.16c-.09-.05-.21-.07-.36-.07-.32,0-.51.19-.51.56v.38c0,.37.16.56.42.56Z"/>
        <path class="cls-2" d="m89.43,22.94v-6.13c0-.46.31-.74.86-.74.45,0,.73.2.82.53.2-.2.68-.53,1.36-.53.8,0,1.23.4,1.23,1.55v5.33c0,.46-.31.74-.84.74s-.85-.29-.85-.74v-4.92c0-.37-.16-.56-.42-.56-.19,0-.35.11-.45.26v5.22c0,.46-.31.74-.84.74s-.86-.29-.86-.74Z"/>
        <path class="cls-3" d="m106.28,17.09c0-.52.35-.91.92-.91s.92.39.92.91-.35.9-.92.9-.92-.38-.92-.9Zm.15,1.71l1.31-.2h.22v5.03h-1.53v-4.83Z"/>
        <path class="cls-3" d="m108.87,23.53l.14-1.26c.44.29,1.06.46,1.52.46s.7-.15.7-.46c0-.21-.17-.34-.92-.63-.93-.36-1.4-.72-1.4-1.51,0-.95.72-1.61,2.11-1.61.59,0,1.08.09,1.48.26l-.16,1.21c-.4-.25-.96-.4-1.37-.4s-.63.14-.63.42c0,.23.15.33.74.57,1.19.49,1.6.89,1.6,1.61,0,.95-.67,1.59-2.09,1.59-.74,0-1.31-.08-1.73-.25Z"/>
        <path class="cls-3" d="m6.14,33.92c0-1.71,1.02-2.75,2.68-2.75.57,0,1.05.08,1.44.25l-.16,1.21c-.5-.26-.9-.39-1.19-.39-.79,0-1.17.57-1.17,1.6s.39,1.54,1.17,1.54c.36,0,.85-.13,1.26-.45l.2,1.1c-.34.24-.97.39-1.58.39-1.8,0-2.64-.92-2.64-2.51Z"/>
        <path class="cls-3" d="m10.77,33.86c0-1.63,1.01-2.68,2.61-2.68,1.71,0,2.51.99,2.51,2.53,0,1.77-1.09,2.73-2.6,2.73-1.67,0-2.52-.94-2.52-2.57Zm3.52-.07c0-1.09-.28-1.61-.93-1.61s-.99.57-.99,1.63c0,1.13.31,1.62.91,1.62.67,0,1.01-.55,1.01-1.64Z"/>
        <path class="cls-3" d="m21.41,33.94v2.35h-1.53v-2.71c0-.89-.2-1.22-.83-1.22-.26,0-.51.06-.77.19v3.74h-1.53v-4.83l1.29-.2h.21v.56c.49-.41,1.08-.59,1.58-.59.83,0,1.34.43,1.49,1.08.07.33.08.75.08,1.63Z"/>
        <path class="cls-3" d="m22.25,36.18l.14-1.26c.44.29,1.06.46,1.52.46s.7-.15.7-.46c0-.21-.17-.34-.92-.63-.93-.36-1.4-.72-1.4-1.51,0-.95.72-1.61,2.11-1.61.59,0,1.08.09,1.48.26l-.16,1.21c-.4-.25-.96-.4-1.37-.4s-.63.14-.63.42c0,.23.15.33.74.57,1.19.49,1.6.89,1.6,1.61,0,.95-.67,1.59-2.09,1.59-.74,0-1.31-.08-1.73-.25Z"/>
        <path class="cls-3" d="m26.72,29.75c0-.52.35-.91.92-.91s.92.39.92.91-.35.9-.92.9-.92-.38-.92-.9Zm.15,1.71l1.31-.2h.22v5.03h-1.53v-4.83Z"/>
        <path class="cls-3" d="m34.24,28.97v7.32h-1.51v-.51c-.3.37-.79.58-1.4.58-1.22,0-2.07-.84-2.07-2.36,0-1.68,1.09-2.83,2.77-2.83.22,0,.45.03.68.08v-2.08l1.33-.2h.2Zm-1.53,6.06v-2.71c-.21-.11-.44-.16-.68-.16-.79,0-1.18.68-1.18,1.76,0,.91.48,1.35,1.1,1.35.31,0,.56-.07.77-.22Z"/>
        <path class="cls-3" d="m39.79,34.03h-3.16c.05.95.49,1.36,1.28,1.36.53,0,1.12-.14,1.62-.43l.2,1.07c-.45.25-1.18.4-1.95.4-1.8,0-2.68-.92-2.68-2.54s1.03-2.72,2.5-2.72,2.19.8,2.19,2.36v.5Zm-1.5-.86c0-.78-.25-1.08-.7-1.08-.48,0-.81.38-.92,1.15l1.62-.07Z"/>
        <path class="cls-3" d="m43.91,31.39l-.12,1.4c-.2-.02-.38-.03-.53-.03-.36,0-.48.06-.82.42l-.25.28v2.84h-1.53v-4.83l1.28-.2h.21v1.36l.31-.6c.32-.6.52-.77.88-.77.19,0,.39.05.58.14Z"/>
        <path class="cls-3" d="m48.84,34.03h-3.16c.05.95.49,1.36,1.28,1.36.53,0,1.12-.14,1.62-.43l.2,1.07c-.45.25-1.18.4-1.95.4-1.8,0-2.68-.92-2.68-2.54s1.03-2.72,2.5-2.72,2.19.8,2.19,2.36v.5Zm-1.5-.86c0-.78-.25-1.08-.7-1.08-.48,0-.81.38-.92,1.15l1.62-.07Z"/>
        <path class="cls-3" d="m54.44,28.97v7.32h-1.51v-.51c-.3.37-.79.58-1.4.58-1.22,0-2.07-.84-2.07-2.36,0-1.68,1.09-2.83,2.77-2.83.22,0,.45.03.68.08v-2.08l1.33-.2h.2Zm-1.53,6.06v-2.71c-.21-.11-.44-.16-.68-.16-.79,0-1.18.68-1.18,1.76,0,.91.48,1.35,1.1,1.35.31,0,.56-.07.77-.22Z"/>
        <path class="cls-3" d="m64.51,36.15c-.36.19-.83.29-1.41.29-1.13,0-1.71-.49-1.71-1.58,0-.52.02-1.27.06-2.21h-.68l.06-.91.7-.17.06-.99,1.26-.19h.13l-.03,1.15h1.49l-.07,1.11h-1.42v2.16c0,.37.14.52.46.52.26,0,.58-.09.95-.28l.15,1.1Z"/>
        <path class="cls-3" d="m69.95,33.94v2.35h-1.53v-2.7c0-.89-.18-1.23-.83-1.23-.26,0-.51.06-.77.19v3.74h-1.53v-7.12l1.32-.2h.21v2.83c.48-.4,1.03-.57,1.55-.57.83,0,1.34.43,1.49,1.08.07.33.08.75.08,1.63Z"/>
        <path class="cls-3" d="m75.43,34.03h-3.16c.05.95.49,1.36,1.28,1.36.53,0,1.12-.14,1.62-.43l.2,1.07c-.45.25-1.18.4-1.95.4-1.8,0-2.68-.92-2.68-2.54s1.03-2.72,2.5-2.72,2.19.8,2.19,2.36v.5Zm-1.5-.86c0-.78-.25-1.08-.7-1.08-.48,0-.81.38-.92,1.15l1.62-.07Z"/>
        <path class="cls-3" d="m81.64,36.18l.14-1.26c.44.29,1.06.46,1.52.46s.7-.15.7-.46c0-.21-.17-.34-.92-.63-.93-.36-1.4-.72-1.4-1.51,0-.95.72-1.61,2.11-1.61.59,0,1.08.09,1.48.26l-.16,1.21c-.4-.25-.96-.4-1.37-.4s-.63.14-.63.42c0,.23.15.33.74.57,1.19.49,1.6.89,1.6,1.61,0,.95-.67,1.59-2.09,1.59-.74,0-1.31-.08-1.73-.25Z"/>
        <path class="cls-3" d="m90.68,34.03h-3.16c.05.95.49,1.36,1.28,1.36.53,0,1.12-.14,1.62-.43l.2,1.07c-.45.25-1.18.4-1.95.4-1.8,0-2.68-.92-2.68-2.54s1.03-2.72,2.5-2.72,2.19.8,2.19,2.36v.5Zm-1.5-.86c0-.78-.25-1.08-.7-1.08-.48,0-.81.38-.92,1.15l1.62-.07Z"/>
        <path class="cls-3" d="m91.3,33.92c0-1.71,1.02-2.75,2.68-2.75.57,0,1.05.08,1.44.25l-.16,1.21c-.5-.26-.9-.39-1.19-.39-.79,0-1.17.57-1.17,1.6s.39,1.54,1.17,1.54c.36,0,.85-.13,1.26-.45l.2,1.1c-.34.24-.97.39-1.58.39-1.8,0-2.64-.92-2.64-2.51Z"/>
        <path class="cls-3" d="m95.93,33.86c0-1.63,1.01-2.68,2.61-2.68,1.71,0,2.51.99,2.51,2.53,0,1.77-1.09,2.73-2.6,2.73-1.67,0-2.52-.94-2.52-2.57Zm3.52-.07c0-1.09-.28-1.61-.93-1.61s-.99.57-.99,1.63c0,1.13.31,1.62.91,1.62.67,0,1.01-.55,1.01-1.64Z"/>
        <path class="cls-3" d="m106.57,33.94v2.35h-1.53v-2.71c0-.89-.2-1.22-.83-1.22-.26,0-.51.06-.77.19v3.74h-1.53v-4.83l1.29-.2h.21v.56c.49-.41,1.08-.59,1.58-.59.83,0,1.34.43,1.49,1.08.07.33.08.75.08,1.63Z"/>
        <path class="cls-3" d="m112.34,28.97v7.32h-1.51v-.51c-.3.37-.79.58-1.4.58-1.22,0-2.07-.84-2.07-2.36,0-1.68,1.09-2.83,2.77-2.83.22,0,.45.03.68.08v-2.08l1.33-.2h.2Zm-1.53,6.06v-2.71c-.21-.11-.44-.16-.68-.16-.79,0-1.18.68-1.18,1.76,0,.91.48,1.35,1.1,1.35.31,0,.56-.07.77-.22Z"/>
        <path class="cls-3" d="m10.43,45.19c0,.25,0,.71-.03,1.41l-.05,2.34h-1.48v-.42c-.38.26-.81.43-1.29.5-.97-.07-1.54-.69-1.54-1.52s.57-1.14,1.88-1.3l.95-.11v-.68c0-.34-.19-.5-.63-.5s-.96.18-1.68.7l-.25-1.13c.58-.44,1.51-.65,2.42-.65,1.07,0,1.71.43,1.71,1.37Zm-1.56,2.73v-1.01l-.48.05c-.64.07-.83.21-.83.51,0,.34.32.57.69.57.17,0,.38-.04.61-.12Z"/>
        <path class="cls-3" d="m13.28,43.53v.64h1.21l-.06,1.11h-1.14v3.65h-1.53v-3.65h-.76l.05-.91.71-.17v-.6c0-1.27.78-1.96,2.08-1.96.5,0,.89.06,1.16.17l-.15,1.24c-.4-.19-.7-.29-.94-.29-.44,0-.62.25-.62.77Z"/>
        <path class="cls-3" d="m18.49,48.8c-.36.19-.83.29-1.41.29-1.13,0-1.71-.49-1.71-1.58,0-.52.02-1.27.06-2.21h-.68l.06-.91.7-.17.06-.99,1.26-.19h.13l-.03,1.15h1.49l-.07,1.11h-1.42v2.16c0,.37.14.52.46.52.26,0,.58-.09.95-.28l.15,1.1Z"/>
        <path class="cls-3" d="m23.58,46.68h-3.16c.05.95.49,1.36,1.28,1.36.53,0,1.12-.14,1.62-.43l.2,1.07c-.45.25-1.18.4-1.95.4-1.8,0-2.68-.92-2.68-2.54s1.03-2.72,2.5-2.72,2.19.8,2.19,2.36v.5Zm-1.5-.86c0-.78-.25-1.08-.7-1.08-.48,0-.81.38-.92,1.15l1.62-.07Z"/>
        <path class="cls-3" d="m27.7,44.04l-.12,1.4c-.2-.02-.38-.03-.53-.03-.36,0-.48.06-.82.42l-.25.28v2.84h-1.53v-4.83l1.28-.2h.21v1.36l.31-.6c.32-.6.52-.77.88-.77.19,0,.39.05.58.14Z"/>
        <path class="cls-3" d="m33.79,48.8c-.36.19-.83.29-1.41.29-1.13,0-1.71-.49-1.71-1.58,0-.52.02-1.27.06-2.21h-.68l.06-.91.7-.17.06-.99,1.26-.19h.13l-.03,1.15h1.49l-.07,1.11h-1.42v2.16c0,.37.14.52.46.52.26,0,.58-.09.95-.28l.15,1.1Z"/>
        <path class="cls-3" d="m39.23,46.59v2.35h-1.53v-2.7c0-.89-.18-1.23-.83-1.23-.26,0-.51.06-.77.19v3.74h-1.53v-7.12l1.32-.2h.21v2.83c.48-.4,1.03-.57,1.55-.57.83,0,1.34.43,1.49,1.08.07.33.08.75.08,1.63Z"/>
        <path class="cls-3" d="m44.71,46.68h-3.16c.05.95.49,1.36,1.28,1.36.53,0,1.12-.14,1.62-.43l.2,1.07c-.45.25-1.18.4-1.95.4-1.8,0-2.68-.92-2.68-2.54s1.03-2.72,2.5-2.72,2.19.8,2.19,2.36v.5Zm-1.5-.86c0-.78-.25-1.08-.7-1.08-.48,0-.81.38-.92,1.15l1.62-.07Z"/>
        <path class="cls-3" d="m51.97,48.94l-.45-1.43h-2.24l-.44,1.43h-1.59l2.35-6.86h1.75l2.35,6.86h-1.72Zm-2.33-2.55h1.53l-.77-2.46-.77,2.46Z"/>
        <path class="cls-3" d="m57.48,48.8c-.36.19-.83.29-1.41.29-1.13,0-1.71-.49-1.71-1.58,0-.52.02-1.27.06-2.21h-.68l.06-.91.7-.17.06-.99,1.26-.19h.13l-.03,1.15h1.49l-.07,1.11h-1.42v2.16c0,.37.14.52.46.52.26,0,.58-.09.95-.28l.15,1.1Z"/>
        <path class="cls-3" d="m58.26,41.83l1.32-.2h.21v7.32h-1.53v-7.12Z"/>
        <path class="cls-3" d="m64.93,45.19c0,.25,0,.71-.03,1.41l-.05,2.34h-1.48v-.42c-.38.26-.81.43-1.29.5-.97-.07-1.54-.69-1.54-1.52s.57-1.14,1.88-1.3l.95-.11v-.68c0-.34-.19-.5-.63-.5s-.96.18-1.68.7l-.25-1.13c.58-.44,1.51-.65,2.42-.65,1.07,0,1.71.43,1.71,1.37Zm-1.56,2.73v-1.01l-.48.05c-.64.07-.83.21-.83.51,0,.34.32.57.69.57.17,0,.38-.04.61-.12Z"/>
        <path class="cls-3" d="m70.66,46.59v2.35h-1.53v-2.71c0-.89-.2-1.22-.83-1.22-.26,0-.51.06-.77.19v3.74h-1.53v-4.83l1.29-.2h.21v.56c.49-.41,1.08-.59,1.58-.59.83,0,1.34.43,1.49,1.08.07.33.08.75.08,1.63Z"/>
        <path class="cls-3" d="m75.04,48.8c-.36.19-.83.29-1.41.29-1.13,0-1.71-.49-1.71-1.58,0-.52.02-1.27.06-2.21h-.68l.06-.91.7-.17.06-.99,1.26-.19h.13l-.03,1.15h1.49l-.07,1.11h-1.42v2.16c0,.37.14.52.46.52.26,0,.58-.09.95-.28l.15,1.1Z"/>
        <path class="cls-3" d="m75.68,42.4c0-.52.35-.91.92-.91s.92.39.92.91-.35.9-.92.9-.92-.38-.92-.9Zm.15,1.71l1.31-.2h.22v5.03h-1.53v-4.83Z"/>
        <path class="cls-3" d="m78.22,46.57c0-1.71,1.02-2.75,2.68-2.75.57,0,1.05.08,1.44.25l-.16,1.21c-.5-.26-.9-.39-1.19-.39-.79,0-1.17.57-1.17,1.6s.39,1.54,1.17,1.54c.36,0,.85-.13,1.26-.45l.2,1.1c-.34.24-.97.39-1.58.39-1.8,0-2.64-.92-2.64-2.51Z"/>
        <path class="cls-3" d="m85.17,45.6c0-2.2,1.25-3.63,3.33-3.63,2.28,0,3.26,1.5,3.26,3.41,0,2.3-1.24,3.71-3.33,3.71s-3.26-1.2-3.26-3.48Zm4.87-.12c0-1.47-.55-2.3-1.54-2.3s-1.6.82-1.6,2.34.52,2.35,1.55,2.35,1.59-.8,1.59-2.39Z"/>
        <path class="cls-3" d="m92.38,46.57c0-1.71,1.02-2.75,2.68-2.75.57,0,1.05.08,1.44.25l-.16,1.21c-.5-.26-.9-.39-1.19-.39-.79,0-1.17.57-1.17,1.6s.39,1.54,1.17,1.54c.36,0,.85-.13,1.26-.45l.2,1.1c-.34.24-.97.39-1.58.39-1.8,0-2.64-.92-2.64-2.51Z"/>
        <path class="cls-3" d="m101.71,46.68h-3.16c.05.95.49,1.36,1.28,1.36.53,0,1.12-.14,1.62-.43l.2,1.07c-.45.25-1.18.4-1.95.4-1.8,0-2.68-.92-2.68-2.54s1.03-2.72,2.5-2.72,2.19.8,2.19,2.36v.5Zm-1.5-.86c0-.78-.25-1.08-.7-1.08-.48,0-.81.38-.92,1.15l1.62-.07Z"/>
        <path class="cls-3" d="m106.67,45.19c0,.25,0,.71-.03,1.41l-.05,2.34h-1.48v-.42c-.38.26-.81.43-1.29.5-.97-.07-1.54-.69-1.54-1.52s.57-1.14,1.88-1.3l.95-.11v-.68c0-.34-.19-.5-.63-.5s-.96.18-1.68.7l-.25-1.13c.58-.44,1.51-.65,2.42-.65,1.07,0,1.71.43,1.71,1.37Zm-1.56,2.73v-1.01l-.48.05c-.64.07-.83.21-.83.51,0,.34.32.57.69.57.17,0,.38-.04.61-.12Z"/>
        <path class="cls-3" d="m112.41,46.59v2.35h-1.53v-2.71c0-.89-.2-1.22-.83-1.22-.26,0-.51.06-.77.19v3.74h-1.53v-4.83l1.29-.2h.21v.56c.49-.41,1.08-.59,1.58-.59.83,0,1.34.43,1.49,1.08.07.33.08.75.08,1.63Z"/>
        <path class="cls-3" d="m6.29,55.05c0-.52.35-.91.92-.91s.92.39.92.91-.35.9-.92.9-.92-.38-.92-.9Zm.15,1.71l1.31-.2h.22v5.03h-1.53v-4.83Z"/>
        <path class="cls-3" d="m13.8,59.24v2.35h-1.53v-2.71c0-.89-.2-1.22-.83-1.22-.26,0-.51.06-.77.19v3.74h-1.53v-4.83l1.29-.2h.21v.56c.49-.41,1.08-.59,1.58-.59.83,0,1.34.43,1.49,1.08.07.33.08.75.08,1.63Z"/>
        <path class="cls-3" d="m20.25,61.45c-.36.19-.83.29-1.41.29-1.13,0-1.71-.49-1.71-1.58,0-.52.02-1.27.06-2.21h-.68l.06-.91.7-.17.06-.99,1.26-.19h.13l-.03,1.15h1.49l-.07,1.11h-1.42v2.16c0,.37.14.52.46.52.26,0,.58-.09.95-.28l.15,1.1Z"/>
        <path class="cls-3" d="m25.35,59.34h-3.16c.05.95.49,1.36,1.28,1.36.53,0,1.12-.14,1.62-.43l.2,1.07c-.45.25-1.18.4-1.95.4-1.8,0-2.68-.92-2.68-2.54s1.03-2.72,2.5-2.72,2.19.8,2.19,2.36v.5Zm-1.5-.86c0-.78-.25-1.08-.7-1.08-.48,0-.81.38-.92,1.15l1.62-.07Z"/>
        <path class="cls-3" d="m29.46,56.69l-.12,1.4c-.2-.02-.38-.03-.53-.03-.36,0-.48.06-.82.42l-.25.28v2.84h-1.53v-4.83l1.28-.2h.21v1.36l.31-.6c.32-.6.52-.77.88-.77.19,0,.39.05.58.14Z"/>
        <path class="cls-3" d="m37.54,59.18v2.41h-1.53v-2.72c0-.89-.18-1.22-.77-1.22-.27,0-.51.07-.75.22.04.28.06.72.06,1.37v2.35h-1.51v-2.67c0-.93-.17-1.27-.75-1.27-.23,0-.46.06-.69.19v3.75h-1.53v-4.83l1.29-.2h.21v.58c.45-.41.95-.61,1.5-.61.58,0,1.02.27,1.24.68.46-.46,1.02-.68,1.68-.68.81,0,1.28.41,1.43,1.05.07.3.11.83.11,1.6Z"/>
        <path class="cls-3" d="m38.38,61.48l.14-1.26c.44.29,1.06.46,1.52.46s.7-.15.7-.46c0-.21-.17-.34-.92-.63-.93-.36-1.4-.72-1.4-1.51,0-.95.72-1.61,2.11-1.61.59,0,1.08.09,1.48.26l-.16,1.21c-.4-.25-.96-.4-1.37-.4s-.63.14-.63.42c0,.23.15.33.74.57,1.19.49,1.6.89,1.6,1.61,0,.95-.67,1.59-2.09,1.59-.74,0-1.31-.08-1.73-.25Z"/>
        <path class="cls-3" d="m44.77,59.16c0-1.63,1.01-2.68,2.61-2.68,1.71,0,2.51.99,2.51,2.53,0,1.77-1.09,2.73-2.6,2.73-1.67,0-2.52-.94-2.52-2.57Zm3.52-.07c0-1.09-.28-1.61-.93-1.61s-.99.57-.99,1.63c0,1.13.31,1.62.91,1.62.67,0,1.01-.55,1.01-1.64Z"/>
        <path class="cls-3" d="m52.58,56.18v.64h1.21l-.06,1.11h-1.14v3.65h-1.53v-3.65h-.76l.05-.91.71-.17v-.6c0-1.27.78-1.96,2.08-1.96.5,0,.89.06,1.16.17l-.15,1.24c-.4-.19-.7-.29-.94-.29-.44,0-.62.25-.62.77Z"/>
        <path class="cls-3" d="m59.8,61.45c-.36.19-.83.29-1.41.29-1.13,0-1.71-.49-1.71-1.58,0-.52.02-1.27.06-2.21h-.68l.06-.91.7-.17.06-.99,1.26-.19h.13l-.03,1.15h1.49l-.07,1.11h-1.42v2.16c0,.37.14.52.46.52.26,0,.58-.09.95-.28l.15,1.1Z"/>
        <path class="cls-3" d="m65.24,59.24v2.35h-1.53v-2.7c0-.89-.18-1.23-.83-1.23-.26,0-.51.06-.77.19v3.74h-1.53v-7.12l1.32-.2h.21v2.83c.48-.4,1.03-.57,1.55-.57.83,0,1.34.43,1.49,1.08.07.33.08.75.08,1.63Z"/>
        <path class="cls-3" d="m70.72,59.34h-3.16c.05.95.49,1.36,1.28,1.36.53,0,1.12-.14,1.62-.43l.2,1.07c-.45.25-1.18.4-1.95.4-1.8,0-2.68-.92-2.68-2.54s1.03-2.72,2.5-2.72,2.19.8,2.19,2.36v.5Zm-1.5-.86c0-.78-.25-1.08-.7-1.08-.48,0-.81.38-.92,1.15l1.62-.07Z"/>
        <path class="cls-3" d="m73.5,55.05c0-.52.35-.91.92-.91s.92.39.92.91-.35.9-.92.9-.92-.38-.92-.9Zm.15,1.71l1.31-.2h.22v5.03h-1.53v-4.83Z"/>
        <path class="cls-3" d="m81,59.24v2.35h-1.53v-2.71c0-.89-.2-1.22-.83-1.22-.26,0-.51.06-.77.19v3.74h-1.53v-4.83l1.29-.2h.21v.56c.49-.41,1.08-.59,1.58-.59.83,0,1.34.43,1.49,1.08.07.33.08.75.08,1.63Z"/>
        <path class="cls-3" d="m85.38,61.45c-.36.19-.83.29-1.41.29-1.13,0-1.71-.49-1.71-1.58,0-.52.02-1.27.06-2.21h-.68l.06-.91.7-.17.06-.99,1.26-.19h.13l-.03,1.15h1.49l-.07,1.11h-1.42v2.16c0,.37.14.52.46.52.26,0,.58-.09.95-.28l.15,1.1Z"/>
        <path class="cls-3" d="m90.48,59.34h-3.16c.05.95.49,1.36,1.28,1.36.53,0,1.12-.14,1.62-.43l.2,1.07c-.45.25-1.18.4-1.95.4-1.8,0-2.68-.92-2.68-2.54s1.03-2.72,2.5-2.72,2.19.8,2.19,2.36v.5Zm-1.5-.86c0-.78-.25-1.08-.7-1.08-.48,0-.81.38-.92,1.15l1.62-.07Z"/>
        <path class="cls-3" d="m95.99,59.24v2.35h-1.53v-2.71c0-.89-.2-1.22-.83-1.22-.26,0-.51.06-.77.19v3.74h-1.53v-4.83l1.29-.2h.21v.56c.49-.41,1.08-.59,1.58-.59.83,0,1.34.43,1.49,1.08.07.33.08.75.08,1.63Z"/>
        <path class="cls-3" d="m96.82,61.48l.14-1.26c.44.29,1.06.46,1.52.46s.7-.15.7-.46c0-.21-.17-.34-.92-.63-.93-.36-1.4-.72-1.4-1.51,0-.95.72-1.61,2.11-1.61.59,0,1.08.09,1.48.26l-.16,1.21c-.4-.25-.96-.4-1.37-.4s-.63.14-.63.42c0,.23.15.33.74.57,1.19.49,1.6.89,1.6,1.61,0,.95-.67,1.59-2.09,1.59-.74,0-1.31-.08-1.73-.25Z"/>
        <path class="cls-3" d="m101.29,55.05c0-.52.35-.91.92-.91s.92.39.92.91-.35.9-.92.9-.92-.38-.92-.9Zm.15,1.71l1.31-.2h.22v5.03h-1.53v-4.83Z"/>
        <path class="cls-3" d="m107.43,61.45c-.36.19-.83.29-1.41.29-1.13,0-1.71-.49-1.71-1.58,0-.52.02-1.27.06-2.21h-.68l.06-.91.7-.17.06-.99,1.26-.19h.13l-.03,1.15h1.49l-.07,1.11h-1.42v2.16c0,.37.14.52.46.52.26,0,.58-.09.95-.28l.15,1.1Z"/>
        <path class="cls-3" d="m112.93,56.62l-1.83,5.37c-.52,1.49-1.01,1.83-2.53,2.03l-.33-1.09c1.14-.16,1.52-.4,1.79-1.33l.02-.06h-.75l-1.62-4.92h1.62l1.04,3.88,1.09-3.88h1.5Z"/>
        <path class="cls-3" d="m6.14,71.81c0-1.63,1.01-2.68,2.61-2.68,1.71,0,2.51.99,2.51,2.53,0,1.77-1.09,2.73-2.6,2.73-1.67,0-2.52-.94-2.52-2.57Zm3.52-.07c0-1.09-.28-1.61-.93-1.61s-.99.57-.99,1.63c0,1.13.31,1.62.91,1.62.67,0,1.01-.55,1.01-1.64Z"/>
        <path class="cls-3" d="m13.95,68.83v.64h1.21l-.06,1.11h-1.14v3.65h-1.53v-3.65h-.76l.05-.91.71-.17v-.6c0-1.27.78-1.96,2.08-1.96.5,0,.89.06,1.16.17l-.15,1.24c-.4-.19-.7-.29-.94-.29-.44,0-.62.25-.62.77Z"/>
        <path class="cls-3" d="m18.97,71.88c0-1.71,1.02-2.75,2.68-2.75.57,0,1.05.08,1.44.25l-.16,1.21c-.5-.26-.9-.39-1.19-.39-.79,0-1.17.57-1.17,1.6s.39,1.54,1.17,1.54c.36,0,.85-.13,1.26-.45l.2,1.1c-.34.24-.97.39-1.58.39-1.8,0-2.64-.92-2.64-2.51Z"/>
        <path class="cls-3" d="m27.22,69.34l-.12,1.4c-.2-.02-.38-.03-.53-.03-.36,0-.48.06-.82.42l-.25.28v2.84h-1.53v-4.83l1.28-.2h.21v1.36l.31-.6c.32-.6.52-.77.88-.77.19,0,.39.05.58.14Z"/>
        <path class="cls-3" d="m32.34,69.21v5.03h-1.5v-.5c-.44.4-.96.59-1.56.59-.79,0-1.26-.42-1.41-1.06-.08-.32-.1-.79-.1-1.64v-2.21l1.32-.2h.21v2.73c0,.94.18,1.27.83,1.27.24,0,.47-.06.68-.18v-3.6l1.33-.2h.2Z"/>
        <path class="cls-3" d="m33.35,67.7c0-.52.35-.91.92-.91s.92.39.92.91-.35.9-.92.9-.92-.38-.92-.9Zm.15,1.71l1.31-.2h.22v5.03h-1.53v-4.83Z"/>
        <path class="cls-3" d="m35.94,74.13l.14-1.26c.44.29,1.06.46,1.52.46s.7-.15.7-.46c0-.21-.17-.34-.92-.63-.93-.36-1.4-.72-1.4-1.51,0-.95.72-1.61,2.11-1.61.59,0,1.08.09,1.48.26l-.16,1.21c-.4-.25-.96-.4-1.37-.4s-.63.14-.63.42c0,.23.15.33.74.57,1.19.49,1.6.89,1.6,1.61,0,.95-.67,1.59-2.09,1.59-.74,0-1.31-.08-1.73-.25Z"/>
        <path class="cls-3" d="m40.42,67.7c0-.52.35-.91.92-.91s.92.39.92.91-.35.9-.92.9-.92-.38-.92-.9Zm.15,1.71l1.31-.2h.22v5.03h-1.53v-4.83Z"/>
        <path class="cls-3" d="m47.92,71.9v2.35h-1.53v-2.71c0-.89-.2-1.22-.83-1.22-.26,0-.51.06-.77.19v3.74h-1.53v-4.83l1.29-.2h.21v.56c.49-.41,1.08-.59,1.58-.59.83,0,1.34.43,1.49,1.08.07.33.08.75.08,1.63Z"/>
        <path class="cls-3" d="m52.16,73.53c1.1,0,1.7.49,1.7,1.36,0,1.22-1.16,1.91-3.05,1.91-1.51,0-2.38-.41-2.38-1.18,0-.41.31-.72.97-1.02-.32-.21-.48-.5-.48-.88,0-.46.28-.86.82-1.19-.62-.3-.93-.87-.93-1.52,0-1.09.81-1.83,2.19-1.83.43,0,.81.07,1.13.2,0-.03,0-.07,0-.12.05-.62.39-.91.88-.91.31,0,.56.05.77.16l-.12,1.08c-.18-.05-.37-.08-.54-.08-.24,0-.36.08-.38.25.37.33.56.78.56,1.24,0,.6-.2,1.06-.61,1.37-.42.32-.94.47-1.56.47-.19,0-.39,0-.58-.04-.26.13-.38.32-.38.49s.12.26.38.26h1.6Zm.28,1.59c0-.22-.15-.34-.46-.34h-2c-.07.12-.1.25-.1.38,0,.44.39.65,1.15.65s1.41-.25,1.41-.69Zm-2.07-4.1c0,.56.31.89.72.89.53,0,.78-.33.78-.9,0-.6-.26-.91-.74-.91s-.77.3-.77.92Z"/>
        <path class="cls-3" d="m54.2,73.42c0-.52.38-.9.92-.9s.91.38.91.9-.37.9-.91.9-.92-.38-.92-.9Z"/>
        <path class="cls-3" d="m64.16,67.43h1.63v6.81h-1.63v-6.81Z"/>
        <path class="cls-3" d="m70.38,74.1c-.36.19-.83.29-1.41.29-1.13,0-1.71-.49-1.71-1.58,0-.52.02-1.27.06-2.21h-.68l.06-.91.7-.17.06-.99,1.26-.19h.13l-.03,1.15h1.49l-.07,1.11h-1.42v2.16c0,.37.14.52.46.52.26,0,.58-.09.95-.28l.15,1.1Z"/>
        <path class="cls-3" d="m80.14,69.27h1.49l-1.31,4.99h-1.76l-.69-2.96-.69,2.96h-1.77l-1.32-4.99h1.54l.79,3.67.89-3.67h1.19l.88,3.66.76-3.66Z"/>
        <path class="cls-3" d="m82.1,67.7c0-.52.35-.91.92-.91s.92.39.92.91-.35.9-.92.9-.92-.38-.92-.9Zm.15,1.71l1.31-.2h.22v5.03h-1.53v-4.83Z"/>
        <path class="cls-3" d="m84.95,67.13l1.32-.2h.21v7.32h-1.53v-7.12Z"/>
        <path class="cls-3" d="m87.63,67.13l1.32-.2h.21v7.32h-1.53v-7.12Z"/>
        <path class="cls-3" d="m97.09,74.1c-.36.19-.83.29-1.41.29-1.13,0-1.71-.49-1.71-1.58,0-.52.02-1.27.06-2.21h-.68l.06-.91.7-.17.06-.99,1.26-.19h.13l-.03,1.15h1.49l-.07,1.11h-1.42v2.16c0,.37.14.52.46.52.26,0,.58-.09.95-.28l.15,1.1Z"/>
        <path class="cls-3" d="m101.84,70.5c0,.25,0,.71-.03,1.41l-.05,2.34h-1.48v-.42c-.38.26-.81.43-1.29.5-.97-.07-1.54-.69-1.54-1.52s.57-1.14,1.88-1.3l.95-.11v-.68c0-.34-.19-.5-.63-.5s-.96.18-1.68.7l-.25-1.13c.58-.44,1.51-.65,2.42-.65,1.07,0,1.71.43,1.71,1.37Zm-1.56,2.73v-1.01l-.48.05c-.64.07-.83.21-.83.51,0,.34.32.57.69.57.17,0,.38-.04.61-.12Z"/>
        <path class="cls-3" d="m106.1,74.24l-1.04-2.21h-.6v2.21h-1.53v-7.12l1.32-.2h.21v4.11l.67-.1h0s.99-1.66.99-1.66h1.63l-1.37,2.2,1.44,2.78h-1.72Z"/>
        <path class="cls-3" d="m112.64,71.99h-3.16c.05.95.49,1.36,1.28,1.36.53,0,1.12-.14,1.62-.43l.2,1.07c-.45.25-1.18.4-1.95.4-1.8,0-2.68-.92-2.68-2.54s1.03-2.72,2.5-2.72,2.19.8,2.19,2.36v.5Zm-1.5-.86c0-.78-.25-1.08-.7-1.08-.48,0-.81.38-.92,1.15l1.62-.07Z"/>
        <path class="cls-2" d="m6.11,86.03v-2.12c0-.8.31-1.3,1.04-1.77l1.2-.77c.24-.16.32-.35.32-.62v-1.14c0-.29-.14-.47-.38-.47h-.07c-.25,0-.38.19-.38.47v.62c0,.43-.31.72-.83.72s-.83-.29-.83-.72v-.63c0-1.23.66-1.86,1.91-1.86h.36c1.24,0,1.9.63,1.9,1.86v.98c0,.79-.27,1.28-1.07,1.77l-1.1.71c-.29.19-.38.4-.38.77v1.6h.94v-1.26c0-.43.31-.72.83-.72s.82.29.82.72v1.87c0,.5-.37.87-.87.87h-2.51c-.51,0-.88-.37-.88-.87Z"/>
        <path class="cls-2" d="m10.85,85.07v-5.48c0-1.23.67-1.86,1.93-1.86h.36c1.28,0,1.93.63,1.93,1.86v5.48c0,1.25-.66,1.87-1.93,1.87h-.36c-1.26,0-1.93-.62-1.93-1.87Zm2.14.47c.26,0,.4-.16.4-.46v-5.48c0-.29-.14-.47-.4-.47h-.07c-.25,0-.38.19-.38.47v5.48c0,.3.14.46.38.46h.07Z"/>
        <path class="cls-2" d="m17.67,84.95v-4.21c-.32-.04-.52-.28-.52-.67,0-.43.22-.67.52-.67v-.56c0-.45.31-.73.84-.73s.84.28.84.73v.56h.53c.36,0,.58.25.58.67s-.22.67-.58.67h-.53v4.2c0,.41.19.61.45.61.09,0,.12-.01.16-.01.26,0,.41.2.41.53,0,.63-.36.88-1.07.88-1.02,0-1.64-.56-1.64-2Z"/>
        <path class="cls-2" d="m20.7,85.07v-3.89c0-1.23.67-1.86,1.93-1.86h.36c1.28,0,1.93.63,1.93,1.86v3.89c0,1.25-.66,1.87-1.93,1.87h-.36c-1.26,0-1.93-.62-1.93-1.87Zm2.14.51c.26,0,.4-.16.4-.45v-3.98c0-.29-.14-.47-.4-.47h-.07c-.25,0-.38.19-.38.47v3.98c0,.29.14.45.38.45h.07Z"/>
        <path class="cls-2" d="m27.12,82.39v-3.92c0-.45.31-.73.84-.73s.83.29.83.73v3.69c0,.5.21.73.53.73.14,0,.25-.05.33-.15v-4.27c0-.45.31-.73.84-.73s.84.29.84.73v7.77c0,.43-.3.71-.81.71s-.82-.27-.82-.71v-2.33c-.16.15-.47.36-1.02.36-.94,0-1.59-.48-1.59-1.88Z"/>
        <path class="cls-2" d="m31.89,85.07v-5.48c0-1.23.67-1.86,1.93-1.86h.36c1.28,0,1.93.63,1.93,1.86v5.48c0,1.25-.66,1.87-1.93,1.87h-.36c-1.26,0-1.93-.62-1.93-1.87Zm2.14.47c.26,0,.4-.16.4-.46v-5.48c0-.29-.14-.47-.4-.47h-.07c-.25,0-.38.19-.38.47v5.48c0,.3.14.46.38.46h.07Z"/>
        <path class="cls-2" d="m38.35,85.37v-4.34c0-1.28.92-1.71,2.25-1.71.1,0,.2,0,.28.01v-.87c0-.46.31-.73.84-.73s.84.27.84.73v7.76c0,.45-.31.72-.84.72-.47,0-.77-.21-.83-.57-.21.24-.67.57-1.33.57-.82,0-1.23-.4-1.23-1.57Zm2.11.26c.17,0,.32-.1.43-.24v-4.63c-.09-.04-.21-.07-.36-.07-.31,0-.5.19-.5.56v3.84c0,.37.15.54.42.54Z"/>
        <path class="cls-2" d="m43.07,85.4v-.74c0-1.09.76-1.61,1.75-1.61.38,0,.64.07.81.15v-2.03c0-.29-.14-.47-.37-.47h-.07c-.24,0-.37.19-.37.47v.58c0,.43-.3.71-.81.71s-.82-.27-.82-.71v-.71c0-1.15.66-1.71,1.88-1.71h.36c1.24,0,1.87.62,1.87,1.85v5.06c0,.45-.3.72-.84.72-.47,0-.77-.22-.82-.58-.2.25-.66.58-1.29.58-.74,0-1.28-.43-1.28-1.55Zm2.11.27c.17,0,.35-.11.45-.26v-1.16c-.09-.05-.21-.07-.36-.07-.32,0-.51.19-.51.56v.38c0,.37.16.56.42.56Z"/>
        <path class="cls-2" d="m47.84,84.52v-4.46c0-.46.31-.73.84-.73s.84.27.84.73v4.24c0,.5.2.73.52.73.14,0,.25-.05.33-.15v-4.82c0-.45.32-.73.84-.73s.84.29.84.73v6.11c0,1.47-.81,2.06-2.07,2.06-.76,0-1.1-.11-1.35-.26-.24-.14-.33-.36-.33-.66s.17-.51.43-.51c.11,0,.19.04.29.07.12.04.24.06.41.06.67,0,1-.22,1-.62v-.29c-.16.15-.47.36-1.02.36-.94,0-1.59-.48-1.59-1.87Z"/>
        <path class="cls-2" d="m52.57,85.07v-.52c0-.46.31-.73.83-.73s.84.27.84.73v.53c0,.3.16.46.43.46h.07c.29,0,.43-.16.43-.46v-.26c0-.54-.16-.82-.66-1.1l-.64-.36c-.88-.5-1.25-1.1-1.25-2.08v-.1c0-1.21.66-1.86,1.91-1.86h.36c1.25,0,1.9.62,1.9,1.82v.24c0,.46-.3.74-.82.74s-.83-.27-.83-.69v-.24c0-.29-.15-.47-.38-.47h-.07c-.25,0-.4.19-.4.47v.16c0,.41.14.62.62.89l.83.48c.78.45,1.12,1.07,1.12,2.07v.27c0,1.24-.67,1.87-1.96,1.87h-.36c-1.3,0-1.97-.63-1.97-1.87Z"/>
        <path class="cls-3" d="m61.76,81.49v.64h1.21l-.06,1.11h-1.14v3.65h-1.53v-3.65h-.76l.05-.91.71-.17v-.6c0-1.27.78-1.96,2.08-1.96.5,0,.89.06,1.16.17l-.15,1.24c-.4-.19-.7-.29-.94-.29-.44,0-.62.25-.62.77Z"/>
        <path class="cls-3" d="m63.24,84.47c0-1.63,1.01-2.68,2.61-2.68,1.71,0,2.51.99,2.51,2.53,0,1.77-1.09,2.73-2.6,2.73-1.67,0-2.52-.94-2.52-2.57Zm3.52-.07c0-1.09-.28-1.61-.93-1.61s-.99.57-.99,1.63c0,1.13.31,1.62.91,1.62.67,0,1.01-.55,1.01-1.64Z"/>
        <path class="cls-3" d="m72.47,82l-.12,1.4c-.2-.02-.38-.03-.53-.03-.36,0-.48.06-.82.42l-.25.28v2.84h-1.53v-4.83l1.28-.2h.21v1.36l.31-.6c.32-.6.52-.77.88-.77.19,0,.39.05.58.14Z"/>
        <path class="cls-3" d="m79.42,83.15c0,.25,0,.71-.03,1.41l-.05,2.34h-1.48v-.42c-.38.26-.81.43-1.29.5-.97-.07-1.54-.69-1.54-1.52s.57-1.14,1.88-1.3l.95-.11v-.68c0-.34-.19-.5-.63-.5s-.96.18-1.68.7l-.25-1.13c.58-.44,1.51-.65,2.42-.65,1.07,0,1.71.43,1.71,1.37Zm-1.56,2.73v-1.01l-.48.05c-.64.07-.83.21-.83.51,0,.34.32.57.69.57.17,0,.38-.04.61-.12Z"/>
        <path class="cls-3" d="m82.59,86.78l.14-1.26c.44.29,1.06.46,1.52.46s.7-.15.7-.46c0-.21-.17-.34-.92-.63-.93-.36-1.4-.72-1.4-1.51,0-.95.72-1.61,2.11-1.61.59,0,1.08.09,1.48.26l-.16,1.21c-.4-.25-.96-.4-1.37-.4s-.63.14-.63.42c0,.23.15.33.74.57,1.19.49,1.6.89,1.6,1.61,0,.95-.67,1.59-2.09,1.59-.74,0-1.31-.08-1.73-.25Z"/>
        <path class="cls-3" d="m91.87,84.55v2.35h-1.53v-2.7c0-.89-.18-1.23-.83-1.23-.26,0-.51.06-.77.19v3.74h-1.53v-7.12l1.32-.2h.21v2.83c.48-.4,1.03-.57,1.55-.57.83,0,1.34.43,1.49,1.08.07.33.08.75.08,1.63Z"/>
        <path class="cls-3" d="m92.81,80.35c0-.52.35-.91.92-.91s.92.39.92.91-.35.9-.92.9-.92-.38-.92-.9Zm.15,1.71l1.31-.2h.22v5.03h-1.53v-4.83Z"/>
        <path class="cls-3" d="m100.63,84.15c0,1.67-1.03,2.89-2.65,2.89-.32,0-.58-.03-.8-.08v2.34h-1.53v-7.23l1.31-.2h.22v.55c.33-.36.82-.56,1.39-.56,1.26,0,2.06.86,2.06,2.3Zm-1.59.14c0-.87-.44-1.33-1.12-1.33-.3,0-.54.07-.73.21v2.72c.19.11.41.17.63.17.82,0,1.22-.59,1.22-1.78Z"/>
        <path class="cls-3" d="m107.12,86.75c-.36.19-.83.29-1.41.29-1.13,0-1.71-.49-1.71-1.58,0-.52.02-1.27.06-2.21h-.68l.06-.91.7-.17.06-.99,1.26-.19h.13l-.03,1.15h1.49l-.07,1.11h-1.42v2.16c0,.37.14.52.46.52.26,0,.58-.09.95-.28l.15,1.1Z"/>
        <path class="cls-3" d="m107.52,84.47c0-1.63,1.01-2.68,2.61-2.68,1.71,0,2.51.99,2.51,2.53,0,1.77-1.09,2.73-2.6,2.73-1.67,0-2.52-.94-2.52-2.57Zm3.52-.07c0-1.09-.28-1.61-.93-1.61s-.99.57-.99,1.63c0,1.13.31,1.62.91,1.62.67,0,1.01-.55,1.01-1.64Z"/>
        <path class="cls-3" d="m6.14,97.18c0-1.71,1.02-2.75,2.68-2.75.57,0,1.05.08,1.44.25l-.16,1.21c-.5-.26-.9-.39-1.19-.39-.79,0-1.17.57-1.17,1.6s.39,1.54,1.17,1.54c.36,0,.85-.13,1.26-.45l.2,1.1c-.34.24-.97.39-1.58.39-1.8,0-2.64-.92-2.64-2.51Z"/>
        <path class="cls-3" d="m14.39,94.65l-.12,1.4c-.2-.02-.38-.03-.53-.03-.36,0-.48.06-.82.42l-.25.28v2.84h-1.53v-4.83l1.28-.2h.21v1.36l.31-.6c.32-.6.52-.77.88-.77.19,0,.39.05.58.14Z"/>
        <path class="cls-3" d="m14.62,97.12c0-1.63,1.01-2.68,2.61-2.68,1.71,0,2.51.99,2.51,2.53,0,1.77-1.09,2.73-2.6,2.73-1.67,0-2.52-.94-2.52-2.57Zm3.52-.07c0-1.09-.28-1.61-.93-1.61s-.99.57-.99,1.63c0,1.13.31,1.62.91,1.62.67,0,1.01-.55,1.01-1.64Z"/>
        <path class="cls-3" d="m20.44,99.43l.14-1.26c.44.29,1.06.46,1.52.46s.7-.15.7-.46c0-.21-.17-.34-.92-.63-.93-.36-1.4-.72-1.4-1.51,0-.95.72-1.61,2.11-1.61.59,0,1.08.09,1.48.26l-.16,1.21c-.4-.25-.96-.4-1.37-.4s-.63.14-.63.42c0,.23.15.33.74.57,1.19.49,1.6.89,1.6,1.61,0,.95-.67,1.59-2.09,1.59-.74,0-1.31-.08-1.73-.25Z"/>
        <path class="cls-3" d="m24.84,99.43l.14-1.26c.44.29,1.06.46,1.52.46s.7-.15.7-.46c0-.21-.17-.34-.92-.63-.93-.36-1.4-.72-1.4-1.51,0-.95.72-1.61,2.11-1.61.59,0,1.08.09,1.48.26l-.16,1.21c-.4-.25-.96-.4-1.37-.4s-.63.14-.63.42c0,.23.15.33.74.57,1.19.49,1.6.89,1.6,1.61,0,.95-.67,1.59-2.09,1.59-.74,0-1.31-.08-1.73-.25Z"/>
        <path class="cls-3" d="m34.64,99.4c-.36.19-.83.29-1.41.29-1.13,0-1.71-.49-1.71-1.58,0-.52.02-1.27.06-2.21h-.68l.06-.91.7-.17.06-.99,1.26-.19h.13l-.03,1.15h1.49l-.07,1.11h-1.42v2.16c0,.37.14.52.46.52.26,0,.58-.09.95-.28l.15,1.1Z"/>
        <path class="cls-3" d="m40.08,97.2v2.35h-1.53v-2.7c0-.89-.18-1.23-.83-1.23-.26,0-.51.06-.77.19v3.74h-1.53v-7.12l1.32-.2h.21v2.83c.48-.4,1.03-.57,1.55-.57.83,0,1.34.43,1.49,1.08.07.33.08.75.08,1.63Z"/>
        <path class="cls-3" d="m45.56,97.29h-3.16c.05.95.49,1.36,1.28,1.36.53,0,1.12-.14,1.62-.43l.2,1.07c-.45.25-1.18.4-1.95.4-1.8,0-2.68-.92-2.68-2.54s1.03-2.72,2.5-2.72,2.19.8,2.19,2.36v.5Zm-1.5-.86c0-.78-.25-1.08-.7-1.08-.48,0-.81.38-.92,1.15l1.62-.07Z"/>
        <path class="cls-3" d="m48,97.12c0-1.63,1.01-2.68,2.61-2.68,1.71,0,2.51.99,2.51,2.53,0,1.77-1.09,2.73-2.6,2.73-1.67,0-2.52-.94-2.52-2.57Zm3.52-.07c0-1.09-.28-1.61-.93-1.61s-.99.57-.99,1.63c0,1.13.31,1.62.91,1.62.67,0,1.01-.55,1.01-1.64Z"/>
        <path class="cls-3" d="m53.7,97.18c0-1.71,1.02-2.75,2.68-2.75.57,0,1.05.08,1.44.25l-.16,1.21c-.5-.26-.9-.39-1.19-.39-.79,0-1.17.57-1.17,1.6s.39,1.54,1.17,1.54c.36,0,.85-.13,1.26-.45l.2,1.1c-.34.24-.97.39-1.58.39-1.8,0-2.64-.92-2.64-2.51Z"/>
        <path class="cls-3" d="m63.03,97.29h-3.16c.05.95.49,1.36,1.28,1.36.53,0,1.12-.14,1.62-.43l.2,1.07c-.45.25-1.18.4-1.95.4-1.8,0-2.68-.92-2.68-2.54s1.03-2.72,2.5-2.72,2.19.8,2.19,2.36v.5Zm-1.5-.86c0-.78-.25-1.08-.7-1.08-.48,0-.81.38-.92,1.15l1.62-.07Z"/>
        <path class="cls-3" d="m67.99,95.8c0,.25,0,.71-.03,1.41l-.05,2.34h-1.48v-.42c-.38.26-.81.43-1.29.5-.97-.07-1.54-.69-1.54-1.52s.57-1.14,1.88-1.3l.95-.11v-.68c0-.34-.19-.5-.63-.5s-.96.18-1.68.7l-.25-1.13c.58-.44,1.51-.65,2.42-.65,1.07,0,1.71.43,1.71,1.37Zm-1.56,2.73v-1.01l-.48.05c-.64.07-.83.21-.83.51,0,.34.32.57.69.57.17,0,.38-.04.61-.12Z"/>
        <path class="cls-3" d="m73.73,97.2v2.35h-1.53v-2.71c0-.89-.2-1.22-.83-1.22-.26,0-.51.06-.77.19v3.74h-1.53v-4.83l1.29-.2h.21v.56c.49-.41,1.08-.59,1.58-.59.83,0,1.34.43,1.49,1.08.07.33.08.75.08,1.63Z"/>
      </g>
    </g>
  </g>
</svg>