<?xml version="1.0" encoding="UTF-8"?>
<svg id="Layer_2" data-name="Layer 2" xmlns="http://www.w3.org/2000/svg" viewBox="0 0 140.67 170.91">
  <defs>
    <style>
      .cls-1 {
        fill: #fff;
        stroke: #497c72;
        stroke-miterlimit: 10;
        stroke-width: 2px;
      }

      .cls-2 {
        fill: #017373;
      }

      .cls-3 {
        fill: #302a2a;
      }
    </style>
  </defs>
  <g id="Layer_1-2" data-name="Layer 1">
    <g>
      <rect class="cls-1" x="1" y="1" width="138.67" height="168.91" rx="23.04" ry="23.04"/>
      <g>
        <path class="cls-3" d="m15.56,20.16h-2.65v6.62h-1.94v-6.62h-2.67l.08-1.47h7.11l.06,1.47Z"/>
        <path class="cls-3" d="m21.97,23.99v2.79h-1.82v-3.2c0-1.05-.22-1.47-.98-1.47-.3,0-.61.07-.91.23v4.43h-1.82v-8.44l1.56-.24h.25v3.36c.57-.47,1.22-.68,1.84-.68.98,0,1.59.51,1.77,1.28.08.39.1.88.1,1.94Z"/>
        <path class="cls-3" d="m28.48,24.1h-3.75c.06,1.13.58,1.61,1.51,1.61.63,0,1.33-.17,1.93-.51l.24,1.27c-.53.3-1.41.47-2.31.47-2.13,0-3.19-1.09-3.19-3.02s1.22-3.22,2.97-3.22,2.6.94,2.6,2.8v.59Zm-1.78-1.02c0-.92-.3-1.28-.84-1.28-.57,0-.96.45-1.09,1.37l1.93-.08Z"/>
        <path class="cls-2" d="m35.81,27.47v-8.81c0-.53.37-.87,1-.87.54,0,.88.25.97.65.25-.25.81-.65,1.56-.65.99,0,1.49.47,1.49,1.87v4.96c0,1.65-.76,2.22-1.88,2.22-.57,0-.93-.19-1.13-.35v.99c0,.53-.37.88-1,.88s-1-.35-1-.88Zm2-7.72v5.3c.1.1.24.16.4.16.38,0,.62-.28.62-.87v-4.22c0-.44-.18-.66-.49-.66-.21,0-.4.12-.53.29Z"/>
        <path class="cls-2" d="m41.4,24.61v-4.62c0-1.46.79-2.21,2.29-2.21h.43c1.51,0,2.29.75,2.29,2.21v4.62c0,1.49-.78,2.22-2.29,2.22h-.43c-1.5,0-2.29-.74-2.29-2.22Zm2.54.6c.31,0,.47-.19.47-.53v-4.72c0-.34-.16-.56-.47-.56h-.09c-.29,0-.46.22-.46.56v4.72c0,.34.16.53.46.53h.09Z"/>
        <path class="cls-2" d="m47.07,25.95v-7.28c0-.54.37-.88,1.01-.88.53,0,.88.24.97.65.22-.25.74-.65,1.44-.65.94,0,1.4.47,1.4,1.87v1c0,.51-.35.84-.97.84s-.96-.32-.96-.84v-.51c0-.44-.16-.66-.41-.66-.19,0-.35.12-.47.29v6.18c0,.54-.37.88-1,.88s-1.01-.34-1.01-.88Z"/>
        <path class="cls-2" d="m52.76,24.46v-5c-.38-.04-.62-.34-.62-.79,0-.51.26-.79.62-.79v-.66c0-.53.37-.87,1-.87s1,.34,1,.87v.66h.63c.43,0,.69.29.69.79s-.26.79-.69.79h-.63v4.99c0,.49.22.72.53.72.1,0,.15-.01.19-.01.31,0,.49.24.49.63,0,.75-.43,1.04-1.26,1.04-1.21,0-1.94-.66-1.94-2.37Z"/>
        <path class="cls-2" d="m61.28,24.61v-4.62c0-1.46.79-2.21,2.29-2.21h.43c1.52,0,2.29.75,2.29,2.21v4.62c0,1.49-.78,2.22-2.29,2.22h-.43c-1.5,0-2.29-.74-2.29-2.22Zm2.54.6c.31,0,.47-.19.47-.53v-4.72c0-.34-.16-.56-.47-.56h-.09c-.29,0-.46.22-.46.56v4.72c0,.34.16.53.46.53h.09Z"/>
        <path class="cls-2" d="m67.16,25.97v-6.5c-.4-.03-.63-.32-.63-.79,0-.5.26-.79.65-.79.13-1.41.93-1.97,2.16-1.97.49,0,.84.06,1.06.24.13.12.21.28.21.51,0,.41-.26.65-.72.65-.18,0-.35.03-.49.1-.16.09-.25.25-.25.47h.19c.41,0,.69.29.69.79s-.28.79-.69.79h-.19v6.5c0,.53-.35.87-.99.87s-1-.34-1-.87Z"/>
        <path class="cls-2" d="m75.24,24.61v-1.09c0-.53.37-.85.99-.85s1,.32,1,.85v1.1c0,.35.19.54.51.54h.09c.34,0,.52-.19.52-.54v-1.31c0-.66-.15-1-.79-1.44l-.69-.46c-1.12-.76-1.54-1.53-1.54-2.78v-.53c0-1.44.78-2.21,2.26-2.21h.43c1.49,0,2.25.75,2.25,2.21v.75c0,.53-.35.85-.97.85s-.99-.32-.99-.85v-.74c0-.34-.18-.56-.47-.56h-.09c-.28,0-.46.22-.46.56v.6c0,.6.15.91.75,1.34l.9.59c1,.69,1.4,1.47,1.4,2.66v1.29c0,1.47-.79,2.22-2.32,2.22h-.43c-1.54,0-2.34-.75-2.34-2.22Z"/>
        <path class="cls-2" d="m80.93,25.97v-9.19c0-.53.37-.87,1.01-.87s1,.34,1,.87v1.62c.25-.24.82-.6,1.59-.6.96,0,1.46.47,1.46,1.85v6.33c0,.54-.35.87-1,.87s-1.01-.32-1.01-.87v-5.83c0-.44-.18-.66-.49-.66-.22,0-.43.13-.54.31v6.18c0,.53-.37.87-1,.87s-1.01-.34-1.01-.87Z"/>
        <path class="cls-2" d="m86.58,25v-.88c0-1.29.9-1.91,2.07-1.91.46,0,.76.09.96.18v-2.41c0-.34-.16-.56-.44-.56h-.09c-.28,0-.44.22-.44.56v.69c0,.51-.35.84-.96.84s-.97-.32-.97-.84v-.84c0-1.37.78-2.03,2.24-2.03h.43c1.47,0,2.22.74,2.22,2.19v6c0,.53-.35.85-1,.85-.56,0-.91-.26-.97-.69-.24.29-.78.69-1.53.69-.88,0-1.52-.51-1.52-1.84Zm2.5.32c.21,0,.41-.13.53-.31v-1.38c-.1-.06-.25-.09-.43-.09-.38,0-.6.22-.6.66v.46c0,.44.19.66.5.66Z"/>
        <path class="cls-2" d="m92.29,25.95v-7.28c0-.54.37-.88,1.01-.88.53,0,.87.24.97.63.24-.24.81-.63,1.62-.63.96,0,1.46.47,1.46,1.84v6.33c0,.54-.37.88-1,.88s-1.01-.34-1.01-.88v-5.84c0-.44-.19-.66-.5-.66-.22,0-.41.13-.53.31v6.19c0,.54-.37.88-1,.88s-1.01-.34-1.01-.88Z"/>
        <path class="cls-2" d="m98.97,28.05c-.25-.18-.43-.47-.43-.81s.19-.59.5-.59c.13,0,.21.04.31.07.13.04.28.09.53.09.78,0,1.19-.26,1.19-.74v-.35c-.18.18-.56.44-1.22.44-1.12,0-1.87-.57-1.87-2.25v-4.1c0-1.52,1.09-2.03,2.68-2.03.56,0,1.01.06,1.37.13.69.13.97.69.97,1.4v6.53c0,1.74-1.02,2.5-2.49,2.5-.79,0-1.25-.09-1.54-.29Zm1.62-3.4c.18,0,.31-.07.41-.19v-4.97c-.1-.04-.25-.09-.43-.09-.37,0-.6.22-.6.66v3.72c0,.59.24.87.62.87Z"/>
        <path class="cls-2" d="m103.68,25.97v-9.19c0-.53.37-.87,1.01-.87s1,.34,1,.87v1.62c.25-.24.82-.6,1.59-.6.96,0,1.46.47,1.46,1.85v6.33c0,.54-.35.87-1,.87s-1.01-.32-1.01-.87v-5.83c0-.44-.18-.66-.49-.66-.22,0-.43.13-.54.31v6.18c0,.53-.37.87-1,.87s-1.01-.34-1.01-.87Z"/>
        <path class="cls-2" d="m109.33,25v-.88c0-1.29.9-1.91,2.07-1.91.46,0,.76.09.96.18v-2.41c0-.34-.16-.56-.44-.56h-.09c-.28,0-.44.22-.44.56v.69c0,.51-.35.84-.96.84s-.97-.32-.97-.84v-.84c0-1.37.78-2.03,2.24-2.03h.43c1.47,0,2.22.74,2.22,2.19v6c0,.53-.35.85-1,.85-.56,0-.91-.26-.97-.69-.24.29-.78.69-1.53.69-.88,0-1.52-.51-1.52-1.84Zm2.5.32c.21,0,.41-.13.53-.31v-1.38c-.1-.06-.25-.09-.43-.09-.38,0-.6.22-.6.66v.46c0,.44.19.66.5.66Z"/>
        <path class="cls-2" d="m115.06,16.39c0-.6.37-.91,1.04-.91s1.06.31,1.06.91-.38.91-1.06.91-1.04-.31-1.04-.91Zm.03,9.56v-7.28c0-.54.37-.88,1.01-.88s1.03.34,1.03.88v7.28c0,.54-.38.88-1.03.88s-1.01-.34-1.01-.88Z"/>
        <path class="cls-3" d="m124.67,19.01c0-.62.41-1.08,1.09-1.08s1.09.46,1.09,1.08-.41,1.07-1.09,1.07-1.09-.45-1.09-1.07Zm.18,2.04l1.55-.24h.27v5.97h-1.82v-5.73Z"/>
        <path class="cls-3" d="m127.75,26.64l.17-1.49c.52.34,1.26.54,1.81.54s.84-.18.84-.54c0-.25-.21-.4-1.09-.75-1.1-.42-1.66-.86-1.66-1.79,0-1.13.86-1.91,2.51-1.91.7,0,1.28.11,1.76.32l-.19,1.43c-.47-.29-1.14-.47-1.62-.47s-.75.17-.75.5c0,.28.18.39.87.68,1.42.58,1.9,1.05,1.9,1.92,0,1.13-.8,1.89-2.48,1.89-.87,0-1.55-.1-2.05-.3Z"/>
        <path class="cls-3" d="m8.45,45.26c0-1.94,1.2-3.19,3.1-3.19,2.02,0,2.98,1.17,2.98,3,0,2.1-1.3,3.24-3.09,3.24-1.99,0-2.99-1.11-2.99-3.05Zm4.18-.08c0-1.3-.33-1.91-1.1-1.91s-1.18.68-1.18,1.94c0,1.34.36,1.93,1.08,1.93.8,0,1.2-.65,1.2-1.95Z"/>
        <path class="cls-3" d="m21.07,45.35v2.79h-1.82v-3.21c0-1.05-.24-1.45-.98-1.45-.3,0-.61.07-.91.23v4.43h-1.82v-5.73l1.53-.24h.25v.67c.58-.48,1.29-.7,1.88-.7.98,0,1.59.51,1.77,1.28.08.39.1.88.1,1.94Z"/>
        <path class="cls-3" d="m27.58,45.46h-3.75c.06,1.13.58,1.61,1.51,1.61.63,0,1.33-.17,1.93-.51l.24,1.27c-.53.3-1.41.47-2.31.47-2.13,0-3.19-1.09-3.19-3.02s1.22-3.22,2.97-3.22,2.6.94,2.6,2.8v.59Zm-1.78-1.02c0-.92-.3-1.28-.84-1.28-.57,0-.96.45-1.09,1.37l1.93-.08Z"/>
        <path class="cls-3" d="m30.12,45.26c0-1.94,1.2-3.19,3.1-3.19,2.02,0,2.98,1.17,2.98,3,0,2.1-1.3,3.24-3.09,3.24-1.99,0-2.99-1.11-2.99-3.05Zm4.18-.08c0-1.3-.33-1.91-1.1-1.91s-1.18.68-1.18,1.94c0,1.34.36,1.93,1.08,1.93.8,0,1.2-.65,1.2-1.95Z"/>
        <path class="cls-3" d="m39.39,41.72v.76h1.43l-.07,1.32h-1.36v4.34h-1.82v-4.34h-.9l.06-1.08.84-.21v-.71c0-1.5.92-2.33,2.47-2.33.59,0,1.05.07,1.38.21l-.18,1.47c-.47-.23-.84-.34-1.12-.34-.52,0-.74.29-.74.91Z"/>
        <path class="cls-3" d="m47.36,47.97c-.42.23-.98.34-1.67.34-1.35,0-2.04-.58-2.04-1.88,0-.62.02-1.5.07-2.63h-.81l.07-1.08.84-.21.07-1.18,1.49-.23h.16l-.04,1.37h1.77l-.08,1.32h-1.68v2.57c-.01.44.17.62.55.62.31,0,.69-.11,1.13-.33l.18,1.31Z"/>
        <path class="cls-3" d="m53.82,45.35v2.79h-1.82v-3.2c0-1.05-.22-1.47-.98-1.47-.3,0-.61.07-.91.23v4.43h-1.82v-8.44l1.56-.24h.25v3.36c.57-.47,1.22-.68,1.84-.68.98,0,1.59.51,1.77,1.28.08.39.1.88.1,1.94Z"/>
        <path class="cls-3" d="m60.33,45.46h-3.75c.06,1.13.58,1.61,1.51,1.61.63,0,1.33-.17,1.93-.51l.24,1.27c-.53.3-1.41.47-2.31.47-2.13,0-3.19-1.09-3.19-3.02s1.22-3.22,2.97-3.22,2.6.94,2.6,2.8v.59Zm-1.78-1.02c0-.92-.3-1.28-.84-1.28-.57,0-.96.45-1.09,1.37l1.93-.08Z"/>
        <path class="cls-3" d="m69.14,44.87c0,2.11-1.31,3.44-3.39,3.44-.98,0-1.82-.13-2.52-.41v-8.2l1.55-.24h.27v3.38c.42-.44.99-.68,1.66-.68,1.47,0,2.44,1.05,2.44,2.71Zm-1.89.19c0-1.07-.55-1.59-1.31-1.59-.36,0-.67.08-.9.24v3.32c.19.08.42.12.7.12,1.03,0,1.5-.73,1.5-2.1Z"/>
        <path class="cls-3" d="m75.51,42.17v5.97h-1.78v-.59c-.52.47-1.14.7-1.85.7-.93,0-1.49-.5-1.67-1.26-.1-.38-.12-.93-.12-1.95v-2.63l1.56-.24h.25v3.23c0,1.12.22,1.5.98,1.5.28,0,.56-.07.81-.22v-4.28l1.58-.24h.24Z"/>
        <path class="cls-3" d="m76.59,48.01l.17-1.49c.52.34,1.26.54,1.81.54s.84-.18.84-.54c0-.25-.21-.4-1.09-.75-1.1-.42-1.66-.86-1.66-1.79,0-1.13.86-1.91,2.51-1.91.7,0,1.28.11,1.76.32l-.19,1.43c-.47-.29-1.14-.47-1.62-.47s-.75.17-.75.5c0,.28.18.39.87.68,1.42.58,1.9,1.05,1.9,1.92,0,1.13-.8,1.89-2.48,1.89-.87,0-1.55-.1-2.05-.3Z"/>
        <path class="cls-3" d="m81.9,40.37c0-.62.41-1.08,1.09-1.08s1.09.46,1.09,1.08-.41,1.07-1.09,1.07-1.09-.45-1.09-1.07Zm.18,2.04l1.55-.24h.27v5.97h-1.82v-5.73Z"/>
        <path class="cls-3" d="m90.49,45.46h-3.75c.06,1.13.58,1.61,1.51,1.61.63,0,1.33-.17,1.93-.51l.24,1.27c-.53.3-1.41.47-2.31.47-2.13,0-3.19-1.09-3.19-3.02s1.22-3.22,2.97-3.22,2.6.94,2.6,2.8v.59Zm-1.78-1.02c0-.92-.3-1.28-.84-1.28-.57,0-.96.45-1.09,1.37l1.93-.08Z"/>
        <path class="cls-3" d="m91.27,48.01l.17-1.49c.52.34,1.26.54,1.81.54s.84-.18.84-.54c0-.25-.21-.4-1.09-.75-1.1-.42-1.66-.86-1.66-1.79,0-1.13.86-1.91,2.51-1.91.7,0,1.28.11,1.76.32l-.19,1.43c-.47-.29-1.14-.47-1.62-.47s-.75.17-.75.5c0,.28.18.39.87.68,1.42.58,1.9,1.05,1.9,1.92,0,1.13-.8,1.89-2.48,1.89-.87,0-1.55-.1-2.05-.3Z"/>
        <path class="cls-3" d="m100.63,47.97c-.42.23-.98.34-1.67.34-1.35,0-2.04-.58-2.04-1.88,0-.62.02-1.5.07-2.63h-.81l.07-1.08.84-.21.07-1.18,1.49-.23h.16l-.04,1.37h1.77l-.08,1.32h-1.68v2.57c-.01.44.17.62.55.62.31,0,.69-.11,1.13-.33l.18,1.31Z"/>
        <path class="cls-3" d="m103.26,40.37c0-.62.41-1.08,1.09-1.08s1.09.46,1.09,1.08-.41,1.07-1.09,1.07-1.09-.45-1.09-1.07Zm.18,2.04l1.55-.24h.27v5.97h-1.82v-5.73Z"/>
        <path class="cls-3" d="m112.17,45.35v2.79h-1.82v-3.21c0-1.05-.24-1.45-.98-1.45-.3,0-.61.07-.91.23v4.43h-1.82v-5.73l1.53-.24h.25v.67c.58-.48,1.28-.7,1.88-.7.98,0,1.59.51,1.77,1.28.08.39.1.88.1,1.94Z"/>
        <path class="cls-3" d="m119.25,47.97c-.42.23-.98.34-1.67.34-1.35,0-2.04-.58-2.04-1.88,0-.62.02-1.5.07-2.63h-.81l.07-1.08.84-.21.07-1.18,1.49-.23h.16l-.04,1.37h1.77l-.08,1.32h-1.68v2.57c-.01.44.17.62.55.62.31,0,.69-.11,1.13-.33l.18,1.31Z"/>
        <path class="cls-3" d="m125.71,45.35v2.79h-1.82v-3.2c0-1.05-.22-1.47-.98-1.47-.3,0-.61.07-.91.23v4.43h-1.82v-8.44l1.56-.24h.25v3.36c.57-.47,1.22-.68,1.84-.68.98,0,1.59.51,1.77,1.28.08.39.1.88.1,1.94Z"/>
        <path class="cls-3" d="m132.22,45.46h-3.75c.06,1.13.58,1.61,1.51,1.61.63,0,1.33-.17,1.93-.51l.24,1.27c-.53.3-1.41.47-2.31.47-2.13,0-3.19-1.09-3.19-3.02s1.22-3.22,2.97-3.22,2.6.94,2.6,2.8v.59Zm-1.78-1.02c0-.92-.3-1.28-.84-1.28-.57,0-.96.45-1.09,1.37l1.93-.08Z"/>
        <path class="cls-3" d="m15.34,63.6h1.77l-1.55,5.92h-2.08l-.82-3.51-.82,3.51h-2.1l-1.56-5.92h1.83l.93,4.36,1.05-4.36h1.42l1.04,4.34.9-4.34Z"/>
        <path class="cls-3" d="m17.45,66.62c0-1.94,1.2-3.19,3.1-3.19,2.02,0,2.98,1.18,2.98,3,0,2.1-1.3,3.23-3.09,3.23-1.99,0-2.99-1.11-2.99-3.05Zm4.18-.08c0-1.3-.33-1.91-1.1-1.91s-1.18.68-1.18,1.94c0,1.34.36,1.93,1.08,1.93.8,0,1.2-.65,1.2-1.95Z"/>
        <path class="cls-3" d="m28.42,63.69l-.15,1.66c-.24-.02-.45-.04-.63-.04-.42,0-.57.07-.97.5l-.3.33v3.37h-1.82v-5.73l1.51-.24h.25v1.61l.36-.71c.38-.71.62-.91,1.04-.91.23,0,.46.06.69.17Z"/>
        <path class="cls-3" d="m29.16,61.06l1.56-.24h.25v8.69h-1.82v-8.44Z"/>
        <path class="cls-3" d="m37.9,60.82v8.69h-1.79v-.61c-.35.44-.93.69-1.66.69-1.45,0-2.46-.99-2.46-2.8,0-2,1.3-3.36,3.28-3.36.27,0,.53.04.81.1v-2.47l1.58-.24h.24Zm-1.82,7.2v-3.22c-.25-.13-.52-.19-.81-.19-.93,0-1.41.81-1.41,2.08,0,1.08.57,1.6,1.31,1.6.36,0,.67-.08.91-.27Z"/>
        <path class="cls-3" d="m39.11,68.52c0-.62.45-1.07,1.09-1.07s1.08.45,1.08,1.07-.44,1.07-1.08,1.07-1.09-.45-1.09-1.07Z"/>
        <path class="cls-3" d="m59.48,69.5l-.53-1.7h-2.65l-.52,1.7h-1.89l2.79-8.14h2.07l2.79,8.14h-2.05Zm-2.76-3.03h1.82l-.91-2.92-.91,2.92Z"/>
        <path class="cls-3" d="m68.23,66.24c0,1.99-1.22,3.43-3.15,3.43-.38,0-.69-.04-.94-.1v2.77h-1.82v-8.58l1.55-.24h.27v.65c.39-.42.97-.67,1.65-.67,1.49,0,2.45,1.02,2.45,2.73Zm-1.89.17c0-1.03-.52-1.58-1.33-1.58-.35,0-.64.08-.87.25v3.22c.23.13.48.21.75.21.97,0,1.45-.7,1.45-2.11Z"/>
        <path class="cls-3" d="m75.16,66.24c0,1.99-1.22,3.43-3.15,3.43-.38,0-.69-.04-.94-.1v2.77h-1.82v-8.58l1.55-.24h.27v.65c.39-.42.97-.67,1.65-.67,1.49,0,2.45,1.02,2.45,2.73Zm-1.89.17c0-1.03-.52-1.58-1.33-1.58-.35,0-.64.08-.87.25v3.22c.23.13.48.21.75.21.97,0,1.45-.7,1.45-2.11Z"/>
        <path class="cls-3" d="m80.04,63.69l-.15,1.66c-.24-.02-.45-.04-.63-.04-.42,0-.57.07-.97.5l-.3.33v3.37h-1.82v-5.73l1.51-.24h.25v1.61l.36-.71c.38-.71.62-.91,1.04-.91.23,0,.46.06.69.17Z"/>
        <path class="cls-3" d="m80.32,66.62c0-1.94,1.2-3.19,3.1-3.19,2.02,0,2.98,1.18,2.98,3,0,2.1-1.3,3.23-3.09,3.23-1.99,0-2.99-1.11-2.99-3.05Zm4.18-.08c0-1.3-.33-1.91-1.1-1.91s-1.18.68-1.18,1.94c0,1.34.36,1.93,1.08,1.93.8,0,1.2-.65,1.2-1.95Z"/>
        <path class="cls-3" d="m92.81,69.5h-2.06l-1.09-1.85-1.13,1.85h-1.94l1.96-2.94-1.85-2.96h2l1.07,1.83,1.07-1.83h1.9l-1.89,2.87,1.96,3.03Z"/>
        <path class="cls-3" d="m93.3,61.74c0-.62.41-1.08,1.09-1.08s1.09.46,1.09,1.08-.41,1.07-1.09,1.07-1.09-.45-1.09-1.07Zm.18,2.04l1.55-.24h.27v5.97h-1.82v-5.73Z"/>
        <path class="cls-3" d="m105.54,66.64v2.86h-1.82v-3.22c0-1.05-.22-1.45-.91-1.45-.31,0-.61.08-.88.27.05.33.07.86.07,1.62v2.79h-1.79v-3.17c0-1.1-.21-1.5-.88-1.5-.28,0-.54.07-.82.23v4.45h-1.82v-5.73l1.53-.24h.25v.69c.53-.49,1.13-.73,1.78-.73.69,0,1.21.32,1.47.81.55-.54,1.21-.81,2-.81.96,0,1.51.48,1.7,1.25.08.35.13.98.13,1.9Z"/>
        <path class="cls-3" d="m111.57,65.06c0,.29-.01.85-.04,1.67l-.06,2.77h-1.76v-.5c-.45.3-.96.51-1.53.59-1.15-.08-1.83-.82-1.83-1.81s.68-1.36,2.23-1.54l1.13-.13v-.81c0-.4-.23-.59-.75-.59s-1.14.22-2,.84l-.3-1.34c.69-.52,1.79-.78,2.87-.78,1.27,0,2.04.51,2.04,1.62Zm-1.85,3.23v-1.2l-.57.06c-.76.08-.98.25-.98.61,0,.4.38.68.82.68.21,0,.45-.05.73-.15Z"/>
        <path class="cls-3" d="m116.75,69.33c-.42.23-.98.34-1.67.34-1.35,0-2.04-.58-2.04-1.88,0-.62.02-1.5.07-2.63h-.81l.07-1.08.84-.21.07-1.17,1.49-.23h.16l-.04,1.37h1.77l-.08,1.32h-1.68v2.57c-.01.44.17.62.55.62.31,0,.69-.11,1.13-.33l.18,1.31Z"/>
        <path class="cls-3" d="m122.8,66.83h-3.75c.06,1.13.58,1.61,1.51,1.61.63,0,1.33-.17,1.93-.51l.24,1.27c-.53.3-1.41.47-2.31.47-2.13,0-3.19-1.09-3.19-3.02s1.22-3.22,2.97-3.22,2.6.95,2.6,2.8v.59Zm-1.78-1.02c0-.92-.3-1.28-.84-1.28-.57,0-.96.45-1.09,1.37l1.93-.08Z"/>
        <path class="cls-3" d="m123.82,61.06l1.56-.24h.25v8.69h-1.82v-8.44Z"/>
        <path class="cls-3" d="m132.56,63.6l-2.17,6.37c-.62,1.77-1.2,2.17-3,2.41l-.39-1.3c1.36-.19,1.81-.47,2.12-1.58l.02-.07h-.9l-1.93-5.84h1.93l1.24,4.6,1.3-4.6h1.78Z"/>
        <path class="cls-2" d="m8.38,85.51v-4.65c0-.53.37-.87,1-.87s.99.34.99.87v4.38c0,.59.25.87.63.87.16,0,.29-.06.4-.18v-5.07c0-.53.37-.87,1-.87s1,.34,1,.87v9.22c0,.51-.35.84-.96.84s-.97-.32-.97-.84v-2.77c-.19.18-.56.43-1.21.43-1.12,0-1.88-.57-1.88-2.24Z"/>
        <path class="cls-2" d="m14.03,88.7v-1.1c0-.51.35-.84.96-.84s.96.32.96.84v1.13c0,.34.18.54.47.54h.09c.31,0,.47-.21.47-.54v-2.21c0-.38-.19-.62-.56-.62h-.03c-.41,0-.69-.28-.69-.76s.28-.78.69-.78h.03c.37,0,.56-.22.56-.6v-1.56c0-.34-.16-.54-.47-.54h-.09c-.29,0-.47.21-.47.54v.75c0,.51-.35.85-.96.85s-.96-.34-.96-.85v-.75c0-1.46.78-2.21,2.25-2.21h.4c1.5,0,2.29.75,2.29,2.21v1.06c0,.88-.28,1.5-.82,1.84.54.34.82.93.82,1.75v1.85c0,1.49-.79,2.22-2.29,2.22h-.4c-1.47,0-2.25-.74-2.25-2.22Z"/>
        <path class="cls-2" d="m30.69,90.04v-7.28c0-.54.37-.88,1.01-.88.53,0,.87.24.97.63.24-.24.81-.63,1.62-.63.65,0,1.07.21,1.29.76.06-.16.71-.76,1.71-.76s1.47.47,1.47,1.84v6.33c0,.54-.37.88-1,.88s-1.02-.34-1.02-.88v-5.84c0-.44-.19-.66-.5-.66-.21,0-.38.12-.5.28v6.22c0,.54-.37.88-1,.88s-1.01-.34-1.01-.88v-5.84c0-.44-.19-.66-.5-.66-.22,0-.41.13-.53.31v6.19c0,.54-.37.88-1,.88s-1.01-.34-1.01-.88Z"/>
        <path class="cls-2" d="m39.47,80.48c0-.6.37-.91,1.04-.91s1.06.31,1.06.91-.38.91-1.06.91-1.04-.31-1.04-.91Zm.03,9.56v-7.28c0-.54.37-.88,1.01-.88s1.03.34,1.03.88v7.28c0,.54-.38.88-1.03.88s-1.01-.34-1.01-.88Z"/>
        <path class="cls-2" d="m42.31,90.04v-9.16c0-.54.38-.88,1.03-.88s1.03.34,1.03.88v9.16c0,.54-.38.88-1.03.88s-1.03-.34-1.03-.88Z"/>
        <path class="cls-2" d="m45.11,90.04v-9.16c0-.54.38-.88,1.03-.88s1.03.34,1.03.88v9.16c0,.54-.38.88-1.03.88s-1.03-.34-1.03-.88Z"/>
        <path class="cls-2" d="m47.91,80.48c0-.6.37-.91,1.04-.91s1.06.31,1.06.91-.38.91-1.06.91-1.04-.31-1.04-.91Zm.03,9.56v-7.28c0-.54.37-.88,1.01-.88s1.03.34,1.03.88v7.28c0,.54-.38.88-1.03.88s-1.01-.34-1.01-.88Z"/>
        <path class="cls-2" d="m50.67,88.7v-4.62c0-1.46.79-2.21,2.29-2.21h.43c1.52,0,2.29.75,2.29,2.21v4.62c0,1.49-.78,2.22-2.29,2.22h-.43c-1.5,0-2.29-.74-2.29-2.22Zm2.54.6c.31,0,.47-.19.47-.53v-4.72c0-.34-.16-.56-.47-.56h-.09c-.29,0-.46.22-.46.56v4.72c0,.34.16.53.46.53h.09Z"/>
        <path class="cls-2" d="m56.34,90.04v-7.28c0-.54.37-.88,1.01-.88.53,0,.87.24.97.63.24-.24.81-.63,1.62-.63.96,0,1.46.47,1.46,1.84v6.33c0,.54-.37.88-1,.88s-1.01-.34-1.01-.88v-5.84c0-.44-.19-.66-.5-.66-.22,0-.41.13-.53.31v6.19c0,.54-.37.88-1,.88s-1.01-.34-1.01-.88Z"/>
        <path class="cls-3" d="m76.98,88.06c0-2.02,1.21-3.26,3.19-3.26.68,0,1.25.1,1.71.29l-.19,1.44c-.59-.3-1.07-.46-1.42-.46-.93,0-1.39.68-1.39,1.9s.46,1.83,1.39,1.83c.42,0,1-.16,1.49-.53l.24,1.31c-.4.28-1.15.46-1.88.46-2.13,0-3.14-1.09-3.14-2.98Z"/>
        <path class="cls-3" d="m82.48,87.98c0-1.94,1.2-3.19,3.1-3.19,2.02,0,2.98,1.17,2.98,3,0,2.1-1.3,3.24-3.09,3.24-1.99,0-2.99-1.11-2.99-3.05Zm4.18-.08c0-1.3-.33-1.91-1.1-1.91s-1.18.68-1.18,1.94c0,1.34.36,1.93,1.08,1.93.8,0,1.2-.65,1.2-1.95Z"/>
        <path class="cls-3" d="m95.11,88.08v2.79h-1.82v-3.21c0-1.05-.24-1.45-.98-1.45-.3,0-.61.07-.91.23v4.43h-1.82v-5.73l1.53-.24h.25v.67c.58-.48,1.29-.7,1.88-.7.98,0,1.59.51,1.77,1.28.08.39.1.88.1,1.94Z"/>
        <path class="cls-3" d="m100.31,90.7c-.42.23-.98.34-1.67.34-1.35,0-2.04-.58-2.04-1.88,0-.62.02-1.5.07-2.63h-.81l.07-1.08.84-.21.07-1.18,1.49-.23h.16l-.04,1.37h1.77l-.08,1.32h-1.68v2.57c-.01.44.17.62.55.62.31,0,.69-.11,1.13-.33l.18,1.31Z"/>
        <path class="cls-3" d="m105.95,86.42c0,.29-.01.85-.04,1.67l-.06,2.77h-1.76v-.5c-.45.3-.96.51-1.53.59-1.15-.08-1.83-.82-1.83-1.8s.68-1.36,2.23-1.54l1.13-.13v-.81c0-.4-.23-.59-.75-.59s-1.14.22-2,.84l-.3-1.34c.69-.52,1.79-.78,2.87-.78,1.27,0,2.04.51,2.04,1.62Zm-1.85,3.24v-1.2l-.57.06c-.76.08-.98.25-.98.61,0,.4.38.68.82.68.21,0,.45-.05.73-.14Z"/>
        <path class="cls-3" d="m107.06,83.1c0-.62.41-1.08,1.09-1.08s1.09.46,1.09,1.08-.41,1.07-1.09,1.07-1.09-.45-1.09-1.07Zm.18,2.04l1.55-.24h.27v5.97h-1.82v-5.73Z"/>
        <path class="cls-3" d="m115.97,88.08v2.79h-1.82v-3.21c0-1.05-.24-1.45-.98-1.45-.3,0-.61.07-.91.23v4.43h-1.82v-5.73l1.53-.24h.25v.67c.58-.48,1.28-.7,1.88-.7.98,0,1.59.51,1.77,1.28.08.39.1.88.1,1.94Z"/>
        <path class="cls-3" d="m122.47,88.19h-3.75c.06,1.13.58,1.61,1.51,1.61.63,0,1.33-.17,1.93-.51l.24,1.27c-.53.3-1.41.47-2.31.47-2.13,0-3.19-1.09-3.19-3.02s1.22-3.22,2.97-3.22,2.6.94,2.6,2.8v.59Zm-1.78-1.02c0-.92-.3-1.28-.84-1.28-.57,0-.96.45-1.09,1.37l1.93-.08Z"/>
        <path class="cls-3" d="m127.36,85.05l-.14,1.66c-.24-.02-.45-.04-.63-.04-.42,0-.57.07-.97.5l-.3.33v3.37h-1.82v-5.73l1.51-.24h.25v1.61l.36-.71c.38-.71.62-.91,1.04-.91.23,0,.46.06.69.17Z"/>
        <path class="cls-3" d="m127.75,90.73l.17-1.49c.52.34,1.26.54,1.81.54s.84-.18.84-.54c0-.25-.21-.4-1.09-.75-1.1-.42-1.66-.86-1.66-1.79,0-1.13.86-1.91,2.51-1.91.7,0,1.28.11,1.76.32l-.19,1.43c-.47-.29-1.14-.47-1.62-.47s-.75.17-.75.5c0,.28.18.39.87.68,1.42.58,1.9,1.05,1.9,1.92,0,1.13-.8,1.89-2.48,1.89-.87,0-1.55-.1-2.05-.3Z"/>
        <path class="cls-3" d="m14.72,108.97c0,1.99-1.22,3.43-3.15,3.43-.38,0-.69-.04-.94-.1v2.77h-1.82v-8.58l1.55-.24h.27v.65c.39-.42.97-.67,1.65-.67,1.49,0,2.45,1.02,2.45,2.73Zm-1.89.17c0-1.03-.52-1.58-1.33-1.58-.35,0-.64.08-.87.25v3.22c.23.13.48.21.75.21.97,0,1.45-.7,1.45-2.11Z"/>
        <path class="cls-3" d="m20.48,107.78c0,.29-.01.85-.04,1.67l-.06,2.77h-1.76v-.5c-.45.3-.96.51-1.53.59-1.15-.08-1.83-.82-1.83-1.81s.68-1.36,2.23-1.54l1.13-.13v-.81c0-.4-.23-.59-.75-.59s-1.14.22-2,.84l-.3-1.34c.69-.52,1.79-.78,2.87-.78,1.27,0,2.04.51,2.04,1.62Zm-1.85,3.23v-1.2l-.57.06c-.76.08-.98.25-.98.61,0,.4.38.68.82.68.21,0,.45-.05.73-.15Z"/>
        <path class="cls-3" d="m21.46,112.1l.17-1.49c.52.34,1.26.55,1.81.55s.84-.18.84-.55c0-.25-.21-.4-1.09-.75-1.1-.42-1.66-.86-1.66-1.79,0-1.13.86-1.91,2.51-1.91.7,0,1.28.11,1.76.31l-.19,1.43c-.47-.29-1.14-.47-1.62-.47s-.75.17-.75.5c0,.28.18.39.87.68,1.42.58,1.9,1.05,1.9,1.91,0,1.13-.8,1.89-2.48,1.89-.87,0-1.55-.1-2.05-.3Z"/>
        <path class="cls-3" d="m26.69,112.1l.17-1.49c.52.34,1.26.55,1.81.55s.84-.18.84-.55c0-.25-.21-.4-1.09-.75-1.1-.42-1.66-.86-1.66-1.79,0-1.13.86-1.91,2.51-1.91.7,0,1.28.11,1.76.31l-.19,1.43c-.47-.29-1.14-.47-1.62-.47s-.75.17-.75.5c0,.28.18.39.87.68,1.42.58,1.9,1.05,1.9,1.91,0,1.13-.8,1.89-2.48,1.89-.87,0-1.55-.1-2.05-.3Z"/>
        <path class="cls-3" d="m46.9,112.06c-.42.23-.98.34-1.67.34-1.35,0-2.04-.58-2.04-1.88,0-.62.02-1.5.07-2.63h-.81l.07-1.08.84-.21.07-1.17,1.49-.23h.16l-.04,1.37h1.77l-.08,1.32h-1.68v2.57c-.01.44.17.62.55.62.31,0,.69-.11,1.13-.33l.18,1.31Z"/>
        <path class="cls-3" d="m53.35,109.44v2.79h-1.82v-3.2c0-1.05-.22-1.47-.98-1.47-.3,0-.61.07-.91.23v4.43h-1.82v-8.44l1.56-.24h.25v3.36c.57-.47,1.22-.68,1.84-.68.98,0,1.59.51,1.77,1.28.08.39.1.88.1,1.94Z"/>
        <path class="cls-3" d="m58.52,106.41l-.15,1.66c-.24-.02-.45-.04-.63-.04-.42,0-.57.07-.97.5l-.3.33v3.37h-1.82v-5.73l1.51-.24h.25v1.61l.36-.71c.38-.71.62-.91,1.04-.91.23,0,.46.06.69.17Z"/>
        <path class="cls-3" d="m58.8,109.35c0-1.94,1.2-3.19,3.1-3.19,2.02,0,2.98,1.18,2.98,3,0,2.1-1.3,3.23-3.09,3.23-1.99,0-2.99-1.11-2.99-3.05Zm4.18-.08c0-1.3-.33-1.91-1.1-1.91s-1.18.68-1.18,1.94c0,1.34.36,1.93,1.08,1.93.8,0,1.2-.65,1.2-1.95Z"/>
        <path class="cls-3" d="m71.24,106.26v5.97h-1.78v-.59c-.52.47-1.14.7-1.85.7-.93,0-1.49-.5-1.67-1.26-.1-.38-.12-.93-.12-1.95v-2.63l1.56-.24h.25v3.24c0,1.11.22,1.5.98,1.5.28,0,.56-.07.81-.22v-4.28l1.58-.24h.24Z"/>
        <path class="cls-3" d="m76.37,111.38c1.31,0,2.02.58,2.02,1.61,0,1.45-1.38,2.27-3.62,2.27-1.79,0-2.82-.48-2.82-1.41,0-.48.36-.86,1.15-1.21-.38-.25-.57-.59-.57-1.04,0-.55.33-1.02.97-1.42-.74-.35-1.1-1.03-1.1-1.8,0-1.3.96-2.17,2.6-2.17.51,0,.96.08,1.35.24.01-.04.01-.08.01-.15.06-.74.46-1.08,1.04-1.08.36,0,.67.06.91.19l-.15,1.28c-.22-.06-.44-.1-.64-.1-.28,0-.42.1-.45.3.44.39.67.92.67,1.47,0,.71-.24,1.26-.73,1.62-.5.38-1.12.56-1.85.56-.23,0-.46-.01-.69-.05-.3.16-.45.38-.45.58s.14.3.45.3h1.9Zm.33,1.89c0-.27-.18-.4-.54-.4h-2.38c-.08.15-.12.29-.12.45,0,.52.46.78,1.37.78s1.67-.29,1.67-.82Zm-2.46-4.87c0,.67.36,1.05.86,1.05.63,0,.92-.39.92-1.07,0-.71-.3-1.08-.87-1.08s-.91.35-.91,1.09Z"/>
        <path class="cls-3" d="m84.46,109.44v2.79h-1.82v-3.2c0-1.05-.22-1.47-.98-1.47-.3,0-.61.07-.91.23v4.43h-1.82v-8.44l1.56-.24h.25v3.36c.57-.47,1.22-.68,1.84-.68.98,0,1.59.51,1.77,1.28.08.39.1.88.1,1.94Z"/>
        <path class="cls-3" d="m96.4,104.46c0-.62.41-1.08,1.09-1.08s1.09.46,1.09,1.08-.41,1.07-1.09,1.07-1.09-.45-1.09-1.07Zm.18,2.04l1.55-.24h.27v5.97h-1.82v-5.73Z"/>
        <path class="cls-3" d="m103.68,112.06c-.42.23-.98.34-1.67.34-1.35,0-2.04-.58-2.04-1.88,0-.62.02-1.5.07-2.63h-.81l.07-1.08.84-.21.07-1.17,1.49-.23h.16l-.04,1.37h1.77l-.08,1.32h-1.68v2.57c-.01.44.17.62.55.62.31,0,.69-.11,1.13-.33l.18,1.31Z"/>
        <path class="cls-3" d="m121.35,108.97c0,1.99-1.22,3.43-3.15,3.43-.38,0-.69-.04-.94-.1v2.77h-1.82v-8.58l1.55-.24h.27v.65c.39-.42.97-.67,1.65-.67,1.49,0,2.45,1.02,2.45,2.73Zm-1.89.17c0-1.03-.52-1.58-1.33-1.58-.35,0-.64.08-.87.25v3.22c.23.13.48.21.75.21.97,0,1.45-.7,1.45-2.11Z"/>
        <path class="cls-3" d="m127.61,109.55h-3.75c.06,1.13.58,1.61,1.51,1.61.63,0,1.33-.17,1.93-.51l.24,1.27c-.53.3-1.41.47-2.31.47-2.13,0-3.19-1.09-3.19-3.02s1.22-3.22,2.97-3.22,2.6.95,2.6,2.8v.59Zm-1.78-1.02c0-.92-.3-1.28-.84-1.28-.57,0-.96.45-1.09,1.37l1.93-.08Z"/>
        <path class="cls-3" d="m132.49,106.41l-.15,1.66c-.24-.02-.45-.04-.63-.04-.42,0-.57.07-.97.5l-.3.33v3.37h-1.82v-5.73l1.51-.24h.25v1.61l.36-.71c.38-.71.62-.91,1.04-.91.23,0,.46.06.69.17Z"/>
        <path class="cls-3" d="m14.36,127.69l-2.17,6.37c-.62,1.77-1.2,2.17-3,2.41l-.39-1.3c1.36-.19,1.81-.47,2.12-1.57l.02-.07h-.9l-1.93-5.84h1.93l1.24,4.6,1.3-4.6h1.78Z"/>
        <path class="cls-3" d="m20.18,130.92h-3.75c.06,1.13.58,1.61,1.51,1.61.63,0,1.33-.17,1.93-.51l.24,1.27c-.53.3-1.41.47-2.31.47-2.13,0-3.19-1.09-3.19-3.02s1.22-3.22,2.97-3.22,2.6.94,2.6,2.8v.59Zm-1.78-1.02c0-.92-.3-1.28-.84-1.28-.57,0-.96.45-1.09,1.37l1.93-.08Z"/>
        <path class="cls-3" d="m26.07,129.15c0,.29-.01.85-.04,1.67l-.06,2.77h-1.76v-.5c-.45.3-.96.51-1.53.59-1.15-.08-1.83-.82-1.83-1.8s.68-1.36,2.23-1.54l1.13-.13v-.81c0-.4-.23-.59-.75-.59s-1.14.22-2,.84l-.3-1.34c.69-.52,1.79-.78,2.87-.78,1.27,0,2.04.51,2.04,1.62Zm-1.85,3.24v-1.2l-.57.06c-.76.08-.98.25-.98.61,0,.4.38.68.82.68.21,0,.45-.05.73-.14Z"/>
        <path class="cls-3" d="m31.22,127.78l-.14,1.66c-.24-.02-.45-.04-.63-.04-.42,0-.57.07-.97.5l-.3.33v3.37h-1.82v-5.73l1.51-.24h.25v1.61l.36-.71c.38-.71.62-.91,1.04-.91.23,0,.46.06.69.17Z"/>
        <path class="cls-3" d="m33.21,132.96c0,.91-.42,1.89-1.02,2.68l-1.02-.41c.58-.87.8-1.28.9-1.62l-.86-.21c-.19-.22-.29-.49-.29-.79,0-.57.41-1.07,1.08-1.07.79,0,1.21.58,1.21,1.42Z"/>
        <path class="cls-3" d="m45.57,127.69h1.77l-1.55,5.92h-2.08l-.82-3.51-.82,3.51h-2.1l-1.56-5.92h1.83l.93,4.36,1.05-4.36h1.42l1.04,4.34.9-4.34Z"/>
        <path class="cls-3" d="m53.6,130.81v2.79h-1.82v-3.2c0-1.05-.22-1.47-.98-1.47-.3,0-.61.07-.91.23v4.43h-1.82v-8.44l1.56-.24h.25v3.36c.57-.47,1.22-.68,1.84-.68.98,0,1.59.51,1.77,1.28.08.39.1.88.1,1.94Z"/>
        <path class="cls-3" d="m54.72,125.83c0-.62.41-1.08,1.09-1.08s1.09.46,1.09,1.08-.41,1.07-1.09,1.07-1.09-.45-1.09-1.07Zm.18,2.04l1.55-.24h.27v5.97h-1.82v-5.73Z"/>
        <path class="cls-3" d="m57.74,130.78c0-2.02,1.21-3.26,3.19-3.26.68,0,1.25.1,1.71.29l-.19,1.44c-.59-.3-1.07-.46-1.42-.46-.93,0-1.39.68-1.39,1.9s.46,1.83,1.39,1.83c.42,0,1-.16,1.49-.53l.24,1.31c-.4.28-1.15.46-1.88.46-2.13,0-3.14-1.09-3.14-2.98Z"/>
        <path class="cls-3" d="m69.19,130.81v2.79h-1.82v-3.2c0-1.05-.22-1.47-.98-1.47-.3,0-.61.07-.91.23v4.43h-1.82v-8.44l1.56-.24h.25v3.36c.57-.47,1.22-.68,1.84-.68.98,0,1.59.51,1.77,1.28.08.39.1.88.1,1.94Z"/>
        <path class="cls-3" d="m74.88,125.83c0-.62.41-1.08,1.09-1.08s1.09.46,1.09,1.08-.41,1.07-1.09,1.07-1.09-.45-1.09-1.07Zm.18,2.04l1.55-.24h.27v5.97h-1.82v-5.73Z"/>
        <path class="cls-3" d="m77.96,133.46l.17-1.49c.52.34,1.26.54,1.81.54s.84-.18.84-.54c0-.25-.21-.4-1.09-.75-1.1-.42-1.66-.86-1.66-1.79,0-1.13.86-1.91,2.51-1.91.7,0,1.28.11,1.76.32l-.19,1.43c-.47-.29-1.14-.47-1.62-.47s-.75.17-.75.5c0,.28.18.39.87.68,1.42.58,1.9,1.05,1.9,1.92,0,1.13-.8,1.89-2.48,1.89-.87,0-1.55-.1-2.05-.3Z"/>
        <path class="cls-3" d="m93.23,130.92h-3.75c.06,1.13.58,1.61,1.51,1.61.63,0,1.33-.17,1.93-.51l.24,1.27c-.53.3-1.41.47-2.31.47-2.13,0-3.19-1.09-3.19-3.02s1.22-3.22,2.97-3.22,2.6.94,2.6,2.8v.59Zm-1.78-1.02c0-.92-.3-1.28-.84-1.28-.57,0-.96.45-1.09,1.37l1.93-.08Z"/>
        <path class="cls-3" d="m99.88,127.48v8.97h-1.82v-3.43c-.4.45-.93.67-1.61.67-1.43,0-2.48-.97-2.48-2.77,0-2.18,1.38-3.38,3.36-3.38.63,0,1.21.11,1.73.33l.82-.38Zm-1.82,4.63v-3.23c-.22-.12-.47-.18-.76-.18-.98,0-1.45.8-1.45,2.07,0,1.1.56,1.61,1.33,1.61.35,0,.65-.08.88-.27Z"/>
        <path class="cls-3" d="m106.61,127.62v5.97h-1.78v-.59c-.52.47-1.14.7-1.85.7-.93,0-1.49-.5-1.67-1.26-.1-.38-.12-.93-.12-1.95v-2.63l1.56-.24h.25v3.23c0,1.12.22,1.5.98,1.5.28,0,.56-.07.81-.22v-4.28l1.58-.24h.24Z"/>
        <path class="cls-3" d="m112.72,129.15c0,.29-.01.85-.04,1.67l-.06,2.77h-1.76v-.5c-.45.3-.96.51-1.53.59-1.15-.08-1.83-.82-1.83-1.8s.68-1.36,2.23-1.54l1.13-.13v-.81c0-.4-.23-.59-.75-.59s-1.14.22-2,.84l-.3-1.34c.69-.52,1.79-.78,2.87-.78,1.27,0,2.04.51,2.04,1.62Zm-1.85,3.24v-1.2l-.57.06c-.76.08-.98.25-.98.61,0,.4.38.68.82.68.21,0,.45-.05.73-.14Z"/>
        <path class="cls-3" d="m114,125.15l1.56-.24h.25v8.69h-1.82v-8.44Z"/>
        <path class="cls-3" d="m125.66,133.42c-.42.23-.98.34-1.67.34-1.35,0-2.04-.58-2.04-1.88,0-.62.02-1.5.07-2.63h-.81l.07-1.08.84-.21.07-1.18,1.49-.23h.16l-.04,1.37h1.77l-.08,1.32h-1.68v2.57c-.01.44.17.62.55.62.31,0,.69-.11,1.13-.33l.18,1.31Z"/>
        <path class="cls-3" d="m126.14,130.71c0-1.94,1.2-3.19,3.1-3.19,2.02,0,2.98,1.17,2.98,3,0,2.1-1.3,3.24-3.09,3.24-1.99,0-2.99-1.11-2.99-3.05Zm4.18-.08c0-1.3-.33-1.91-1.1-1.91s-1.18.68-1.18,1.94c0,1.34.36,1.93,1.08,1.93.8,0,1.2-.65,1.2-1.95Z"/>
        <path class="cls-2" d="m8.42,152.8v-4.62c0-1.46.79-2.21,2.29-2.21h.43c1.51,0,2.29.75,2.29,2.21v4.62c0,1.49-.78,2.22-2.29,2.22h-.43c-1.5,0-2.29-.74-2.29-2.22Zm2.54.6c.31,0,.47-.19.47-.53v-4.72c0-.34-.16-.56-.47-.56h-.09c-.29,0-.46.22-.46.56v4.72c0,.34.16.53.46.53h.09Z"/>
        <path class="cls-2" d="m14.09,154.13v-7.28c0-.54.37-.88,1.01-.88.53,0,.87.24.97.63.24-.24.81-.63,1.62-.63.96,0,1.46.47,1.46,1.84v6.33c0,.54-.37.88-1,.88s-1.01-.34-1.01-.88v-5.84c0-.44-.19-.66-.5-.66-.22,0-.41.13-.53.31v6.19c0,.54-.37.88-1,.88s-1.01-.34-1.01-.88Z"/>
        <path class="cls-2" d="m19.78,152.8v-4.62c0-1.46.79-2.21,2.29-2.21h.44c1.52,0,2.31.75,2.31,2.21v.65c0,.81-.44,1.25-1.25,1.25h-1.79v2.79c0,.34.16.53.46.53h.1c.32,0,.49-.19.49-.53v-1.16c0-.53.37-.85,1-.85s1,.32,1,.85v1.09c0,1.49-.79,2.22-2.31,2.22h-.44c-1.5,0-2.29-.74-2.29-2.22Zm2-3.9h1.04v-.75c0-.34-.16-.56-.49-.56h-.1c-.29,0-.46.22-.46.56v.75Z"/>
        <path class="cls-2" d="m27.1,152.8v-7.84c0-.53.37-.87,1-.87s1,.34,1,.87v1.6c.25-.24.82-.59,1.59-.59.9,0,1.43.5,1.43,1.76v5.06c0,1.49-.79,2.22-2.29,2.22h-.43c-1.5,0-2.29-.74-2.29-2.22Zm2.54.6c.31,0,.47-.19.47-.53v-4.62c0-.43-.18-.66-.49-.66-.19,0-.4.12-.53.29v4.99c0,.34.16.53.46.53h.09Z"/>
        <path class="cls-2" d="m32.76,144.57c0-.6.37-.91,1.04-.91s1.06.31,1.06.91-.38.91-1.06.91-1.04-.31-1.04-.91Zm.03,9.56v-7.28c0-.54.37-.88,1.01-.88s1.03.34,1.03.88v7.28c0,.54-.38.88-1.03.88s-1.01-.34-1.01-.88Z"/>
        <path class="cls-2" d="m35.61,154.13v-9.16c0-.54.38-.88,1.03-.88s1.03.34,1.03.88v9.16c0,.54-.38.88-1.03.88s-1.03-.34-1.03-.88Z"/>
        <path class="cls-2" d="m38.4,154.13v-9.16c0-.54.38-.88,1.03-.88s1.03.34,1.03.88v9.16c0,.54-.38.88-1.03.88s-1.03-.34-1.03-.88Z"/>
        <path class="cls-2" d="m41.2,144.57c0-.6.37-.91,1.04-.91s1.06.31,1.06.91-.38.91-1.06.91-1.04-.31-1.04-.91Zm.03,9.56v-7.28c0-.54.37-.88,1.01-.88s1.03.34,1.03.88v7.28c0,.54-.38.88-1.03.88s-1.01-.34-1.01-.88Z"/>
        <path class="cls-2" d="m43.96,152.8v-4.62c0-1.46.79-2.21,2.29-2.21h.43c1.52,0,2.29.75,2.29,2.21v4.62c0,1.49-.78,2.22-2.29,2.22h-.43c-1.5,0-2.29-.74-2.29-2.22Zm2.54.6c.31,0,.47-.19.47-.53v-4.72c0-.34-.16-.56-.47-.56h-.09c-.29,0-.46.22-.46.56v4.72c0,.34.16.53.46.53h.09Z"/>
        <path class="cls-2" d="m49.63,154.13v-7.28c0-.54.37-.88,1.01-.88.53,0,.87.24.97.63.24-.24.81-.63,1.62-.63.96,0,1.46.47,1.46,1.84v6.33c0,.54-.37.88-1,.88s-1.01-.34-1.01-.88v-5.84c0-.44-.19-.66-.5-.66-.22,0-.41.13-.53.31v6.19c0,.54-.37.88-1,.88s-1.01-.34-1.01-.88Z"/>
        <path class="cls-3" d="m61.86,154.79c-.42.23-.98.34-1.67.34-1.35,0-2.04-.58-2.04-1.88,0-.62.02-1.5.07-2.63h-.81l.07-1.08.84-.21.07-1.17,1.49-.23h.16l-.04,1.37h1.77l-.08,1.32h-1.68v2.57c-.01.44.17.62.55.62.31,0,.69-.11,1.13-.33l.18,1.31Z"/>
        <path class="cls-3" d="m62.33,152.07c0-1.94,1.2-3.19,3.1-3.19,2.02,0,2.98,1.18,2.98,3,0,2.1-1.3,3.23-3.09,3.23-1.99,0-2.99-1.11-2.99-3.05Zm4.18-.08c0-1.3-.33-1.91-1.1-1.91s-1.18.68-1.18,1.94c0,1.34.36,1.93,1.08,1.93.8,0,1.2-.65,1.2-1.95Z"/>
        <path class="cls-3" d="m74.96,152.17v2.79h-1.82v-3.21c0-1.05-.24-1.45-.98-1.45-.3,0-.61.07-.91.23v4.43h-1.82v-5.73l1.53-.24h.25v.67c.58-.48,1.28-.7,1.88-.7.98,0,1.59.51,1.77,1.28.08.39.1.88.1,1.94Z"/>
        <path class="cls-3" d="m75.95,154.82l.17-1.49c.52.34,1.26.55,1.81.55s.84-.18.84-.55c0-.25-.21-.4-1.09-.75-1.1-.42-1.66-.86-1.66-1.79,0-1.13.86-1.91,2.51-1.91.7,0,1.28.11,1.76.31l-.19,1.43c-.47-.29-1.14-.47-1.62-.47s-.75.17-.75.5c0,.28.18.39.87.68,1.42.58,1.9,1.05,1.9,1.91,0,1.13-.8,1.89-2.48,1.89-.87,0-1.55-.1-2.05-.3Z"/>
        <path class="cls-3" d="m89.6,151.7c0,1.99-1.22,3.43-3.15,3.43-.38,0-.69-.04-.94-.1v2.77h-1.82v-8.58l1.55-.24h.27v.65c.39-.42.97-.67,1.65-.67,1.49,0,2.45,1.02,2.45,2.73Zm-1.89.17c0-1.03-.52-1.58-1.33-1.58-.35,0-.64.08-.87.25v3.22c.23.13.48.21.75.21.97,0,1.45-.7,1.45-2.11Z"/>
        <path class="cls-3" d="m95.86,152.28h-3.75c.06,1.13.58,1.61,1.51,1.61.63,0,1.33-.17,1.93-.51l.24,1.27c-.53.3-1.41.47-2.31.47-2.13,0-3.19-1.09-3.19-3.02s1.22-3.22,2.97-3.22,2.6.95,2.6,2.8v.59Zm-1.78-1.02c0-.92-.3-1.28-.84-1.28-.57,0-.96.45-1.09,1.37l1.93-.08Z"/>
        <path class="cls-3" d="m100.75,149.14l-.14,1.66c-.24-.02-.45-.04-.63-.04-.42,0-.57.07-.97.5l-.3.33v3.37h-1.82v-5.73l1.51-.24h.25v1.61l.36-.71c.38-.71.62-.91,1.04-.91.23,0,.46.06.69.17Z"/>
        <path class="cls-3" d="m109.28,149.06l-2.17,6.37c-.62,1.77-1.2,2.17-3,2.41l-.39-1.3c1.36-.19,1.81-.47,2.12-1.58l.02-.07h-.9l-1.93-5.84h1.93l1.24,4.6,1.3-4.6h1.78Z"/>
        <path class="cls-3" d="m115.09,152.28h-3.75c.06,1.13.58,1.61,1.51,1.61.63,0,1.33-.17,1.93-.51l.24,1.27c-.53.3-1.41.47-2.31.47-2.13,0-3.19-1.09-3.19-3.02s1.22-3.22,2.97-3.22,2.6.95,2.6,2.8v.59Zm-1.78-1.02c0-.92-.3-1.28-.84-1.28-.57,0-.96.45-1.09,1.37l1.93-.08Z"/>
        <path class="cls-3" d="m120.98,150.51c0,.29-.01.85-.04,1.67l-.06,2.77h-1.76v-.5c-.45.3-.96.51-1.53.59-1.15-.08-1.83-.82-1.83-1.81s.68-1.36,2.23-1.54l1.13-.13v-.81c0-.4-.23-.59-.75-.59s-1.14.22-2,.84l-.3-1.34c.69-.52,1.79-.78,2.87-.78,1.27,0,2.04.51,2.04,1.62Zm-1.85,3.23v-1.2l-.57.06c-.76.08-.98.25-.98.61,0,.4.38.68.82.68.21,0,.45-.05.73-.15Z"/>
        <path class="cls-3" d="m126.13,149.14l-.14,1.66c-.24-.02-.45-.04-.63-.04-.42,0-.57.07-.97.5l-.3.33v3.37h-1.82v-5.73l1.51-.24h.25v1.61l.36-.71c.38-.71.62-.91,1.04-.91.23,0,.46.06.69.17Z"/>
      </g>
    </g>
  </g>
</svg>