<?xml version="1.0" encoding="UTF-8"?>
<svg id="Layer_2" data-name="Layer 2" xmlns="http://www.w3.org/2000/svg" viewBox="0 0 140.67 135.08">
  <defs>
    <style>
      .cls-1 {
        fill: #fff;
        stroke: #497c72;
        stroke-miterlimit: 10;
        stroke-width: 2px;
      }

      .cls-2 {
        fill: #017373;
      }

      .cls-3 {
        fill: #302a2a;
      }
    </style>
  </defs>
  <g id="Layer_1-2" data-name="Layer 1">
    <g>
      <rect class="cls-1" x="1" y="1" width="138.67" height="133.08" rx="23.04" ry="23.04"/>
      <g>
        <path class="cls-3" d="m19.66,21.27h-2.65v6.62h-1.94v-6.62h-2.67l.08-1.47h7.11l.06,1.47Z"/>
        <path class="cls-3" d="m26.07,25.09v2.79h-1.82v-3.2c0-1.05-.22-1.47-.98-1.47-.3,0-.61.07-.91.23v4.43h-1.82v-8.44l1.56-.24h.25v3.36c.57-.47,1.22-.68,1.84-.68.98,0,1.59.51,1.77,1.28.08.39.1.88.1,1.94Z"/>
        <path class="cls-3" d="m32.58,25.2h-3.75c.06,1.13.58,1.61,1.51,1.61.63,0,1.33-.17,1.93-.51l.24,1.27c-.53.3-1.41.47-2.31.47-2.13,0-3.19-1.09-3.19-3.02s1.22-3.22,2.97-3.22,2.6.95,2.6,2.8v.59Zm-1.78-1.02c0-.92-.3-1.28-.84-1.28-.57,0-.96.45-1.09,1.37l1.93-.08Z"/>
        <path class="cls-2" d="m40.03,28.57v-8.81c0-.53.37-.87,1-.87.54,0,.88.25.97.65.25-.25.81-.65,1.56-.65.99,0,1.49.47,1.49,1.87v4.96c0,1.65-.76,2.22-1.88,2.22-.57,0-.93-.19-1.13-.35v.99c0,.53-.37.88-1,.88s-1-.35-1-.88Zm2-7.72v5.3c.1.1.24.16.4.16.38,0,.62-.28.62-.87v-4.22c0-.44-.18-.66-.49-.66-.21,0-.4.12-.53.29Z"/>
        <path class="cls-2" d="m45.62,25.72v-4.62c0-1.46.79-2.21,2.29-2.21h.43c1.52,0,2.29.75,2.29,2.21v4.62c0,1.49-.78,2.22-2.29,2.22h-.43c-1.5,0-2.29-.74-2.29-2.22Zm2.54.6c.31,0,.47-.19.47-.53v-4.72c0-.34-.16-.56-.47-.56h-.09c-.29,0-.46.22-.46.56v4.72c0,.34.16.53.46.53h.09Z"/>
        <path class="cls-2" d="m51.29,27.06v-7.28c0-.54.37-.88,1.01-.88.53,0,.88.24.97.65.22-.25.74-.65,1.44-.65.94,0,1.4.47,1.4,1.87v1c0,.51-.35.84-.97.84s-.96-.32-.96-.84v-.51c0-.44-.16-.66-.41-.66-.19,0-.35.12-.47.29v6.18c0,.54-.37.88-1,.88s-1.01-.34-1.01-.88Z"/>
        <path class="cls-2" d="m56.98,25.57v-5c-.38-.04-.62-.34-.62-.79,0-.52.26-.79.62-.79v-.66c0-.53.37-.87,1-.87s1,.34,1,.87v.66h.63c.43,0,.69.29.69.79s-.26.79-.69.79h-.63v4.99c0,.49.22.72.53.72.1,0,.15-.01.19-.01.31,0,.49.24.49.63,0,.75-.43,1.04-1.26,1.04-1.21,0-1.94-.66-1.94-2.37Z"/>
        <path class="cls-2" d="m65.58,25.72v-4.62c0-1.46.79-2.21,2.29-2.21h.43c1.52,0,2.29.75,2.29,2.21v4.62c0,1.49-.78,2.22-2.29,2.22h-.43c-1.5,0-2.29-.74-2.29-2.22Zm2.54.6c.31,0,.47-.19.47-.53v-4.72c0-.34-.16-.56-.47-.56h-.09c-.29,0-.46.22-.46.56v4.72c0,.34.16.53.46.53h.09Z"/>
        <path class="cls-2" d="m71.47,27.07v-6.5c-.4-.03-.63-.32-.63-.79,0-.5.26-.79.65-.79.13-1.41.93-1.97,2.16-1.97.49,0,.84.06,1.06.24.13.12.21.28.21.51,0,.41-.26.65-.72.65-.18,0-.35.03-.49.1-.16.09-.25.25-.25.47h.19c.41,0,.69.29.69.79s-.28.79-.69.79h-.19v6.5c0,.53-.35.87-.99.87s-1-.34-1-.87Z"/>
        <path class="cls-2" d="m79.63,25.72v-1.09c0-.53.37-.85.99-.85s1,.32,1,.85v1.1c0,.35.19.54.51.54h.09c.34,0,.51-.19.51-.54v-1.31c0-.66-.15-1-.79-1.44l-.69-.46c-1.12-.76-1.54-1.53-1.54-2.78v-.53c0-1.44.78-2.21,2.26-2.21h.43c1.49,0,2.25.75,2.25,2.21v.75c0,.53-.35.85-.97.85s-.99-.32-.99-.85v-.74c0-.34-.18-.56-.47-.56h-.09c-.28,0-.46.22-.46.56v.6c0,.6.15.91.75,1.34l.9.59c1,.69,1.4,1.47,1.4,2.66v1.29c0,1.47-.79,2.22-2.32,2.22h-.43c-1.54,0-2.34-.75-2.34-2.22Z"/>
        <path class="cls-2" d="m85.28,25.06v-5.3c0-.54.37-.87,1-.87s1,.32,1,.87v5.03c0,.59.24.87.62.87.16,0,.29-.06.4-.18v-5.72c0-.53.38-.87,1-.87s1,.34,1,.87v7.25c0,1.75-.96,2.44-2.46,2.44-.9,0-1.31-.13-1.6-.31-.28-.16-.4-.43-.4-.78s.21-.6.51-.6c.13,0,.22.04.34.09.15.04.28.07.49.07.79,0,1.19-.26,1.19-.74v-.34c-.19.18-.56.43-1.21.43-1.12,0-1.88-.57-1.88-2.22Z"/>
        <path class="cls-2" d="m90.93,26.07v-5.15c0-1.51,1.09-2.03,2.68-2.03.12,0,.24,0,.34.01v-1.03c0-.54.37-.87,1-.87s1,.32,1,.87v9.21c0,.53-.37.85-1,.85-.56,0-.91-.25-.99-.68-.25.28-.79.68-1.57.68-.97,0-1.46-.47-1.46-1.87Zm2.5.31c.21,0,.38-.12.51-.28v-5.5c-.1-.04-.25-.09-.43-.09-.37,0-.59.22-.59.66v4.56c0,.44.18.65.5.65Z"/>
        <path class="cls-2" d="m96.64,27.06v-7.28c0-.54.37-.88,1.01-.88.53,0,.87.24.97.63.24-.24.81-.63,1.62-.63.96,0,1.46.47,1.46,1.84v6.33c0,.54-.37.88-1,.88s-1.01-.34-1.01-.88v-5.84c0-.44-.19-.66-.5-.66-.22,0-.41.13-.53.31v6.19c0,.54-.37.88-1,.88s-1.01-.34-1.01-.88Z"/>
        <path class="cls-2" d="m102.33,25.72v-4.62c0-1.46.79-2.21,2.29-2.21h.44c1.52,0,2.31.75,2.31,2.21v.65c0,.81-.44,1.25-1.25,1.25h-1.79v2.79c0,.34.16.53.46.53h.1c.32,0,.49-.19.49-.53v-1.16c0-.53.37-.85,1-.85s1,.32,1,.85v1.09c0,1.49-.79,2.22-2.31,2.22h-.44c-1.5,0-2.29-.74-2.29-2.22Zm2-3.9h1.04v-.75c0-.34-.16-.56-.49-.56h-.1c-.29,0-.46.22-.46.56v.75Z"/>
        <path class="cls-2" d="m107.96,25.06v-5.3c0-.54.37-.87,1-.87s1,.32,1,.87v5.03c0,.59.24.87.62.87.16,0,.29-.06.4-.18v-5.72c0-.53.38-.87,1-.87s1,.34,1,.87v7.25c0,1.75-.96,2.44-2.46,2.44-.9,0-1.31-.13-1.6-.31-.28-.16-.4-.43-.4-.78s.21-.6.51-.6c.13,0,.22.04.34.09.15.04.28.07.49.07.79,0,1.19-.26,1.19-.74v-.34c-.19.18-.56.43-1.21.43-1.12,0-1.88-.57-1.88-2.22Z"/>
        <path class="cls-3" d="m120.57,20.11c0-.62.41-1.08,1.09-1.08s1.09.46,1.09,1.08-.41,1.07-1.09,1.07-1.09-.45-1.09-1.07Zm.18,2.04l1.55-.24h.27v5.97h-1.82v-5.73Z"/>
        <path class="cls-3" d="m123.64,27.75l.17-1.49c.52.34,1.26.54,1.81.54s.84-.18.84-.54c0-.25-.21-.4-1.09-.75-1.1-.42-1.66-.86-1.66-1.79,0-1.13.86-1.91,2.51-1.91.7,0,1.28.11,1.76.32l-.19,1.43c-.47-.29-1.14-.47-1.62-.47s-.75.17-.75.5c0,.28.18.39.87.68,1.42.58,1.9,1.05,1.9,1.91,0,1.13-.8,1.89-2.48,1.89-.87,0-1.55-.1-2.05-.3Z"/>
        <path class="cls-3" d="m16.81,45.74c-.42.23-.98.34-1.67.34-1.35,0-2.04-.58-2.04-1.88,0-.62.02-1.5.07-2.63h-.81l.07-1.08.84-.21.07-1.17,1.49-.23h.16l-.04,1.37h1.77l-.08,1.32h-1.68v2.57c-.01.44.17.62.55.62.31,0,.69-.11,1.13-.33l.18,1.31Z"/>
        <path class="cls-3" d="m23.27,43.12v2.79h-1.82v-3.2c0-1.05-.22-1.47-.98-1.47-.3,0-.61.07-.91.23v4.43h-1.82v-8.44l1.56-.24h.25v3.36c.57-.47,1.22-.68,1.84-.68.98,0,1.59.51,1.77,1.28.08.39.1.88.1,1.94Z"/>
        <path class="cls-3" d="m29.78,43.23h-3.75c.06,1.13.58,1.61,1.51,1.61.63,0,1.33-.17,1.93-.51l.24,1.27c-.53.3-1.41.47-2.31.47-2.13,0-3.19-1.09-3.19-3.02s1.22-3.22,2.97-3.22,2.6.95,2.6,2.8v.59Zm-1.78-1.02c0-.92-.3-1.28-.84-1.28-.57,0-.96.45-1.09,1.37l1.93-.08Z"/>
        <path class="cls-3" d="m44.52,43.05v2.86h-1.82v-3.22c0-1.05-.22-1.45-.91-1.45-.31,0-.61.08-.88.27.05.33.07.86.07,1.62v2.79h-1.79v-3.17c0-1.1-.21-1.5-.88-1.5-.28,0-.54.07-.82.23v4.45h-1.82v-5.73l1.53-.24h.25v.69c.53-.48,1.13-.73,1.78-.73.69,0,1.21.31,1.47.81.55-.55,1.21-.81,2-.81.96,0,1.51.48,1.7,1.25.08.35.13.98.13,1.9Z"/>
        <path class="cls-3" d="m45.46,43.03c0-1.94,1.2-3.19,3.1-3.19,2.02,0,2.98,1.18,2.98,3,0,2.1-1.3,3.24-3.09,3.24-1.99,0-2.99-1.12-2.99-3.05Zm4.18-.08c0-1.3-.33-1.91-1.1-1.91s-1.18.68-1.18,1.94c0,1.34.36,1.93,1.08,1.93.8,0,1.2-.65,1.2-1.95Z"/>
        <path class="cls-3" d="m52.36,45.78l.17-1.49c.52.34,1.26.54,1.81.54s.84-.18.84-.54c0-.25-.21-.4-1.09-.75-1.1-.42-1.66-.86-1.66-1.79,0-1.13.86-1.91,2.51-1.91.7,0,1.28.11,1.76.32l-.19,1.43c-.47-.29-1.14-.47-1.62-.47s-.75.17-.75.5c0,.28.18.39.87.68,1.42.58,1.9,1.05,1.9,1.91,0,1.13-.8,1.89-2.48,1.89-.87,0-1.55-.1-2.05-.3Z"/>
        <path class="cls-3" d="m61.73,45.74c-.42.23-.98.34-1.67.34-1.35,0-2.04-.58-2.04-1.88,0-.62.02-1.5.07-2.63h-.81l.07-1.08.84-.21.07-1.17,1.49-.23h.16l-.04,1.37h1.77l-.08,1.32h-1.68v2.57c-.01.44.17.62.55.62.31,0,.69-.11,1.13-.33l.18,1.31Z"/>
        <path class="cls-3" d="m73.44,42.65c0,1.99-1.22,3.43-3.15,3.43-.38,0-.69-.04-.94-.1v2.77h-1.82v-8.58l1.55-.24h.27v.65c.39-.42.97-.67,1.65-.67,1.49,0,2.45,1.02,2.45,2.73Zm-1.89.17c0-1.03-.52-1.57-1.33-1.57-.35,0-.64.08-.87.25v3.22c.23.13.48.21.75.21.97,0,1.45-.7,1.45-2.11Z"/>
        <path class="cls-3" d="m74.13,43.03c0-1.94,1.2-3.19,3.1-3.19,2.02,0,2.98,1.18,2.98,3,0,2.1-1.3,3.24-3.09,3.24-1.99,0-2.99-1.12-2.99-3.05Zm4.18-.08c0-1.3-.33-1.91-1.1-1.91s-1.18.68-1.18,1.94c0,1.34.36,1.93,1.08,1.93.8,0,1.2-.65,1.2-1.95Z"/>
        <path class="cls-3" d="m87.15,42.65c0,1.99-1.22,3.43-3.15,3.43-.38,0-.69-.04-.94-.1v2.77h-1.82v-8.58l1.55-.24h.27v.65c.39-.42.97-.67,1.65-.67,1.49,0,2.45,1.02,2.45,2.73Zm-1.89.17c0-1.03-.52-1.57-1.33-1.57-.35,0-.64.08-.87.25v3.22c.23.13.48.21.75.21.97,0,1.45-.7,1.45-2.11Z"/>
        <path class="cls-3" d="m93.51,39.94v5.97h-1.78v-.59c-.52.47-1.14.7-1.85.7-.93,0-1.49-.5-1.67-1.26-.1-.38-.12-.93-.12-1.95v-2.63l1.56-.24h.25v3.23c0,1.12.22,1.5.98,1.5.28,0,.56-.07.81-.22v-4.28l1.58-.24h.24Z"/>
        <path class="cls-3" d="m94.9,37.47l1.56-.24h.25v8.69h-1.82v-8.44Z"/>
        <path class="cls-3" d="m102.81,41.46c0,.29-.01.85-.04,1.67l-.06,2.77h-1.76v-.5c-.45.3-.96.51-1.53.59-1.15-.08-1.83-.82-1.83-1.8s.68-1.36,2.23-1.54l1.13-.13v-.81c0-.4-.23-.59-.75-.59s-1.14.22-2,.84l-.3-1.35c.69-.52,1.79-.78,2.87-.78,1.27,0,2.04.51,2.04,1.62Zm-1.85,3.23v-1.2l-.57.06c-.76.08-.98.25-.98.61,0,.4.38.68.82.68.21,0,.45-.05.73-.15Z"/>
        <path class="cls-3" d="m107.96,40.09l-.14,1.66c-.24-.02-.45-.04-.63-.04-.42,0-.57.07-.97.5l-.3.33v3.37h-1.82v-5.73l1.51-.24h.25v1.61l.36-.71c.38-.71.62-.91,1.04-.91.23,0,.46.06.69.17Z"/>
        <path class="cls-3" d="m115.67,39.49v.76h1.43l-.07,1.32h-1.36v4.34h-1.82v-4.34h-.9l.06-1.08.84-.21v-.71c0-1.5.92-2.33,2.47-2.33.59,0,1.05.07,1.38.21l-.18,1.47c-.47-.23-.84-.34-1.12-.34-.52,0-.74.29-.74.91Z"/>
        <path class="cls-3" d="m117.43,43.03c0-1.94,1.2-3.19,3.1-3.19,2.02,0,2.98,1.18,2.98,3,0,2.1-1.3,3.24-3.09,3.24-1.99,0-2.99-1.12-2.99-3.05Zm4.18-.08c0-1.3-.33-1.91-1.1-1.91s-1.18.68-1.18,1.94c0,1.34.36,1.93,1.08,1.93.8,0,1.2-.65,1.2-1.95Z"/>
        <path class="cls-3" d="m128.4,40.09l-.14,1.66c-.24-.02-.45-.04-.63-.04-.42,0-.57.07-.97.5l-.3.33v3.37h-1.82v-5.73l1.51-.24h.25v1.61l.36-.71c.38-.71.62-.91,1.04-.91.23,0,.46.06.69.17Z"/>
        <path class="cls-3" d="m16.81,63.77c-.42.23-.98.34-1.67.34-1.35,0-2.04-.58-2.04-1.88,0-.62.02-1.5.07-2.63h-.81l.07-1.08.84-.21.07-1.17,1.49-.23h.16l-.04,1.37h1.77l-.08,1.32h-1.68v2.57c-.01.44.17.62.55.62.31,0,.69-.11,1.13-.33l.18,1.31Z"/>
        <path class="cls-3" d="m17.29,61.06c0-1.94,1.2-3.19,3.1-3.19,2.02,0,2.98,1.18,2.98,3,0,2.1-1.3,3.24-3.09,3.24-1.99,0-2.99-1.12-2.99-3.05Zm4.18-.08c0-1.3-.33-1.91-1.1-1.91s-1.18.68-1.18,1.94c0,1.34.36,1.93,1.08,1.93.8,0,1.2-.65,1.2-1.95Z"/>
        <path class="cls-3" d="m29.73,57.97v5.97h-1.78v-.59c-.52.47-1.14.7-1.85.7-.93,0-1.49-.5-1.67-1.26-.1-.38-.12-.93-.12-1.95v-2.63l1.56-.24h.25v3.23c0,1.12.22,1.5.98,1.5.28,0,.56-.07.81-.22v-4.28l1.58-.24h.24Z"/>
        <path class="cls-3" d="m34.98,58.12l-.15,1.66c-.24-.02-.45-.04-.63-.04-.42,0-.57.07-.97.5l-.3.33v3.37h-1.82v-5.73l1.51-.24h.25v1.61l.36-.71c.38-.71.62-.91,1.04-.91.23,0,.46.06.69.17Z"/>
        <path class="cls-3" d="m35.54,56.17c0-.62.41-1.08,1.09-1.08s1.09.46,1.09,1.08-.41,1.07-1.09,1.07-1.09-.45-1.09-1.07Zm.18,2.04l1.55-.24h.27v5.97h-1.82v-5.73Z"/>
        <path class="cls-3" d="m38.62,63.81l.17-1.49c.52.34,1.26.54,1.81.54s.84-.18.84-.54c0-.25-.21-.4-1.09-.75-1.1-.42-1.66-.86-1.66-1.79,0-1.13.86-1.91,2.51-1.91.7,0,1.28.11,1.76.32l-.19,1.43c-.47-.29-1.14-.47-1.62-.47s-.75.17-.75.5c0,.28.18.39.87.68,1.42.58,1.9,1.05,1.9,1.91,0,1.13-.8,1.89-2.48,1.89-.87,0-1.55-.1-2.05-.3Z"/>
        <path class="cls-3" d="m47.98,63.77c-.42.23-.98.34-1.67.34-1.35,0-2.04-.58-2.04-1.88,0-.62.02-1.5.07-2.63h-.81l.07-1.08.84-.21.07-1.17,1.49-.23h.16l-.04,1.37h1.77l-.08,1.32h-1.68v2.57c-.01.44.17.62.55.62.31,0,.69-.11,1.13-.33l.18,1.31Z"/>
        <path class="cls-3" d="m48.58,63.81l.17-1.49c.52.34,1.26.54,1.81.54s.84-.18.84-.54c0-.25-.21-.4-1.09-.75-1.1-.42-1.66-.86-1.66-1.79,0-1.13.86-1.91,2.51-1.91.7,0,1.28.11,1.76.32l-.19,1.43c-.47-.29-1.14-.47-1.62-.47s-.75.17-.75.5c0,.28.18.39.87.68,1.42.58,1.9,1.05,1.9,1.91,0,1.13-.8,1.89-2.48,1.89-.87,0-1.55-.1-2.05-.3Z"/>
        <path class="cls-3" d="m58.38,56.17c0-.62.41-1.08,1.09-1.08s1.09.46,1.09,1.08-.41,1.07-1.09,1.07-1.09-.45-1.09-1.07Zm.18,2.04l1.55-.24h.27v5.97h-1.82v-5.73Z"/>
        <path class="cls-3" d="m67.28,61.15v2.79h-1.82v-3.21c0-1.05-.24-1.45-.98-1.45-.3,0-.61.07-.91.23v4.43h-1.82v-5.73l1.53-.24h.25v.67c.58-.48,1.28-.7,1.88-.7.98,0,1.59.51,1.77,1.28.08.39.1.88.1,1.94Z"/>
        <path class="cls-3" d="m76.97,63.77c-.42.23-.98.34-1.67.34-1.35,0-2.04-.58-2.04-1.88,0-.62.02-1.5.07-2.63h-.81l.07-1.08.84-.21.07-1.17,1.49-.23h.16l-.04,1.37h1.77l-.08,1.32h-1.68v2.57c-.01.44.17.62.55.62.31,0,.69-.11,1.13-.33l.18,1.31Z"/>
        <path class="cls-3" d="m83.43,61.15v2.79h-1.82v-3.2c0-1.05-.22-1.47-.98-1.47-.3,0-.61.07-.91.23v4.43h-1.82v-8.44l1.56-.24h.25v3.36c.57-.47,1.22-.68,1.84-.68.98,0,1.59.51,1.77,1.28.08.39.1.88.1,1.94Z"/>
        <path class="cls-3" d="m89.94,61.26h-3.75c.06,1.13.58,1.61,1.51,1.61.63,0,1.33-.17,1.93-.51l.24,1.27c-.53.3-1.41.47-2.31.47-2.13,0-3.19-1.09-3.19-3.02s1.22-3.22,2.97-3.22,2.6.95,2.6,2.8v.59Zm-1.78-1.02c0-.92-.3-1.28-.84-1.28-.57,0-.96.45-1.09,1.37l1.93-.08Z"/>
        <path class="cls-3" d="m101.98,58.04h1.77l-1.55,5.92h-2.08l-.82-3.51-.82,3.51h-2.1l-1.56-5.92h1.83l.93,4.36,1.05-4.36h1.42l1.04,4.34.9-4.34Z"/>
        <path class="cls-3" d="m104.09,61.06c0-1.94,1.2-3.19,3.1-3.19,2.02,0,2.98,1.18,2.98,3,0,2.1-1.3,3.24-3.09,3.24-1.99,0-2.99-1.12-2.99-3.05Zm4.18-.08c0-1.3-.33-1.91-1.1-1.91s-1.18.68-1.18,1.94c0,1.34.36,1.93,1.08,1.93.8,0,1.2-.65,1.2-1.95Z"/>
        <path class="cls-3" d="m115.05,58.12l-.14,1.66c-.24-.02-.45-.04-.63-.04-.42,0-.57.07-.97.5l-.3.33v3.37h-1.82v-5.73l1.51-.24h.25v1.61l.36-.71c.38-.71.62-.91,1.04-.91.23,0,.46.06.69.17Z"/>
        <path class="cls-3" d="m115.79,55.49l1.56-.24h.25v8.69h-1.82v-8.44Z"/>
        <path class="cls-3" d="m124.53,55.25v8.69h-1.79v-.61c-.35.44-.93.69-1.66.69-1.45,0-2.46-.99-2.46-2.8,0-2,1.3-3.36,3.28-3.36.27,0,.53.04.81.1v-2.47l1.58-.24h.24Zm-1.82,7.2v-3.22c-.25-.13-.52-.19-.81-.19-.93,0-1.41.81-1.41,2.08,0,1.08.57,1.6,1.31,1.6.36,0,.67-.08.91-.27Z"/>
        <path class="cls-3" d="m125.75,62.96c0-.62.45-1.07,1.09-1.07s1.08.45,1.08,1.07-.44,1.07-1.08,1.07-1.09-.45-1.09-1.07Z"/>
        <path class="cls-3" d="m18.01,73.89h1.93v8.08h-1.93v-3.34h-3v3.34h-1.94v-8.08h1.94v3.3h3v-3.3Z"/>
        <path class="cls-3" d="m26.7,79.29h-3.75c.06,1.13.58,1.61,1.51,1.61.63,0,1.33-.17,1.93-.51l.24,1.27c-.53.3-1.41.47-2.31.47-2.13,0-3.19-1.09-3.19-3.02s1.22-3.22,2.97-3.22,2.6.95,2.6,2.8v.59Zm-1.78-1.02c0-.92-.3-1.28-.84-1.28-.57,0-.96.45-1.09,1.37l1.93-.08Z"/>
        <path class="cls-3" d="m33.45,74.2c0-.62.41-1.08,1.09-1.08s1.09.46,1.09,1.08-.41,1.07-1.09,1.07-1.09-.45-1.09-1.07Zm.18,2.04l1.55-.24h.27v5.97h-1.82v-5.73Z"/>
        <path class="cls-3" d="m36.53,81.84l.17-1.49c.52.34,1.26.54,1.81.54s.84-.18.84-.54c0-.25-.21-.4-1.09-.75-1.1-.42-1.66-.86-1.66-1.79,0-1.13.86-1.91,2.51-1.91.7,0,1.28.11,1.76.32l-.19,1.43c-.47-.29-1.14-.47-1.62-.47s-.75.17-.75.5c0,.28.18.39.87.68,1.42.58,1.9,1.05,1.9,1.91,0,1.13-.8,1.89-2.48,1.89-.87,0-1.55-.1-2.05-.3Z"/>
        <path class="cls-3" d="m51.69,81.97l-1.24-2.63h-.71v2.63h-1.82v-8.44l1.56-.24h.25v4.88l.8-.12h0s1.17-1.97,1.17-1.97h1.94l-1.62,2.6,1.71,3.3h-2.05Z"/>
        <path class="cls-3" d="m59.94,79.18v2.79h-1.82v-3.21c0-1.05-.24-1.45-.98-1.45-.3,0-.61.07-.91.23v4.43h-1.82v-5.73l1.53-.24h.25v.67c.58-.48,1.28-.7,1.88-.7.98,0,1.59.51,1.77,1.28.08.39.1.88.1,1.94Z"/>
        <path class="cls-3" d="m60.88,79.08c0-1.94,1.2-3.19,3.1-3.19,2.02,0,2.98,1.18,2.98,3,0,2.1-1.3,3.24-3.09,3.24-1.99,0-2.99-1.12-2.99-3.05Zm4.18-.08c0-1.3-.33-1.91-1.1-1.91s-1.18.68-1.18,1.94c0,1.34.36,1.93,1.08,1.93.8,0,1.2-.65,1.2-1.95Z"/>
        <path class="cls-3" d="m74.52,76.07h1.77l-1.55,5.92h-2.08l-.82-3.51-.82,3.51h-2.1l-1.56-5.92h1.83l.93,4.36,1.05-4.36h1.42l1.04,4.34.9-4.34Z"/>
        <path class="cls-3" d="m82.56,79.18v2.79h-1.82v-3.21c0-1.05-.24-1.45-.98-1.45-.3,0-.61.07-.91.23v4.43h-1.82v-5.73l1.53-.24h.25v.67c.58-.48,1.28-.7,1.88-.7.98,0,1.59.51,1.77,1.28.08.39.1.88.1,1.94Z"/>
        <path class="cls-3" d="m91.87,75.55v.76h1.43l-.07,1.32h-1.36v4.34h-1.82v-4.34h-.9l.06-1.08.84-.21v-.71c0-1.5.92-2.33,2.47-2.33.59,0,1.05.07,1.38.21l-.18,1.47c-.47-.23-.84-.34-1.12-.34-.52,0-.74.29-.74.91Z"/>
        <path class="cls-3" d="m93.63,79.08c0-1.94,1.2-3.19,3.1-3.19,2.02,0,2.98,1.18,2.98,3,0,2.1-1.3,3.24-3.09,3.24-1.99,0-2.99-1.12-2.99-3.05Zm4.18-.08c0-1.3-.33-1.91-1.1-1.91s-1.18.68-1.18,1.94c0,1.34.36,1.93,1.08,1.93.8,0,1.2-.65,1.2-1.95Z"/>
        <path class="cls-3" d="m104.6,76.15l-.14,1.66c-.24-.02-.45-.04-.63-.04-.42,0-.57.07-.97.5l-.3.33v3.37h-1.82v-5.73l1.51-.24h.25v1.61l.36-.71c.38-.71.62-.91,1.04-.91.23,0,.46.06.69.17Z"/>
        <path class="cls-3" d="m115.15,81.8c-.42.23-.98.34-1.67.34-1.35,0-2.04-.58-2.04-1.88,0-.62.02-1.5.07-2.63h-.81l.07-1.08.84-.21.07-1.17,1.49-.23h.16l-.04,1.37h1.77l-.08,1.32h-1.68v2.57c-.01.44.17.62.55.62.31,0,.69-.11,1.13-.33l.18,1.31Z"/>
        <path class="cls-3" d="m121.61,79.18v2.79h-1.82v-3.2c0-1.05-.22-1.47-.98-1.47-.3,0-.61.07-.91.23v4.43h-1.82v-8.44l1.56-.24h.25v3.36c.57-.47,1.22-.68,1.84-.68.98,0,1.59.51,1.77,1.28.08.39.1.88.1,1.94Z"/>
        <path class="cls-3" d="m128.12,79.29h-3.75c.06,1.13.58,1.61,1.51,1.61.63,0,1.33-.17,1.93-.51l.24,1.27c-.53.3-1.41.47-2.31.47-2.13,0-3.19-1.09-3.19-3.02s1.22-3.22,2.97-3.22,2.6.95,2.6,2.8v.59Zm-1.78-1.02c0-.92-.3-1.28-.84-1.28-.57,0-.96.45-1.09,1.37l1.93-.08Z"/>
        <path class="cls-2" d="m12.48,97.84v-1.09c0-.53.37-.85.99-.85s1,.32,1,.85v1.1c0,.35.19.54.51.54h.09c.34,0,.51-.19.51-.54v-1.31c0-.66-.15-1-.79-1.44l-.69-.46c-1.12-.76-1.54-1.53-1.54-2.78v-.53c0-1.44.78-2.21,2.26-2.21h.43c1.49,0,2.25.75,2.25,2.21v.75c0,.53-.35.85-.97.85s-.99-.32-.99-.85v-.74c0-.34-.18-.56-.47-.56h-.09c-.28,0-.46.22-.46.56v.6c0,.6.15.91.75,1.34l.9.59c1,.69,1.4,1.47,1.4,2.66v1.29c0,1.47-.79,2.22-2.32,2.22h-.43c-1.54,0-2.34-.75-2.34-2.22Z"/>
        <path class="cls-2" d="m18.13,97.17v-5.29c0-.54.37-.87,1-.87s1,.32,1,.87v5.03c0,.59.24.87.62.87.16,0,.29-.06.4-.18v-5.72c0-.53.38-.87,1-.87s1,.34,1,.87v7.25c0,1.75-.96,2.44-2.46,2.44-.9,0-1.31-.13-1.6-.31-.28-.16-.4-.43-.4-.78s.21-.6.51-.6c.13,0,.22.04.34.09.15.04.28.07.49.07.79,0,1.19-.26,1.19-.74v-.34c-.19.18-.56.43-1.21.43-1.12,0-1.88-.57-1.88-2.22Z"/>
        <path class="cls-2" d="m23.78,98.19v-5.15c0-1.51,1.09-2.03,2.68-2.03.12,0,.24,0,.34.01v-1.03c0-.54.37-.87,1-.87s1,.32,1,.87v9.21c0,.53-.37.85-1,.85-.56,0-.91-.25-.99-.68-.25.28-.79.68-1.57.68-.97,0-1.46-.47-1.46-1.87Zm2.5.31c.21,0,.38-.12.51-.28v-5.5c-.1-.04-.25-.09-.43-.09-.37,0-.59.22-.59.66v4.56c0,.44.18.65.5.65Z"/>
        <path class="cls-2" d="m29.49,99.17v-7.28c0-.54.37-.88,1.01-.88.53,0,.87.24.97.63.24-.23.81-.63,1.62-.63.96,0,1.46.47,1.46,1.84v6.32c0,.54-.37.88-1,.88s-1.01-.34-1.01-.88v-5.84c0-.44-.19-.66-.5-.66-.22,0-.41.13-.53.31v6.19c0,.54-.37.88-1,.88s-1.01-.34-1.01-.88Z"/>
        <path class="cls-2" d="m35.19,97.84v-4.62c0-1.46.79-2.21,2.29-2.21h.44c1.52,0,2.31.75,2.31,2.21v.65c0,.81-.44,1.25-1.25,1.25h-1.79v2.79c0,.34.16.53.46.53h.1c.32,0,.49-.19.49-.53v-1.16c0-.53.37-.85,1-.85s1,.32,1,.85v1.09c0,1.49-.79,2.22-2.31,2.22h-.44c-1.5,0-2.29-.74-2.29-2.22Zm2-3.9h1.04v-.75c0-.34-.16-.56-.49-.56h-.1c-.29,0-.46.22-.46.56v.75Z"/>
        <path class="cls-2" d="m40.81,97.17v-5.29c0-.54.37-.87,1-.87s1,.32,1,.87v5.03c0,.59.24.87.62.87.16,0,.29-.06.4-.18v-5.72c0-.53.38-.87,1-.87s1,.34,1,.87v7.25c0,1.75-.96,2.44-2.46,2.44-.9,0-1.31-.13-1.6-.31-.28-.16-.4-.43-.4-.78s.21-.6.51-.6c.13,0,.22.04.34.09.15.04.28.07.49.07.79,0,1.19-.26,1.19-.74v-.34c-.19.18-.56.43-1.21.43-1.12,0-1.88-.57-1.88-2.22Z"/>
        <path class="cls-2" d="m48.36,97.84v-6.5c0-1.46.79-2.21,2.29-2.21h.43c1.52,0,2.29.75,2.29,2.21v6.5c0,1.49-.78,2.22-2.29,2.22h-.43c-1.5,0-2.29-.74-2.29-2.22Zm2.54.56c.31,0,.49-.19.49-.54v-6.5c0-.34-.18-.56-.49-.56h-.09c-.29,0-.46.22-.46.56v6.5c0,.35.16.54.46.54h.09Z"/>
        <path class="cls-2" d="m54.09,100.69v-8.81c0-.53.37-.87,1-.87.54,0,.88.25.97.65.25-.25.81-.65,1.56-.65.99,0,1.49.47,1.49,1.87v4.96c0,1.65-.76,2.22-1.88,2.22-.57,0-.93-.19-1.13-.35v.99c0,.53-.37.88-1,.88s-1-.35-1-.88Zm2-7.72v5.3c.1.1.24.16.4.16.38,0,.62-.28.62-.87v-4.22c0-.44-.18-.66-.49-.66-.21,0-.4.12-.53.29Z"/>
        <path class="cls-2" d="m59.68,97.84v-4.62c0-1.46.79-2.21,2.29-2.21h.44c1.52,0,2.31.75,2.31,2.21v.65c0,.81-.44,1.25-1.25,1.25h-1.79v2.79c0,.34.16.53.46.53h.1c.32,0,.49-.19.49-.53v-1.16c0-.53.37-.85,1-.85s1,.32,1,.85v1.09c0,1.49-.79,2.22-2.31,2.22h-.44c-1.5,0-2.29-.74-2.29-2.22Zm2-3.9h1.04v-.75c0-.34-.16-.56-.49-.56h-.1c-.29,0-.46.22-.46.56v.75Z"/>
        <path class="cls-2" d="m65.35,99.17v-7.28c0-.54.37-.88,1.01-.88.53,0,.88.24.97.65.22-.25.74-.65,1.44-.65.94,0,1.4.47,1.4,1.87v1c0,.51-.35.84-.97.84s-.96-.32-.96-.84v-.51c0-.44-.16-.66-.41-.66-.19,0-.35.12-.47.29v6.18c0,.54-.37.88-1,.88s-1.01-.34-1.01-.88Z"/>
        <path class="cls-2" d="m70.5,98.22v-.88c0-1.29.9-1.91,2.07-1.91.46,0,.76.09.96.18v-2.41c0-.34-.16-.56-.44-.56h-.09c-.28,0-.44.22-.44.56v.69c0,.51-.35.84-.96.84s-.97-.32-.97-.84v-.84c0-1.37.78-2.03,2.24-2.03h.43c1.47,0,2.22.74,2.22,2.19v6c0,.53-.35.85-1,.85-.56,0-.91-.26-.97-.69-.24.29-.78.69-1.53.69-.88,0-1.52-.51-1.52-1.84Zm2.5.32c.21,0,.41-.13.53-.31v-1.38c-.1-.06-.25-.09-.43-.09-.38,0-.6.22-.6.66v.46c0,.44.19.66.5.66Z"/>
        <path class="cls-2" d="m78.11,99.17v-9.15c0-.56.38-.9,1.03-.9s1.03.34,1.03.9v3.29h1.01v-3.29c0-.56.38-.9,1.03-.9s1.02.34,1.02.9v9.15c0,.54-.37.88-1.02.88s-1.03-.34-1.03-.88v-4.13h-1.01v4.13c0,.54-.38.88-1.03.88s-1.03-.34-1.03-.88Z"/>
        <path class="cls-2" d="m83.94,97.84v-4.62c0-1.46.79-2.21,2.29-2.21h.43c1.52,0,2.29.75,2.29,2.21v4.62c0,1.49-.78,2.22-2.29,2.22h-.43c-1.5,0-2.29-.74-2.29-2.22Zm2.54.6c.31,0,.47-.19.47-.53v-4.72c0-.34-.16-.56-.47-.56h-.09c-.29,0-.46.22-.46.56v4.72c0,.34.16.53.46.53h.09Z"/>
        <path class="cls-2" d="m89.59,98.17v-6.28c0-.54.37-.88,1.01-.88s1,.34,1,.88v5.88c0,.44.19.66.49.66.22,0,.41-.13.54-.34v-6.21c0-.54.37-.88,1.01-.88s1,.34,1,.88v7.3c0,.54-.37.87-1,.87-.57,0-.93-.25-1-.69-.25.28-.81.69-1.59.69-.97,0-1.47-.47-1.47-1.88Z"/>
        <path class="cls-2" d="m95.25,97.84v-.62c0-.54.37-.87.99-.87s1,.32,1,.87v.63c0,.35.19.54.51.54h.09c.34,0,.51-.19.51-.54v-.31c0-.65-.19-.97-.78-1.31l-.76-.43c-1.04-.59-1.49-1.31-1.49-2.47v-.12c0-1.44.78-2.21,2.26-2.21h.43c1.49,0,2.25.74,2.25,2.16v.28c0,.54-.35.88-.97.88s-.99-.32-.99-.82v-.28c0-.34-.18-.56-.46-.56h-.09c-.29,0-.47.22-.47.56v.19c0,.49.16.74.74,1.06l.99.57c.93.53,1.32,1.26,1.32,2.46v.32c0,1.47-.79,2.22-2.32,2.22h-.43c-1.54,0-2.34-.75-2.34-2.22Z"/>
        <path class="cls-2" d="m100.89,97.84v-4.62c0-1.46.79-2.21,2.29-2.21h.44c1.52,0,2.31.75,2.31,2.21v.65c0,.81-.44,1.25-1.25,1.25h-1.79v2.79c0,.34.16.53.46.53h.1c.32,0,.49-.19.49-.53v-1.16c0-.53.37-.85,1-.85s1,.32,1,.85v1.09c0,1.49-.79,2.22-2.31,2.22h-.44c-1.5,0-2.29-.74-2.29-2.22Zm2-3.9h1.04v-.75c0-.34-.16-.56-.49-.56h-.1c-.29,0-.46.22-.46.56v.75Z"/>
        <path class="cls-3" d="m114.09,95.55c0,.29-.01.85-.04,1.67l-.06,2.77h-1.76v-.5c-.45.3-.96.51-1.53.59-1.15-.08-1.83-.82-1.83-1.8s.68-1.36,2.23-1.54l1.13-.13v-.81c0-.4-.23-.59-.75-.59s-1.14.22-2,.84l-.3-1.35c.69-.52,1.79-.78,2.87-.78,1.27,0,2.04.51,2.04,1.62Zm-1.85,3.23v-1.2l-.57.06c-.76.08-.98.25-.98.61,0,.4.38.68.82.68.21,0,.45-.05.73-.15Z"/>
        <path class="cls-3" d="m120.91,97.21v2.79h-1.82v-3.21c0-1.05-.24-1.45-.98-1.45-.3,0-.61.07-.91.23v4.43h-1.82v-5.73l1.53-.24h.25v.67c.58-.48,1.29-.7,1.88-.7.98,0,1.59.51,1.77,1.29.08.39.1.88.1,1.94Z"/>
        <path class="cls-3" d="m127.75,91.31v8.69h-1.79v-.61c-.35.44-.93.69-1.66.69-1.45,0-2.46-.99-2.46-2.8,0-2,1.3-3.36,3.28-3.36.27,0,.53.04.81.1v-2.47l1.58-.24h.24Zm-1.82,7.2v-3.22c-.25-.13-.52-.19-.81-.19-.93,0-1.41.81-1.41,2.08,0,1.08.57,1.6,1.31,1.6.36,0,.67-.08.91-.27Z"/>
        <path class="cls-3" d="m16.81,117.86c-.42.23-.98.34-1.67.34-1.35,0-2.04-.58-2.04-1.88,0-.62.02-1.5.07-2.63h-.81l.07-1.08.84-.21.07-1.18,1.49-.23h.16l-.04,1.37h1.77l-.08,1.32h-1.68v2.57c-.01.44.17.62.55.62.31,0,.69-.11,1.13-.33l.18,1.31Z"/>
        <path class="cls-3" d="m23.27,115.24v2.79h-1.82v-3.2c0-1.05-.22-1.47-.98-1.47-.3,0-.61.07-.91.23v4.43h-1.82v-8.44l1.56-.24h.25v3.36c.57-.47,1.22-.68,1.84-.68.98,0,1.59.51,1.77,1.29.08.39.1.88.1,1.94Z"/>
        <path class="cls-3" d="m29.78,115.35h-3.75c.06,1.13.58,1.61,1.51,1.61.63,0,1.33-.17,1.93-.51l.24,1.27c-.53.3-1.41.47-2.31.47-2.13,0-3.19-1.09-3.19-3.02s1.22-3.22,2.97-3.22,2.6.95,2.6,2.8v.59Zm-1.78-1.02c0-.92-.3-1.28-.84-1.28-.57,0-.96.45-1.09,1.37l1.93-.08Z"/>
        <path class="cls-2" d="m32.77,117.2v-9.15c0-.56.38-.9,1.03-.9s1.03.34,1.03.9v3.29h1.01v-3.29c0-.56.38-.9,1.03-.9s1.02.34,1.02.9v9.15c0,.54-.37.88-1.02.88s-1.03-.34-1.03-.88v-4.13h-1.01v4.13c0,.54-.38.88-1.03.88s-1.03-.34-1.03-.88Z"/>
        <path class="cls-2" d="m38.56,116.25v-.88c0-1.29.9-1.91,2.07-1.91.46,0,.76.09.96.18v-2.41c0-.34-.16-.56-.44-.56h-.09c-.28,0-.44.22-.44.56v.69c0,.51-.35.84-.96.84s-.97-.32-.97-.84v-.84c0-1.37.78-2.03,2.24-2.03h.43c1.47,0,2.22.74,2.22,2.19v6c0,.53-.35.85-1,.85-.56,0-.91-.26-.97-.69-.24.29-.78.69-1.53.69-.88,0-1.52-.51-1.52-1.84Zm2.5.32c.21,0,.41-.13.53-.31v-1.38c-.1-.06-.25-.09-.43-.09-.38,0-.6.22-.6.66v.46c0,.44.19.66.5.66Z"/>
        <path class="cls-2" d="m44.27,117.2v-7.28c0-.54.37-.88,1.01-.88.53,0,.88.24.97.65.22-.25.74-.65,1.44-.65.94,0,1.4.47,1.4,1.87v1c0,.51-.35.84-.97.84s-.96-.32-.96-.84v-.51c0-.44-.16-.66-.41-.66-.19,0-.35.12-.47.29v6.18c0,.54-.37.88-1,.88s-1.01-.34-1.01-.88Z"/>
        <path class="cls-2" d="m49.58,115.87v-7.84c0-.53.37-.87,1-.87s1,.34,1,.87v1.6c.25-.24.82-.59,1.59-.59.9,0,1.43.5,1.43,1.76v5.06c0,1.49-.79,2.22-2.29,2.22h-.43c-1.5,0-2.29-.74-2.29-2.22Zm2.54.6c.31,0,.47-.19.47-.53v-4.62c0-.43-.18-.66-.49-.66-.19,0-.4.12-.53.29v4.99c0,.34.16.53.46.53h.09Z"/>
        <path class="cls-2" d="m55.17,115.87v-4.62c0-1.46.79-2.21,2.29-2.21h.43c1.52,0,2.29.75,2.29,2.21v4.62c0,1.49-.78,2.22-2.29,2.22h-.43c-1.5,0-2.29-.74-2.29-2.22Zm2.54.6c.31,0,.47-.19.47-.53v-4.72c0-.34-.16-.56-.47-.56h-.09c-.29,0-.46.22-.46.56v4.72c0,.34.16.53.46.53h.09Z"/>
        <path class="cls-2" d="m60.82,116.2v-6.28c0-.54.37-.88,1.01-.88s1,.34,1,.88v5.88c0,.44.19.66.49.66.22,0,.41-.13.54-.34v-6.21c0-.54.37-.88,1.01-.88s1,.34,1,.88v7.3c0,.54-.37.87-1,.87-.57,0-.93-.25-1-.69-.25.28-.81.69-1.59.69-.97,0-1.47-.47-1.47-1.88Z"/>
        <path class="cls-2" d="m66.59,117.2v-7.28c0-.54.37-.88,1.01-.88.53,0,.88.24.97.65.22-.25.74-.65,1.44-.65.94,0,1.4.47,1.4,1.87v1c0,.51-.35.84-.97.84s-.96-.32-.96-.84v-.51c0-.44-.16-.66-.41-.66-.19,0-.35.12-.47.29v6.18c0,.54-.37.88-1,.88s-1.01-.34-1.01-.88Z"/>
        <path class="cls-2" d="m73.64,116.79v-8.34c0-.79.44-1.24,1.24-1.24h1.43c1.53,0,2.32.74,2.32,2.16v1.12c0,.68-.21,1.28-.9,1.56.77.25,1,.87,1,1.62v2.21c0,1.44-.78,2.15-2.29,2.15h-1.56c-.79,0-1.24-.44-1.24-1.24Zm2-5.38h.56c.29,0,.47-.18.47-.51v-1.46c0-.32-.18-.53-.49-.53h-.54v2.5Zm.63,5c.29,0,.47-.18.47-.51v-2.29c0-.32-.18-.51-.47-.51h-.63v3.32h.63Z"/>
        <path class="cls-2" d="m79.42,117.2v-7.28c0-.54.37-.88,1.01-.88.53,0,.88.24.97.65.22-.25.74-.65,1.44-.65.94,0,1.4.47,1.4,1.87v1c0,.51-.35.84-.97.84s-.96-.32-.96-.84v-.51c0-.44-.16-.66-.41-.66-.19,0-.35.12-.47.29v6.18c0,.54-.37.88-1,.88s-1.01-.34-1.01-.88Z"/>
        <path class="cls-2" d="m84.77,107.64c0-.6.37-.91,1.04-.91s1.06.31,1.06.91-.38.91-1.06.91-1.04-.31-1.04-.91Zm.03,9.56v-7.28c0-.54.37-.88,1.01-.88s1.03.34,1.03.88v7.28c0,.54-.38.88-1.03.88s-1.01-.34-1.01-.88Z"/>
        <path class="cls-2" d="m87.53,116.22v-5.15c0-1.51,1.09-2.03,2.68-2.03.12,0,.24,0,.34.01v-1.03c0-.54.37-.87,1-.87s1,.32,1,.87v9.21c0,.53-.37.85-1,.85-.56,0-.91-.25-.99-.68-.25.28-.79.68-1.57.68-.97,0-1.46-.47-1.46-1.87Zm2.5.31c.21,0,.38-.12.51-.28v-5.5c-.1-.04-.25-.09-.43-.09-.37,0-.59.22-.59.66v4.56c0,.44.18.65.5.65Z"/>
        <path class="cls-2" d="m94.17,119.31c-.25-.18-.43-.47-.43-.81s.19-.59.5-.59c.13,0,.21.04.31.07.13.04.28.09.53.09.78,0,1.19-.26,1.19-.74v-.35c-.18.18-.56.44-1.22.44-1.12,0-1.87-.57-1.87-2.25v-4.1c0-1.51,1.09-2.03,2.68-2.03.56,0,1.01.06,1.37.13.69.13.97.69.97,1.4v6.53c0,1.74-1.02,2.5-2.49,2.5-.79,0-1.25-.09-1.54-.29Zm1.62-3.4c.18,0,.31-.07.41-.19v-4.97c-.1-.04-.25-.09-.43-.09-.37,0-.6.22-.6.66v3.72c0,.59.24.87.62.87Z"/>
        <path class="cls-2" d="m98.82,115.87v-4.62c0-1.46.79-2.21,2.29-2.21h.44c1.52,0,2.31.75,2.31,2.21v.65c0,.81-.44,1.25-1.25,1.25h-1.79v2.79c0,.34.16.53.46.53h.1c.32,0,.49-.19.49-.53v-1.16c0-.53.37-.85,1-.85s1,.32,1,.85v1.09c0,1.49-.79,2.22-2.31,2.22h-.44c-1.5,0-2.29-.74-2.29-2.22Zm2-3.9h1.04v-.75c0-.34-.16-.56-.49-.56h-.1c-.29,0-.46.22-.46.56v.75Z"/>
      </g>
    </g>
  </g>
</svg>