<?xml version="1.0" encoding="UTF-8"?>
<svg id="Layer_2" data-name="Layer 2" xmlns="http://www.w3.org/2000/svg" viewBox="0 0 174.37 65.67">
  <defs>
    <style>
      .cls-1 {
        fill: #bfd1d0;
      }
    </style>
  </defs>
  <g id="Layer_1-2" data-name="Layer 1">
    <g>
      <rect class="cls-1" y="0" width="174.37" height="65.67" rx="12.9" ry="12.9"/>
      <g>
        <path d="m14.81,9.4c-.06-1.22-.14-2.69-.13-3.78h-.04c-.3,1.03-.66,2.12-1.1,3.33l-1.55,4.25h-.86l-1.42-4.17c-.42-1.23-.77-2.37-1.01-3.41h-.03c-.03,1.09-.09,2.56-.17,3.87l-.23,3.76h-1.08l.61-8.76h1.44l1.49,4.24c.36,1.08.66,2.04.88,2.95h.04c.22-.88.53-1.85.92-2.95l1.56-4.24h1.44l.55,8.76h-1.1l-.22-3.85Z"/>
        <path d="m21.4,13.25l-.09-.79h-.04c-.35.49-1.03.94-1.92.94-1.27,0-1.92-.9-1.92-1.81,0-1.52,1.35-2.35,3.78-2.34v-.13c0-.52-.14-1.46-1.43-1.46-.58,0-1.2.18-1.64.47l-.26-.75c.52-.34,1.27-.56,2.07-.56,1.92,0,2.39,1.31,2.39,2.57v2.35c0,.55.03,1.08.1,1.51h-1.04Zm-.17-3.21c-1.25-.03-2.67.2-2.67,1.42,0,.74.49,1.09,1.08,1.09.82,0,1.34-.52,1.52-1.05.04-.12.07-.25.07-.36v-1.09Z"/>
        <path d="m24.82,10.31c.03,1.55,1.01,2.18,2.16,2.18.82,0,1.31-.14,1.74-.33l.2.82c-.4.18-1.09.39-2.09.39-1.94,0-3.09-1.27-3.09-3.17s1.12-3.39,2.95-3.39c2.05,0,2.6,1.81,2.6,2.96,0,.23-.03.42-.04.53h-4.42Zm3.35-.82c.01-.73-.3-1.86-1.59-1.86-1.16,0-1.66,1.07-1.76,1.86h3.34Z"/>
        <path d="m30.7,8.92c0-.74-.01-1.38-.05-1.96h1l.04,1.23h.05c.29-.84.97-1.38,1.74-1.38.13,0,.22.01.33.04v1.08c-.12-.03-.23-.04-.39-.04-.81,0-1.38.61-1.53,1.47-.03.16-.05.34-.05.53v3.35h-1.13v-4.33Z"/>
        <path d="m34.79,12.08c.34.22.94.46,1.51.46.83,0,1.22-.42,1.22-.94s-.33-.84-1.17-1.16c-1.13-.4-1.66-1.03-1.66-1.78,0-1.01.82-1.85,2.17-1.85.64,0,1.2.18,1.55.39l-.29.83c-.25-.16-.7-.36-1.29-.36-.68,0-1.05.39-1.05.86,0,.52.38.75,1.2,1.07,1.09.42,1.65.96,1.65,1.9,0,1.1-.86,1.88-2.35,1.88-.69,0-1.33-.17-1.77-.43l.29-.87Z"/>
        <path d="m41.23,9.84h.03c.16-.22.38-.49.56-.71l1.85-2.17h1.38l-2.43,2.59,2.77,3.71h-1.39l-2.17-3.02-.58.65v2.37h-1.13V4.02h1.13v5.82Z"/>
        <path d="m69.26,4.02h1.14v3.93h.03c.18-.32.47-.61.82-.81.34-.2.74-.33,1.17-.33.84,0,2.2.52,2.2,2.69v3.74h-1.14v-3.61c0-1.01-.38-1.87-1.46-1.87-.74,0-1.33.52-1.53,1.14-.06.16-.08.32-.08.55v3.8h-1.14V4.02Z"/>
        <path d="m79.96,13.25l-.09-.79h-.04c-.35.49-1.03.94-1.92.94-1.27,0-1.92-.9-1.92-1.81,0-1.52,1.35-2.35,3.78-2.34v-.13c0-.52-.14-1.46-1.43-1.46-.58,0-1.2.18-1.64.47l-.26-.75c.52-.34,1.27-.56,2.07-.56,1.92,0,2.39,1.31,2.39,2.57v2.35c0,.55.03,1.08.1,1.51h-1.04Zm-.17-3.21c-1.25-.03-2.67.2-2.67,1.42,0,.74.49,1.09,1.08,1.09.82,0,1.34-.52,1.52-1.05.04-.12.07-.25.07-.36v-1.09Z"/>
        <path d="m82.58,12.08c.34.22.94.46,1.51.46.83,0,1.22-.42,1.22-.94s-.33-.84-1.17-1.16c-1.13-.4-1.66-1.03-1.66-1.78,0-1.01.82-1.85,2.17-1.85.64,0,1.2.18,1.55.39l-.29.83c-.25-.16-.7-.36-1.29-.36-.68,0-1.05.39-1.05.86,0,.52.38.75,1.2,1.07,1.09.42,1.65.96,1.65,1.9,0,1.1-.86,1.88-2.35,1.88-.69,0-1.33-.17-1.77-.43l.29-.87Z"/>
        <path d="m116.38,4.02v7.61c0,.56.01,1.2.05,1.62h-1.03l-.05-1.09h-.03c-.35.7-1.12,1.23-2.14,1.23-1.52,0-2.69-1.29-2.69-3.2-.01-2.09,1.29-3.38,2.82-3.38.96,0,1.61.46,1.9.96h.03v-3.76h1.14Zm-1.14,5.5c0-.14-.01-.34-.05-.48-.17-.73-.79-1.33-1.65-1.33-1.18,0-1.88,1.04-1.88,2.43,0,1.27.62,2.33,1.86,2.33.77,0,1.47-.51,1.68-1.37.04-.16.05-.31.05-.49v-1.09Z"/>
        <path d="m118.92,10.31c.03,1.55,1.01,2.18,2.16,2.18.82,0,1.31-.14,1.74-.33l.2.82c-.4.18-1.09.39-2.09.39-1.94,0-3.09-1.27-3.09-3.17s1.12-3.39,2.95-3.39c2.05,0,2.6,1.81,2.6,2.96,0,.23-.03.42-.04.53h-4.42Zm3.35-.82c.01-.73-.3-1.86-1.59-1.86-1.16,0-1.66,1.07-1.76,1.86h3.34Z"/>
        <path d="m125.23,6.96l1.24,3.54c.21.57.38,1.09.51,1.61h.04c.14-.52.33-1.04.53-1.61l1.22-3.54h1.2l-2.47,6.29h-1.09l-2.39-6.29h1.22Z"/>
        <path d="m131.55,10.31c.03,1.55,1.01,2.18,2.16,2.18.82,0,1.31-.14,1.74-.33l.2.82c-.4.18-1.09.39-2.09.39-1.94,0-3.09-1.27-3.09-3.17s1.12-3.39,2.95-3.39c2.05,0,2.6,1.81,2.6,2.96,0,.23-.03.42-.04.53h-4.42Zm3.35-.82c.01-.73-.3-1.86-1.59-1.86-1.16,0-1.66,1.07-1.76,1.86h3.34Z"/>
        <path d="m137.43,4.02h1.14v9.23h-1.14V4.02Z"/>
        <path d="m146.19,10.05c0,2.33-1.61,3.34-3.13,3.34-1.7,0-3.02-1.25-3.02-3.24,0-2.11,1.38-3.34,3.12-3.34s3.03,1.31,3.03,3.24Zm-4.99.07c0,1.38.79,2.42,1.91,2.42s1.91-1.03,1.91-2.44c0-1.07-.53-2.42-1.89-2.42s-1.94,1.25-1.94,2.44Z"/>
        <path d="m147.63,9.01c0-.81-.03-1.46-.05-2.05h1.03l.05,1.08h.03c.47-.77,1.21-1.22,2.24-1.22,1.52,0,2.67,1.29,2.67,3.2,0,2.26-1.38,3.38-2.86,3.38-.83,0-1.56-.36-1.94-.99h-.03v3.42h-1.13v-6.81Zm1.13,1.68c0,.17.03.33.05.47.21.79.9,1.34,1.72,1.34,1.21,0,1.91-.99,1.91-2.43,0-1.26-.66-2.34-1.87-2.34-.78,0-1.51.56-1.73,1.42-.04.14-.08.31-.08.47v1.08Z"/>
        <path d="m155.67,10.31c.03,1.55,1.01,2.18,2.16,2.18.82,0,1.31-.14,1.74-.33l.2.82c-.4.18-1.09.39-2.09.39-1.94,0-3.09-1.27-3.09-3.17s1.12-3.39,2.95-3.39c2.05,0,2.6,1.81,2.6,2.96,0,.23-.03.42-.04.53h-4.42Zm3.35-.82c.01-.73-.3-1.86-1.59-1.86-1.16,0-1.66,1.07-1.76,1.86h3.34Z"/>
        <path d="m166.98,4.02v7.61c0,.56.01,1.2.05,1.62h-1.03l-.05-1.09h-.03c-.35.7-1.12,1.23-2.14,1.23-1.52,0-2.69-1.29-2.69-3.2-.01-2.09,1.29-3.38,2.82-3.38.96,0,1.61.46,1.9.96h.03v-3.76h1.14Zm-1.14,5.5c0-.14-.01-.34-.05-.48-.17-.73-.79-1.33-1.65-1.33-1.18,0-1.88,1.04-1.88,2.43,0,1.27.62,2.33,1.86,2.33.77,0,1.47-.51,1.68-1.37.04-.16.05-.31.05-.49v-1.09Z"/>
        <path d="m8.77,20.75v1.81h1.64v.87h-1.64v3.39c0,.78.22,1.22.86,1.22.3,0,.52-.04.66-.08l.05.86c-.22.09-.57.16-1.01.16-.53,0-.96-.17-1.23-.48-.33-.34-.44-.9-.44-1.64v-3.43h-.97v-.87h.97v-1.51l1.12-.3Z"/>
        <path d="m12.27,22.56l.83,3.2c.18.7.35,1.35.47,2h.04c.14-.64.35-1.31.56-1.99l1.03-3.21h.96l.98,3.15c.23.75.42,1.42.56,2.05h.04c.1-.64.27-1.3.48-2.04l.9-3.16h1.13l-2.03,6.29h-1.04l-.96-3c-.22-.7-.4-1.33-.56-2.07h-.03c-.16.75-.35,1.4-.57,2.08l-1.01,2.99h-1.04l-1.9-6.29h1.17Z"/>
        <path d="m26.94,25.65c0,2.33-1.61,3.34-3.13,3.34-1.7,0-3.02-1.25-3.02-3.24,0-2.11,1.38-3.34,3.12-3.34s3.03,1.31,3.03,3.24Zm-4.99.07c0,1.38.79,2.42,1.91,2.42s1.91-1.03,1.91-2.44c0-1.07-.53-2.42-1.89-2.42s-1.94,1.25-1.94,2.44Z"/>
        <path d="m31.23,24.91v.85h-3.21v-.85h3.21Z"/>
        <path d="m32.41,27.68c.34.22.94.46,1.51.46.83,0,1.22-.42,1.22-.94s-.33-.84-1.17-1.16c-1.13-.4-1.66-1.03-1.66-1.78,0-1.01.82-1.85,2.17-1.85.64,0,1.2.18,1.55.39l-.29.83c-.25-.16-.7-.36-1.29-.36-.68,0-1.05.39-1.05.86,0,.52.38.75,1.2,1.07,1.09.42,1.65.96,1.65,1.9,0,1.1-.86,1.88-2.35,1.88-.69,0-1.33-.17-1.77-.43l.29-.87Z"/>
        <path d="m39.1,20.75v1.81h1.64v.87h-1.64v3.39c0,.78.22,1.22.86,1.22.3,0,.52-.04.66-.08l.05.86c-.22.09-.57.16-1.01.16-.53,0-.96-.17-1.23-.48-.33-.34-.44-.9-.44-1.64v-3.43h-.97v-.87h.97v-1.51l1.12-.3Z"/>
        <path d="m47.64,25.65c0,2.33-1.61,3.34-3.13,3.34-1.7,0-3.02-1.25-3.02-3.24,0-2.11,1.38-3.34,3.12-3.34s3.03,1.31,3.03,3.24Zm-4.99.07c0,1.38.79,2.42,1.91,2.42s1.91-1.03,1.91-2.44c0-1.07-.53-2.42-1.89-2.42s-1.94,1.25-1.94,2.44Z"/>
        <path d="m49.08,24.52c0-.74-.01-1.38-.05-1.96h1l.04,1.23h.05c.29-.84.97-1.38,1.74-1.38.13,0,.22.01.33.04v1.08c-.12-.03-.23-.04-.39-.04-.81,0-1.38.61-1.53,1.47-.03.16-.05.34-.05.53v3.35h-1.13v-4.33Z"/>
        <path d="m53.84,25.91c.03,1.55,1.01,2.18,2.16,2.18.82,0,1.31-.14,1.74-.33l.2.82c-.4.18-1.09.39-2.09.39-1.94,0-3.09-1.27-3.09-3.17s1.12-3.39,2.95-3.39c2.05,0,2.6,1.81,2.6,2.96,0,.23-.03.42-.04.53h-4.42Zm3.35-.82c.01-.73-.3-1.86-1.59-1.86-1.16,0-1.66,1.07-1.76,1.86h3.34Z"/>
        <path d="m60.13,22.56l1.38,3.72c.14.42.3.91.4,1.29h.03c.12-.38.25-.86.4-1.31l1.25-3.69h1.21l-1.72,4.49c-.82,2.16-1.38,3.26-2.16,3.94-.56.49-1.12.69-1.4.74l-.29-.96c.29-.09.66-.27,1-.56.31-.25.7-.69.96-1.27.05-.12.09-.21.09-.27s-.03-.16-.08-.3l-2.33-5.8h1.25Z"/>
        <path d="m82.43,28.62c-.3.16-.96.36-1.81.36-1.9,0-3.13-1.29-3.13-3.21s1.33-3.34,3.38-3.34c.68,0,1.27.17,1.59.32l-.26.88c-.27-.16-.7-.3-1.33-.3-1.44,0-2.22,1.07-2.22,2.38,0,1.46.94,2.35,2.18,2.35.65,0,1.08-.17,1.4-.31l.2.86Z"/>
        <path d="m89.39,25.65c0,2.33-1.61,3.34-3.13,3.34-1.7,0-3.02-1.25-3.02-3.24,0-2.11,1.38-3.34,3.12-3.34s3.03,1.31,3.03,3.24Zm-4.99.07c0,1.38.79,2.42,1.91,2.42s1.91-1.03,1.91-2.44c0-1.07-.53-2.42-1.89-2.42s-1.94,1.25-1.94,2.44Z"/>
        <path d="m90.83,24.26c0-.65-.01-1.18-.05-1.7h1.01l.06,1.04h.03c.31-.6,1.04-1.18,2.08-1.18.87,0,2.22.52,2.22,2.68v3.76h-1.14v-3.63c0-1.01-.38-1.86-1.46-1.86-.75,0-1.34.53-1.53,1.17-.05.14-.08.34-.08.53v3.78h-1.14v-4.59Z"/>
        <path d="m99.37,20.75v1.81h1.64v.87h-1.64v3.39c0,.78.22,1.22.86,1.22.3,0,.52-.04.66-.08l.05.86c-.22.09-.57.16-1.01.16-.53,0-.96-.17-1.23-.48-.33-.34-.44-.9-.44-1.64v-3.43h-.97v-.87h.97v-1.51l1.12-.3Z"/>
        <path d="m105.78,28.85l-.09-.79h-.04c-.35.49-1.03.94-1.92.94-1.27,0-1.92-.9-1.92-1.81,0-1.52,1.35-2.35,3.78-2.34v-.13c0-.52-.14-1.46-1.43-1.46-.58,0-1.2.18-1.64.47l-.26-.75c.52-.34,1.27-.56,2.07-.56,1.92,0,2.39,1.31,2.39,2.57v2.35c0,.55.03,1.08.1,1.51h-1.04Zm-.17-3.21c-1.25-.03-2.67.19-2.67,1.42,0,.74.49,1.09,1.08,1.09.82,0,1.34-.52,1.52-1.05.04-.12.07-.25.07-.36v-1.09Z"/>
        <path d="m109.83,20.79c.01.39-.27.7-.73.7-.4,0-.69-.31-.69-.7s.3-.71.72-.71.7.31.7.71Zm-1.27,8.06v-6.29h1.14v6.29h-1.14Z"/>
        <path d="m111.6,24.26c0-.65-.01-1.18-.05-1.7h1.01l.07,1.04h.03c.31-.6,1.04-1.18,2.08-1.18.87,0,2.22.52,2.22,2.68v3.76h-1.14v-3.63c0-1.01-.38-1.86-1.46-1.86-.75,0-1.34.53-1.53,1.17-.05.14-.08.34-.08.53v3.78h-1.14v-4.59Z"/>
        <path d="m119.45,25.91c.03,1.55,1.01,2.18,2.16,2.18.82,0,1.31-.14,1.74-.33l.2.82c-.4.18-1.09.39-2.09.39-1.94,0-3.09-1.27-3.09-3.17s1.12-3.39,2.95-3.39c2.05,0,2.6,1.81,2.6,2.96,0,.23-.03.42-.04.53h-4.42Zm3.35-.82c.01-.73-.3-1.86-1.59-1.86-1.16,0-1.66,1.07-1.76,1.86h3.34Z"/>
        <path d="m125.33,24.52c0-.74-.01-1.38-.05-1.96h1l.04,1.23h.05c.29-.84.97-1.38,1.74-1.38.13,0,.22.01.32.04v1.08c-.12-.03-.23-.04-.39-.04-.81,0-1.38.61-1.53,1.47-.03.16-.05.34-.05.53v3.35h-1.13v-4.33Z"/>
        <path d="m129.43,27.68c.34.22.94.46,1.51.46.83,0,1.22-.42,1.22-.94s-.33-.84-1.17-1.16c-1.13-.4-1.66-1.03-1.66-1.78,0-1.01.82-1.85,2.17-1.85.64,0,1.2.18,1.55.39l-.29.83c-.25-.16-.7-.36-1.29-.36-.68,0-1.05.39-1.05.86,0,.52.38.75,1.2,1.07,1.09.42,1.65.96,1.65,1.9,0,1.1-.86,1.88-2.35,1.88-.69,0-1.33-.17-1.77-.43l.29-.87Z"/>
        <path d="m148.22,20.75v1.81h1.64v.87h-1.64v3.39c0,.78.22,1.22.86,1.22.3,0,.52-.04.66-.08l.05.86c-.22.09-.57.16-1.01.16-.53,0-.96-.17-1.23-.48-.33-.34-.44-.9-.44-1.64v-3.43h-.97v-.87h.97v-1.51l1.12-.3Z"/>
        <path d="m151.14,19.62h1.14v3.93h.03c.18-.33.47-.61.82-.81.34-.2.74-.33,1.17-.33.84,0,2.2.52,2.2,2.69v3.74h-1.14v-3.61c0-1.01-.38-1.87-1.46-1.87-.74,0-1.33.52-1.53,1.14-.06.16-.08.32-.08.55v3.8h-1.14v-9.23Z"/>
        <path d="m161.84,28.85l-.09-.79h-.04c-.35.49-1.03.94-1.92.94-1.27,0-1.92-.9-1.92-1.81,0-1.52,1.35-2.35,3.78-2.34v-.13c0-.52-.14-1.46-1.43-1.46-.58,0-1.2.18-1.64.47l-.26-.75c.52-.34,1.27-.56,2.07-.56,1.92,0,2.39,1.31,2.39,2.57v2.35c0,.55.03,1.08.1,1.51h-1.04Zm-.17-3.21c-1.25-.03-2.67.19-2.67,1.42,0,.74.49,1.09,1.08,1.09.82,0,1.34-.52,1.52-1.05.04-.12.07-.25.07-.36v-1.09Z"/>
        <path d="m165.95,20.75v1.81h1.64v.87h-1.64v3.39c0,.78.22,1.22.86,1.22.3,0,.52-.04.66-.08l.05.86c-.22.09-.57.16-1.01.16-.53,0-.96-.17-1.23-.48-.33-.34-.44-.9-.44-1.64v-3.43h-.97v-.87h.97v-1.51l1.12-.3Z"/>
        <path d="m12.82,35.22v7.61c0,.56.01,1.2.05,1.62h-1.03l-.05-1.09h-.03c-.35.7-1.12,1.23-2.14,1.23-1.52,0-2.69-1.29-2.69-3.2-.01-2.09,1.29-3.38,2.82-3.38.96,0,1.61.46,1.9.96h.03v-3.76h1.14Zm-1.14,5.5c0-.14-.01-.34-.05-.48-.17-.73-.79-1.33-1.65-1.33-1.18,0-1.88,1.04-1.88,2.43,0,1.27.62,2.33,1.86,2.33.77,0,1.47-.51,1.68-1.37.04-.16.05-.31.05-.49v-1.09Z"/>
        <path d="m20.42,41.25c0,2.33-1.61,3.34-3.13,3.34-1.7,0-3.02-1.25-3.02-3.24,0-2.11,1.38-3.34,3.12-3.34s3.03,1.31,3.03,3.24Zm-4.99.07c0,1.38.79,2.42,1.91,2.42s1.91-1.03,1.91-2.44c0-1.07-.53-2.42-1.89-2.42s-1.94,1.25-1.94,2.44Z"/>
        <path d="m27.12,42.74c0,.65.01,1.22.05,1.72h-1.01l-.06-1.03h-.03c-.3.51-.96,1.17-2.08,1.17-.99,0-2.17-.55-2.17-2.76v-3.68h1.14v3.48c0,1.2.36,2,1.4,2,.77,0,1.3-.53,1.51-1.04.07-.17.1-.38.1-.58v-3.86h1.14v4.58Z"/>
        <path d="m28.97,44.45c.03-.43.05-1.07.05-1.62v-7.61h1.13v3.95h.03c.4-.7,1.13-1.16,2.14-1.16,1.56,0,2.67,1.3,2.65,3.21,0,2.25-1.42,3.37-2.82,3.37-.91,0-1.64-.35-2.11-1.18h-.04l-.05,1.04h-.99Zm1.18-2.52c0,.14.03.29.05.42.22.79.88,1.34,1.72,1.34,1.2,0,1.91-.98,1.91-2.42,0-1.26-.65-2.34-1.87-2.34-.78,0-1.51.53-1.74,1.4-.03.13-.07.29-.07.47v1.13Z"/>
        <path d="m36.42,35.22h1.14v9.23h-1.14v-9.23Z"/>
        <path d="m40.12,41.51c.03,1.55,1.01,2.18,2.16,2.18.82,0,1.31-.14,1.74-.33l.2.82c-.4.18-1.09.39-2.09.39-1.94,0-3.09-1.27-3.09-3.17s1.12-3.39,2.95-3.39c2.05,0,2.6,1.81,2.6,2.96,0,.23-.03.42-.04.53h-4.42Zm3.35-.82c.01-.73-.3-1.86-1.59-1.86-1.16,0-1.66,1.07-1.76,1.86h3.34Z"/>
        <path d="m52.98,36.35v1.81h1.64v.87h-1.64v3.39c0,.78.22,1.22.86,1.22.3,0,.52-.04.66-.08l.05.86c-.22.09-.57.16-1.01.16-.53,0-.96-.17-1.23-.48-.33-.34-.44-.9-.44-1.64v-3.43h-.97v-.87h.97v-1.51l1.12-.3Z"/>
        <path d="m55.91,35.22h1.14v3.93h.03c.18-.33.47-.61.82-.81.34-.2.74-.33,1.17-.33.84,0,2.2.52,2.2,2.69v3.74h-1.14v-3.61c0-1.01-.38-1.87-1.46-1.87-.74,0-1.33.52-1.53,1.14-.06.16-.08.32-.08.55v3.8h-1.14v-9.23Z"/>
        <path d="m63.76,41.51c.03,1.55,1.01,2.18,2.16,2.18.82,0,1.31-.14,1.74-.33l.2.82c-.4.18-1.09.39-2.09.39-1.94,0-3.09-1.27-3.09-3.17s1.12-3.39,2.95-3.39c2.05,0,2.6,1.81,2.6,2.96,0,.23-.03.42-.04.53h-4.42Zm3.35-.82c.01-.73-.3-1.86-1.59-1.86-1.16,0-1.66,1.07-1.76,1.86h3.34Z"/>
        <path d="m75.68,38.16l1.24,3.54c.21.57.38,1.09.51,1.61h.04c.14-.52.33-1.04.53-1.61l1.22-3.54h1.2l-2.47,6.29h-1.09l-2.39-6.29h1.22Z"/>
        <path d="m87.06,41.25c0,2.33-1.61,3.34-3.13,3.34-1.7,0-3.02-1.25-3.02-3.24,0-2.11,1.38-3.34,3.12-3.34s3.03,1.31,3.03,3.24Zm-4.99.07c0,1.38.79,2.42,1.91,2.42s1.91-1.03,1.91-2.44c0-1.07-.53-2.42-1.89-2.42s-1.94,1.25-1.94,2.44Z"/>
        <path d="m88.5,35.22h1.14v9.23h-1.14v-9.23Z"/>
        <path d="m96.84,42.74c0,.65.01,1.22.05,1.72h-1.01l-.06-1.03h-.03c-.3.51-.96,1.17-2.08,1.17-.99,0-2.17-.55-2.17-2.76v-3.68h1.14v3.48c0,1.2.36,2,1.4,2,.77,0,1.3-.53,1.51-1.04.07-.17.1-.38.1-.58v-3.86h1.14v4.58Z"/>
        <path d="m98.73,39.86c0-.65-.01-1.18-.05-1.7h1l.05,1.01h.04c.35-.6.94-1.16,1.98-1.16.86,0,1.51.52,1.78,1.26h.03c.19-.35.44-.62.7-.82.38-.29.79-.44,1.39-.44.83,0,2.07.55,2.07,2.73v3.71h-1.12v-3.56c0-1.21-.44-1.94-1.37-1.94-.65,0-1.16.48-1.35,1.04-.05.16-.09.36-.09.57v3.89h-1.12v-3.77c0-1-.44-1.73-1.31-1.73-.71,0-1.24.57-1.42,1.14-.07.17-.09.36-.09.56v3.8h-1.12v-4.59Z"/>
        <path d="m110.21,41.51c.03,1.55,1.01,2.18,2.16,2.18.82,0,1.31-.14,1.74-.33l.2.82c-.4.18-1.09.39-2.09.39-1.94,0-3.09-1.27-3.09-3.17s1.12-3.39,2.95-3.39c2.05,0,2.6,1.81,2.6,2.96,0,.23-.03.42-.04.53h-4.42Zm3.35-.82c.01-.73-.3-1.86-1.59-1.86-1.16,0-1.66,1.07-1.76,1.86h3.34Z"/>
        <path d="m127.39,41.25c0,2.33-1.61,3.34-3.13,3.34-1.7,0-3.02-1.25-3.02-3.24,0-2.11,1.38-3.34,3.12-3.34s3.03,1.31,3.03,3.24Zm-4.99.07c0,1.38.79,2.42,1.91,2.42s1.91-1.03,1.91-2.44c0-1.07-.53-2.42-1.89-2.42s-1.94,1.25-1.94,2.44Z"/>
        <path d="m128.95,44.45v-5.42h-.88v-.87h.88v-.3c0-.88.19-1.69.73-2.2.43-.42,1-.58,1.53-.58.4,0,.75.09.97.18l-.16.88c-.17-.08-.4-.14-.73-.14-.97,0-1.22.86-1.22,1.82v.34h1.52v.87h-1.52v5.42h-1.13Z"/>
        <path d="m142.72,44.22c-.3.16-.96.36-1.81.36-1.9,0-3.13-1.29-3.13-3.21s1.33-3.34,3.38-3.34c.68,0,1.27.17,1.59.32l-.26.88c-.27-.16-.7-.3-1.33-.3-1.44,0-2.22,1.07-2.22,2.38,0,1.46.94,2.35,2.18,2.35.65,0,1.08-.17,1.4-.31l.2.86Z"/>
        <path d="m147.54,44.45l-.09-.79h-.04c-.35.49-1.03.94-1.92.94-1.27,0-1.92-.9-1.92-1.81,0-1.52,1.35-2.35,3.78-2.34v-.13c0-.52-.14-1.46-1.43-1.46-.59,0-1.2.18-1.64.47l-.26-.75c.52-.34,1.27-.56,2.07-.56,1.92,0,2.39,1.31,2.39,2.57v2.35c0,.55.03,1.08.1,1.51h-1.04Zm-.17-3.21c-1.25-.03-2.67.19-2.67,1.42,0,.74.49,1.09,1.08,1.09.82,0,1.34-.52,1.52-1.05.04-.12.06-.25.06-.36v-1.09Z"/>
        <path d="m150.32,40.12c0-.74-.01-1.38-.05-1.96h1l.04,1.23h.05c.29-.84.97-1.38,1.74-1.38.13,0,.22.01.33.04v1.08c-.12-.03-.23-.04-.39-.04-.81,0-1.38.61-1.53,1.47-.03.16-.05.34-.05.53v3.35h-1.13v-4.33Z"/>
        <path d="m159.89,38.16c-.03.46-.05.96-.05,1.73v3.65c0,1.44-.29,2.33-.9,2.87-.61.57-1.5.75-2.29.75s-1.59-.18-2.09-.52l.29-.87c.42.26,1.07.49,1.85.49,1.17,0,2.03-.61,2.03-2.2v-.7h-.03c-.35.58-1.03,1.05-2,1.05-1.56,0-2.68-1.33-2.68-3.07,0-2.13,1.39-3.34,2.83-3.34,1.09,0,1.69.57,1.96,1.09h.03l.05-.95h1Zm-1.18,2.48c0-.19-.01-.36-.07-.52-.21-.66-.77-1.21-1.6-1.21-1.09,0-1.87.92-1.87,2.38,0,1.24.62,2.26,1.86,2.26.7,0,1.34-.44,1.59-1.17.06-.19.09-.42.09-.61v-1.13Z"/>
        <path d="m167.43,41.25c0,2.33-1.61,3.34-3.13,3.34-1.7,0-3.02-1.25-3.02-3.24,0-2.11,1.38-3.34,3.12-3.34s3.03,1.31,3.03,3.24Zm-4.99.07c0,1.38.79,2.42,1.91,2.42s1.91-1.03,1.91-2.44c0-1.07-.53-2.42-1.89-2.42s-1.94,1.25-1.94,2.44Z"/>
        <path d="m8.77,51.95v1.81h1.64v.87h-1.64v3.39c0,.78.22,1.22.86,1.22.3,0,.52-.04.66-.08l.05.86c-.22.09-.57.16-1.01.16-.53,0-.96-.17-1.23-.48-.33-.34-.44-.9-.44-1.64v-3.43h-.97v-.87h.97v-1.51l1.12-.3Z"/>
        <path d="m11.69,55.72c0-.74-.01-1.38-.05-1.96h1l.04,1.23h.05c.29-.84.97-1.38,1.74-1.38.13,0,.22.01.33.04v1.08c-.12-.03-.23-.04-.39-.04-.81,0-1.38.61-1.53,1.47-.03.16-.05.34-.05.53v3.35h-1.13v-4.33Z"/>
        <path d="m19.36,60.05l-.09-.79h-.04c-.35.49-1.03.94-1.92.94-1.27,0-1.92-.9-1.92-1.81,0-1.52,1.35-2.35,3.78-2.34v-.13c0-.52-.14-1.46-1.43-1.46-.58,0-1.2.18-1.64.47l-.26-.75c.52-.34,1.27-.56,2.07-.56,1.92,0,2.39,1.31,2.39,2.57v2.35c0,.55.03,1.08.1,1.51h-1.04Zm-.17-3.21c-1.25-.03-2.67.2-2.67,1.42,0,.74.49,1.09,1.08,1.09.82,0,1.34-.52,1.52-1.05.04-.12.07-.25.07-.36v-1.09Z"/>
        <path d="m22.15,55.46c0-.65-.01-1.18-.05-1.7h1.01l.06,1.04h.03c.31-.6,1.04-1.18,2.08-1.18.87,0,2.22.52,2.22,2.68v3.76h-1.14v-3.63c0-1.01-.38-1.86-1.46-1.86-.75,0-1.34.53-1.53,1.17-.05.14-.08.34-.08.53v3.78h-1.14v-4.59Z"/>
        <path d="m29.2,58.88c.34.22.94.46,1.51.46.83,0,1.22-.42,1.22-.94s-.33-.84-1.17-1.16c-1.13-.4-1.66-1.03-1.66-1.78,0-1.01.82-1.85,2.17-1.85.64,0,1.2.18,1.55.39l-.29.83c-.25-.16-.7-.36-1.29-.36-.68,0-1.05.39-1.05.86,0,.52.38.75,1.2,1.07,1.09.42,1.65.96,1.65,1.9,0,1.1-.86,1.88-2.35,1.88-.69,0-1.33-.17-1.77-.43l.29-.87Z"/>
        <path d="m34.51,55.81c0-.81-.03-1.46-.05-2.05h1.03l.05,1.08h.03c.47-.77,1.21-1.22,2.24-1.22,1.52,0,2.67,1.29,2.67,3.2,0,2.26-1.38,3.38-2.86,3.38-.83,0-1.56-.36-1.94-.99h-.03v3.42h-1.13v-6.81Zm1.13,1.68c0,.17.03.33.05.47.21.79.9,1.34,1.72,1.34,1.21,0,1.91-.99,1.91-2.43,0-1.26-.66-2.34-1.87-2.34-.78,0-1.51.56-1.73,1.42-.04.14-.08.31-.08.47v1.08Z"/>
        <path d="m47.6,56.85c0,2.33-1.61,3.34-3.13,3.34-1.7,0-3.02-1.25-3.02-3.24,0-2.11,1.38-3.34,3.12-3.34s3.03,1.31,3.03,3.24Zm-4.99.07c0,1.38.79,2.42,1.91,2.42s1.91-1.03,1.91-2.44c0-1.07-.53-2.42-1.89-2.42s-1.94,1.25-1.94,2.44Z"/>
        <path d="m49.04,55.72c0-.74-.01-1.38-.05-1.96h1l.04,1.23h.05c.29-.84.97-1.38,1.74-1.38.13,0,.22.01.33.04v1.08c-.12-.03-.23-.04-.39-.04-.81,0-1.38.61-1.53,1.47-.03.16-.05.34-.05.53v3.35h-1.13v-4.33Z"/>
        <path d="m54.98,51.95v1.81h1.64v.87h-1.64v3.39c0,.78.22,1.22.86,1.22.3,0,.52-.04.66-.08l.05.86c-.22.09-.57.16-1.01.16-.53,0-.96-.17-1.23-.48-.33-.34-.44-.9-.44-1.64v-3.43h-.97v-.87h.97v-1.51l1.12-.3Z"/>
        <path d="m58.46,57.11c.03,1.55,1.01,2.18,2.16,2.18.82,0,1.31-.14,1.74-.33l.2.82c-.4.18-1.09.39-2.09.39-1.94,0-3.09-1.27-3.09-3.17s1.12-3.39,2.95-3.39c2.05,0,2.6,1.81,2.6,2.96,0,.23-.03.42-.04.53h-4.42Zm3.35-.82c.01-.73-.3-1.86-1.59-1.86-1.16,0-1.66,1.07-1.76,1.86h3.34Z"/>
        <path d="m69.77,50.82v7.61c0,.56.01,1.2.05,1.62h-1.03l-.05-1.09h-.03c-.35.7-1.12,1.23-2.14,1.23-1.52,0-2.69-1.29-2.69-3.2-.01-2.09,1.29-3.38,2.82-3.38.96,0,1.61.46,1.9.96h.03v-3.76h1.14Zm-1.14,5.5c0-.14-.01-.34-.05-.48-.17-.73-.79-1.33-1.65-1.33-1.18,0-1.88,1.04-1.88,2.43,0,1.27.62,2.33,1.86,2.33.77,0,1.47-.51,1.68-1.37.04-.16.05-.31.05-.49v-1.09Z"/>
      </g>
    </g>
  </g>
</svg>