<?xml version="1.0" encoding="UTF-8"?>
<svg id="Layer_2" data-name="Layer 2" xmlns="http://www.w3.org/2000/svg" viewBox="0 0 223.99 92.66">
  <defs>
    <style>
      .cls-1 {
        fill: #e4edec;
      }
    </style>
  </defs>
  <g id="Layer_1-2" data-name="Layer 1">
    <g>
      <rect class="cls-1" width="223.99" height="92.66" rx="12.9" ry="12.9"/>
      <g>
        <path d="m9.39,5.85h-3.07v-1.11h7.48v1.11h-3.09v9h-1.32V5.85Z"/>
        <path d="m14.77,4.2h1.32v4.53h.03c.21-.38.54-.71.94-.93.39-.22.86-.38,1.35-.38.97,0,2.53.6,2.53,3.1v4.32h-1.32v-4.17c0-1.17-.44-2.16-1.68-2.16-.85,0-1.53.6-1.77,1.32-.08.18-.09.38-.09.63v4.38h-1.32V4.2Z"/>
        <path d="m23.83,11.46c.03,1.79,1.17,2.52,2.49,2.52.94,0,1.51-.17,2.01-.38l.22.95c-.46.21-1.26.45-2.42.45-2.23,0-3.57-1.47-3.57-3.66s1.29-3.92,3.4-3.92c2.37,0,3,2.08,3,3.42,0,.27-.03.48-.04.62h-5.1Zm3.87-.95c.01-.84-.35-2.14-1.83-2.14-1.33,0-1.92,1.23-2.03,2.14h3.86Z"/>
        <path d="m44.61,7.59c-.03.53-.06,1.11-.06,2v4.21c0,1.67-.33,2.68-1.04,3.31-.71.66-1.72.87-2.64.87s-1.83-.21-2.42-.6l.33-1c.48.3,1.23.57,2.13.57,1.35,0,2.34-.71,2.34-2.53v-.81h-.03c-.41.67-1.18,1.21-2.31,1.21-1.8,0-3.09-1.53-3.09-3.54,0-2.46,1.6-3.85,3.27-3.85,1.26,0,1.95.66,2.26,1.26h.03l.06-1.09h1.16Zm-1.37,2.87c0-.23-.01-.42-.07-.6-.24-.76-.89-1.39-1.85-1.39-1.26,0-2.16,1.06-2.16,2.75,0,1.42.72,2.61,2.14,2.61.81,0,1.54-.51,1.83-1.35.08-.23.1-.48.1-.71v-1.3Z"/>
        <path d="m46.65,9.85c0-.85-.01-1.59-.06-2.26h1.15l.05,1.42h.06c.33-.97,1.12-1.59,2.01-1.59.15,0,.25.01.38.04v1.25c-.13-.03-.27-.04-.45-.04-.93,0-1.59.71-1.77,1.7-.03.18-.06.39-.06.61v3.87h-1.31v-5Z"/>
        <path d="m57.98,11.16c0,2.68-1.86,3.85-3.62,3.85-1.96,0-3.48-1.44-3.48-3.74,0-2.43,1.59-3.85,3.6-3.85s3.5,1.51,3.5,3.74Zm-5.76.07c0,1.59.92,2.79,2.2,2.79s2.21-1.18,2.21-2.82c0-1.23-.61-2.79-2.17-2.79s-2.23,1.44-2.23,2.82Z"/>
        <path d="m60.06,7.59l.96,3.69c.21.81.41,1.56.54,2.31h.04c.17-.74.41-1.51.64-2.29l1.19-3.71h1.11l1.12,3.63c.27.87.48,1.63.65,2.37h.04c.12-.74.31-1.5.55-2.36l1.04-3.64h1.3l-2.34,7.26h-1.2l-1.11-3.46c-.25-.81-.46-1.53-.65-2.38h-.03c-.18.87-.41,1.62-.66,2.4l-1.17,3.45h-1.2l-2.19-7.26h1.35Z"/>
        <path d="m72.17,5.5v2.08h1.89v1h-1.89v3.92c0,.9.25,1.41.99,1.41.34,0,.6-.04.76-.09l.06.99c-.25.11-.66.18-1.17.18-.62,0-1.11-.2-1.42-.56-.38-.39-.51-1.03-.51-1.89v-3.96h-1.12v-1h1.12v-1.74l1.29-.34Z"/>
        <path d="m75.54,4.2h1.32v4.53h.03c.21-.38.54-.71.94-.93.39-.22.86-.38,1.35-.38.97,0,2.53.6,2.53,3.1v4.32h-1.32v-4.17c0-1.17-.44-2.16-1.68-2.16-.85,0-1.53.6-1.77,1.32-.08.18-.09.38-.09.63v4.38h-1.32V4.2Z"/>
        <path d="m98.18,11.16c0,2.68-1.86,3.85-3.62,3.85-1.96,0-3.48-1.44-3.48-3.74,0-2.43,1.59-3.85,3.6-3.85s3.5,1.51,3.5,3.74Zm-5.76.07c0,1.59.92,2.79,2.2,2.79s2.21-1.18,2.21-2.82c0-1.23-.61-2.79-2.17-2.79s-2.23,1.44-2.23,2.82Z"/>
        <path d="m99.98,14.85v-6.25h-1.02v-1h1.02v-.34c0-1.02.23-1.95.84-2.54.49-.48,1.15-.67,1.77-.67.46,0,.87.1,1.12.21l-.18,1.02c-.2-.09-.46-.17-.84-.17-1.12,0-1.41.99-1.41,2.1v.39h1.75v1h-1.75v6.25h-1.31Z"/>
        <path d="m118.23,7.59c-.03.53-.06,1.11-.06,2v4.21c0,1.67-.33,2.68-1.04,3.31-.71.66-1.72.87-2.64.87s-1.83-.21-2.42-.6l.33-1c.48.3,1.23.57,2.13.57,1.35,0,2.34-.71,2.34-2.53v-.81h-.03c-.41.67-1.18,1.21-2.31,1.21-1.8,0-3.09-1.53-3.09-3.54,0-2.46,1.6-3.85,3.27-3.85,1.26,0,1.95.66,2.26,1.26h.03l.06-1.09h1.16Zm-1.37,2.87c0-.23-.01-.42-.07-.6-.24-.76-.89-1.39-1.85-1.39-1.26,0-2.16,1.06-2.16,2.75,0,1.42.72,2.61,2.14,2.61.81,0,1.54-.51,1.83-1.35.08-.23.1-.48.1-.71v-1.3Z"/>
        <path d="m120.36,4.2h1.32v10.65h-1.32V4.2Z"/>
        <path d="m130.47,11.16c0,2.68-1.86,3.85-3.62,3.85-1.96,0-3.48-1.44-3.48-3.74,0-2.43,1.59-3.85,3.6-3.85s3.5,1.51,3.5,3.74Zm-5.76.07c0,1.59.92,2.79,2.2,2.79s2.21-1.18,2.21-2.82c0-1.23-.61-2.79-2.17-2.79s-2.23,1.44-2.23,2.82Z"/>
        <path d="m132.07,14.85c.03-.5.06-1.23.06-1.88V4.2h1.31v4.56h.03c.46-.81,1.3-1.33,2.48-1.33,1.8,0,3.07,1.5,3.06,3.71,0,2.59-1.63,3.88-3.25,3.88-1.05,0-1.89-.41-2.43-1.37h-.04l-.06,1.2h-1.14Zm1.37-2.91c0,.17.03.33.06.48.25.92,1.02,1.54,1.98,1.54,1.38,0,2.21-1.12,2.21-2.79,0-1.46-.75-2.7-2.16-2.7-.9,0-1.74.62-2.01,1.62-.03.15-.07.33-.07.54v1.3Z"/>
        <path d="m144.69,14.85l-.11-.92h-.04c-.41.57-1.18,1.08-2.22,1.08-1.47,0-2.22-1.04-2.22-2.08,0-1.75,1.56-2.71,4.36-2.7v-.15c0-.6-.17-1.68-1.65-1.68-.68,0-1.38.21-1.89.54l-.3-.87c.6-.39,1.47-.65,2.38-.65,2.22,0,2.76,1.51,2.76,2.97v2.71c0,.63.03,1.25.12,1.74h-1.2Zm-.2-3.71c-1.44-.03-3.08.23-3.08,1.63,0,.86.57,1.26,1.25,1.26.95,0,1.54-.6,1.75-1.22.04-.13.08-.28.08-.42v-1.26Z"/>
        <path d="m147.9,4.2h1.32v10.65h-1.32V4.2Z"/>
        <path d="m164.36,14.58c-.34.18-1.11.42-2.08.42-2.19,0-3.61-1.49-3.61-3.71s1.53-3.86,3.9-3.86c.78,0,1.47.2,1.83.38l-.3,1.02c-.32-.18-.81-.34-1.53-.34-1.67,0-2.56,1.23-2.56,2.74,0,1.68,1.08,2.71,2.52,2.71.75,0,1.25-.19,1.62-.36l.22.99Z"/>
        <path d="m172.38,11.16c0,2.68-1.86,3.85-3.62,3.85-1.96,0-3.48-1.44-3.48-3.74,0-2.43,1.59-3.85,3.6-3.85s3.5,1.51,3.5,3.74Zm-5.76.07c0,1.59.92,2.79,2.2,2.79s2.21-1.18,2.21-2.82c0-1.23-.61-2.79-2.17-2.79s-2.23,1.44-2.23,2.82Z"/>
        <path d="m174.05,9.55c0-.75-.01-1.37-.06-1.96h1.17l.08,1.2h.03c.36-.69,1.2-1.37,2.4-1.37,1,0,2.56.6,2.56,3.09v4.33h-1.32v-4.18c0-1.17-.44-2.15-1.68-2.15-.87,0-1.54.62-1.77,1.35-.06.17-.09.39-.09.61v4.37h-1.32v-5.29Z"/>
        <path d="m183.9,5.5v2.08h1.89v1h-1.89v3.92c0,.9.25,1.41.99,1.41.34,0,.6-.04.76-.09l.06.99c-.25.11-.66.18-1.17.18-.62,0-1.11-.2-1.42-.56-.38-.39-.51-1.03-.51-1.89v-3.96h-1.12v-1h1.12v-1.74l1.29-.34Z"/>
        <path d="m191.3,14.85l-.11-.92h-.04c-.41.57-1.18,1.08-2.22,1.08-1.47,0-2.22-1.04-2.22-2.08,0-1.75,1.56-2.71,4.36-2.7v-.15c0-.6-.17-1.68-1.65-1.68-.68,0-1.38.21-1.89.54l-.3-.87c.6-.39,1.47-.65,2.38-.65,2.22,0,2.76,1.51,2.76,2.97v2.71c0,.63.03,1.25.12,1.74h-1.2Zm-.2-3.71c-1.44-.03-3.08.23-3.08,1.63,0,.86.57,1.26,1.25,1.26.95,0,1.54-.6,1.75-1.22.04-.13.08-.28.08-.42v-1.26Z"/>
        <path d="m195.97,5.55c.02.45-.31.81-.84.81-.46,0-.79-.36-.79-.81s.35-.83.83-.83.81.36.81.83Zm-1.47,9.3v-7.26h1.32v7.26h-1.32Z"/>
        <path d="m198.01,9.55c0-.75-.01-1.37-.06-1.96h1.17l.08,1.2h.03c.36-.69,1.2-1.37,2.4-1.37,1,0,2.56.6,2.56,3.09v4.33h-1.32v-4.18c0-1.17-.44-2.15-1.68-2.15-.87,0-1.54.62-1.77,1.35-.06.17-.09.39-.09.61v4.37h-1.32v-5.29Z"/>
        <path d="m207.08,11.46c.03,1.79,1.17,2.52,2.49,2.52.94,0,1.51-.17,2.01-.38l.22.95c-.46.21-1.26.45-2.42.45-2.23,0-3.57-1.47-3.57-3.66s1.29-3.92,3.4-3.92c2.37,0,3,2.08,3,3.42,0,.27-.03.48-.04.62h-5.1Zm3.87-.95c.01-.84-.35-2.14-1.83-2.14-1.33,0-1.92,1.23-2.03,2.14h3.86Z"/>
        <path d="m213.85,9.85c0-.85-.01-1.59-.06-2.26h1.15l.05,1.42h.06c.33-.97,1.12-1.59,2.01-1.59.15,0,.25.01.38.04v1.25c-.13-.03-.27-.04-.45-.04-.93,0-1.59.71-1.77,1.7-.03.18-.06.39-.06.61v3.87h-1.3v-5Z"/>
        <path d="m9.01,23.5v2.08h1.89v1h-1.89v3.92c0,.9.25,1.41.99,1.41.34,0,.6-.04.76-.09l.06.99c-.25.11-.66.18-1.17.18-.62,0-1.11-.2-1.42-.56-.38-.39-.51-1.03-.51-1.89v-3.96h-1.12v-1h1.12v-1.74l1.29-.34Z"/>
        <path d="m12.39,27.85c0-.85-.01-1.59-.06-2.26h1.15l.05,1.42h.06c.33-.97,1.12-1.59,2.01-1.59.15,0,.25.01.38.04v1.25c-.13-.03-.27-.04-.45-.04-.93,0-1.59.71-1.77,1.7-.03.18-.06.39-.06.61v3.87h-1.31v-5Z"/>
        <path d="m21.24,32.85l-.11-.92h-.04c-.41.57-1.18,1.08-2.22,1.08-1.47,0-2.22-1.04-2.22-2.08,0-1.75,1.56-2.71,4.36-2.7v-.15c0-.6-.17-1.68-1.65-1.68-.68,0-1.38.21-1.89.54l-.3-.87c.6-.39,1.47-.65,2.38-.65,2.22,0,2.76,1.51,2.76,2.97v2.71c0,.63.03,1.25.12,1.74h-1.2Zm-.2-3.71c-1.44-.03-3.08.23-3.08,1.63,0,.86.57,1.26,1.25,1.26.95,0,1.54-.6,1.75-1.22.04-.13.08-.28.08-.42v-1.26Z"/>
        <path d="m30.71,22.2v8.77c0,.65.02,1.38.06,1.88h-1.19l-.06-1.26h-.03c-.4.81-1.29,1.42-2.47,1.42-1.75,0-3.1-1.49-3.1-3.69-.02-2.42,1.48-3.9,3.25-3.9,1.11,0,1.86.53,2.19,1.11h.03v-4.33h1.32Zm-1.32,6.34c0-.17-.02-.39-.06-.55-.19-.84-.92-1.53-1.9-1.53-1.37,0-2.17,1.2-2.17,2.8,0,1.47.72,2.68,2.14,2.68.88,0,1.7-.58,1.93-1.57.04-.18.06-.36.06-.57v-1.26Z"/>
        <path d="m33.64,29.46c.03,1.79,1.17,2.52,2.49,2.52.94,0,1.51-.17,2.01-.38l.22.95c-.46.21-1.26.45-2.42.45-2.23,0-3.57-1.47-3.57-3.66s1.29-3.92,3.4-3.92c2.37,0,3,2.08,3,3.42,0,.27-.03.48-.04.62h-5.1Zm3.87-.95c.01-.84-.35-2.14-1.83-2.14-1.33,0-1.92,1.23-2.03,2.14h3.86Z"/>
        <path d="m39.93,32.07c0-.55.38-.94.9-.94s.88.39.88.94-.34.95-.9.95c-.53,0-.88-.41-.88-.95Z"/>
        <path d="m47.69,23.85h-3.07v-1.11h7.48v1.11h-3.09v9h-1.32v-9Z"/>
        <path d="m53.08,22.2h1.32v4.53h.03c.21-.38.54-.71.94-.93.39-.22.86-.38,1.35-.38.97,0,2.53.6,2.53,3.1v4.32h-1.32v-4.17c0-1.17-.44-2.16-1.68-2.16-.85,0-1.53.6-1.77,1.32-.08.18-.09.38-.09.63v4.38h-1.32v-10.65Z"/>
        <path d="m62.14,29.46c.03,1.79,1.17,2.52,2.49,2.52.95,0,1.52-.17,2.01-.38l.22.95c-.46.21-1.26.45-2.42.45-2.23,0-3.57-1.47-3.57-3.66s1.29-3.92,3.4-3.92c2.37,0,3,2.08,3,3.42,0,.27-.03.48-.04.62h-5.1Zm3.87-.95c.01-.84-.35-2.14-1.83-2.14-1.33,0-1.92,1.23-2.03,2.14h3.86Z"/>
        <path d="m75.9,32.85l-.11-.92h-.04c-.41.57-1.18,1.08-2.22,1.08-1.47,0-2.22-1.04-2.22-2.08,0-1.75,1.56-2.71,4.36-2.7v-.15c0-.6-.17-1.68-1.65-1.68-.68,0-1.38.21-1.89.54l-.3-.87c.6-.39,1.47-.65,2.38-.65,2.22,0,2.76,1.51,2.76,2.97v2.71c0,.63.03,1.25.12,1.74h-1.2Zm-.2-3.71c-1.44-.03-3.08.23-3.08,1.63,0,.86.57,1.26,1.25,1.26.95,0,1.54-.6,1.75-1.22.04-.13.08-.28.08-.42v-1.26Z"/>
        <path d="m79.1,27.55c0-.75-.01-1.37-.06-1.96h1.17l.08,1.2h.03c.36-.69,1.2-1.37,2.4-1.37,1,0,2.56.6,2.56,3.09v4.33h-1.32v-4.18c0-1.17-.44-2.15-1.68-2.15-.87,0-1.54.62-1.77,1.35-.06.17-.09.39-.09.61v4.37h-1.32v-5.29Z"/>
        <path d="m87.43,27.55c0-.75-.01-1.37-.06-1.96h1.17l.08,1.2h.03c.36-.69,1.2-1.37,2.4-1.37,1,0,2.56.6,2.56,3.09v4.33h-1.32v-4.18c0-1.17-.44-2.15-1.68-2.15-.87,0-1.54.62-1.77,1.35-.06.17-.09.39-.09.61v4.37h-1.32v-5.29Z"/>
        <path d="m101.83,30.87c0,.75.01,1.41.06,1.98h-1.17l-.08-1.18h-.03c-.35.58-1.11,1.35-2.4,1.35-1.14,0-2.5-.63-2.5-3.18v-4.25h1.32v4.02c0,1.38.42,2.31,1.62,2.31.88,0,1.5-.62,1.74-1.2.08-.2.12-.43.12-.67v-4.46h1.32v5.28Z"/>
        <path d="m108.04,32.85l-.11-.92h-.04c-.41.57-1.18,1.08-2.22,1.08-1.47,0-2.22-1.04-2.22-2.08,0-1.75,1.56-2.71,4.36-2.7v-.15c0-.6-.17-1.68-1.65-1.68-.68,0-1.38.21-1.89.54l-.3-.87c.6-.39,1.47-.65,2.38-.65,2.22,0,2.76,1.51,2.76,2.97v2.71c0,.63.03,1.25.12,1.74h-1.2Zm-.2-3.71c-1.44-.03-3.08.23-3.08,1.63,0,.86.57,1.26,1.25,1.26.95,0,1.54-.6,1.75-1.22.04-.13.08-.28.08-.42v-1.26Z"/>
        <path d="m111.25,22.2h1.32v10.65h-1.32v-10.65Z"/>
        <path d="m118.26,25.59l1.43,4.08c.24.66.43,1.26.58,1.86h.04c.17-.6.38-1.2.61-1.86l1.41-4.08h1.38l-2.85,7.26h-1.26l-2.76-7.26h1.41Z"/>
        <path d="m131.38,29.16c0,2.68-1.86,3.85-3.62,3.85-1.96,0-3.48-1.44-3.48-3.74,0-2.43,1.59-3.85,3.6-3.85s3.5,1.51,3.5,3.74Zm-5.76.07c0,1.59.92,2.79,2.2,2.79s2.21-1.18,2.21-2.82c0-1.23-.61-2.79-2.17-2.79s-2.23,1.44-2.23,2.82Z"/>
        <path d="m133.05,22.2h1.32v10.65h-1.32v-10.65Z"/>
        <path d="m142.66,30.87c0,.75.01,1.41.06,1.98h-1.17l-.08-1.18h-.03c-.35.58-1.11,1.35-2.4,1.35-1.14,0-2.5-.63-2.5-3.18v-4.25h1.32v4.02c0,1.38.42,2.31,1.62,2.31.88,0,1.5-.62,1.74-1.2.08-.2.12-.43.12-.67v-4.46h1.32v5.28Z"/>
        <path d="m144.85,27.55c0-.75-.01-1.37-.06-1.96h1.15l.06,1.17h.04c.41-.69,1.08-1.33,2.28-1.33.99,0,1.74.6,2.05,1.46h.03c.22-.41.51-.72.81-.95.43-.33.92-.51,1.6-.51.96,0,2.39.63,2.39,3.15v4.27h-1.29v-4.11c0-1.4-.51-2.24-1.58-2.24-.75,0-1.33.55-1.56,1.2-.06.18-.11.42-.11.66v4.48h-1.29v-4.35c0-1.16-.51-2-1.51-2-.83,0-1.42.66-1.63,1.32-.08.19-.11.42-.11.64v4.38h-1.29v-5.29Z"/>
        <path d="m158.1,29.46c.03,1.79,1.17,2.52,2.49,2.52.95,0,1.52-.17,2.01-.38l.22.95c-.46.21-1.26.45-2.42.45-2.23,0-3.57-1.47-3.57-3.66s1.29-3.92,3.4-3.92c2.37,0,3,2.08,3,3.42,0,.27-.03.48-.04.62h-5.1Zm3.87-.95c.01-.84-.35-2.14-1.83-2.14-1.33,0-1.92,1.23-2.03,2.14h3.86Z"/>
        <path d="m174.4,29.16c0,2.68-1.86,3.85-3.62,3.85-1.96,0-3.48-1.44-3.48-3.74,0-2.43,1.59-3.85,3.6-3.85s3.5,1.51,3.5,3.74Zm-5.76.07c0,1.59.92,2.79,2.2,2.79s2.21-1.18,2.21-2.82c0-1.23-.61-2.79-2.17-2.79s-2.23,1.44-2.23,2.82Z"/>
        <path d="m176.2,32.85v-6.25h-1.02v-1h1.02v-.34c0-1.02.23-1.95.84-2.54.49-.48,1.15-.67,1.77-.67.46,0,.87.1,1.12.21l-.18,1.02c-.2-.09-.46-.17-.84-.17-1.12,0-1.41.99-1.41,2.1v.39h1.75v1h-1.75v6.25h-1.31Z"/>
        <path d="m188.58,32.58c-.34.18-1.11.42-2.08.42-2.19,0-3.61-1.49-3.61-3.71s1.53-3.86,3.9-3.86c.78,0,1.47.2,1.83.38l-.3,1.02c-.32-.18-.81-.34-1.53-.34-1.67,0-2.56,1.23-2.56,2.74,0,1.68,1.08,2.71,2.52,2.71.75,0,1.25-.19,1.62-.36l.22.99Z"/>
        <path d="m194.14,32.85l-.11-.92h-.04c-.41.57-1.18,1.08-2.22,1.08-1.47,0-2.22-1.04-2.22-2.08,0-1.75,1.56-2.71,4.36-2.7v-.15c0-.6-.17-1.68-1.65-1.68-.68,0-1.38.21-1.89.54l-.3-.87c.6-.39,1.47-.65,2.38-.65,2.22,0,2.76,1.51,2.76,2.97v2.71c0,.63.03,1.25.12,1.74h-1.2Zm-.2-3.71c-1.44-.03-3.08.23-3.08,1.63,0,.86.57,1.26,1.25,1.26.95,0,1.54-.6,1.75-1.22.04-.13.08-.28.08-.42v-1.26Z"/>
        <path d="m197.35,27.85c0-.85-.01-1.59-.06-2.26h1.15l.05,1.42h.06c.33-.97,1.12-1.59,2.01-1.59.15,0,.25.01.38.04v1.25c-.13-.03-.27-.04-.45-.04-.93,0-1.59.71-1.77,1.7-.03.18-.06.39-.06.61v3.87h-1.3v-5Z"/>
        <path d="m208.39,25.59c-.03.53-.06,1.11-.06,2v4.21c0,1.67-.33,2.68-1.04,3.31-.71.66-1.72.87-2.64.87s-1.83-.21-2.42-.6l.33-1c.48.3,1.23.57,2.13.57,1.35,0,2.34-.71,2.34-2.53v-.81h-.03c-.41.67-1.18,1.21-2.31,1.21-1.8,0-3.09-1.53-3.09-3.54,0-2.46,1.6-3.85,3.27-3.85,1.26,0,1.95.66,2.26,1.26h.03l.06-1.09h1.16Zm-1.37,2.87c0-.23-.01-.42-.07-.6-.24-.76-.89-1.39-1.85-1.39-1.26,0-2.16,1.06-2.16,2.75,0,1.42.72,2.61,2.14,2.61.81,0,1.54-.51,1.83-1.35.08-.23.1-.48.1-.71v-1.3Z"/>
        <path d="m217.09,29.16c0,2.68-1.86,3.85-3.62,3.85-1.96,0-3.48-1.44-3.48-3.74,0-2.43,1.59-3.85,3.6-3.85s3.5,1.51,3.5,3.74Zm-5.76.07c0,1.59.92,2.79,2.2,2.79s2.21-1.18,2.21-2.82c0-1.23-.61-2.79-2.17-2.79s-2.23,1.44-2.23,2.82Z"/>
        <path d="m9.01,41.5v2.08h1.89v1h-1.89v3.92c0,.9.25,1.41.99,1.41.34,0,.6-.04.76-.09l.06.99c-.25.11-.66.18-1.17.18-.62,0-1.11-.2-1.42-.56-.38-.39-.51-1.03-.51-1.89v-3.96h-1.12v-1h1.12v-1.74l1.29-.34Z"/>
        <path d="m12.39,45.85c0-.85-.01-1.59-.06-2.26h1.15l.05,1.42h.06c.33-.97,1.12-1.59,2.01-1.59.15,0,.25.01.38.04v1.25c-.13-.03-.27-.04-.45-.04-.93,0-1.59.71-1.77,1.7-.03.18-.06.39-.06.61v3.87h-1.31v-5Z"/>
        <path d="m21.24,50.85l-.11-.92h-.04c-.41.57-1.18,1.08-2.22,1.08-1.47,0-2.22-1.04-2.22-2.08,0-1.75,1.56-2.71,4.36-2.7v-.15c0-.6-.17-1.68-1.65-1.68-.68,0-1.38.21-1.89.54l-.3-.87c.6-.39,1.47-.65,2.38-.65,2.22,0,2.76,1.51,2.76,2.97v2.71c0,.63.03,1.25.12,1.74h-1.2Zm-.2-3.71c-1.44-.03-3.08.23-3.08,1.63,0,.86.57,1.26,1.25,1.26.95,0,1.54-.6,1.75-1.22.04-.13.08-.28.08-.42v-1.26Z"/>
        <path d="m24.44,45.55c0-.75-.01-1.37-.06-1.96h1.17l.08,1.2h.03c.36-.69,1.2-1.37,2.4-1.37,1,0,2.56.6,2.56,3.09v4.33h-1.32v-4.18c0-1.17-.44-2.15-1.68-2.15-.87,0-1.54.62-1.77,1.35-.06.17-.09.39-.09.61v4.37h-1.32v-5.29Z"/>
        <path d="m32.59,49.5c.39.25,1.08.52,1.74.52.96,0,1.41-.48,1.41-1.08s-.38-.97-1.35-1.33c-1.3-.46-1.92-1.18-1.92-2.05,0-1.17.95-2.13,2.5-2.13.74,0,1.38.21,1.79.45l-.33.96c-.29-.18-.81-.42-1.49-.42-.78,0-1.21.45-1.21.99,0,.6.44.87,1.38,1.23,1.26.48,1.91,1.11,1.91,2.19,0,1.28-.99,2.18-2.71,2.18-.79,0-1.53-.2-2.04-.5l.33-1Z"/>
        <path d="m38.71,45.96c0-.93-.03-1.68-.06-2.37h1.18l.06,1.25h.03c.54-.88,1.4-1.41,2.58-1.41,1.75,0,3.08,1.49,3.08,3.69,0,2.61-1.59,3.9-3.3,3.9-.96,0-1.8-.42-2.24-1.14h-.03v3.94h-1.3v-7.86Zm1.3,1.93c0,.2.03.38.06.54.24.92,1.04,1.54,1.98,1.54,1.4,0,2.21-1.14,2.21-2.8,0-1.46-.76-2.7-2.16-2.7-.9,0-1.74.65-1.99,1.63-.04.17-.09.36-.09.54v1.25Z"/>
        <path d="m53.82,47.16c0,2.68-1.86,3.85-3.62,3.85-1.96,0-3.48-1.44-3.48-3.74,0-2.43,1.59-3.85,3.6-3.85s3.5,1.51,3.5,3.74Zm-5.76.07c0,1.59.92,2.79,2.2,2.79s2.21-1.18,2.21-2.82c0-1.23-.61-2.79-2.17-2.79s-2.23,1.44-2.23,2.82Z"/>
        <path d="m55.48,45.85c0-.85-.01-1.59-.06-2.26h1.15l.05,1.42h.06c.33-.97,1.12-1.59,2.01-1.59.15,0,.25.01.38.04v1.25c-.13-.03-.27-.04-.45-.04-.93,0-1.59.71-1.77,1.7-.03.18-.06.39-.06.61v3.87h-1.31v-5Z"/>
        <path d="m62.34,41.5v2.08h1.89v1h-1.89v3.92c0,.9.25,1.41.99,1.41.34,0,.6-.04.76-.09l.06.99c-.25.11-.66.18-1.17.18-.62,0-1.11-.2-1.42-.56-.38-.39-.51-1.03-.51-1.89v-3.96h-1.12v-1h1.12v-1.74l1.29-.34Z"/>
        <path d="m69.73,50.85l-.11-.92h-.04c-.41.57-1.18,1.08-2.22,1.08-1.47,0-2.22-1.04-2.22-2.08,0-1.75,1.56-2.71,4.36-2.7v-.15c0-.6-.17-1.68-1.65-1.68-.68,0-1.38.21-1.89.54l-.3-.87c.6-.39,1.47-.65,2.38-.65,2.22,0,2.76,1.51,2.76,2.97v2.71c0,.63.03,1.25.12,1.74h-1.2Zm-.2-3.71c-1.44-.03-3.08.23-3.08,1.63,0,.86.57,1.26,1.25,1.26.95,0,1.54-.6,1.75-1.22.04-.13.08-.28.08-.42v-1.26Z"/>
        <path d="m74.47,41.5v2.08h1.89v1h-1.89v3.92c0,.9.25,1.41.99,1.41.34,0,.6-.04.76-.09l.06.99c-.25.11-.66.18-1.17.18-.62,0-1.11-.2-1.42-.56-.38-.39-.51-1.03-.51-1.89v-3.96h-1.12v-1h1.12v-1.74l1.29-.34Z"/>
        <path d="m79.31,41.55c.02.45-.31.81-.84.81-.46,0-.79-.36-.79-.81s.35-.83.83-.83.81.36.81.83Zm-1.47,9.3v-7.26h1.32v7.26h-1.32Z"/>
        <path d="m87.93,47.16c0,2.68-1.86,3.85-3.62,3.85-1.96,0-3.48-1.44-3.48-3.74,0-2.43,1.59-3.85,3.6-3.85s3.5,1.51,3.5,3.74Zm-5.76.07c0,1.59.92,2.79,2.2,2.79s2.21-1.18,2.21-2.82c0-1.23-.61-2.79-2.17-2.79s-2.23,1.44-2.23,2.82Z"/>
        <path d="m89.59,45.55c0-.75-.01-1.37-.06-1.96h1.17l.08,1.2h.03c.36-.69,1.2-1.37,2.4-1.37,1,0,2.56.6,2.56,3.09v4.33h-1.32v-4.18c0-1.17-.44-2.15-1.68-2.15-.87,0-1.54.62-1.77,1.35-.06.17-.09.39-.09.61v4.37h-1.32v-5.29Z"/>
        <path d="m117.77,50.85c.03-.5.06-1.23.06-1.88v-8.77h1.3v4.56h.03c.46-.81,1.3-1.33,2.48-1.33,1.8,0,3.07,1.5,3.06,3.71,0,2.59-1.63,3.88-3.25,3.88-1.05,0-1.89-.41-2.43-1.37h-.04l-.06,1.2h-1.14Zm1.36-2.91c0,.17.03.33.06.48.25.92,1.02,1.54,1.98,1.54,1.38,0,2.21-1.12,2.21-2.79,0-1.46-.75-2.7-2.16-2.7-.9,0-1.74.62-2.01,1.62-.03.15-.08.33-.08.54v1.3Z"/>
        <path d="m126.74,43.59l1.59,4.29c.17.48.34,1.05.46,1.48h.03c.13-.43.29-.99.46-1.51l1.44-4.26h1.4l-1.98,5.17c-.94,2.49-1.59,3.76-2.49,4.54-.65.57-1.29.79-1.62.85l-.33-1.11c.33-.11.76-.32,1.16-.65.36-.28.81-.79,1.11-1.47.06-.13.11-.24.11-.31s-.03-.18-.09-.35l-2.69-6.69h1.44Z"/>
        <path d="m158.41,50.58c-.34.18-1.11.42-2.08.42-2.19,0-3.61-1.49-3.61-3.71s1.53-3.86,3.9-3.86c.78,0,1.47.2,1.83.38l-.3,1.02c-.32-.18-.81-.34-1.53-.34-1.67,0-2.56,1.23-2.56,2.74,0,1.68,1.08,2.71,2.52,2.71.75,0,1.25-.19,1.62-.36l.22.99Z"/>
        <path d="m166.44,47.16c0,2.68-1.86,3.85-3.62,3.85-1.96,0-3.48-1.44-3.48-3.74,0-2.43,1.59-3.85,3.6-3.85s3.5,1.51,3.5,3.74Zm-5.76.07c0,1.59.92,2.79,2.2,2.79s2.21-1.18,2.21-2.82c0-1.23-.61-2.79-2.17-2.79s-2.23,1.44-2.23,2.82Z"/>
        <path d="m168.1,45.55c0-.75-.01-1.37-.06-1.96h1.17l.08,1.2h.03c.36-.69,1.2-1.37,2.4-1.37,1,0,2.56.6,2.56,3.09v4.33h-1.32v-4.18c0-1.17-.44-2.15-1.68-2.15-.87,0-1.54.62-1.77,1.35-.06.17-.09.39-.09.61v4.37h-1.32v-5.29Z"/>
        <path d="m177.96,41.5v2.08h1.89v1h-1.89v3.92c0,.9.25,1.41.99,1.41.34,0,.6-.04.76-.09l.06.99c-.25.11-.66.18-1.17.18-.62,0-1.11-.2-1.42-.56-.38-.39-.51-1.03-.51-1.89v-3.96h-1.12v-1h1.12v-1.74l1.29-.34Z"/>
        <path d="m185.36,50.85l-.11-.92h-.04c-.41.57-1.18,1.08-2.22,1.08-1.47,0-2.22-1.04-2.22-2.08,0-1.75,1.56-2.71,4.36-2.7v-.15c0-.6-.17-1.68-1.65-1.68-.68,0-1.38.21-1.89.54l-.3-.87c.6-.39,1.47-.65,2.38-.65,2.22,0,2.76,1.51,2.76,2.97v2.71c0,.63.03,1.25.12,1.74h-1.2Zm-.2-3.71c-1.44-.03-3.08.23-3.08,1.63,0,.86.57,1.26,1.25,1.26.95,0,1.54-.6,1.75-1.22.04-.13.08-.28.08-.42v-1.26Z"/>
        <path d="m190.03,41.55c.02.45-.31.81-.84.81-.46,0-.79-.36-.79-.81s.35-.83.83-.83.81.36.81.83Zm-1.47,9.3v-7.26h1.32v7.26h-1.32Z"/>
        <path d="m192.07,45.55c0-.75-.01-1.37-.06-1.96h1.17l.08,1.2h.03c.36-.69,1.2-1.37,2.4-1.37,1,0,2.56.6,2.56,3.09v4.33h-1.32v-4.18c0-1.17-.44-2.15-1.68-2.15-.87,0-1.54.62-1.77,1.35-.06.17-.09.39-.09.61v4.37h-1.32v-5.29Z"/>
        <path d="m201.14,47.46c.03,1.79,1.17,2.52,2.49,2.52.95,0,1.52-.17,2.01-.38l.22.95c-.46.21-1.26.45-2.42.45-2.23,0-3.57-1.47-3.57-3.66s1.29-3.92,3.4-3.92c2.37,0,3,2.08,3,3.42,0,.27-.03.48-.04.62h-5.1Zm3.87-.95c.01-.84-.35-2.14-1.83-2.14-1.33,0-1.92,1.23-2.03,2.14h3.86Z"/>
        <path d="m207.91,45.85c0-.85-.01-1.59-.06-2.26h1.15l.05,1.42h.06c.33-.97,1.12-1.59,2.01-1.59.15,0,.25.01.38.04v1.25c-.13-.03-.27-.04-.45-.04-.93,0-1.59.71-1.77,1.7-.03.18-.06.39-.06.61v3.87h-1.31v-5Z"/>
        <path d="m212.64,49.5c.39.25,1.08.52,1.74.52.96,0,1.41-.48,1.41-1.08s-.38-.97-1.35-1.33c-1.3-.46-1.92-1.18-1.92-2.05,0-1.17.95-2.13,2.5-2.13.74,0,1.38.21,1.79.45l-.33.96c-.29-.18-.81-.42-1.49-.42-.78,0-1.21.45-1.21.99,0,.6.44.87,1.38,1.23,1.26.48,1.91,1.11,1.91,2.19,0,1.28-.99,2.18-2.71,2.18-.79,0-1.53-.2-2.04-.5l.33-1Z"/>
        <path d="m11.44,68.85l-.11-.92h-.04c-.41.57-1.18,1.08-2.22,1.08-1.47,0-2.22-1.04-2.22-2.08,0-1.75,1.56-2.71,4.36-2.7v-.15c0-.6-.17-1.68-1.65-1.68-.68,0-1.38.21-1.89.54l-.3-.87c.6-.39,1.47-.65,2.38-.65,2.22,0,2.76,1.51,2.76,2.97v2.71c0,.63.03,1.25.12,1.74h-1.2Zm-.2-3.71c-1.44-.03-3.08.23-3.08,1.63,0,.86.57,1.26,1.25,1.26.95,0,1.54-.6,1.75-1.22.04-.13.08-.28.08-.42v-1.26Z"/>
        <path d="m14.65,63.55c0-.75-.01-1.37-.06-1.96h1.15l.06,1.17h.04c.41-.69,1.08-1.33,2.28-1.33.99,0,1.74.6,2.05,1.46h.03c.22-.41.51-.72.81-.95.43-.33.92-.51,1.6-.51.96,0,2.39.63,2.39,3.15v4.27h-1.29v-4.11c0-1.4-.51-2.24-1.58-2.24-.75,0-1.33.55-1.56,1.2-.06.18-.11.42-.11.66v4.48h-1.29v-4.35c0-1.16-.51-2-1.51-2-.83,0-1.42.66-1.63,1.32-.08.19-.11.42-.11.64v4.38h-1.29v-5.29Z"/>
        <path d="m33.73,65.16c0,2.68-1.86,3.85-3.62,3.85-1.96,0-3.48-1.44-3.48-3.74,0-2.43,1.59-3.85,3.6-3.85s3.5,1.51,3.5,3.74Zm-5.76.07c0,1.59.92,2.79,2.2,2.79s2.21-1.18,2.21-2.82c0-1.23-.61-2.79-2.17-2.79s-2.23,1.44-2.23,2.82Z"/>
        <path d="m41.47,66.87c0,.75.01,1.41.06,1.98h-1.17l-.08-1.18h-.03c-.35.58-1.11,1.35-2.4,1.35-1.14,0-2.5-.63-2.5-3.18v-4.25h1.32v4.02c0,1.38.42,2.31,1.62,2.31.88,0,1.5-.62,1.74-1.2.08-.2.12-.43.12-.67v-4.46h1.32v5.28Z"/>
        <path d="m43.66,63.55c0-.75-.01-1.37-.06-1.96h1.17l.08,1.2h.03c.36-.69,1.2-1.37,2.4-1.37,1,0,2.56.6,2.56,3.09v4.33h-1.32v-4.18c0-1.17-.44-2.15-1.68-2.15-.87,0-1.54.62-1.77,1.35-.06.17-.09.39-.09.61v4.37h-1.32v-5.29Z"/>
        <path d="m53.51,59.5v2.08h1.89v1h-1.89v3.92c0,.9.25,1.41.99,1.41.34,0,.6-.04.76-.09l.06.99c-.25.11-.66.18-1.17.18-.62,0-1.11-.2-1.42-.56-.38-.39-.51-1.03-.51-1.89v-3.96h-1.12v-1h1.12v-1.74l1.29-.34Z"/>
        <path d="m57.53,65.46c.03,1.79,1.17,2.52,2.49,2.52.94,0,1.51-.17,2.01-.38l.22.95c-.46.21-1.26.45-2.42.45-2.23,0-3.57-1.47-3.57-3.66s1.29-3.92,3.4-3.92c2.37,0,3,2.08,3,3.42,0,.27-.03.48-.04.62h-5.1Zm3.87-.95c.01-.84-.35-2.14-1.83-2.14-1.33,0-1.92,1.23-2.03,2.14h3.86Z"/>
        <path d="m70.58,58.2v8.77c0,.65.02,1.38.06,1.88h-1.19l-.06-1.26h-.03c-.4.81-1.29,1.42-2.47,1.42-1.75,0-3.1-1.49-3.1-3.69-.02-2.42,1.48-3.9,3.25-3.9,1.11,0,1.86.53,2.19,1.11h.03v-4.33h1.32Zm-1.32,6.34c0-.17-.02-.39-.06-.55-.19-.84-.92-1.53-1.9-1.53-1.37,0-2.17,1.2-2.17,2.8,0,1.47.72,2.68,2.14,2.68.88,0,1.7-.58,1.93-1.57.04-.18.06-.36.06-.57v-1.26Z"/>
        <path d="m85.56,59.5v2.08h1.89v1h-1.89v3.92c0,.9.25,1.41.99,1.41.34,0,.6-.04.76-.09l.06.99c-.25.11-.66.18-1.17.18-.62,0-1.11-.2-1.42-.56-.38-.39-.51-1.03-.51-1.89v-3.96h-1.12v-1h1.12v-1.74l1.29-.34Z"/>
        <path d="m95.41,65.16c0,2.68-1.86,3.85-3.62,3.85-1.96,0-3.48-1.44-3.48-3.74,0-2.43,1.59-3.85,3.6-3.85s3.5,1.51,3.5,3.74Zm-5.76.07c0,1.59.92,2.79,2.2,2.79s2.21-1.18,2.21-2.82c0-1.23-.61-2.79-2.17-2.79s-2.23,1.44-2.23,2.82Z"/>
        <path d="m112.29,68.85l-.11-.92h-.04c-.41.57-1.18,1.08-2.22,1.08-1.47,0-2.22-1.04-2.22-2.08,0-1.75,1.56-2.71,4.36-2.7v-.15c0-.6-.17-1.68-1.65-1.68-.68,0-1.38.21-1.89.54l-.3-.87c.6-.39,1.47-.65,2.38-.65,2.22,0,2.76,1.51,2.76,2.97v2.71c0,.63.03,1.25.12,1.74h-1.2Zm-.2-3.71c-1.44-.03-3.08.23-3.08,1.63,0,.86.57,1.26,1.25,1.26.95,0,1.54-.6,1.75-1.22.04-.13.08-.28.08-.42v-1.26Z"/>
        <path d="m115.44,68.85c.03-.5.06-1.23.06-1.88v-8.77h1.3v4.56h.03c.46-.81,1.3-1.33,2.48-1.33,1.8,0,3.07,1.5,3.06,3.71,0,2.59-1.63,3.88-3.25,3.88-1.05,0-1.89-.41-2.43-1.37h-.04l-.06,1.2h-1.14Zm1.36-2.91c0,.17.03.33.06.48.25.92,1.02,1.54,1.98,1.54,1.38,0,2.21-1.12,2.21-2.79,0-1.46-.75-2.7-2.16-2.7-.9,0-1.74.62-2.01,1.62-.03.15-.08.33-.08.54v1.3Z"/>
        <path d="m130.61,65.16c0,2.68-1.86,3.85-3.62,3.85-1.96,0-3.48-1.44-3.48-3.74,0-2.43,1.59-3.85,3.6-3.85s3.5,1.51,3.5,3.74Zm-5.76.07c0,1.59.92,2.79,2.2,2.79s2.21-1.18,2.21-2.82c0-1.23-.61-2.79-2.17-2.79s-2.23,1.44-2.23,2.82Z"/>
        <path d="m138.35,66.87c0,.75.01,1.41.06,1.98h-1.17l-.08-1.18h-.03c-.35.58-1.11,1.35-2.4,1.35-1.14,0-2.5-.63-2.5-3.18v-4.25h1.32v4.02c0,1.38.42,2.31,1.62,2.31.88,0,1.5-.62,1.74-1.2.08-.2.12-.43.12-.67v-4.46h1.32v5.28Z"/>
        <path d="m142.13,59.5v2.08h1.89v1h-1.89v3.92c0,.9.25,1.41.99,1.41.34,0,.6-.04.76-.09l.06.99c-.25.11-.66.18-1.17.18-.62,0-1.11-.2-1.42-.56-.38-.39-.51-1.03-.51-1.89v-3.96h-1.12v-1h1.12v-1.74l1.29-.34Z"/>
        <path d="m159.14,60.33h-.03l-1.7.92-.25-1,2.13-1.14h1.12v9.75h-1.27v-8.52Z"/>
        <path d="m175.59,63.55c0-.75-.01-1.37-.06-1.96h1.15l.06,1.17h.04c.41-.69,1.08-1.33,2.28-1.33.99,0,1.74.6,2.05,1.46h.03c.22-.41.51-.72.81-.95.43-.33.92-.51,1.6-.51.96,0,2.39.63,2.39,3.15v4.27h-1.29v-4.11c0-1.4-.51-2.24-1.58-2.24-.75,0-1.33.55-1.56,1.2-.06.18-.11.42-.11.66v4.48h-1.29v-4.35c0-1.16-.51-2-1.51-2-.83,0-1.42.66-1.63,1.32-.08.19-.11.42-.11.64v4.38h-1.29v-5.29Z"/>
        <path d="m189.57,59.55c.02.45-.31.81-.84.81-.46,0-.79-.36-.79-.81s.35-.83.83-.83.81.36.81.83Zm-1.47,9.3v-7.26h1.32v7.26h-1.32Z"/>
        <path d="m191.61,58.2h1.32v10.65h-1.32v-10.65Z"/>
        <path d="m195.15,58.2h1.32v10.65h-1.32v-10.65Z"/>
        <path d="m200.16,59.55c.02.45-.31.81-.84.81-.46,0-.79-.36-.79-.81s.35-.83.83-.83.81.36.81.83Zm-1.47,9.3v-7.26h1.32v7.26h-1.32Z"/>
        <path d="m208.77,65.16c0,2.68-1.86,3.85-3.62,3.85-1.96,0-3.48-1.44-3.48-3.74,0-2.43,1.59-3.85,3.6-3.85s3.5,1.51,3.5,3.74Zm-5.76.07c0,1.59.92,2.79,2.2,2.79s2.21-1.18,2.21-2.82c0-1.23-.61-2.79-2.17-2.79s-2.23,1.44-2.23,2.82Z"/>
        <path d="m210.43,63.55c0-.75-.01-1.37-.06-1.96h1.17l.08,1.2h.03c.36-.69,1.2-1.37,2.4-1.37,1,0,2.56.6,2.56,3.09v4.33h-1.32v-4.18c0-1.17-.44-2.15-1.68-2.15-.87,0-1.54.62-1.77,1.35-.06.17-.09.39-.09.61v4.37h-1.32v-5.29Z"/>
        <path d="m12.59,86.58c-.34.18-1.11.42-2.08.42-2.19,0-3.61-1.49-3.61-3.71s1.53-3.86,3.9-3.86c.78,0,1.47.2,1.83.38l-.3,1.02c-.32-.18-.81-.34-1.53-.34-1.67,0-2.56,1.23-2.56,2.74,0,1.68,1.08,2.71,2.52,2.71.75,0,1.25-.19,1.62-.36l.22.99Z"/>
        <path d="m20.62,83.16c0,2.68-1.86,3.85-3.62,3.85-1.96,0-3.48-1.44-3.48-3.74,0-2.43,1.59-3.85,3.6-3.85s3.5,1.51,3.5,3.74Zm-5.76.07c0,1.59.92,2.79,2.2,2.79s2.21-1.18,2.21-2.82c0-1.23-.61-2.79-2.17-2.79s-2.23,1.44-2.23,2.82Z"/>
        <path d="m22.29,81.55c0-.75-.01-1.37-.06-1.96h1.17l.08,1.2h.03c.36-.69,1.2-1.37,2.4-1.37,1,0,2.56.6,2.56,3.09v4.33h-1.32v-4.18c0-1.17-.44-2.15-1.68-2.15-.87,0-1.54.62-1.77,1.35-.06.17-.09.39-.09.61v4.37h-1.32v-5.29Z"/>
        <path d="m32.14,77.5v2.08h1.89v1h-1.89v3.92c0,.9.25,1.41.99,1.41.34,0,.6-.04.76-.09l.06.99c-.25.11-.66.18-1.17.18-.62,0-1.11-.2-1.42-.56-.38-.39-.51-1.03-.51-1.89v-3.96h-1.12v-1h1.12v-1.74l1.29-.34Z"/>
        <path d="m39.54,86.85l-.11-.92h-.04c-.41.57-1.18,1.08-2.22,1.08-1.47,0-2.22-1.04-2.22-2.08,0-1.75,1.56-2.71,4.36-2.7v-.15c0-.6-.17-1.68-1.65-1.68-.68,0-1.38.21-1.89.54l-.3-.87c.6-.39,1.47-.65,2.38-.65,2.22,0,2.76,1.51,2.76,2.97v2.71c0,.63.03,1.25.12,1.74h-1.2Zm-.2-3.71c-1.44-.03-3.08.23-3.08,1.63,0,.86.57,1.26,1.25,1.26.95,0,1.54-.6,1.75-1.22.04-.13.08-.28.08-.42v-1.26Z"/>
        <path d="m44.21,77.55c.02.45-.31.81-.84.81-.46,0-.79-.36-.79-.81s.35-.83.83-.83.81.36.81.83Zm-1.47,9.3v-7.26h1.32v7.26h-1.32Z"/>
        <path d="m46.25,81.55c0-.75-.01-1.37-.06-1.96h1.17l.08,1.2h.03c.36-.69,1.2-1.37,2.4-1.37,1,0,2.56.6,2.56,3.09v4.33h-1.32v-4.18c0-1.17-.44-2.15-1.68-2.15-.87,0-1.54.62-1.77,1.35-.06.17-.09.39-.09.61v4.37h-1.32v-5.29Z"/>
        <path d="m55.31,83.46c.03,1.79,1.17,2.52,2.49,2.52.95,0,1.52-.17,2.01-.38l.22.95c-.46.21-1.26.45-2.42.45-2.23,0-3.57-1.47-3.57-3.66s1.29-3.92,3.4-3.92c2.37,0,3,2.08,3,3.42,0,.27-.03.48-.04.62h-5.1Zm3.87-.95c.01-.84-.35-2.14-1.83-2.14-1.33,0-1.92,1.23-2.03,2.14h3.86Z"/>
        <path d="m62.09,81.85c0-.85-.01-1.59-.06-2.26h1.15l.05,1.42h.06c.33-.97,1.12-1.59,2.01-1.59.15,0,.25.01.38.04v1.25c-.13-.03-.27-.04-.45-.04-.93,0-1.59.71-1.77,1.7-.03.18-.06.39-.06.61v3.87h-1.31v-5Z"/>
        <path d="m66.82,85.5c.39.25,1.08.52,1.74.52.96,0,1.41-.48,1.41-1.08s-.38-.97-1.35-1.33c-1.3-.46-1.92-1.18-1.92-2.05,0-1.17.95-2.13,2.5-2.13.74,0,1.38.21,1.79.45l-.33.96c-.29-.18-.81-.42-1.49-.42-.78,0-1.21.45-1.21.99,0,.6.44.87,1.38,1.23,1.26.48,1.91,1.11,1.91,2.19,0,1.28-.99,2.18-2.71,2.18-.79,0-1.53-.2-2.04-.5l.33-1Z"/>
        <path d="m72.46,86.07c0-.55.38-.94.9-.94s.88.39.88.94-.34.95-.9.95c-.53,0-.88-.41-.88-.95Z"/>
      </g>
    </g>
  </g>
</svg>