<?xml version="1.0" encoding="UTF-8"?>
<svg id="Layer_2" data-name="Layer 2" xmlns="http://www.w3.org/2000/svg" viewBox="0 0 140.67 170.91">
  <defs>
    <style>
      .cls-1 {
        fill: #fff;
        stroke: #497c72;
        stroke-miterlimit: 10;
        stroke-width: 2px;
      }

      .cls-2 {
        fill: #017373;
      }

      .cls-3 {
        fill: #302a2a;
      }
    </style>
  </defs>
  <g id="Layer_1-2" data-name="Layer 1">
    <g>
      <rect class="cls-1" x="1" y="1" width="138.67" height="168.91" rx="23.04" ry="23.04"/>
      <g>
        <path class="cls-3" d="m18.47,20.18h-2.65v6.62h-1.94v-6.62h-2.67l.08-1.47h7.11l.06,1.47Z"/>
        <path class="cls-3" d="m24.88,24v2.79h-1.82v-3.2c0-1.05-.22-1.47-.98-1.47-.3,0-.61.07-.91.23v4.43h-1.82v-8.44l1.56-.24h.25v3.36c.57-.47,1.22-.68,1.84-.68.98,0,1.59.51,1.77,1.28.08.39.1.88.1,1.94Z"/>
        <path class="cls-3" d="m31.39,24.11h-3.75c.06,1.13.58,1.61,1.51,1.61.63,0,1.33-.17,1.93-.51l.24,1.27c-.53.3-1.41.47-2.31.47-2.13,0-3.19-1.09-3.19-3.02s1.22-3.22,2.97-3.22,2.6.94,2.6,2.8v.59Zm-1.78-1.02c0-.92-.3-1.28-.84-1.28-.57,0-.96.45-1.09,1.37l1.93-.08Z"/>
        <path class="cls-2" d="m38.71,24.63v-1.09c0-.53.37-.85.99-.85s1,.32,1,.85v1.1c0,.35.19.54.51.54h.09c.34,0,.52-.19.52-.54v-1.31c0-.66-.15-1-.79-1.44l-.69-.46c-1.12-.76-1.54-1.53-1.54-2.78v-.53c0-1.44.78-2.21,2.26-2.21h.43c1.49,0,2.25.75,2.25,2.21v.75c0,.53-.35.85-.97.85s-.99-.32-.99-.85v-.74c0-.34-.18-.56-.47-.56h-.09c-.28,0-.46.22-.46.56v.6c0,.6.15.91.75,1.34l.9.59c1,.69,1.4,1.47,1.4,2.66v1.29c0,1.47-.79,2.22-2.32,2.22h-.43c-1.54,0-2.34-.75-2.34-2.22Z"/>
        <path class="cls-2" d="m44.39,24.97v-6.28c0-.54.37-.88,1.01-.88s1,.34,1,.88v5.88c0,.44.19.66.49.66.22,0,.41-.13.54-.34v-6.21c0-.54.37-.88,1.01-.88s1,.34,1,.88v7.3c0,.54-.37.87-1,.87-.57,0-.93-.25-1-.69-.25.28-.81.69-1.59.69-.97,0-1.47-.47-1.47-1.88Z"/>
        <path class="cls-2" d="m50.1,24.63v-4.62c0-1.46.79-2.21,2.29-2.21h.44c1.52,0,2.31.75,2.31,2.21v.65c0,.81-.44,1.25-1.25,1.25h-1.79v2.79c0,.34.16.53.46.53h.1c.32,0,.49-.19.49-.53v-1.16c0-.53.37-.85,1-.85s1,.32,1,.85v1.09c0,1.49-.79,2.22-2.31,2.22h-.44c-1.5,0-2.29-.74-2.29-2.22Zm2-3.9h1.04v-.75c0-.34-.16-.56-.49-.56h-.1c-.29,0-.46.22-.46.56v.75Z"/>
        <path class="cls-2" d="m55.69,25.7v-1.41c0-1.18.38-1.91,1.32-2.46l.97-.57c.57-.32.72-.56.72-1.06v-.72h-.97v.71c0,.53-.35.87-.99.87s-.99-.34-.99-.87v-1.21c0-.71.4-1.09,1.1-1.09h2.71c.72,0,1.1.38,1.1,1.09v1.15c0,1.15-.43,1.87-1.47,2.47l-.76.43c-.59.34-.76.65-.76,1.29v.93h1.09v-1.24c0-.53.37-.85,1-.85s.99.32.99.85v1.69c0,.71-.38,1.09-1.09,1.09h-2.87c-.71,0-1.1-.38-1.1-1.09Z"/>
        <path class="cls-2" d="m66.38,24.63v-6.5c0-1.46.78-2.21,2.28-2.21h.38c1.5,0,2.27.75,2.27,2.21v.72c0,.52-.35.88-.99.88s-1-.37-1-.88v-.71c0-.34-.16-.56-.46-.56h-.04c-.29,0-.44.22-.44.56v6.5c0,.35.15.54.44.54h.04c.29,0,.46-.19.46-.54v-1.07c0-.53.37-.88,1-.88s.99.35.99.88v1.06c0,1.49-.77,2.22-2.27,2.22h-.38c-1.5,0-2.28-.74-2.28-2.22Z"/>
        <path class="cls-2" d="m71.84,25.01v-.88c0-1.29.9-1.91,2.07-1.91.46,0,.76.09.96.18v-2.41c0-.34-.16-.56-.44-.56h-.09c-.28,0-.44.22-.44.56v.69c0,.51-.35.84-.96.84s-.97-.32-.97-.84v-.84c0-1.37.78-2.03,2.24-2.03h.43c1.47,0,2.22.74,2.22,2.19v6c0,.53-.35.85-1,.85-.56,0-.91-.26-.97-.69-.24.29-.78.69-1.53.69-.88,0-1.52-.51-1.52-1.84Zm2.5.32c.21,0,.41-.13.53-.31v-1.38c-.1-.06-.25-.09-.43-.09-.38,0-.6.22-.6.66v.46c0,.44.19.66.5.66Z"/>
        <path class="cls-2" d="m77.55,25.97v-7.28c0-.54.37-.88,1.01-.88.53,0,.87.24.97.63.24-.24.81-.63,1.62-.63.96,0,1.46.47,1.46,1.84v6.33c0,.54-.37.88-1,.88s-1.01-.34-1.01-.88v-5.84c0-.44-.19-.66-.5-.66-.22,0-.41.13-.53.31v6.19c0,.54-.37.88-1,.88s-1.01-.34-1.01-.88Z"/>
        <path class="cls-2" d="m83.2,25.01v-.88c0-1.29.9-1.91,2.07-1.91.46,0,.76.09.96.18v-2.41c0-.34-.16-.56-.44-.56h-.09c-.28,0-.44.22-.44.56v.69c0,.51-.35.84-.96.84s-.97-.32-.97-.84v-.84c0-1.37.78-2.03,2.24-2.03h.43c1.47,0,2.22.74,2.22,2.19v6c0,.53-.35.85-1,.85-.56,0-.91-.26-.97-.69-.24.29-.78.69-1.53.69-.88,0-1.52-.51-1.52-1.84Zm2.5.32c.21,0,.41-.13.53-.31v-1.38c-.1-.06-.25-.09-.43-.09-.38,0-.6.22-.6.66v.46c0,.44.19.66.5.66Z"/>
        <path class="cls-2" d="m88.93,25.97v-9.16c0-.54.38-.88,1.03-.88s1.03.34,1.03.88v9.16c0,.54-.38.88-1.03.88s-1.03-.34-1.03-.88Z"/>
        <path class="cls-3" d="m98.59,19.02c0-.62.41-1.08,1.09-1.08s1.09.46,1.09,1.08-.41,1.07-1.09,1.07-1.09-.45-1.09-1.07Zm.18,2.04l1.55-.24h.27v5.97h-1.82v-5.73Z"/>
        <path class="cls-3" d="m101.66,26.66l.17-1.49c.52.34,1.26.54,1.81.54s.84-.18.84-.54c0-.25-.21-.4-1.09-.75-1.1-.42-1.66-.86-1.66-1.79,0-1.13.86-1.91,2.51-1.91.7,0,1.28.11,1.76.32l-.19,1.43c-.47-.29-1.14-.47-1.62-.47s-.75.17-.75.5c0,.28.18.39.87.68,1.42.58,1.9,1.05,1.9,1.92,0,1.13-.8,1.89-2.48,1.89-.87,0-1.55-.1-2.05-.3Z"/>
        <path class="cls-3" d="m117.79,26.62c-.42.23-.98.34-1.67.34-1.35,0-2.04-.58-2.04-1.88,0-.62.02-1.5.07-2.63h-.81l.07-1.08.84-.21.07-1.18,1.49-.23h.16l-.04,1.37h1.77l-.08,1.32h-1.68v2.57c-.01.44.17.62.55.62.31,0,.69-.11,1.13-.33l.18,1.31Z"/>
        <path class="cls-3" d="m124.25,24v2.79h-1.82v-3.2c0-1.05-.22-1.47-.98-1.47-.3,0-.61.07-.91.23v4.43h-1.82v-8.44l1.56-.24h.25v3.36c.57-.47,1.22-.68,1.84-.68.98,0,1.59.51,1.77,1.28.08.39.1.88.1,1.94Z"/>
        <path class="cls-3" d="m130.75,24.11h-3.75c.06,1.13.58,1.61,1.51,1.61.63,0,1.33-.17,1.93-.51l.24,1.27c-.53.3-1.41.47-2.31.47-2.13,0-3.19-1.09-3.19-3.02s1.22-3.22,2.97-3.22,2.6.94,2.6,2.8v.59Zm-1.78-1.02c0-.92-.3-1.28-.84-1.28-.57,0-.96.45-1.09,1.37l1.93-.08Z"/>
        <path class="cls-3" d="m20.58,42.24v2.86h-1.82v-3.22c0-1.05-.22-1.45-.91-1.45-.31,0-.61.08-.88.27.05.33.07.86.07,1.62v2.79h-1.79v-3.17c0-1.1-.21-1.5-.88-1.5-.28,0-.54.07-.82.23v4.45h-1.82v-5.73l1.53-.24h.25v.69c.53-.49,1.13-.73,1.78-.73.69,0,1.21.32,1.47.81.55-.54,1.21-.81,2-.81.96,0,1.51.48,1.7,1.25.08.35.13.98.13,1.9Z"/>
        <path class="cls-3" d="m21.51,42.22c0-1.94,1.2-3.19,3.1-3.19,2.02,0,2.98,1.18,2.98,3,0,2.1-1.3,3.23-3.09,3.23-1.99,0-2.99-1.11-2.99-3.05Zm4.18-.08c0-1.3-.33-1.91-1.1-1.91s-1.18.68-1.18,1.94c0,1.34.36,1.93,1.08,1.93.8,0,1.2-.65,1.2-1.95Z"/>
        <path class="cls-3" d="m28.42,44.97l.17-1.49c.52.34,1.26.55,1.81.55s.84-.18.84-.55c0-.25-.21-.4-1.09-.75-1.1-.42-1.66-.86-1.66-1.79,0-1.13.86-1.91,2.51-1.91.7,0,1.28.11,1.76.31l-.19,1.43c-.47-.29-1.14-.47-1.62-.47s-.75.17-.75.5c0,.28.18.39.87.68,1.42.58,1.9,1.05,1.9,1.91,0,1.13-.8,1.89-2.48,1.89-.87,0-1.55-.1-2.05-.3Z"/>
        <path class="cls-3" d="m37.79,44.93c-.42.23-.98.34-1.67.34-1.35,0-2.04-.58-2.04-1.88,0-.62.02-1.5.07-2.63h-.81l.07-1.08.84-.21.07-1.17,1.49-.23h.16l-.04,1.37h1.77l-.08,1.32h-1.68v2.57c-.01.44.17.62.55.62.31,0,.69-.11,1.13-.33l.18,1.31Z"/>
        <path class="cls-3" d="m42.16,37.34c0-.62.41-1.08,1.09-1.08s1.09.46,1.09,1.08-.41,1.07-1.09,1.07-1.09-.45-1.09-1.07Zm.18,2.04l1.55-.24h.27v5.97h-1.82v-5.73Z"/>
        <path class="cls-3" d="m54.39,42.24v2.86h-1.82v-3.22c0-1.05-.22-1.45-.91-1.45-.31,0-.61.08-.88.27.05.33.07.86.07,1.62v2.79h-1.79v-3.17c0-1.1-.21-1.5-.88-1.5-.28,0-.54.07-.82.23v4.45h-1.82v-5.73l1.53-.24h.25v.69c.53-.49,1.13-.73,1.78-.73.69,0,1.21.32,1.47.81.55-.54,1.21-.81,2-.81.96,0,1.51.48,1.7,1.25.08.35.13.98.13,1.9Z"/>
        <path class="cls-3" d="m61.61,41.84c0,1.99-1.22,3.43-3.15,3.43-.38,0-.69-.04-.94-.1v2.77h-1.82v-8.58l1.55-.24h.27v.65c.39-.42.97-.67,1.65-.67,1.49,0,2.45,1.02,2.45,2.73Zm-1.89.17c0-1.03-.52-1.58-1.33-1.58-.35,0-.64.08-.87.25v3.22c.23.13.48.21.75.21.97,0,1.45-.7,1.45-2.11Z"/>
        <path class="cls-3" d="m62.3,42.22c0-1.94,1.2-3.19,3.1-3.19,2.02,0,2.98,1.18,2.98,3,0,2.1-1.3,3.23-3.09,3.23-1.99,0-2.99-1.11-2.99-3.05Zm4.18-.08c0-1.3-.33-1.91-1.1-1.91s-1.18.68-1.18,1.94c0,1.34.36,1.93,1.08,1.93.8,0,1.2-.65,1.2-1.95Z"/>
        <path class="cls-3" d="m73.27,39.29l-.15,1.66c-.24-.02-.45-.04-.63-.04-.42,0-.57.07-.97.5l-.3.33v3.37h-1.82v-5.73l1.51-.24h.25v1.61l.36-.71c.38-.71.62-.91,1.04-.91.23,0,.46.06.69.17Z"/>
        <path class="cls-3" d="m78.04,44.93c-.42.23-.98.34-1.67.34-1.35,0-2.04-.58-2.04-1.88,0-.62.02-1.5.07-2.63h-.81l.07-1.08.84-.21.07-1.17,1.49-.23h.16l-.04,1.37h1.77l-.08,1.32h-1.68v2.57c-.01.44.17.62.55.62.31,0,.69-.11,1.13-.33l.18,1.31Z"/>
        <path class="cls-3" d="m83.69,40.66c0,.29-.01.85-.04,1.67l-.06,2.77h-1.76v-.5c-.45.3-.96.51-1.53.59-1.15-.08-1.83-.82-1.83-1.81s.68-1.36,2.23-1.54l1.13-.13v-.81c0-.4-.23-.59-.75-.59s-1.14.22-2,.84l-.3-1.34c.69-.52,1.79-.78,2.87-.78,1.27,0,2.04.51,2.04,1.62Zm-1.85,3.23v-1.2l-.57.06c-.76.08-.98.25-.98.61,0,.4.38.68.82.68.21,0,.45-.05.73-.15Z"/>
        <path class="cls-3" d="m90.5,42.32v2.79h-1.82v-3.21c0-1.05-.24-1.45-.98-1.45-.3,0-.61.07-.91.23v4.43h-1.82v-5.73l1.53-.24h.25v.67c.58-.48,1.29-.7,1.88-.7.98,0,1.59.51,1.77,1.28.08.39.1.88.1,1.94Z"/>
        <path class="cls-3" d="m95.7,44.93c-.42.23-.98.34-1.67.34-1.35,0-2.04-.58-2.04-1.88,0-.62.02-1.5.07-2.63h-.81l.07-1.08.84-.21.07-1.17,1.49-.23h.16l-.04,1.37h1.77l-.08,1.32h-1.68v2.57c-.01.44.17.62.55.62.31,0,.69-.11,1.13-.33l.18,1.31Z"/>
        <path class="cls-3" d="m100.07,37.34c0-.62.41-1.08,1.09-1.08s1.09.46,1.09,1.08-.41,1.07-1.09,1.07-1.09-.45-1.09-1.07Zm.18,2.04l1.55-.24h.27v5.97h-1.82v-5.73Z"/>
        <path class="cls-3" d="m108.97,42.32v2.79h-1.82v-3.21c0-1.05-.24-1.45-.98-1.45-.3,0-.61.07-.91.23v4.43h-1.82v-5.73l1.53-.24h.25v.67c.58-.48,1.28-.7,1.88-.7.98,0,1.59.51,1.77,1.28.08.39.1.88.1,1.94Z"/>
        <path class="cls-3" d="m117.79,44.93c-.42.23-.98.34-1.67.34-1.35,0-2.04-.58-2.04-1.88,0-.62.02-1.5.07-2.63h-.81l.07-1.08.84-.21.07-1.17,1.49-.23h.16l-.04,1.37h1.77l-.08,1.32h-1.68v2.57c-.01.44.17.62.55.62.31,0,.69-.11,1.13-.33l.18,1.31Z"/>
        <path class="cls-3" d="m124.25,42.32v2.79h-1.82v-3.2c0-1.05-.22-1.47-.98-1.47-.3,0-.61.07-.91.23v4.43h-1.82v-8.44l1.56-.24h.25v3.36c.57-.47,1.22-.68,1.84-.68.98,0,1.59.51,1.77,1.28.08.39.1.88.1,1.94Z"/>
        <path class="cls-3" d="m130.76,42.43h-3.75c.06,1.13.58,1.61,1.51,1.61.63,0,1.33-.17,1.93-.51l.24,1.27c-.53.3-1.41.47-2.31.47-2.13,0-3.19-1.09-3.19-3.02s1.22-3.22,2.97-3.22,2.6.95,2.6,2.8v.59Zm-1.78-1.02c0-.92-.3-1.28-.84-1.28-.57,0-.96.45-1.09,1.37l1.93-.08Z"/>
        <path class="cls-3" d="m15.46,62.57c1.31,0,2.02.58,2.02,1.61,0,1.45-1.38,2.27-3.62,2.27-1.79,0-2.82-.48-2.82-1.41,0-.49.36-.86,1.15-1.21-.38-.25-.57-.59-.57-1.04,0-.54.33-1.02.97-1.42-.74-.35-1.1-1.03-1.1-1.81,0-1.3.96-2.17,2.6-2.17.51,0,.96.08,1.34.24.01-.04.01-.08.01-.14.06-.74.46-1.08,1.04-1.08.36,0,.67.06.91.19l-.15,1.28c-.22-.06-.44-.1-.64-.1-.28,0-.42.1-.45.3.44.39.67.92.67,1.47,0,.71-.24,1.26-.73,1.62-.5.38-1.12.56-1.85.56-.23,0-.46-.01-.69-.05-.3.16-.45.38-.45.58s.15.3.45.3h1.9Zm.33,1.89c0-.27-.18-.4-.54-.4h-2.38c-.08.15-.12.29-.12.45,0,.52.46.78,1.37.78s1.67-.29,1.67-.82Zm-2.46-4.87c0,.67.36,1.05.86,1.05.63,0,.92-.39.92-1.07,0-.71-.3-1.08-.87-1.08s-.91.35-.91,1.09Z"/>
        <path class="cls-3" d="m18.03,54.97l1.56-.24h.25v8.69h-1.82v-8.44Z"/>
        <path class="cls-3" d="m20.86,60.53c0-1.94,1.2-3.19,3.1-3.19,2.02,0,2.98,1.17,2.98,3,0,2.1-1.3,3.24-3.09,3.24-1.99,0-2.99-1.11-2.99-3.05Zm4.18-.08c0-1.3-.33-1.91-1.1-1.91s-1.18.68-1.18,1.94c0,1.34.36,1.93,1.08,1.93.8,0,1.2-.65,1.2-1.95Z"/>
        <path class="cls-3" d="m33.87,60.14c0,2.11-1.31,3.44-3.39,3.44-.98,0-1.82-.13-2.52-.41v-8.2l1.55-.24h.27v3.38c.42-.44.99-.68,1.66-.68,1.47,0,2.44,1.05,2.44,2.71Zm-1.89.19c0-1.07-.55-1.59-1.31-1.59-.36,0-.67.08-.9.24v3.32c.19.08.42.12.7.12,1.03,0,1.5-.73,1.5-2.1Z"/>
        <path class="cls-3" d="m39.63,58.97c0,.29-.01.85-.04,1.67l-.06,2.77h-1.76v-.5c-.45.3-.96.51-1.53.59-1.15-.08-1.83-.82-1.83-1.8s.68-1.36,2.23-1.54l1.13-.13v-.81c0-.4-.23-.59-.75-.59s-1.14.22-2,.84l-.3-1.34c.69-.52,1.79-.78,2.87-.78,1.27,0,2.04.51,2.04,1.62Zm-1.85,3.24v-1.2l-.57.06c-.76.08-.98.25-.98.61,0,.4.38.68.82.68.21,0,.45-.05.73-.14Z"/>
        <path class="cls-3" d="m40.92,54.97l1.56-.24h.25v8.69h-1.82v-8.44Z"/>
        <path class="cls-3" d="m60.78,60.74h-3.75c.06,1.13.58,1.61,1.51,1.61.63,0,1.33-.17,1.93-.51l.24,1.27c-.53.3-1.41.47-2.31.47-2.13,0-3.19-1.09-3.19-3.02s1.22-3.22,2.97-3.22,2.6.94,2.6,2.8v.59Zm-1.78-1.02c0-.92-.3-1.28-.84-1.28-.57,0-.96.45-1.09,1.37l1.93-.08Z"/>
        <path class="cls-3" d="m61.52,60.6c0-2.02,1.21-3.26,3.19-3.26.68,0,1.25.1,1.71.29l-.19,1.44c-.59-.3-1.07-.46-1.42-.46-.93,0-1.39.68-1.39,1.9s.46,1.83,1.39,1.83c.42,0,1-.16,1.49-.53l.24,1.31c-.4.28-1.15.46-1.88.46-2.13,0-3.14-1.09-3.14-2.98Z"/>
        <path class="cls-3" d="m67.03,60.53c0-1.94,1.2-3.19,3.1-3.19,2.02,0,2.98,1.17,2.98,3,0,2.1-1.3,3.24-3.09,3.24-1.99,0-2.99-1.11-2.99-3.05Zm4.18-.08c0-1.3-.33-1.91-1.1-1.91s-1.18.68-1.18,1.94c0,1.34.36,1.93,1.08,1.93.8,0,1.2-.65,1.2-1.95Z"/>
        <path class="cls-3" d="m79.65,60.63v2.79h-1.82v-3.21c0-1.05-.24-1.45-.98-1.45-.3,0-.61.07-.91.23v4.43h-1.82v-5.73l1.53-.24h.25v.67c.58-.48,1.29-.7,1.88-.7.98,0,1.59.51,1.77,1.28.08.39.1.88.1,1.94Z"/>
        <path class="cls-3" d="m80.59,60.53c0-1.94,1.2-3.19,3.1-3.19,2.02,0,2.98,1.17,2.98,3,0,2.1-1.3,3.24-3.09,3.24-1.99,0-2.99-1.11-2.99-3.05Zm4.18-.08c0-1.3-.33-1.91-1.1-1.91s-1.18.68-1.18,1.94c0,1.34.36,1.93,1.08,1.93.8,0,1.2-.65,1.2-1.95Z"/>
        <path class="cls-3" d="m96.55,60.56v2.86h-1.82v-3.22c0-1.05-.22-1.45-.91-1.45-.31,0-.61.08-.88.27.05.33.07.86.07,1.62v2.79h-1.79v-3.17c0-1.1-.21-1.5-.88-1.5-.28,0-.54.07-.82.23v4.45h-1.82v-5.73l1.53-.24h.25v.69c.53-.48,1.13-.73,1.78-.73.69,0,1.21.31,1.47.81.55-.54,1.21-.81,2-.81.96,0,1.51.48,1.7,1.25.08.35.13.98.13,1.9Z"/>
        <path class="cls-3" d="m103.36,57.51l-2.17,6.37c-.62,1.77-1.2,2.17-3,2.41l-.39-1.3c1.36-.19,1.81-.47,2.12-1.57l.02-.07h-.9l-1.93-5.84h1.93l1.24,4.6,1.3-4.6h1.78Z"/>
        <path class="cls-3" d="m103.29,62.43c0-.62.45-1.07,1.09-1.07s1.08.45,1.08,1.07-.44,1.07-1.08,1.07-1.09-.45-1.09-1.07Z"/>
        <path class="cls-3" d="m118.31,55.33h1.94v8.08h-1.94v-8.08Z"/>
        <path class="cls-3" d="m125.69,63.25c-.42.23-.98.34-1.67.34-1.35,0-2.04-.58-2.04-1.88,0-.62.02-1.5.07-2.63h-.81l.07-1.08.84-.21.07-1.18,1.49-.23h.16l-.04,1.37h1.77l-.08,1.32h-1.68v2.57c-.01.44.17.62.55.62.31,0,.69-.11,1.13-.33l.18,1.31Z"/>
        <path class="cls-3" d="m126.28,63.28l.17-1.49c.52.34,1.26.54,1.81.54s.84-.18.84-.54c0-.25-.21-.4-1.09-.75-1.1-.42-1.66-.86-1.66-1.79,0-1.13.86-1.91,2.51-1.91.7,0,1.28.11,1.76.32l-.19,1.43c-.47-.29-1.14-.47-1.62-.47s-.75.17-.75.5c0,.28.18.39.87.68,1.42.58,1.9,1.05,1.9,1.92,0,1.13-.8,1.89-2.48,1.89-.87,0-1.55-.1-2.05-.3Z"/>
        <path class="cls-3" d="m11.72,73.28l1.56-.24h.25v8.69h-1.82v-8.44Z"/>
        <path class="cls-3" d="m20.12,79.05h-3.75c.06,1.13.58,1.61,1.51,1.61.63,0,1.33-.17,1.93-.51l.24,1.27c-.53.3-1.41.47-2.31.47-2.13,0-3.19-1.09-3.19-3.02s1.22-3.22,2.97-3.22,2.6.95,2.6,2.8v.59Zm-1.78-1.02c0-.92-.3-1.28-.84-1.28-.57,0-.96.45-1.09,1.37l1.93-.08Z"/>
        <path class="cls-3" d="m26.66,78.94v2.79h-1.82v-3.21c0-1.05-.24-1.45-.98-1.45-.3,0-.61.07-.91.23v4.43h-1.82v-5.73l1.53-.24h.25v.67c.58-.48,1.28-.7,1.88-.7.98,0,1.59.51,1.77,1.28.08.39.1.88.1,1.94Z"/>
        <path class="cls-3" d="m31.7,80.88c1.31,0,2.02.58,2.02,1.61,0,1.45-1.38,2.27-3.62,2.27-1.79,0-2.82-.48-2.82-1.41,0-.48.36-.86,1.15-1.21-.38-.25-.57-.59-.57-1.04,0-.55.33-1.02.97-1.42-.74-.35-1.1-1.03-1.1-1.8,0-1.3.96-2.17,2.6-2.17.51,0,.96.08,1.35.24.01-.04.01-.08.01-.15.06-.74.46-1.08,1.04-1.08.36,0,.67.06.91.19l-.15,1.28c-.22-.06-.44-.1-.64-.1-.28,0-.42.1-.45.3.44.39.67.92.67,1.47,0,.71-.24,1.26-.73,1.62-.5.38-1.12.56-1.85.56-.23,0-.46-.01-.69-.05-.3.16-.45.38-.45.58s.14.3.45.3h1.9Zm.33,1.89c0-.27-.18-.4-.54-.4h-2.38c-.08.15-.12.29-.12.45,0,.52.46.78,1.37.78s1.67-.29,1.67-.82Zm-2.46-4.87c0,.67.36,1.05.86,1.05.63,0,.92-.39.92-1.07,0-.71-.3-1.08-.87-1.08s-.91.35-.91,1.09Z"/>
        <path class="cls-3" d="m38.18,81.56c-.42.23-.98.34-1.67.34-1.35,0-2.04-.58-2.04-1.88,0-.62.02-1.5.07-2.63h-.81l.07-1.08.84-.21.07-1.17,1.49-.23h.16l-.04,1.37h1.77l-.08,1.32h-1.68v2.57c-.01.44.17.62.55.62.31,0,.69-.11,1.13-.33l.18,1.31Z"/>
        <path class="cls-3" d="m44.63,78.94v2.79h-1.82v-3.2c0-1.05-.22-1.47-.98-1.47-.3,0-.61.07-.91.23v4.43h-1.82v-8.44l1.56-.24h.25v3.36c.57-.47,1.22-.68,1.84-.68.98,0,1.59.51,1.77,1.28.08.39.1.88.1,1.94Z"/>
        <path class="cls-3" d="m53.08,73.96c0-.62.41-1.08,1.09-1.08s1.09.46,1.09,1.08-.41,1.07-1.09,1.07-1.09-.45-1.09-1.07Zm.18,2.04l1.55-.24h.27v5.97h-1.82v-5.73Z"/>
        <path class="cls-3" d="m56.15,81.59l.17-1.49c.52.34,1.26.55,1.81.55s.84-.18.84-.55c0-.25-.21-.4-1.09-.75-1.1-.42-1.66-.86-1.66-1.79,0-1.13.86-1.91,2.51-1.91.7,0,1.28.11,1.76.31l-.19,1.43c-.47-.29-1.14-.47-1.62-.47s-.75.17-.75.5c0,.28.18.39.87.68,1.42.58,1.9,1.05,1.9,1.91,0,1.13-.8,1.89-2.48,1.89-.87,0-1.55-.1-2.05-.3Z"/>
        <path class="cls-2" d="m69.32,80.9v-7.5h-.41c-.34,0-.56-.25-.56-.69s.22-.68.56-.68h.12c.34,0,.54-.19.54-.43v-.09c0-.41.4-.66.91-.66.57,0,.88.37.88.84v9.21c0,.54-.38.88-1.01.88s-1.03-.34-1.03-.88Z"/>
        <path class="cls-2" d="m72.09,79.58v-1.13c0-.5.37-.82.96-.82s.97.32.97.82v1.13c0,.34.16.56.46.56h.09c.29,0,.46-.22.46-.56v-2.78c-.21.16-.56.35-1.13.35-1.12,0-1.88-.57-1.88-2.24v-1.84c0-1.47.79-2.22,2.29-2.22h.43c1.5,0,2.29.75,2.29,2.22v6.5c0,1.46-.79,2.21-2.29,2.21h-.38c-1.47,0-2.25-.75-2.25-2.21Zm2.53-4.06c.16,0,.29-.06.4-.16v-2.29c0-.35-.16-.54-.46-.54h-.09c-.31,0-.49.19-.49.54v1.59c0,.59.25.87.63.87Z"/>
        <path class="cls-2" d="m77.59,79.56v-1.1c0-.51.35-.84.96-.84s.96.32.96.84v1.13c0,.34.18.54.47.54h.09c.31,0,.47-.21.47-.54v-2.21c0-.38-.19-.62-.56-.62h-.03c-.41,0-.69-.28-.69-.77s.28-.78.69-.78h.03c.37,0,.56-.22.56-.6v-1.56c0-.34-.16-.54-.47-.54h-.09c-.29,0-.47.21-.47.54v.75c0,.51-.35.85-.96.85s-.96-.34-.96-.85v-.75c0-1.46.78-2.21,2.25-2.21h.4c1.5,0,2.29.75,2.29,2.21v1.06c0,.88-.28,1.5-.82,1.84.54.34.82.93.82,1.75v1.85c0,1.49-.79,2.22-2.29,2.22h-.4c-1.47,0-2.25-.74-2.25-2.22Z"/>
        <path class="cls-3" d="m94.6,81.73l-1.24-2.63h-.71v2.63h-1.82v-8.44l1.56-.24h.25v4.88l.8-.12h0s1.17-1.97,1.17-1.97h1.94l-1.62,2.6,1.71,3.3h-2.05Z"/>
        <path class="cls-3" d="m97.15,73.96c0-.62.41-1.08,1.09-1.08s1.09.46,1.09,1.08-.41,1.07-1.09,1.07-1.09-.45-1.09-1.07Zm.18,2.04l1.55-.24h.27v5.97h-1.82v-5.73Z"/>
        <path class="cls-3" d="m100.53,73.28l1.56-.24h.25v8.69h-1.82v-8.44Z"/>
        <path class="cls-3" d="m103.35,78.84c0-1.94,1.2-3.19,3.1-3.19,2.02,0,2.98,1.18,2.98,3,0,2.1-1.3,3.23-3.09,3.23-1.99,0-2.99-1.11-2.99-3.05Zm4.18-.08c0-1.3-.33-1.91-1.1-1.91s-1.18.68-1.18,1.94c0,1.34.36,1.93,1.08,1.93.8,0,1.2-.65,1.2-1.95Z"/>
        <path class="cls-3" d="m119.31,78.87v2.86h-1.82v-3.22c0-1.05-.22-1.45-.91-1.45-.31,0-.61.08-.88.27.05.33.07.86.07,1.62v2.79h-1.79v-3.17c0-1.1-.21-1.5-.88-1.5-.28,0-.54.07-.82.23v4.45h-1.82v-5.73l1.53-.24h.25v.69c.53-.49,1.13-.73,1.78-.73.69,0,1.21.32,1.47.81.55-.54,1.21-.81,2-.81.96,0,1.51.48,1.7,1.25.08.35.13.98.13,1.9Z"/>
        <path class="cls-3" d="m125.82,79.05h-3.75c.06,1.13.58,1.61,1.51,1.61.63,0,1.33-.17,1.93-.51l.24,1.27c-.53.3-1.41.47-2.31.47-2.13,0-3.19-1.09-3.19-3.02s1.22-3.22,2.97-3.22,2.6.95,2.6,2.8v.59Zm-1.78-1.02c0-.92-.3-1.28-.84-1.28-.57,0-.96.45-1.09,1.37l1.93-.08Z"/>
        <path class="cls-3" d="m126.88,77.75h3.48v1.45h-3.48v-1.45Z"/>
        <path class="cls-3" d="m15.62,99.87c-.42.23-.98.34-1.67.34-1.35,0-2.04-.58-2.04-1.88,0-.62.02-1.5.07-2.63h-.81l.07-1.08.84-.21.07-1.17,1.49-.23h.16l-.04,1.37h1.77l-.08,1.32h-1.68v2.57c-.01.44.17.62.55.62.31,0,.69-.11,1.13-.33l.18,1.31Z"/>
        <path class="cls-3" d="m21.67,97.36h-3.75c.06,1.13.58,1.61,1.51,1.61.63,0,1.33-.17,1.93-.51l.24,1.27c-.53.3-1.41.47-2.31.47-2.13,0-3.19-1.09-3.19-3.02s1.22-3.22,2.97-3.22,2.6.95,2.6,2.8v.59Zm-1.78-1.02c0-.92-.3-1.28-.84-1.28-.57,0-.96.45-1.09,1.37l1.93-.08Z"/>
        <path class="cls-3" d="m26.55,94.22l-.14,1.66c-.24-.02-.45-.04-.63-.04-.42,0-.57.07-.97.5l-.3.33v3.37h-1.82v-5.73l1.51-.24h.25v1.61l.36-.71c.38-.71.62-.91,1.04-.91.23,0,.46.06.69.17Z"/>
        <path class="cls-3" d="m26.94,99.9l.17-1.49c.52.34,1.26.55,1.81.55s.84-.18.84-.55c0-.25-.21-.4-1.09-.75-1.1-.42-1.66-.86-1.66-1.79,0-1.13.86-1.91,2.51-1.91.7,0,1.28.11,1.76.31l-.19,1.43c-.47-.29-1.14-.47-1.62-.47s-.75.17-.75.5c0,.28.18.39.87.68,1.42.58,1.9,1.05,1.9,1.91,0,1.13-.8,1.89-2.48,1.89-.87,0-1.55-.1-2.05-.3Z"/>
        <path class="cls-3" d="m32.26,99.06c0-.62.45-1.07,1.09-1.07s1.08.45,1.08,1.07-.44,1.07-1.08,1.07-1.09-.45-1.09-1.07Z"/>
        <path class="cls-3" d="m43.84,93.42h-2.65v6.62h-1.94v-6.62h-2.67l.08-1.47h7.11l.06,1.47Z"/>
        <path class="cls-3" d="m50.25,97.25v2.79h-1.82v-3.2c0-1.05-.22-1.47-.98-1.47-.3,0-.61.07-.91.23v4.43h-1.82v-8.44l1.56-.24h.25v3.36c.57-.47,1.22-.68,1.84-.68.98,0,1.59.51,1.77,1.28.08.39.1.88.1,1.94Z"/>
        <path class="cls-3" d="m51.37,92.27c0-.62.41-1.08,1.09-1.08s1.09.46,1.09,1.08-.41,1.07-1.09,1.07-1.09-.45-1.09-1.07Zm.18,2.04l1.55-.24h.27v5.97h-1.82v-5.73Z"/>
        <path class="cls-3" d="m54.45,99.9l.17-1.49c.52.34,1.26.55,1.81.55s.84-.18.84-.55c0-.25-.21-.4-1.09-.75-1.1-.42-1.66-.86-1.66-1.79,0-1.13.86-1.91,2.51-1.91.7,0,1.28.11,1.76.31l-.19,1.43c-.47-.29-1.14-.47-1.62-.47s-.75.17-.75.5c0,.28.18.39.87.68,1.42.58,1.9,1.05,1.9,1.91,0,1.13-.8,1.89-2.48,1.89-.87,0-1.55-.1-2.05-.3Z"/>
        <path class="cls-3" d="m70.76,97.18v2.86h-1.82v-3.22c0-1.05-.22-1.45-.91-1.45-.31,0-.61.08-.88.27.05.33.07.86.07,1.62v2.79h-1.79v-3.17c0-1.1-.21-1.5-.88-1.5-.28,0-.54.07-.82.23v4.45h-1.82v-5.73l1.53-.24h.25v.69c.53-.49,1.13-.73,1.78-.73.69,0,1.21.32,1.47.81.55-.54,1.21-.81,2-.81.96,0,1.51.48,1.7,1.25.08.35.13.98.13,1.9Z"/>
        <path class="cls-3" d="m76.78,95.59c0,.29-.01.85-.04,1.67l-.06,2.77h-1.76v-.5c-.45.3-.96.51-1.53.59-1.15-.08-1.83-.82-1.83-1.81s.68-1.36,2.23-1.54l1.13-.13v-.81c0-.4-.23-.59-.75-.59s-1.14.22-2,.84l-.3-1.34c.69-.52,1.79-.78,2.87-.78,1.27,0,2.04.51,2.04,1.62Zm-1.85,3.23v-1.2l-.57.06c-.76.08-.98.25-.98.61,0,.4.38.68.82.68.21,0,.45-.05.73-.15Z"/>
        <path class="cls-3" d="m81.84,100.04l-1.24-2.63h-.71v2.63h-1.82v-8.44l1.56-.24h.25v4.88l.8-.12h0s1.17-1.97,1.17-1.97h1.94l-1.62,2.6,1.71,3.3h-2.05Z"/>
        <path class="cls-3" d="m89.6,97.36h-3.75c.06,1.13.58,1.61,1.51,1.61.63,0,1.33-.17,1.93-.51l.24,1.27c-.53.3-1.41.47-2.31.47-2.13,0-3.19-1.09-3.19-3.02s1.22-3.22,2.97-3.22,2.6.95,2.6,2.8v.59Zm-1.78-1.02c0-.92-.3-1.28-.84-1.28-.57,0-.96.45-1.09,1.37l1.93-.08Z"/>
        <path class="cls-3" d="m90.38,99.9l.17-1.49c.52.34,1.26.55,1.81.55s.84-.18.84-.55c0-.25-.21-.4-1.09-.75-1.1-.42-1.66-.86-1.66-1.79,0-1.13.86-1.91,2.51-1.91.7,0,1.28.11,1.76.31l-.19,1.43c-.47-.29-1.14-.47-1.62-.47s-.75.17-.75.5c0,.28.18.39.87.68,1.42.58,1.9,1.05,1.9,1.91,0,1.13-.8,1.89-2.48,1.89-.87,0-1.55-.1-2.05-.3Z"/>
        <path class="cls-3" d="m97.66,92.27c0-.62.41-1.08,1.09-1.08s1.09.46,1.09,1.08-.41,1.07-1.09,1.07-1.09-.45-1.09-1.07Zm.18,2.04l1.55-.24h.27v5.97h-1.82v-5.73Z"/>
        <path class="cls-3" d="m104.94,99.87c-.42.23-.98.34-1.67.34-1.35,0-2.04-.58-2.04-1.88,0-.62.02-1.5.07-2.63h-.81l.07-1.08.84-.21.07-1.17,1.49-.23h.16l-.04,1.37h1.77l-.08,1.32h-1.68v2.57c-.01.44.17.62.55.62.31,0,.69-.11,1.13-.33l.18,1.31Z"/>
        <path class="cls-3" d="m113.75,96.78c0,1.99-1.22,3.43-3.15,3.43-.38,0-.69-.04-.94-.1v2.77h-1.82v-8.58l1.55-.24h.27v.65c.39-.42.97-.67,1.65-.67,1.49,0,2.45,1.02,2.45,2.73Zm-1.89.17c0-1.03-.52-1.58-1.33-1.58-.35,0-.64.08-.87.25v3.22c.23.13.48.21.75.21.97,0,1.45-.7,1.45-2.11Z"/>
        <path class="cls-3" d="m114.44,97.15c0-1.94,1.2-3.19,3.1-3.19,2.02,0,2.98,1.18,2.98,3,0,2.1-1.3,3.23-3.09,3.23-1.99,0-2.99-1.11-2.99-3.05Zm4.18-.08c0-1.3-.33-1.91-1.1-1.91s-1.18.68-1.18,1.94c0,1.34.36,1.93,1.08,1.93.8,0,1.2-.65,1.2-1.95Z"/>
        <path class="cls-3" d="m121.35,99.9l.17-1.49c.52.34,1.26.55,1.81.55s.84-.18.84-.55c0-.25-.21-.4-1.09-.75-1.1-.42-1.66-.86-1.66-1.79,0-1.13.86-1.91,2.51-1.91.7,0,1.28.11,1.76.31l-.19,1.43c-.47-.29-1.14-.47-1.62-.47s-.75.17-.75.5c0,.28.18.39.87.68,1.42.58,1.9,1.05,1.9,1.91,0,1.13-.8,1.89-2.48,1.89-.87,0-1.55-.1-2.05-.3Z"/>
        <path class="cls-3" d="m126.88,96.06h3.48v1.45h-3.48v-1.45Z"/>
        <path class="cls-3" d="m11.42,118.22l.17-1.49c.52.34,1.26.54,1.81.54s.84-.18.84-.54c0-.25-.21-.4-1.09-.75-1.1-.42-1.66-.86-1.66-1.79,0-1.13.86-1.91,2.51-1.91.7,0,1.28.11,1.76.32l-.19,1.43c-.47-.29-1.14-.47-1.62-.47s-.75.17-.75.5c0,.28.18.39.87.68,1.42.58,1.9,1.05,1.9,1.92,0,1.13-.8,1.89-2.48,1.89-.87,0-1.55-.1-2.05-.3Z"/>
        <path class="cls-3" d="m16.73,110.58c0-.62.41-1.08,1.09-1.08s1.09.46,1.09,1.08-.41,1.07-1.09,1.07-1.09-.45-1.09-1.07Zm.18,2.04l1.55-.24h.27v5.97h-1.82v-5.73Z"/>
        <path class="cls-3" d="m26.02,115.08c0,2.11-1.31,3.44-3.39,3.44-.98,0-1.82-.13-2.52-.41v-8.2l1.55-.24h.27v3.38c.42-.44.99-.68,1.66-.68,1.47,0,2.44,1.05,2.44,2.71Zm-1.89.19c0-1.07-.55-1.59-1.31-1.59-.36,0-.67.08-.9.24v3.32c.19.08.42.12.7.12,1.03,0,1.5-.73,1.5-2.1Z"/>
        <path class="cls-3" d="m27.04,109.91l1.56-.24h.25v8.69h-1.82v-8.44Z"/>
        <path class="cls-3" d="m35.44,115.67h-3.75c.06,1.13.58,1.61,1.51,1.61.63,0,1.33-.17,1.93-.51l.24,1.27c-.53.3-1.41.47-2.31.47-2.13,0-3.19-1.09-3.19-3.02s1.22-3.22,2.97-3.22,2.6.94,2.6,2.8v.59Zm-1.78-1.02c0-.92-.3-1.28-.84-1.28-.57,0-.96.45-1.09,1.37l1.93-.08Z"/>
        <path class="cls-3" d="m50.27,118.18c-.42.23-.98.34-1.67.34-1.35,0-2.04-.58-2.04-1.88,0-.62.02-1.5.07-2.63h-.81l.07-1.08.84-.21.07-1.18,1.49-.23h.16l-.04,1.37h1.77l-.08,1.32h-1.68v2.57c-.01.44.17.62.55.62.31,0,.69-.11,1.13-.33l.18,1.31Z"/>
        <path class="cls-3" d="m50.75,115.47c0-1.94,1.2-3.19,3.1-3.19,2.02,0,2.98,1.17,2.98,3,0,2.1-1.3,3.24-3.09,3.24-1.99,0-2.99-1.11-2.99-3.05Zm4.18-.08c0-1.3-.33-1.91-1.1-1.91s-1.18.68-1.18,1.94c0,1.34.36,1.93,1.08,1.93.8,0,1.2-.65,1.2-1.95Z"/>
        <path class="cls-3" d="m71.62,112.53l-.14,1.66c-.24-.02-.45-.04-.63-.04-.42,0-.57.07-.97.5l-.3.33v3.37h-1.82v-5.73l1.51-.24h.25v1.61l.36-.71c.38-.71.62-.91,1.04-.91.23,0,.46.06.69.17Z"/>
        <path class="cls-3" d="m77.48,115.67h-3.75c.06,1.13.58,1.61,1.51,1.61.63,0,1.33-.17,1.93-.51l.24,1.27c-.53.3-1.41.47-2.31.47-2.13,0-3.19-1.09-3.19-3.02s1.22-3.22,2.97-3.22,2.6.94,2.6,2.8v.59Zm-1.78-1.02c0-.92-.3-1.28-.84-1.28-.57,0-.96.45-1.09,1.37l1.93-.08Z"/>
        <path class="cls-3" d="m84.13,109.66v8.69h-1.79v-.61c-.35.44-.93.69-1.66.69-1.45,0-2.46-.99-2.46-2.8,0-2,1.3-3.36,3.28-3.36.27,0,.53.04.81.1v-2.47l1.58-.24h.24Zm-1.82,7.2v-3.22c-.25-.13-.52-.19-.81-.19-.93,0-1.41.81-1.41,2.08,0,1.08.57,1.6,1.31,1.6.36,0,.67-.08.91-.27Z"/>
        <path class="cls-3" d="m90.86,112.38v5.97h-1.78v-.59c-.52.47-1.14.7-1.85.7-.93,0-1.49-.5-1.67-1.26-.1-.38-.12-.93-.12-1.95v-2.63l1.56-.24h.25v3.23c0,1.12.22,1.5.98,1.5.28,0,.56-.07.81-.22v-4.28l1.58-.24h.24Z"/>
        <path class="cls-3" d="m91.88,115.54c0-2.02,1.21-3.26,3.19-3.26.68,0,1.25.1,1.71.29l-.19,1.44c-.59-.3-1.07-.46-1.42-.46-.93,0-1.39.68-1.39,1.9s.46,1.83,1.39,1.83c.42,0,1-.16,1.49-.53l.24,1.31c-.4.28-1.15.46-1.88.46-2.13,0-3.14-1.09-3.14-2.98Z"/>
        <path class="cls-3" d="m102.95,115.67h-3.75c.06,1.13.58,1.61,1.51,1.61.63,0,1.33-.17,1.93-.51l.24,1.27c-.53.3-1.41.47-2.31.47-2.13,0-3.19-1.09-3.19-3.02s1.22-3.22,2.97-3.22,2.6.94,2.6,2.8v.59Zm-1.78-1.02c0-.92-.3-1.28-.84-1.28-.57,0-.96.45-1.09,1.37l1.93-.08Z"/>
        <path class="cls-3" d="m117.79,118.18c-.42.23-.98.34-1.67.34-1.35,0-2.04-.58-2.04-1.88,0-.62.02-1.5.07-2.63h-.81l.07-1.08.84-.21.07-1.18,1.49-.23h.16l-.04,1.37h1.77l-.08,1.32h-1.68v2.57c-.01.44.17.62.55.62.31,0,.69-.11,1.13-.33l.18,1.31Z"/>
        <path class="cls-3" d="m124.25,115.56v2.79h-1.82v-3.2c0-1.05-.22-1.47-.98-1.47-.3,0-.61.07-.91.23v4.43h-1.82v-8.44l1.56-.24h.25v3.36c.57-.47,1.22-.68,1.84-.68.98,0,1.59.51,1.77,1.28.08.39.1.88.1,1.94Z"/>
        <path class="cls-3" d="m130.75,115.67h-3.75c.06,1.13.58,1.61,1.51,1.61.63,0,1.33-.17,1.93-.51l.24,1.27c-.53.3-1.41.47-2.31.47-2.13,0-3.19-1.09-3.19-3.02s1.22-3.22,2.97-3.22,2.6.94,2.6,2.8v.59Zm-1.78-1.02c0-.92-.3-1.28-.84-1.28-.57,0-.96.45-1.09,1.37l1.93-.08Z"/>
        <path class="cls-3" d="m17.27,127.98v8.69h-1.79v-.61c-.35.44-.93.69-1.66.69-1.45,0-2.46-.99-2.46-2.8,0-2,1.3-3.36,3.28-3.36.27,0,.53.04.81.1v-2.47l1.58-.24h.24Zm-1.82,7.2v-3.22c-.25-.13-.52-.19-.81-.19-.93,0-1.41.81-1.41,2.08,0,1.08.57,1.6,1.31,1.6.36,0,.67-.08.91-.27Z"/>
        <path class="cls-3" d="m24,130.69v5.97h-1.78v-.59c-.52.47-1.14.7-1.85.7-.93,0-1.49-.5-1.67-1.26-.1-.38-.12-.93-.12-1.95v-2.63l1.56-.24h.25v3.24c0,1.11.22,1.5.98,1.5.28,0,.56-.07.81-.22v-4.28l1.58-.24h.24Z"/>
        <path class="cls-3" d="m29.24,130.85l-.15,1.66c-.24-.02-.45-.04-.63-.04-.42,0-.57.07-.97.5l-.3.33v3.37h-1.82v-5.73l1.51-.24h.25v1.61l.36-.71c.38-.71.62-.91,1.04-.91.23,0,.46.06.69.17Z"/>
        <path class="cls-3" d="m34.48,132.22c0,.29-.01.85-.04,1.67l-.06,2.77h-1.76v-.5c-.45.3-.96.51-1.53.59-1.15-.08-1.83-.82-1.83-1.81s.68-1.36,2.23-1.54l1.13-.13v-.81c0-.4-.23-.59-.75-.59s-1.14.22-2,.84l-.3-1.34c.69-.52,1.79-.78,2.87-.78,1.27,0,2.04.51,2.04,1.62Zm-1.85,3.23v-1.2l-.57.06c-.76.08-.98.25-.98.61,0,.4.38.68.82.68.21,0,.45-.05.73-.15Z"/>
        <path class="cls-3" d="m39.67,136.49c-.42.23-.98.34-1.67.34-1.35,0-2.04-.58-2.04-1.88,0-.62.02-1.5.07-2.63h-.81l.07-1.08.84-.21.07-1.17,1.49-.23h.16l-.04,1.37h1.77l-.08,1.32h-1.68v2.57c-.01.44.17.62.55.62.31,0,.69-.11,1.13-.33l.18,1.31Z"/>
        <path class="cls-3" d="m40.42,128.9c0-.62.41-1.08,1.09-1.08s1.09.46,1.09,1.08-.41,1.07-1.09,1.07-1.09-.45-1.09-1.07Zm.18,2.04l1.55-.24h.27v5.97h-1.82v-5.73Z"/>
        <path class="cls-3" d="m43.44,133.78c0-1.94,1.2-3.19,3.1-3.19,2.02,0,2.98,1.18,2.98,3,0,2.1-1.3,3.23-3.09,3.23-1.99,0-2.99-1.11-2.99-3.05Zm4.18-.08c0-1.3-.33-1.91-1.1-1.91s-1.18.68-1.18,1.94c0,1.34.36,1.93,1.08,1.93.8,0,1.2-.65,1.2-1.95Z"/>
        <path class="cls-3" d="m56.06,133.88v2.79h-1.82v-3.21c0-1.05-.24-1.45-.98-1.45-.3,0-.61.07-.91.23v4.43h-1.82v-5.73l1.53-.24h.25v.67c.58-.48,1.29-.7,1.88-.7.98,0,1.59.51,1.77,1.28.08.39.1.88.1,1.94Z"/>
        <path class="cls-3" d="m60.61,133.78c0-1.94,1.2-3.19,3.1-3.19,2.02,0,2.98,1.18,2.98,3,0,2.1-1.3,3.23-3.09,3.23-1.99,0-2.99-1.11-2.99-3.05Zm4.18-.08c0-1.3-.33-1.91-1.1-1.91s-1.18.68-1.18,1.94c0,1.34.36,1.93,1.08,1.93.8,0,1.2-.65,1.2-1.95Z"/>
        <path class="cls-3" d="m69.88,130.24v.76h1.43l-.07,1.32h-1.36v4.34h-1.82v-4.34h-.9l.06-1.08.84-.21v-.71c0-1.5.92-2.33,2.47-2.33.59,0,1.05.07,1.38.21l-.18,1.47c-.47-.23-.84-.34-1.12-.34-.52,0-.74.29-.74.91Z"/>
        <path class="cls-3" d="m81.21,133.88v2.79h-1.82v-3.21c0-1.05-.24-1.45-.98-1.45-.3,0-.61.07-.91.23v4.43h-1.82v-5.73l1.53-.24h.25v.67c.58-.48,1.28-.7,1.88-.7.98,0,1.59.51,1.77,1.28.08.39.1.88.1,1.94Z"/>
        <path class="cls-3" d="m87.23,132.22c0,.29-.01.85-.04,1.67l-.06,2.77h-1.76v-.5c-.45.3-.96.51-1.53.59-1.15-.08-1.83-.82-1.83-1.81s.68-1.36,2.23-1.54l1.13-.13v-.81c0-.4-.23-.59-.75-.59s-1.14.22-2,.84l-.3-1.34c.69-.52,1.79-.78,2.87-.78,1.27,0,2.04.51,2.04,1.62Zm-1.85,3.23v-1.2l-.57.06c-.76.08-.98.25-.98.61,0,.4.38.68.82.68.21,0,.45-.05.73-.15Z"/>
        <path class="cls-3" d="m92.2,130.76h1.79l-2.05,5.92h-2.14l-2.04-5.92h1.95l1.25,4.42,1.24-4.42Z"/>
        <path class="cls-3" d="m94.5,128.9c0-.62.41-1.08,1.09-1.08s1.09.46,1.09,1.08-.41,1.07-1.09,1.07-1.09-.45-1.09-1.07Zm.18,2.04l1.55-.24h.27v5.97h-1.82v-5.73Z"/>
        <path class="cls-3" d="m101.62,135.81c1.31,0,2.02.58,2.02,1.61,0,1.45-1.38,2.27-3.62,2.27-1.79,0-2.82-.48-2.82-1.41,0-.48.36-.86,1.15-1.21-.38-.25-.57-.59-.57-1.04,0-.55.33-1.02.97-1.42-.74-.35-1.1-1.03-1.1-1.8,0-1.3.96-2.17,2.6-2.17.51,0,.96.08,1.34.24.01-.04.01-.08.01-.15.06-.74.46-1.08,1.04-1.08.36,0,.67.06.91.19l-.15,1.28c-.22-.06-.44-.1-.64-.1-.28,0-.42.1-.45.3.44.39.67.92.67,1.47,0,.71-.24,1.26-.73,1.62-.5.38-1.12.56-1.85.56-.23,0-.46-.01-.69-.05-.3.16-.45.38-.45.58s.15.3.45.3h1.9Zm.33,1.89c0-.27-.18-.4-.54-.4h-2.38c-.08.15-.12.29-.12.45,0,.52.46.78,1.37.78s1.67-.29,1.67-.82Zm-2.46-4.87c0,.67.36,1.05.86,1.05.63,0,.92-.39.92-1.07,0-.71-.3-1.08-.87-1.08s-.91.35-.91,1.09Z"/>
        <path class="cls-3" d="m108.89,132.22c0,.29-.01.85-.04,1.67l-.06,2.77h-1.76v-.5c-.45.3-.96.51-1.53.59-1.15-.08-1.83-.82-1.83-1.81s.68-1.36,2.23-1.54l1.13-.13v-.81c0-.4-.23-.59-.75-.59s-1.14.22-2,.84l-.3-1.34c.69-.52,1.79-.78,2.87-.78,1.27,0,2.04.51,2.04,1.62Zm-1.85,3.23v-1.2l-.57.06c-.76.08-.98.25-.98.61,0,.4.38.68.82.68.21,0,.45-.05.73-.15Z"/>
        <path class="cls-3" d="m114.08,136.49c-.42.23-.98.34-1.67.34-1.35,0-2.04-.58-2.04-1.88,0-.62.02-1.5.07-2.63h-.81l.07-1.08.84-.21.07-1.17,1.49-.23h.16l-.04,1.37h1.77l-.08,1.32h-1.68v2.57c-.01.44.17.62.55.62.31,0,.69-.11,1.13-.33l.18,1.31Z"/>
        <path class="cls-3" d="m114.83,128.9c0-.62.41-1.08,1.09-1.08s1.09.46,1.09,1.08-.41,1.07-1.09,1.07-1.09-.45-1.09-1.07Zm.18,2.04l1.55-.24h.27v5.97h-1.82v-5.73Z"/>
        <path class="cls-3" d="m117.85,133.78c0-1.94,1.2-3.19,3.1-3.19,2.02,0,2.98,1.18,2.98,3,0,2.1-1.3,3.23-3.09,3.23-1.99,0-2.99-1.11-2.99-3.05Zm4.18-.08c0-1.3-.33-1.91-1.1-1.91s-1.18.68-1.18,1.94c0,1.34.36,1.93,1.08,1.93.8,0,1.2-.65,1.2-1.95Z"/>
        <path class="cls-3" d="m130.48,133.88v2.79h-1.82v-3.21c0-1.05-.24-1.45-.98-1.45-.3,0-.61.07-.91.23v4.43h-1.82v-5.73l1.53-.24h.25v.67c.58-.48,1.28-.7,1.88-.7.98,0,1.59.51,1.77,1.28.08.39.1.88.1,1.94Z"/>
        <path class="cls-3" d="m11.36,152.09c0-1.94,1.2-3.19,3.1-3.19,2.02,0,2.98,1.17,2.98,3,0,2.1-1.3,3.24-3.09,3.24-1.99,0-2.99-1.11-2.99-3.05Zm4.18-.08c0-1.3-.33-1.91-1.1-1.91s-1.18.68-1.18,1.94c0,1.34.36,1.93,1.08,1.93.8,0,1.2-.65,1.2-1.95Z"/>
        <path class="cls-3" d="m20.63,148.55v.76h1.43l-.07,1.32h-1.36v4.34h-1.82v-4.34h-.9l.06-1.08.84-.21v-.71c0-1.5.92-2.33,2.47-2.33.59,0,1.05.07,1.38.21l-.18,1.47c-.47-.23-.84-.34-1.12-.34-.52,0-.74.29-.74.91Z"/>
        <path class="cls-3" d="m28.81,149.07h1.79l-2.05,5.92h-2.14l-2.04-5.92h1.95l1.25,4.42,1.24-4.42Z"/>
        <path class="cls-3" d="m36.42,152.3h-3.75c.06,1.13.58,1.61,1.51,1.61.63,0,1.33-.17,1.93-.51l.24,1.27c-.53.3-1.41.47-2.31.47-2.13,0-3.19-1.09-3.19-3.02s1.22-3.22,2.97-3.22,2.6.94,2.6,2.8v.59Zm-1.78-1.02c0-.92-.3-1.28-.84-1.28-.57,0-.96.45-1.09,1.37l1.93-.08Z"/>
        <path class="cls-3" d="m37.2,154.84l.17-1.49c.52.34,1.26.54,1.81.54s.84-.18.84-.54c0-.25-.21-.4-1.09-.75-1.1-.42-1.66-.86-1.66-1.79,0-1.13.86-1.91,2.51-1.91.7,0,1.28.11,1.76.32l-.19,1.43c-.47-.29-1.14-.47-1.62-.47s-.75.17-.75.5c0,.28.18.39.87.68,1.42.58,1.9,1.05,1.9,1.92,0,1.13-.8,1.89-2.48,1.89-.87,0-1.55-.1-2.05-.3Z"/>
        <path class="cls-3" d="m42.42,154.84l.17-1.49c.52.34,1.26.54,1.81.54s.84-.18.84-.54c0-.25-.21-.4-1.09-.75-1.1-.42-1.66-.86-1.66-1.79,0-1.13.86-1.91,2.51-1.91.7,0,1.28.11,1.76.32l-.19,1.43c-.47-.29-1.14-.47-1.62-.47s-.75.17-.75.5c0,.28.18.39.87.68,1.42.58,1.9,1.05,1.9,1.92,0,1.13-.8,1.89-2.48,1.89-.87,0-1.55-.1-2.05-.3Z"/>
        <path class="cls-3" d="m53.14,152.3h-3.75c.06,1.13.58,1.61,1.51,1.61.63,0,1.33-.17,1.93-.51l.24,1.27c-.53.3-1.41.47-2.31.47-2.13,0-3.19-1.09-3.19-3.02s1.22-3.22,2.97-3.22,2.6.94,2.6,2.8v.59Zm-1.78-1.02c0-.92-.3-1.28-.84-1.28-.57,0-.96.45-1.09,1.37l1.93-.08Z"/>
        <path class="cls-3" d="m54.16,146.53l1.56-.24h.25v8.69h-1.82v-8.44Z"/>
        <path class="cls-3" d="m57.05,154.84l.17-1.49c.52.34,1.26.54,1.81.54s.84-.18.84-.54c0-.25-.21-.4-1.09-.75-1.1-.42-1.66-.86-1.66-1.79,0-1.13.86-1.91,2.51-1.91.7,0,1.28.11,1.76.32l-.19,1.43c-.47-.29-1.14-.47-1.62-.47s-.75.17-.75.5c0,.28.18.39.87.68,1.42.58,1.9,1.05,1.9,1.92,0,1.13-.8,1.89-2.48,1.89-.87,0-1.55-.1-2.05-.3Z"/>
        <path class="cls-3" d="m70.12,149v5.97h-1.78v-.59c-.52.47-1.14.7-1.85.7-.93,0-1.49-.5-1.67-1.26-.1-.38-.12-.93-.12-1.95v-2.63l1.56-.24h.25v3.23c0,1.12.22,1.5.98,1.5.28,0,.56-.07.81-.22v-4.28l1.58-.24h.24Z"/>
        <path class="cls-3" d="m77.42,151.72c0,1.99-1.22,3.43-3.15,3.43-.38,0-.69-.04-.94-.1v2.77h-1.82v-8.58l1.55-.24h.27v.65c.39-.42.97-.67,1.65-.67,1.49,0,2.45,1.02,2.45,2.73Zm-1.89.17c0-1.03-.52-1.58-1.33-1.58-.35,0-.64.08-.87.25v3.22c.23.13.48.21.75.21.97,0,1.45-.7,1.45-2.11Z"/>
        <path class="cls-3" d="m84.58,154.81c-.42.23-.98.34-1.67.34-1.35,0-2.04-.58-2.04-1.88,0-.62.02-1.5.07-2.63h-.81l.07-1.08.84-.21.07-1.18,1.49-.23h.16l-.04,1.37h1.77l-.08,1.32h-1.68v2.57c-.01.44.17.62.55.62.31,0,.69-.11,1.13-.33l.18,1.31Z"/>
        <path class="cls-3" d="m85.05,152.09c0-1.94,1.2-3.19,3.1-3.19,2.02,0,2.98,1.17,2.98,3,0,2.1-1.3,3.24-3.09,3.24-1.99,0-2.99-1.11-2.99-3.05Zm4.18-.08c0-1.3-.33-1.91-1.1-1.91s-1.18.68-1.18,1.94c0,1.34.36,1.93,1.08,1.93.8,0,1.2-.65,1.2-1.95Z"/>
        <path class="cls-2" d="m93.98,154v-2.37c0-.9.35-1.46,1.16-1.98l1.34-.86c.26-.18.36-.39.36-.69v-1.27c0-.32-.15-.53-.43-.53h-.08c-.28,0-.43.21-.43.53v.69c0,.49-.35.8-.93.8s-.93-.32-.93-.8v-.71c0-1.37.73-2.08,2.13-2.08h.4c1.38,0,2.12.71,2.12,2.08v1.09c0,.89-.3,1.43-1.19,1.98l-1.23.79c-.32.21-.43.44-.43.86v1.79h1.05v-1.41c0-.49.35-.8.93-.8s.92.32.92.8v2.09c0,.55-.42.97-.97.97h-2.81c-.57,0-.98-.42-.98-.97Z"/>
        <path class="cls-2" d="m102.48,154.7c-1.26-1.62-1.65-2.78-1.65-5.86v-1.5c0-.51.36-.83.96-.83s.96.32.96.83v2.17c0,1.58.1,2.62.37,3.28l.08.19h.06l.08-.19c.28-.67.36-1.7.36-3.28v-2.17c0-.51.36-.83.96-.83s.96.32.96.83v2.17c0,1.58.1,2.62.36,3.28l.1.19h.06l.08-.19c.28-.67.36-1.7.36-3.28v-2.17c0-.51.36-.83.96-.83s.96.32.96.83v1.5c0,3.08-.32,4.25-1.58,5.86-.19.24-.44.33-.73.33-.31,0-.55-.1-.75-.33-.32-.42-.58-.8-.79-1.19-.17.4-.36.8-.67,1.19-.19.24-.43.33-.73.33s-.55-.1-.75-.33Z"/>
        <path class="cls-2" d="m108.95,152.94v-4.35c0-1.37.75-2.08,2.16-2.08h.42c1.43,0,2.18.71,2.18,2.08v.61c0,.76-.42,1.18-1.18,1.18h-1.69v2.63c0,.32.15.5.43.5h.1c.3,0,.46-.18.46-.5v-1.09c0-.5.35-.8.94-.8s.94.3.94.8v1.03c0,1.4-.75,2.09-2.18,2.09h-.42c-1.41,0-2.16-.69-2.16-2.09Zm1.88-3.67h.98v-.71c0-.32-.15-.53-.46-.53h-.1c-.28,0-.43.21-.43.53v.71Z"/>
        <path class="cls-2" d="m114.23,152.94v-4.35c0-1.37.75-2.08,2.16-2.08h.42c1.43,0,2.18.71,2.18,2.08v.61c0,.76-.42,1.18-1.18,1.18h-1.69v2.63c0,.32.15.5.43.5h.1c.3,0,.46-.18.46-.5v-1.09c0-.5.35-.8.94-.8s.94.3.94.8v1.03c0,1.4-.75,2.09-2.18,2.09h-.42c-1.41,0-2.16-.69-2.16-2.09Zm1.88-3.67h.98v-.71c0-.32-.15-.53-.46-.53h-.1c-.28,0-.43.21-.43.53v.71Z"/>
        <path class="cls-2" d="m119.56,154.21v-8.66c0-.5.35-.82.94-.82s.94.32.94.82v3.91h.22c.43,0,.68-.29.68-.79v-1.36c0-.49.33-.8.93-.8s.91.32.91.8v.97c0,.79-.22,1.51-1.08,1.8.9.26,1.18.97,1.18,1.82v2.31c0,.5-.35.82-.94.82s-.94-.32-.94-.82v-2.38c0-.5-.26-.79-.72-.79h-.24v3.17c0,.5-.35.82-.94.82s-.94-.32-.94-.82Z"/>
        <path class="cls-2" d="m124.77,152.94v-.58c0-.51.35-.82.93-.82s.94.3.94.82v.6c0,.33.18.51.49.51h.08c.32,0,.49-.18.49-.51v-.29c0-.61-.18-.91-.73-1.23l-.72-.4c-.98-.55-1.4-1.23-1.4-2.33v-.11c0-1.36.73-2.08,2.13-2.08h.4c1.4,0,2.12.69,2.12,2.04v.26c0,.51-.33.83-.91.83s-.93-.3-.93-.78v-.26c0-.32-.17-.53-.43-.53h-.08c-.28,0-.44.21-.44.53v.18c0,.46.15.69.69,1l.93.54c.87.5,1.25,1.19,1.25,2.31v.3c0,1.38-.75,2.09-2.19,2.09h-.4c-1.46,0-2.2-.71-2.2-2.09Z"/>
      </g>
    </g>
  </g>
</svg>