<?xml version="1.0" encoding="UTF-8"?>
<svg id="Layer_2" data-name="Layer 2" xmlns="http://www.w3.org/2000/svg" viewBox="0 0 140.67 107.29">
  <defs>
    <style>
      .cls-1 {
        fill: #fff;
        stroke: #497c72;
        stroke-miterlimit: 10;
        stroke-width: 2px;
      }

      .cls-2 {
        fill: #017373;
      }

      .cls-3 {
        fill: #302a2a;
      }
    </style>
  </defs>
  <g id="Layer_1-2" data-name="Layer 1">
    <g>
      <rect class="cls-1" x="1" y="1" width="138.67" height="105.29" rx="23.04" ry="23.04"/>
      <g>
        <path class="cls-3" d="m14.7,25.9l-.53-1.7h-2.65l-.52,1.7h-1.89l2.79-8.14h2.07l2.79,8.14h-2.05Zm-2.76-3.03h1.82l-.91-2.92-.91,2.92Z"/>
        <path class="cls-3" d="m23.45,22.63c0,2.11-1.31,3.44-3.39,3.44-.98,0-1.82-.13-2.52-.41v-8.2l1.55-.24h.27v3.38c.42-.44.99-.68,1.66-.68,1.47,0,2.44,1.05,2.44,2.71Zm-1.89.19c0-1.07-.55-1.59-1.31-1.59-.36,0-.67.08-.9.24v3.32c.19.08.42.12.7.12,1.03,0,1.5-.73,1.5-2.1Z"/>
        <path class="cls-3" d="m24.14,23.01c0-1.94,1.2-3.19,3.1-3.19,2.02,0,2.98,1.17,2.98,3,0,2.1-1.3,3.24-3.09,3.24-1.99,0-2.99-1.11-2.99-3.05Zm4.18-.08c0-1.3-.33-1.91-1.1-1.91s-1.18.68-1.18,1.94c0,1.34.36,1.93,1.08,1.93.8,0,1.2-.65,1.2-1.95Z"/>
        <path class="cls-3" d="m36.59,19.92v5.97h-1.78v-.59c-.52.47-1.14.7-1.85.7-.93,0-1.49-.5-1.67-1.26-.1-.38-.12-.93-.12-1.95v-2.63l1.56-.24h.25v3.23c0,1.12.22,1.5.98,1.5.28,0,.56-.07.81-.22v-4.28l1.58-.24h.24Z"/>
        <path class="cls-3" d="m41.87,25.73c-.42.23-.98.34-1.67.34-1.35,0-2.04-.58-2.04-1.88,0-.62.02-1.5.07-2.63h-.81l.07-1.08.84-.21.07-1.18,1.49-.23h.16l-.04,1.37h1.77l-.08,1.32h-1.68v2.57c-.01.44.17.62.55.62.31,0,.69-.11,1.13-.33l.18,1.31Z"/>
        <path class="cls-2" d="m45.84,25.07v-7.5h-.41c-.34,0-.56-.25-.56-.69s.22-.68.56-.68h.12c.34,0,.54-.19.54-.43v-.09c0-.41.4-.66.91-.66.57,0,.88.37.88.84v9.21c0,.54-.38.88-1.01.88s-1.03-.34-1.03-.88Z"/>
        <path class="cls-2" d="m48.48,20.54v-4.65c0-.53.37-.87,1-.87s.99.34.99.87v4.38c0,.59.25.87.63.87.16,0,.29-.06.4-.18v-5.07c0-.53.37-.87,1-.87s1,.34,1,.87v9.22c0,.51-.35.84-.96.84s-.97-.32-.97-.84v-2.77c-.19.18-.56.43-1.21.43-1.12,0-1.88-.57-1.88-2.24Z"/>
        <path class="cls-2" d="m54.49,26.99s.01-.1.12-.31l.41-.82c-.51-.09-.85-.46-.85-1.01,0-.62.47-1.04,1.06-1.04.68,0,1.13.51,1.13,1.24,0,.66-.34,1.32-.69,1.74-.18.21-.49.46-.84.46-.22,0-.34-.1-.34-.24Z"/>
        <path class="cls-2" d="m56.8,23.73v-6.5c0-1.46.79-2.21,2.29-2.21h.43c1.52,0,2.29.75,2.29,2.21v6.5c0,1.49-.78,2.22-2.29,2.22h-.43c-1.5,0-2.29-.74-2.29-2.22Zm2.54.56c.31,0,.47-.19.47-.54v-6.5c0-.34-.16-.56-.47-.56h-.09c-.29,0-.46.22-.46.56v6.5c0,.35.16.54.46.54h.09Z"/>
        <path class="cls-2" d="m62.41,23.73v-6.5c0-1.46.79-2.21,2.29-2.21h.43c1.52,0,2.29.75,2.29,2.21v6.5c0,1.49-.78,2.22-2.29,2.22h-.43c-1.5,0-2.29-.74-2.29-2.22Zm2.54.56c.31,0,.47-.19.47-.54v-6.5c0-.34-.16-.56-.47-.56h-.09c-.29,0-.46.22-.46.56v6.5c0,.35.16.54.46.54h.09Z"/>
        <path class="cls-2" d="m68.01,23.73v-6.5c0-1.46.79-2.21,2.29-2.21h.43c1.51,0,2.29.75,2.29,2.21v6.5c0,1.49-.78,2.22-2.29,2.22h-.43c-1.5,0-2.29-.74-2.29-2.22Zm2.54.56c.31,0,.47-.19.47-.54v-6.5c0-.34-.16-.56-.47-.56h-.09c-.29,0-.46.22-.46.56v6.5c0,.35.16.54.46.54h.09Z"/>
        <path class="cls-3" d="m76.38,25.76l.17-1.49c.52.34,1.26.54,1.81.54s.84-.18.84-.54c0-.25-.21-.4-1.09-.75-1.1-.42-1.66-.86-1.66-1.79,0-1.13.86-1.91,2.51-1.91.7,0,1.28.11,1.76.32l-.19,1.43c-.47-.29-1.14-.47-1.62-.47s-.75.17-.75.5c0,.28.18.39.87.68,1.42.58,1.9,1.05,1.9,1.92,0,1.13-.8,1.89-2.48,1.89-.87,0-1.55-.1-2.05-.3Z"/>
        <path class="cls-3" d="m87.39,23.11v2.79h-1.82v-3.2c0-1.05-.22-1.47-.98-1.47-.3,0-.61.07-.91.23v4.43h-1.82v-8.44l1.56-.24h.25v3.36c.57-.47,1.22-.68,1.84-.68.98,0,1.59.51,1.77,1.28.08.39.1.88.1,1.94Z"/>
        <path class="cls-3" d="m88.51,18.13c0-.62.41-1.08,1.09-1.08s1.09.46,1.09,1.08-.41,1.07-1.09,1.07-1.09-.45-1.09-1.07Zm.18,2.04l1.55-.24h.27v5.97h-1.82v-5.73Z"/>
        <path class="cls-3" d="m97.81,22.64c0,1.99-1.22,3.43-3.15,3.43-.38,0-.69-.04-.94-.1v2.77h-1.82v-8.58l1.55-.24h.27v.65c.39-.42.97-.67,1.65-.67,1.49,0,2.45,1.02,2.45,2.73Zm-1.89.17c0-1.03-.52-1.58-1.33-1.58-.35,0-.64.08-.87.25v3.22c.23.13.48.21.75.21.97,0,1.45-.7,1.45-2.11Z"/>
        <path class="cls-3" d="m98.63,25.76l.17-1.49c.52.34,1.26.54,1.81.54s.84-.18.84-.54c0-.25-.21-.4-1.09-.75-1.1-.42-1.66-.86-1.66-1.79,0-1.13.86-1.91,2.51-1.91.7,0,1.28.11,1.76.32l-.19,1.43c-.47-.29-1.14-.47-1.62-.47s-.75.17-.75.5c0,.28.18.39.87.68,1.42.58,1.9,1.05,1.9,1.92,0,1.13-.8,1.89-2.48,1.89-.87,0-1.55-.1-2.05-.3Z"/>
        <path class="cls-3" d="m106.43,23.09c0-2.02,1.21-3.26,3.19-3.26.68,0,1.25.1,1.71.29l-.19,1.44c-.59-.3-1.07-.46-1.42-.46-.93,0-1.39.68-1.39,1.9s.46,1.83,1.39,1.83c.42,0,1-.16,1.49-.53l.24,1.31c-.4.28-1.15.46-1.88.46-2.13,0-3.14-1.09-3.14-2.98Z"/>
        <path class="cls-3" d="m116.23,20.08l-.15,1.66c-.24-.02-.45-.04-.63-.04-.42,0-.57.07-.97.5l-.3.33v3.37h-1.82v-5.73l1.51-.24h.25v1.61l.36-.71c.38-.71.62-.91,1.04-.91.23,0,.46.06.69.17Z"/>
        <path class="cls-3" d="m116.51,23.01c0-1.94,1.2-3.19,3.1-3.19,2.02,0,2.98,1.17,2.98,3,0,2.1-1.3,3.24-3.09,3.24-1.99,0-2.99-1.11-2.99-3.05Zm4.18-.08c0-1.3-.33-1.91-1.1-1.91s-1.18.68-1.18,1.94c0,1.34.36,1.93,1.08,1.93.8,0,1.2-.65,1.2-1.95Z"/>
        <path class="cls-3" d="m123.42,25.76l.17-1.49c.52.34,1.26.54,1.81.54s.84-.18.84-.54c0-.25-.21-.4-1.09-.75-1.1-.42-1.66-.86-1.66-1.79,0-1.13.86-1.91,2.51-1.91.7,0,1.28.11,1.76.32l-.19,1.43c-.47-.29-1.14-.47-1.62-.47s-.75.17-.75.5c0,.28.18.39.87.68,1.42.58,1.9,1.05,1.9,1.92,0,1.13-.8,1.89-2.48,1.89-.87,0-1.55-.1-2.05-.3Z"/>
        <path class="cls-3" d="m128.64,25.76l.17-1.49c.52.34,1.26.54,1.81.54s.84-.18.84-.54c0-.25-.21-.4-1.09-.75-1.1-.42-1.66-.86-1.66-1.79,0-1.13.86-1.91,2.51-1.91.7,0,1.28.11,1.76.32l-.19,1.43c-.47-.29-1.14-.47-1.62-.47s-.75.17-.75.5c0,.28.18.39.87.68,1.42.58,1.9,1.05,1.9,1.92,0,1.13-.8,1.89-2.48,1.89-.87,0-1.55-.1-2.05-.3Z"/>
        <path class="cls-3" d="m13.6,43.41c-.42.23-.98.34-1.67.34-1.35,0-2.04-.58-2.04-1.88,0-.62.02-1.5.07-2.63h-.81l.07-1.08.84-.21.07-1.18,1.49-.23h.16l-.04,1.37h1.77l-.08,1.32h-1.68v2.57c-.01.44.17.62.55.62.31,0,.69-.11,1.13-.33l.18,1.31Z"/>
        <path class="cls-3" d="m20.06,40.79v2.79h-1.82v-3.2c0-1.05-.22-1.47-.98-1.47-.3,0-.61.07-.91.23v4.43h-1.82v-8.44l1.56-.24h.25v3.36c.57-.47,1.22-.68,1.84-.68.98,0,1.59.51,1.77,1.28.08.39.1.88.1,1.94Z"/>
        <path class="cls-3" d="m26.56,40.9h-3.75c.06,1.13.58,1.61,1.51,1.61.63,0,1.33-.17,1.93-.51l.24,1.27c-.53.3-1.41.47-2.31.47-2.13,0-3.19-1.09-3.19-3.02s1.22-3.22,2.97-3.22,2.6.94,2.6,2.8v.59Zm-1.78-1.02c0-.92-.3-1.28-.84-1.28-.57,0-.96.45-1.09,1.37l1.93-.08Z"/>
        <path class="cls-2" d="m33.21,42.78v-8.78c0-.79.44-1.24,1.24-1.24h1.44c1.52,0,2.31.74,2.31,2.16v2.24c0,1.43-.79,2.15-2.31,2.15h-.68v3.47c0,.53-.37.85-1,.85s-1-.32-1-.85Zm2-5.1h.52c.29,0,.47-.18.47-.5v-2.19c0-.32-.18-.53-.47-.53h-.52v3.22Z"/>
        <path class="cls-2" d="m38.54,41.8v-.88c0-1.29.9-1.91,2.07-1.91.46,0,.76.09.96.18v-2.41c0-.34-.16-.56-.44-.56h-.09c-.28,0-.44.22-.44.56v.69c0,.51-.35.84-.96.84s-.97-.32-.97-.84v-.84c0-1.37.78-2.03,2.24-2.03h.43c1.47,0,2.22.74,2.22,2.19v6c0,.53-.35.85-1,.85-.56,0-.91-.26-.97-.69-.24.29-.78.69-1.53.69-.88,0-1.52-.51-1.52-1.84Zm2.5.32c.21,0,.41-.13.53-.31v-1.38c-.1-.06-.25-.09-.43-.09-.38,0-.6.22-.6.66v.46c0,.44.19.66.5.66Z"/>
        <path class="cls-2" d="m44.25,42.75v-7.28c0-.54.37-.88,1.01-.88.53,0,.87.24.97.63.24-.24.81-.63,1.62-.63.96,0,1.46.47,1.46,1.84v6.33c0,.54-.37.88-1,.88s-1.01-.34-1.01-.88v-5.84c0-.44-.19-.66-.5-.66-.22,0-.41.13-.53.31v6.19c0,.54-.37.88-1,.88s-1.01-.34-1.01-.88Z"/>
        <path class="cls-2" d="m49.9,41.8v-.88c0-1.29.9-1.91,2.07-1.91.46,0,.76.09.96.18v-2.41c0-.34-.16-.56-.44-.56h-.09c-.28,0-.44.22-.44.56v.69c0,.51-.35.84-.96.84s-.97-.32-.97-.84v-.84c0-1.37.78-2.03,2.24-2.03h.43c1.47,0,2.22.74,2.22,2.19v6c0,.53-.35.85-1,.85-.56,0-.91-.26-.97-.69-.24.29-.78.69-1.53.69-.88,0-1.52-.51-1.52-1.84Zm2.5.32c.21,0,.41-.13.53-.31v-1.38c-.1-.06-.25-.09-.43-.09-.38,0-.6.22-.6.66v.46c0,.44.19.66.5.66Z"/>
        <path class="cls-2" d="m55.61,42.75v-7.28c0-.54.37-.88,1.01-.88.53,0,.87.24.97.63.24-.24.81-.63,1.62-.63.65,0,1.07.21,1.29.76.06-.16.71-.76,1.71-.76s1.47.47,1.47,1.84v6.33c0,.54-.37.88-1,.88s-1.01-.34-1.01-.88v-5.84c0-.44-.19-.66-.5-.66-.21,0-.38.12-.5.28v6.22c0,.54-.37.88-1,.88s-1.01-.34-1.01-.88v-5.84c0-.44-.19-.66-.5-.66-.22,0-.41.13-.53.31v6.19c0,.54-.37.88-1,.88s-1.01-.34-1.01-.88Z"/>
        <path class="cls-2" d="m64.28,41.8v-.88c0-1.29.9-1.91,2.07-1.91.46,0,.76.09.96.18v-2.41c0-.34-.16-.56-.44-.56h-.09c-.28,0-.44.22-.44.56v.69c0,.51-.35.84-.96.84s-.97-.32-.97-.84v-.84c0-1.37.78-2.03,2.24-2.03h.43c1.47,0,2.22.74,2.22,2.19v6c0,.53-.35.85-1,.85-.56,0-.91-.26-.97-.69-.24.29-.78.69-1.53.69-.88,0-1.52-.51-1.52-1.84Zm2.5.32c.21,0,.41-.13.53-.31v-1.38c-.1-.06-.25-.09-.43-.09-.38,0-.6.22-.6.66v.46c0,.44.19.66.5.66Z"/>
        <path class="cls-2" d="m74.36,41.41v-6.5c0-1.46.78-2.21,2.28-2.21h.38c1.5,0,2.27.75,2.27,2.21v.72c0,.52-.35.88-.99.88s-1-.37-1-.88v-.71c0-.34-.16-.56-.46-.56h-.04c-.29,0-.44.22-.44.56v6.5c0,.35.15.54.44.54h.04c.29,0,.46-.19.46-.54v-1.07c0-.53.37-.88,1-.88s.99.35.99.88v1.06c0,1.49-.77,2.22-2.27,2.22h-.38c-1.5,0-2.28-.74-2.28-2.22Z"/>
        <path class="cls-2" d="m79.82,41.8v-.88c0-1.29.9-1.91,2.07-1.91.46,0,.76.09.96.18v-2.41c0-.34-.16-.56-.44-.56h-.09c-.28,0-.44.22-.44.56v.69c0,.51-.35.84-.96.84s-.97-.32-.97-.84v-.84c0-1.37.78-2.03,2.24-2.03h.43c1.47,0,2.22.74,2.22,2.19v6c0,.53-.35.85-1,.85-.56,0-.91-.26-.97-.69-.24.29-.78.69-1.53.69-.88,0-1.52-.51-1.52-1.84Zm2.5.32c.21,0,.41-.13.53-.31v-1.38c-.1-.06-.25-.09-.43-.09-.38,0-.6.22-.6.66v.46c0,.44.19.66.5.66Z"/>
        <path class="cls-2" d="m85.53,42.75v-7.28c0-.54.37-.88,1.01-.88.53,0,.87.24.97.63.24-.24.81-.63,1.62-.63.96,0,1.46.47,1.46,1.84v6.33c0,.54-.37.88-1,.88s-1.01-.34-1.01-.88v-5.84c0-.44-.19-.66-.5-.66-.22,0-.41.13-.53.31v6.19c0,.54-.37.88-1,.88s-1.01-.34-1.01-.88Z"/>
        <path class="cls-2" d="m91.18,41.8v-.88c0-1.29.9-1.91,2.07-1.91.46,0,.76.09.96.18v-2.41c0-.34-.16-.56-.44-.56h-.09c-.28,0-.44.22-.44.56v.69c0,.51-.35.84-.96.84s-.97-.32-.97-.84v-.84c0-1.37.78-2.03,2.24-2.03h.43c1.47,0,2.22.74,2.22,2.19v6c0,.53-.35.85-1,.85-.56,0-.91-.26-.97-.69-.24.29-.78.69-1.53.69-.88,0-1.52-.51-1.52-1.84Zm2.5.32c.21,0,.41-.13.53-.31v-1.38c-.1-.06-.25-.09-.43-.09-.38,0-.6.22-.6.66v.46c0,.44.19.66.5.66Z"/>
        <path class="cls-2" d="m96.9,42.75v-9.16c0-.54.38-.88,1.03-.88s1.03.34,1.03.88v9.16c0,.54-.38.88-1.03.88s-1.03-.34-1.03-.88Z"/>
        <path class="cls-3" d="m109.59,40.9h-3.75c.06,1.13.58,1.61,1.51,1.61.63,0,1.33-.17,1.93-.51l.24,1.27c-.53.3-1.41.47-2.31.47-2.13,0-3.19-1.09-3.19-3.02s1.22-3.22,2.97-3.22,2.6.94,2.6,2.8v.59Zm-1.78-1.02c0-.92-.3-1.28-.84-1.28-.57,0-.96.45-1.09,1.37l1.93-.08Z"/>
        <path class="cls-3" d="m114.38,37.68h1.79l-2.05,5.92h-2.14l-2.04-5.92h1.95l1.25,4.42,1.24-4.42Z"/>
        <path class="cls-3" d="m121.99,40.9h-3.75c.06,1.13.58,1.61,1.51,1.61.63,0,1.33-.17,1.93-.51l.24,1.27c-.53.3-1.41.47-2.31.47-2.13,0-3.19-1.09-3.19-3.02s1.22-3.22,2.97-3.22,2.6.94,2.6,2.8v.59Zm-1.78-1.02c0-.92-.3-1.28-.84-1.28-.57,0-.96.45-1.09,1.37l1.93-.08Z"/>
        <path class="cls-3" d="m126.87,37.76l-.15,1.66c-.24-.02-.45-.04-.63-.04-.42,0-.57.07-.97.5l-.3.33v3.37h-1.82v-5.73l1.51-.24h.25v1.61l.36-.71c.38-.71.62-.91,1.04-.91.23,0,.46.06.69.17Z"/>
        <path class="cls-3" d="m133.44,37.68l-2.17,6.37c-.62,1.77-1.2,2.17-3,2.41l-.39-1.3c1.36-.19,1.81-.47,2.12-1.57l.02-.07h-.9l-1.93-5.84h1.93l1.24,4.6,1.3-4.6h1.78Z"/>
        <path class="cls-3" d="m15.25,52.57v8.69h-1.79v-.61c-.35.44-.93.69-1.66.69-1.45,0-2.46-.99-2.46-2.8,0-2,1.3-3.36,3.28-3.36.27,0,.53.04.81.1v-2.47l1.58-.24h.24Zm-1.82,7.2v-3.22c-.25-.13-.52-.19-.81-.19-.93,0-1.41.81-1.41,2.08,0,1.08.57,1.6,1.31,1.6.36,0,.67-.08.91-.27Z"/>
        <path class="cls-3" d="m21.35,56.81c0,.29-.01.85-.04,1.67l-.06,2.77h-1.76v-.5c-.45.3-.96.51-1.53.59-1.15-.08-1.83-.82-1.83-1.8s.68-1.36,2.23-1.54l1.13-.13v-.81c0-.4-.23-.59-.75-.59s-1.14.22-2,.84l-.3-1.34c.69-.52,1.79-.78,2.87-.78,1.27,0,2.04.51,2.04,1.62Zm-1.85,3.24v-1.2l-.57.06c-.76.08-.98.25-.98.61,0,.4.38.68.82.68.21,0,.45-.05.73-.14Z"/>
        <path class="cls-3" d="m28.14,55.35l-2.17,6.37c-.62,1.77-1.2,2.17-3,2.41l-.39-1.3c1.36-.19,1.81-.47,2.12-1.57l.02-.07h-.9l-1.93-5.84h1.93l1.24,4.6,1.3-4.6h1.78Z"/>
        <path class="cls-3" d="m28.07,60.27c0-.62.45-1.07,1.09-1.07s1.08.45,1.08,1.07-.44,1.07-1.08,1.07-1.09-.45-1.09-1.07Z"/>
        <path class="cls-3" d="m35.9,54.63v2.16h2.4v1.38h-2.4v3.09h-1.94v-8.08h5.44l.1,1.45h-3.6Z"/>
        <path class="cls-3" d="m44.83,58.58h-3.75c.06,1.13.58,1.61,1.51,1.61.63,0,1.33-.17,1.93-.51l.24,1.27c-.53.3-1.41.47-2.31.47-2.13,0-3.19-1.09-3.19-3.02s1.22-3.22,2.97-3.22,2.6.94,2.6,2.8v.59Zm-1.78-1.02c0-.92-.3-1.28-.84-1.28-.57,0-.96.45-1.09,1.37l1.93-.08Z"/>
        <path class="cls-3" d="m51.15,58.58h-3.75c.06,1.13.58,1.61,1.51,1.61.63,0,1.33-.17,1.93-.51l.24,1.27c-.53.3-1.41.47-2.31.47-2.13,0-3.19-1.09-3.19-3.02s1.22-3.22,2.97-3.22,2.6.94,2.6,2.8v.59Zm-1.78-1.02c0-.92-.3-1.28-.84-1.28-.57,0-.96.45-1.09,1.37l1.93-.08Z"/>
        <path class="cls-3" d="m51.92,61.12l.17-1.49c.52.34,1.26.54,1.81.54s.84-.18.84-.54c0-.25-.21-.4-1.09-.75-1.1-.42-1.66-.86-1.66-1.79,0-1.13.86-1.91,2.51-1.91.7,0,1.28.11,1.76.32l-.19,1.43c-.47-.29-1.14-.47-1.62-.47s-.75.17-.75.5c0,.28.18.39.87.68,1.42.58,1.9,1.05,1.9,1.92,0,1.13-.8,1.89-2.48,1.89-.87,0-1.55-.1-2.05-.3Z"/>
        <path class="cls-3" d="m61.86,54.83v.76h1.43l-.07,1.32h-1.36v4.34h-1.82v-4.34h-.9l.06-1.08.84-.21v-.71c0-1.5.92-2.33,2.47-2.33.59,0,1.05.07,1.38.21l-.18,1.47c-.47-.23-.84-.34-1.12-.34-.52,0-.74.29-.74.91Z"/>
        <path class="cls-3" d="m63.62,58.37c0-1.94,1.2-3.19,3.1-3.19,2.02,0,2.98,1.17,2.98,3,0,2.1-1.3,3.24-3.09,3.24-1.99,0-2.99-1.11-2.99-3.05Zm4.18-.08c0-1.3-.33-1.91-1.1-1.91s-1.18.68-1.18,1.94c0,1.34.36,1.93,1.08,1.93.8,0,1.2-.65,1.2-1.95Z"/>
        <path class="cls-3" d="m74.59,55.44l-.14,1.66c-.24-.02-.45-.04-.63-.04-.42,0-.57.07-.97.5l-.3.33v3.37h-1.82v-5.73l1.51-.24h.25v1.61l.36-.71c.38-.71.62-.91,1.04-.91.23,0,.46.06.69.17Z"/>
        <path class="cls-3" d="m81.57,61.09c-.42.23-.98.34-1.67.34-1.35,0-2.04-.58-2.04-1.88,0-.62.02-1.5.07-2.63h-.81l.07-1.08.84-.21.07-1.18,1.49-.23h.16l-.04,1.37h1.77l-.08,1.32h-1.68v2.57c-.01.44.17.62.55.62.31,0,.69-.11,1.13-.33l.18,1.31Z"/>
        <path class="cls-3" d="m88.03,58.47v2.79h-1.82v-3.2c0-1.05-.22-1.47-.98-1.47-.3,0-.61.07-.91.23v4.43h-1.82v-8.44l1.56-.24h.25v3.36c.57-.47,1.22-.68,1.84-.68.98,0,1.59.51,1.77,1.28.08.39.1.88.1,1.94Z"/>
        <path class="cls-3" d="m94.54,58.58h-3.75c.06,1.13.58,1.61,1.51,1.61.63,0,1.33-.17,1.93-.51l.24,1.27c-.53.3-1.41.47-2.31.47-2.13,0-3.19-1.09-3.19-3.02s1.22-3.22,2.97-3.22,2.6.94,2.6,2.8v.59Zm-1.78-1.02c0-.92-.3-1.28-.84-1.28-.57,0-.96.45-1.09,1.37l1.93-.08Z"/>
        <path class="cls-3" d="m97.9,52.81l1.56-.24h.25v8.69h-1.82v-8.44Z"/>
        <path class="cls-3" d="m105.81,56.81c0,.29-.01.85-.04,1.67l-.06,2.77h-1.76v-.5c-.45.3-.96.51-1.53.59-1.15-.08-1.83-.82-1.83-1.8s.68-1.36,2.23-1.54l1.13-.13v-.81c0-.4-.23-.59-.75-.59s-1.14.22-2,.84l-.3-1.34c.69-.52,1.79-.78,2.87-.78,1.27,0,2.04.51,2.04,1.62Zm-1.85,3.24v-1.2l-.57.06c-.76.08-.98.25-.98.61,0,.4.38.68.82.68.21,0,.45-.05.73-.14Z"/>
        <path class="cls-3" d="m110.96,55.44l-.15,1.66c-.24-.02-.45-.04-.63-.04-.42,0-.57.07-.97.5l-.3.33v3.37h-1.82v-5.73l1.51-.24h.25v1.61l.36-.71c.38-.71.62-.91,1.04-.91.23,0,.46.06.69.17Z"/>
        <path class="cls-3" d="m115.3,60.41c1.31,0,2.02.58,2.02,1.61,0,1.45-1.38,2.27-3.62,2.27-1.79,0-2.82-.48-2.82-1.41,0-.49.36-.86,1.15-1.21-.38-.25-.57-.59-.57-1.04,0-.54.33-1.02.97-1.42-.74-.35-1.1-1.03-1.1-1.81,0-1.3.96-2.17,2.6-2.17.51,0,.96.08,1.35.24.01-.04.01-.08.01-.14.06-.74.46-1.08,1.04-1.08.36,0,.67.06.91.19l-.15,1.28c-.22-.06-.44-.1-.64-.1-.28,0-.42.1-.45.3.44.39.67.92.67,1.47,0,.71-.24,1.26-.73,1.62-.5.38-1.12.56-1.85.56-.23,0-.46-.01-.69-.05-.3.16-.45.38-.45.58s.14.3.45.3h1.9Zm.33,1.89c0-.27-.18-.4-.54-.4h-2.38c-.08.15-.12.29-.12.45,0,.52.46.78,1.37.78s1.67-.29,1.67-.82Zm-2.46-4.87c0,.67.36,1.05.86,1.05.63,0,.92-.39.92-1.07,0-.71-.3-1.08-.87-1.08s-.91.35-.91,1.09Z"/>
        <path class="cls-3" d="m123.05,58.58h-3.75c.06,1.13.58,1.61,1.51,1.61.63,0,1.33-.17,1.93-.51l.24,1.27c-.53.3-1.41.47-2.31.47-2.13,0-3.19-1.09-3.19-3.02s1.22-3.22,2.97-3.22,2.6.94,2.6,2.8v.59Zm-1.78-1.02c0-.92-.3-1.28-.84-1.28-.57,0-.96.45-1.09,1.37l1.93-.08Z"/>
        <path class="cls-3" d="m123.82,61.12l.17-1.49c.52.34,1.26.54,1.81.54s.84-.18.84-.54c0-.25-.21-.4-1.09-.75-1.1-.42-1.66-.86-1.66-1.79,0-1.13.86-1.91,2.51-1.91.7,0,1.28.11,1.76.32l-.19,1.43c-.47-.29-1.14-.47-1.62-.47s-.75.17-.75.5c0,.28.18.39.87.68,1.42.58,1.9,1.05,1.9,1.92,0,1.13-.8,1.89-2.48,1.89-.87,0-1.55-.1-2.05-.3Z"/>
        <path class="cls-3" d="m133.19,61.09c-.42.23-.98.34-1.67.34-1.35,0-2.04-.58-2.04-1.88,0-.62.02-1.5.07-2.63h-.81l.07-1.08.84-.21.07-1.18,1.49-.23h.16l-.04,1.37h1.77l-.08,1.32h-1.68v2.57c-.01.44.17.62.55.62.31,0,.69-.11,1.13-.33l.18,1.31Z"/>
        <path class="cls-3" d="m9.39,78.8l.17-1.49c.52.34,1.26.54,1.81.54s.84-.18.84-.54c0-.25-.21-.4-1.09-.75-1.1-.42-1.66-.86-1.66-1.79,0-1.13.86-1.91,2.51-1.91.7,0,1.28.11,1.76.32l-.19,1.43c-.47-.29-1.14-.47-1.62-.47s-.75.17-.75.5c0,.28.18.39.87.68,1.42.58,1.9,1.05,1.9,1.92,0,1.13-.8,1.89-2.48,1.89-.87,0-1.55-.1-2.05-.3Z"/>
        <path class="cls-3" d="m20.41,76.15v2.79h-1.82v-3.2c0-1.05-.22-1.47-.98-1.47-.3,0-.61.07-.91.23v4.43h-1.82v-8.44l1.56-.24h.25v3.36c.57-.47,1.22-.68,1.84-.68.98,0,1.59.51,1.77,1.28.08.39.1.88.1,1.94Z"/>
        <path class="cls-3" d="m21.53,71.17c0-.62.41-1.08,1.09-1.08s1.09.46,1.09,1.08-.41,1.07-1.09,1.07-1.09-.45-1.09-1.07Zm.18,2.04l1.55-.24h.27v5.97h-1.82v-5.73Z"/>
        <path class="cls-3" d="m30.82,75.67c0,1.99-1.22,3.43-3.15,3.43-.38,0-.69-.04-.94-.1v2.77h-1.82v-8.58l1.55-.24h.27v.65c.39-.42.97-.67,1.65-.67,1.49,0,2.45,1.02,2.45,2.73Zm-1.89.17c0-1.03-.52-1.58-1.33-1.58-.35,0-.64.08-.87.25v3.22c.23.13.48.21.75.21.97,0,1.45-.7,1.45-2.11Z"/>
        <path class="cls-3" d="m31.65,78.8l.17-1.49c.52.34,1.26.54,1.81.54s.84-.18.84-.54c0-.25-.21-.4-1.09-.75-1.1-.42-1.66-.86-1.66-1.79,0-1.13.86-1.91,2.51-1.91.7,0,1.28.11,1.76.32l-.19,1.43c-.47-.29-1.14-.47-1.62-.47s-.75.17-.75.5c0,.28.18.39.87.68,1.42.58,1.9,1.05,1.9,1.92,0,1.13-.8,1.89-2.48,1.89-.87,0-1.55-.1-2.05-.3Z"/>
        <path class="cls-3" d="m42.81,76.12c0-2.02,1.21-3.26,3.19-3.26.68,0,1.25.1,1.71.29l-.19,1.44c-.59-.3-1.07-.46-1.42-.46-.93,0-1.39.68-1.39,1.9s.46,1.83,1.39,1.83c.42,0,1-.16,1.49-.53l.24,1.31c-.4.28-1.15.46-1.88.46-2.13,0-3.14-1.09-3.14-2.98Z"/>
        <path class="cls-3" d="m53.49,74.49c0,.29-.01.85-.04,1.67l-.06,2.77h-1.76v-.5c-.45.3-.96.51-1.53.59-1.15-.08-1.83-.82-1.83-1.8s.68-1.36,2.23-1.54l1.13-.13v-.81c0-.4-.23-.59-.75-.59s-1.14.22-2,.84l-.3-1.34c.69-.52,1.79-.78,2.87-.78,1.27,0,2.04.51,2.04,1.62Zm-1.85,3.24v-1.2l-.57.06c-.76.08-.98.25-.98.61,0,.4.38.68.82.68.21,0,.45-.05.73-.14Z"/>
        <path class="cls-3" d="m60.3,76.15v2.79h-1.82v-3.21c0-1.05-.24-1.45-.98-1.45-.3,0-.61.07-.91.23v4.43h-1.82v-5.73l1.53-.24h.25v.67c.58-.48,1.29-.7,1.88-.7.98,0,1.59.51,1.77,1.28.08.39.1.88.1,1.94Z"/>
        <path class="cls-3" d="m71.5,73.12l-.15,1.66c-.24-.02-.45-.04-.63-.04-.42,0-.57.07-.97.5l-.3.33v3.37h-1.82v-5.73l1.51-.24h.25v1.61l.36-.71c.38-.71.62-.91,1.04-.91.23,0,.46.06.69.17Z"/>
        <path class="cls-3" d="m77.35,76.26h-3.75c.06,1.13.58,1.61,1.51,1.61.63,0,1.33-.17,1.93-.51l.24,1.27c-.53.3-1.41.47-2.31.47-2.13,0-3.19-1.09-3.19-3.02s1.22-3.22,2.97-3.22,2.6.94,2.6,2.8v.59Zm-1.78-1.02c0-.92-.3-1.28-.84-1.28-.57,0-.96.45-1.09,1.37l1.93-.08Z"/>
        <path class="cls-3" d="m83.24,74.49c0,.29-.01.85-.04,1.67l-.06,2.77h-1.76v-.5c-.45.3-.96.51-1.53.59-1.15-.08-1.83-.82-1.83-1.8s.68-1.36,2.23-1.54l1.13-.13v-.81c0-.4-.23-.59-.75-.59s-1.14.22-2,.84l-.3-1.34c.69-.52,1.79-.78,2.87-.78,1.27,0,2.04.51,2.04,1.62Zm-1.85,3.24v-1.2l-.57.06c-.76.08-.98.25-.98.61,0,.4.38.68.82.68.21,0,.45-.05.73-.14Z"/>
        <path class="cls-3" d="m84.16,76.12c0-2.02,1.21-3.26,3.19-3.26.68,0,1.25.1,1.71.29l-.19,1.44c-.59-.3-1.07-.46-1.42-.46-.93,0-1.39.68-1.39,1.9s.46,1.83,1.39,1.83c.42,0,1-.16,1.49-.53l.24,1.31c-.4.28-1.15.46-1.88.46-2.13,0-3.14-1.09-3.14-2.98Z"/>
        <path class="cls-3" d="m95.62,76.15v2.79h-1.82v-3.2c0-1.05-.22-1.47-.98-1.47-.3,0-.61.07-.91.23v4.43h-1.82v-8.44l1.56-.24h.25v3.36c.57-.47,1.22-.68,1.84-.68.98,0,1.59.51,1.77,1.28.08.39.1.88.1,1.94Z"/>
        <path class="cls-3" d="m108.29,72.96v5.97h-1.78v-.59c-.52.47-1.14.7-1.85.7-.93,0-1.49-.5-1.67-1.26-.1-.38-.12-.93-.12-1.95v-2.63l1.56-.24h.25v3.23c0,1.12.22,1.5.98,1.5.28,0,.56-.07.81-.22v-4.28l1.58-.24h.24Z"/>
        <path class="cls-3" d="m115.59,75.67c0,1.99-1.22,3.43-3.15,3.43-.38,0-.69-.04-.94-.1v2.77h-1.82v-8.58l1.55-.24h.27v.65c.39-.42.97-.67,1.65-.67,1.49,0,2.45,1.02,2.45,2.73Zm-1.89.17c0-1.03-.52-1.58-1.33-1.58-.35,0-.64.08-.87.25v3.22c.23.13.48.21.75.21.97,0,1.45-.7,1.45-2.11Z"/>
        <path class="cls-3" d="m126.55,78.76c-.42.23-.98.34-1.67.34-1.35,0-2.04-.58-2.04-1.88,0-.62.02-1.5.07-2.63h-.81l.07-1.08.84-.21.07-1.18,1.49-.23h.16l-.04,1.37h1.77l-.08,1.32h-1.68v2.57c-.01.44.17.62.55.62.31,0,.69-.11,1.13-.33l.18,1.31Z"/>
        <path class="cls-3" d="m127.02,76.05c0-1.94,1.2-3.19,3.1-3.19,2.02,0,2.98,1.17,2.98,3,0,2.1-1.3,3.24-3.09,3.24-1.99,0-2.99-1.11-2.99-3.05Zm4.18-.08c0-1.3-.33-1.91-1.1-1.91s-1.18.68-1.18,1.94c0,1.34.36,1.93,1.08,1.93.8,0,1.2-.65,1.2-1.95Z"/>
        <path class="cls-2" d="m10.83,97.61v-1.01c-1.03-.24-1.56-.94-1.56-2.15v-1.09c0-.53.37-.85.99-.85s1,.32,1,.85v1.1c0,.35.19.54.51.54h.09c.34,0,.52-.19.52-.54v-1.31c0-.66-.15-1-.79-1.44l-.69-.46c-1.12-.76-1.54-1.53-1.54-2.78v-.53c0-1.16.51-1.88,1.49-2.12v-.99c0-.15.12-.26.26-.26s.26.12.26.26v.91c.09-.01.16-.01.25-.01h.65v-.9c0-.15.12-.26.26-.26.13,0,.25.12.25.26v.97c1,.22,1.52.94,1.52,2.13v.75c0,.53-.35.85-.97.85s-.99-.32-.99-.85v-.74c0-.34-.18-.56-.47-.56h-.09c-.28,0-.46.22-.46.56v.6c0,.6.15.91.75,1.34l.9.59c1,.69,1.4,1.47,1.4,2.66v1.29c0,1.21-.54,1.94-1.59,2.15v1.01c0,.15-.12.26-.25.26-.15,0-.26-.12-.26-.26v-.94h-.9v.94c0,.15-.12.26-.26.26s-.26-.12-.26-.26Z"/>
        <path class="cls-2" d="m14.86,91.26v-4.65c0-.53.37-.87,1-.87s.99.34.99.87v4.38c0,.59.25.87.63.87.16,0,.29-.06.4-.18v-5.07c0-.53.37-.87,1-.87s1,.34,1,.87v9.22c0,.51-.35.84-.96.84s-.97-.32-.97-.84v-2.77c-.19.18-.56.43-1.21.43-1.12,0-1.88-.57-1.88-2.24Z"/>
        <path class="cls-2" d="m20.56,94.46v-1.09c0-.53.37-.87,1-.87s1,.34,1,.87v1.09c0,.34.16.56.46.56h.13c.29,0,.46-.22.46-.56v-2.22c0-.38-.18-.59-.52-.59h-1.49c-.59,0-1.04-.44-1.04-1.04v-3.78c0-.59.46-1.03,1.04-1.03h3.03c.51,0,.82.35.82.94,0,.62-.31.96-.82.96h-2.09v2.28h1.04c1.31,0,1.99.69,1.99,2.01v2.47c0,1.46-.78,2.21-2.25,2.21h-.49c-1.5,0-2.28-.75-2.28-2.21Z"/>
        <path class="cls-2" d="m26.15,94.45v-6.5c0-1.46.79-2.21,2.29-2.21h.43c1.52,0,2.29.75,2.29,2.21v6.5c0,1.49-.78,2.22-2.29,2.22h-.43c-1.5,0-2.29-.74-2.29-2.22Zm2.54.56c.31,0,.47-.19.47-.54v-6.5c0-.34-.16-.56-.47-.56h-.09c-.29,0-.46.22-.46.56v6.5c0,.35.16.54.46.54h.09Z"/>
        <path class="cls-2" d="m31.86,97.7s.01-.1.12-.31l.41-.82c-.51-.09-.85-.46-.85-1.01,0-.62.47-1.04,1.06-1.04.68,0,1.13.51,1.13,1.24,0,.66-.34,1.32-.69,1.74-.18.21-.49.46-.84.46-.22,0-.34-.1-.34-.24Z"/>
        <path class="cls-2" d="m34.17,94.45v-6.5c0-1.46.79-2.21,2.29-2.21h.43c1.51,0,2.29.75,2.29,2.21v6.5c0,1.49-.78,2.22-2.29,2.22h-.43c-1.5,0-2.29-.74-2.29-2.22Zm2.54.56c.31,0,.47-.19.47-.54v-6.5c0-.34-.16-.56-.47-.56h-.09c-.29,0-.46.22-.46.56v6.5c0,.35.16.54.46.54h.09Z"/>
        <path class="cls-2" d="m39.77,94.45v-6.5c0-1.46.79-2.21,2.29-2.21h.43c1.51,0,2.29.75,2.29,2.21v6.5c0,1.49-.78,2.22-2.29,2.22h-.43c-1.5,0-2.29-.74-2.29-2.22Zm2.54.56c.31,0,.47-.19.47-.54v-6.5c0-.34-.16-.56-.47-.56h-.09c-.29,0-.46.22-.46.56v6.5c0,.35.16.54.46.54h.09Z"/>
        <path class="cls-2" d="m45.38,94.45v-6.5c0-1.46.79-2.21,2.29-2.21h.43c1.52,0,2.29.75,2.29,2.21v6.5c0,1.49-.78,2.22-2.29,2.22h-.43c-1.5,0-2.29-.74-2.29-2.22Zm2.54.56c.31,0,.47-.19.47-.54v-6.5c0-.34-.16-.56-.47-.56h-.09c-.29,0-.46.22-.46.56v6.5c0,.35.16.54.46.54h.09Z"/>
      </g>
    </g>
  </g>
</svg>