<?xml version="1.0" encoding="UTF-8"?>
<svg id="Layer_2" data-name="Layer 2" xmlns="http://www.w3.org/2000/svg" viewBox="0 0 30.17 22">
  <defs>
    <style>
      .cls-1 {
        fill: #017373;
      }
    </style>
  </defs>
  <g id="Layer_1-2" data-name="Layer 1">
    <path class="cls-1" d="m.12,18.4c.22.4.54.6.97.6h3.55c.22,1.7,1.83,3,3.66,3,1.83,0,3.45-1.3,3.66-3h1.18c.22,1.7,1.83,3,3.66,3,1.83,0,3.45-1.3,3.66-3h1.18c.22,1.7,1.72,3,3.66,3s3.55-1.3,3.77-3h0c.65,0,1.08-.4,1.08-1v-5c0-.6-.43-1-1.08-1v-7c.65,0,1.08-.4,1.08-1,0-.6-.43-1-1.08-1h-1.08s-8.51,0-8.51,0h-1.08c-.65,0-1.08.4-1.08,1,0,.6.43,1,1.08,1v3h-4.31v-3.8s1.94-2.7,1.94-2.7c.22-.3.22-.7,0-1S15.52,0,15.09,0H6.47c-.43,0-.65.3-.86.6s-.22.7,0,1l1.94,2.7v5.3S.23,17.3.23,17.3c-.22.3-.32.8-.11,1.1Zm23.59.1c0-.8.75-1.5,1.62-1.5.86,0,1.62.7,1.62,1.5,0,.8-.75,1.5-1.62,1.5-.86,0-1.62-.7-1.62-1.5Zm-8.62,0c0-.8.75-1.5,1.62-1.5s1.62.7,1.62,1.5-.75,1.5-1.62,1.5-1.62-.7-1.62-1.5Zm-8.62,0c0-.8.75-1.5,1.62-1.5s1.62.7,1.62,1.5-.75,1.5-1.62,1.5-1.62-.7-1.62-1.5Z"/>
  </g>
</svg>