<?xml version="1.0" encoding="UTF-8"?>
<svg id="Layer_2" data-name="Layer 2" xmlns="http://www.w3.org/2000/svg" viewBox="0 0 64.08 44.52">
  <defs>
    <style>
      .cls-1 {
        fill: #302a2a;
      }
    </style>
  </defs>
  <g id="Layer_1-2" data-name="Layer 1">
    <g>
      <path class="cls-1" d="m59.09,0H4.99C2.24,0,0,2.24,0,4.99v29.68c0,2.75,2.24,4.99,4.99,4.99h24.24v3.25h-4.06c-.27,0-.5.22-.5.5v.63c0,.27.22.5.5.5h13.33c.27,0,.5-.22.5-.5v-.63c0-.27-.22-.5-.5-.5h-4.06v-3.25h24.65c2.75,0,4.99-2.24,4.99-4.99V4.99c0-2.75-2.24-4.99-4.99-4.99Zm3.61,34.67c0,1.99-1.62,3.61-3.61,3.61H4.99c-1.99,0-3.61-1.62-3.61-3.61V4.99c0-1.99,1.62-3.61,3.61-3.61h54.11c1.99,0,3.61,1.62,3.61,3.61v29.68Z"/>
      <rect class="cls-1" x="3.35" y="2.32" width="57.38" height="35.02" rx="4.3" ry="4.3"/>
    </g>
  </g>
</svg>