<?xml version="1.0" encoding="UTF-8"?>
<svg id="Layer_2" data-name="Layer 2" xmlns="http://www.w3.org/2000/svg" viewBox="0 0 193.5 62.8">
  <defs>
    <style>
      .cls-1 {
        fill: #fff;
        stroke: #000;
        stroke-miterlimit: 10;
        stroke-width: .5px;
      }

      .cls-2 {
        fill: #017373;
      }
    </style>
  </defs>
  <g id="Layer_1-2" data-name="Layer 1">
    <g>
      <g>
        <rect class="cls-2" y="0" width="95.88" height="62.8" rx="8.05" ry="8.05"/>
        <g>
          <path class="cls-1" d="m7.41,31.65V8.85c0-2.6,1.8-4.26,4.91-4.26s4.83,1.66,4.83,4.26v21.51c0,2.89,1.23,4.26,3.1,4.26.79,0,1.44-.29,1.95-.87V8.85c0-2.6,1.8-4.26,4.91-4.26s4.91,1.66,4.91,4.26v45.25c0,2.53-1.73,4.11-4.69,4.11s-4.76-1.59-4.76-4.11v-13.57c-.94.87-2.74,2.09-5.92,2.09-5.49,0-9.24-2.82-9.24-10.97Z"/>
          <path class="cls-1" d="m35.78,47.32V15.41c0-7.15,3.9-10.83,11.26-10.83h2.09c7.43,0,11.26,3.68,11.26,10.83v31.9c0,7.29-3.83,10.9-11.26,10.9h-2.09c-7.36,0-11.26-3.61-11.26-10.9Zm12.49,2.74c1.52,0,2.31-.94,2.31-2.67V15.49c0-1.66-.79-2.74-2.31-2.74h-.43c-1.44,0-2.24,1.08-2.24,2.74v31.9c0,1.73.79,2.67,2.24,2.67h.43Z"/>
          <path class="cls-1" d="m63.85,47.32V15.41c0-7.15,3.9-10.83,11.26-10.83h2.09c7.43,0,11.26,3.68,11.26,10.83v31.9c0,7.29-3.83,10.9-11.26,10.9h-2.09c-7.36,0-11.26-3.61-11.26-10.9Zm12.49,2.74c1.52,0,2.31-.94,2.31-2.67V15.49c0-1.66-.79-2.74-2.31-2.74h-.43c-1.44,0-2.24,1.08-2.24,2.74v31.9c0,1.73.79,2.67,2.24,2.67h.43Z"/>
        </g>
      </g>
      <g>
        <path d="m110.64,51.77V12h-1.88c-2.45,0-4.19-1.66-4.19-4.62s1.73-4.62,4.19-4.62h13.79c2.53,0,4.19,1.66,4.19,4.62s-1.66,4.62-4.19,4.62h-1.88v39.77c0,2.67-1.88,4.33-5.05,4.33s-4.98-1.66-4.98-4.33Z"/>
        <path d="m138.28,54.01c-6.57-8.37-8.52-14.51-8.52-30.46V6.81c0-2.67,1.8-4.33,4.91-4.33s4.98,1.66,4.98,4.33v20.57c0,8.23.51,13.64,1.95,17.1l.43,1.01h.29l.43-1.01c1.44-3.46,1.88-8.88,1.88-17.1V6.81c0-2.67,1.88-4.33,4.98-4.33s4.98,1.66,4.98,4.33v16.74c0,16.02-2.02,22.08-8.59,30.53-1.01,1.23-2.24,2.02-3.83,2.02s-2.81-.79-3.9-2.09Z"/>
        <path d="m159.93,17.13l2.38-4.55c-2.53-.43-4.26-2.24-4.26-4.98,0-3.03,2.38-5.12,5.27-5.12,3.32,0,5.56,2.53,5.56,6.06,0,3.25-1.66,6.28-3.39,8.3-.87,1.08-2.38,2.31-4.11,2.31-1.52,0-1.95-.94-1.44-2.02Z"/>
        <path d="m168.52,45.21v-3.03c0-2.67,1.8-4.26,4.84-4.26s4.91,1.59,4.91,4.26v3.1c0,1.73.94,2.67,2.53,2.67h.43c1.66,0,2.53-.94,2.53-2.67v-1.52c0-3.18-.94-4.76-3.83-6.42l-3.75-2.09c-5.12-2.89-7.29-6.42-7.29-12.12v-.58c0-7.07,3.83-10.83,11.11-10.83h2.09c7.29,0,11.04,3.61,11.04,10.61v1.37c0,2.67-1.73,4.33-4.76,4.33s-4.83-1.59-4.83-4.04v-1.37c0-1.66-.87-2.74-2.24-2.74h-.43c-1.44,0-2.31,1.08-2.31,2.74v.94c0,2.38.79,3.61,3.61,5.2l4.84,2.81c4.55,2.6,6.5,6.21,6.5,12.05v1.59c0,7.22-3.9,10.9-11.4,10.9h-2.09c-7.58,0-11.48-3.68-11.48-10.9Z"/>
      </g>
    </g>
  </g>
</svg>