<?xml version="1.0" encoding="UTF-8"?>
<svg id="Layer_2" data-name="Layer 2" xmlns="http://www.w3.org/2000/svg" viewBox="0 0 50.22 56.66">
  <g id="Layer_1-2" data-name="Layer 1">
    <g>
      <path d="m31.85,56.66c-.3,0-.51-.01-.59-.02h-15.59l-.11-.04c-3.79-1.33-6.97-3.67-9.44-6.96-1.97-2.61-3.5-5.81-4.54-9.51C-.21,33.86,0,28.37.01,28.14c.2-6.4,1.3-11.87,3.25-16.23,1.58-3.53,3.73-6.36,6.38-8.41C14.2-.02,18.61,0,18.8,0h14.46s.06.01.06.01c3.92.68,7.26,2.61,9.91,5.73,2.1,2.47,3.77,5.68,4.97,9.55,2.03,6.54,2.02,12.62,2.02,12.87v.04c-.44,6.53-1.61,12.06-3.48,16.45-1.54,3.61-3.55,6.47-6,8.52-3.75,3.13-7.44,3.48-8.89,3.48Zm-15.94-1.45h15.46s4.26.41,8.5-3.16c5.08-4.27,8.16-12.54,8.92-23.92,0-.39-.05-6.31-1.96-12.45-2.59-8.31-7.2-13.11-13.7-14.26h-14.35c-.14,0-4.22.04-8.34,3.25C4.9,9.01,1.79,17.14,1.44,28.19c0,.06-.21,5.53,1.51,11.59,2.26,7.97,6.63,13.17,12.97,15.44Z"/>
      <path d="m31.56,48.51c-2.72,0-5.56-1.31-7.81-3.6-2.61-2.66-5.69-7.96-5.49-18.05.09-4.84,1.46-9.4,3.86-12.83,2.49-3.57,5.84-5.54,9.44-5.54,2.55,0,5.47,1.46,7.83,3.9,3.69,3.83,5.6,9.56,5.36,16.13h0c-.35,9.62-4.62,19.98-13.19,19.98Zm0-38.59c-3.12,0-6.05,1.75-8.27,4.93-2.23,3.2-3.51,7.48-3.6,12.04-.19,9.59,2.66,14.55,5.08,17.02,2.81,2.86,5.69,3.17,6.79,3.17,4.28,0,6.97-3.1,8.46-5.69,1.95-3.39,3.13-7.98,3.31-12.92.3-8.34-2.98-13.04-4.96-15.09-2.06-2.14-4.67-3.47-6.81-3.47Z"/>
      <path d="m31.37,32.07c-1.18,0-2.18-1.67-2.18-3.65s1-3.65,2.18-3.65,2.17,1.67,2.17,3.65-.99,3.65-2.17,3.65Zm0-5.87c-.21.02-.84.85-.84,2.22s.64,2.2.85,2.22c.2-.03.83-.85.83-2.22s-.63-2.2-.84-2.22Z"/>
      <path d="m38.76,39.9c-.5,0-.94-.3-1.12-.77l-2.44-6.29c-.14-.35-.1-.75.11-1.06.2-.32.55-.52.92-.54l4.46-.24c.42,0,.83.21,1.07.55s.32.79.18,1.19l-2.04,6.31c-.16.49-.6.82-1.11.84-.01,0-.02,0-.04,0Zm-2.11-7.25l2.09,5.39,1.81-5.6-3.9.21Zm-.13-.32h0,0Zm4.07-.02s0,0,0,0h0Z"/>
      <path d="m40.83,25.77s-.04,0-.06,0l-4.46-.22c-.42-.04-.8-.29-1.01-.66-.21-.37-.23-.82-.06-1.2l2.67-6.07c.21-.47.68-.75,1.19-.72.52.04.94.38,1.07.88l1.79,6.5c.1.36.02.75-.22,1.05-.22.28-.56.44-.92.44Zm-.24-1.11s0,0,0,0h0Zm-3.99-.53l3.9.19-1.53-5.57-2.37,5.38Zm-.06.13h0s0,0,0,0Z"/>
      <path d="m31.33,21.03s-.03,0-.04,0c-.52-.02-.95-.34-1.11-.84l-2.06-6.42c-.11-.36-.05-.75.17-1.05.22-.3.57-.48.95-.48h0l4.47.03c.42.03.81.25,1.04.61.23.36.27.81.11,1.2l-2.41,6.18c-.18.47-.62.77-1.12.77Zm-1.75-7.36l1.77,5.5,2.14-5.48-3.9-.03Zm3.96-.11s0,0,0,0h0Z"/>
      <path d="m22.32,25.79c-.42,0-.82-.2-1.06-.54-.25-.34-.33-.78-.2-1.19l1.97-6.34c.15-.49.59-.83,1.1-.85.52-.02.98.28,1.17.76l2.51,6.26c.14.35.1.75-.1,1.06-.2.32-.54.52-.92.55l-4.46.29h-.01Zm.1-1.3h0s0,0,0,0Zm4.07-.06h0s0,0,0,0Zm-2.28-5.69l-1.74,5.62,3.9-.25-2.15-5.37Z"/>
      <path d="m24.34,40.11s-.02,0-.02,0c-.52,0-.96-.33-1.12-.82l-2.14-6.4c-.12-.36-.06-.75.16-1.06s.57-.49.95-.49l4.45-.03h.02c.42.02.81.24,1.05.6.23.35.28.8.13,1.2l-2.33,6.21c-.18.48-.62.78-1.13.78Zm-1.83-7.34l1.84,5.48,2.07-5.5-3.9.02Zm3.95-.16s0,0,0,0h0Zm-4.06-.17h0s0,0,0,0h0Z"/>
      <path d="m33.78,45.02h-4.47c-.42-.03-.81-.26-1.04-.62-.23-.36-.27-.8-.12-1.2l2.38-6.19c.19-.48.64-.79,1.16-.77.52.01.95.34,1.11.83l2.09,6.41c.12.36.05.75-.17,1.05-.22.3-.57.48-.95.48Zm-.24-1.1s0,0,0,0h0Zm-4.06-.21h0s0,0,0,0Zm.05-.13h3.9s-1.79-5.49-1.79-5.49l-2.11,5.49Z"/>
    </g>
  </g>
</svg>