<?xml version="1.0" encoding="UTF-8"?>
<svg id="Layer_2" data-name="Layer 2" xmlns="http://www.w3.org/2000/svg" viewBox="0 0 237.54 62.8">
  <defs>
    <style>
      .cls-1 {
        fill: #fff;
        stroke: #000;
        stroke-miterlimit: 10;
        stroke-width: .5px;
      }

      .cls-2 {
        fill: #017373;
      }
    </style>
  </defs>
  <g id="Layer_1-2" data-name="Layer 1">
    <g>
      <rect class="cls-2" width="88.63" height="62.8" rx="8.05" ry="8.05"/>
      <g>
        <path d="m102.1,58.38c-5.61-7.21-7.33-12.38-7.33-26.06v-6.65c0-2.28,1.6-3.7,4.25-3.7s4.25,1.42,4.25,3.7v9.67c0,7.02.43,11.65,1.66,14.6l.37.86h.25l.37-.86c1.23-2.96,1.6-7.58,1.6-14.6v-9.67c0-2.28,1.6-3.7,4.25-3.7s4.25,1.42,4.25,3.7v9.67c0,7.02.43,11.65,1.6,14.6l.43.86h.25l.37-.86c1.23-2.96,1.6-7.58,1.6-14.6v-9.67c0-2.28,1.6-3.7,4.25-3.7s4.25,1.42,4.25,3.7v6.65c0,13.68-1.42,18.92-7.02,26.06-.86,1.05-1.97,1.48-3.27,1.48s-2.46-.43-3.33-1.48c-1.42-1.85-2.59-3.57-3.51-5.3-.74,1.79-1.6,3.57-2.96,5.3-.86,1.05-1.91,1.48-3.27,1.48s-2.46-.43-3.33-1.48Z"/>
        <path d="m131.93,56.23V17.72c0-2.22,1.54-3.63,4.25-3.63s4.19,1.42,4.19,3.63v6.78c1.05-.99,3.45-2.53,6.66-2.53,4,0,6.1,1.97,6.1,7.76v26.49c0,2.28-1.48,3.63-4.19,3.63s-4.25-1.36-4.25-3.63v-24.4c0-1.85-.74-2.77-2.03-2.77-.92,0-1.79.55-2.28,1.29v25.88c0,2.22-1.54,3.63-4.19,3.63s-4.25-1.42-4.25-3.63Z"/>
        <path d="m156.26,50.56v-19.35c0-6.1,3.33-9.24,9.61-9.24h1.85c6.35,0,9.67,3.14,9.67,9.24v2.71c0,3.39-1.85,5.24-5.24,5.24h-7.52v11.71c0,1.42.68,2.22,1.91,2.22h.43c1.36,0,2.03-.8,2.03-2.22v-4.87c0-2.22,1.54-3.57,4.19-3.57s4.19,1.36,4.19,3.57v4.56c0,6.22-3.33,9.3-9.67,9.3h-1.85c-6.29,0-9.61-3.08-9.61-9.3Zm8.38-16.33h4.38v-3.14c0-1.42-.68-2.34-2.03-2.34h-.43c-1.23,0-1.91.92-1.91,2.34v3.14Z"/>
        <path d="m180.23,50.56v-19.35c0-6.1,3.33-9.24,9.61-9.24h1.85c6.35,0,9.67,3.14,9.67,9.24v2.71c0,3.39-1.85,5.24-5.24,5.24h-7.52v11.71c0,1.42.68,2.22,1.91,2.22h.43c1.36,0,2.03-.8,2.03-2.22v-4.87c0-2.22,1.54-3.57,4.19-3.57s4.19,1.36,4.19,3.57v4.56c0,6.22-3.33,9.3-9.67,9.3h-1.85c-6.29,0-9.61-3.08-9.61-9.3Zm8.38-16.33h4.38v-3.14c0-1.42-.68-2.34-2.03-2.34h-.43c-1.23,0-1.91.92-1.91,2.34v3.14Z"/>
        <path d="m204.51,56.16V17.78c0-2.28,1.6-3.7,4.31-3.7s4.31,1.42,4.31,3.7v38.39c0,2.28-1.6,3.7-4.31,3.7s-4.31-1.42-4.31-3.7Z"/>
        <path d="m216.22,50.56v-2.59c0-2.28,1.54-3.63,4.13-3.63s4.19,1.36,4.19,3.63v2.65c0,1.48.8,2.28,2.16,2.28h.37c1.42,0,2.16-.8,2.16-2.28v-1.29c0-2.71-.8-4.07-3.27-5.48l-3.2-1.79c-4.38-2.46-6.22-5.48-6.22-10.35v-.49c0-6.04,3.27-9.24,9.49-9.24h1.79c6.22,0,9.43,3.08,9.43,9.06v1.17c0,2.28-1.48,3.7-4.07,3.7s-4.13-1.36-4.13-3.45v-1.17c0-1.42-.74-2.34-1.91-2.34h-.37c-1.23,0-1.97.92-1.97,2.34v.8c0,2.03.68,3.08,3.08,4.44l4.13,2.4c3.88,2.22,5.54,5.3,5.54,10.29v1.36c0,6.16-3.33,9.3-9.73,9.3h-1.79c-6.47,0-9.8-3.14-9.8-9.3Z"/>
      </g>
      <g>
        <path class="cls-1" d="m13.35,53.88V17.07h-2.02c-1.66,0-2.74-1.23-2.74-3.39s1.08-3.32,2.74-3.32h.58c1.66,0,2.67-.94,2.67-2.09v-.43c0-2.02,1.95-3.25,4.48-3.25,2.81,0,4.33,1.8,4.33,4.11v45.18c0,2.67-1.88,4.33-4.98,4.33s-5.05-1.66-5.05-4.33Z"/>
        <path class="cls-1" d="m27.14,47.32V15.41c0-7.14,3.83-10.83,11.11-10.83h1.95c7.15,0,10.97,3.68,10.97,10.83v3.68c0,2.53-1.8,4.19-4.76,4.19s-4.76-1.66-4.76-4.19v-3.61c0-1.66-.79-2.74-2.17-2.74h-.36c-1.44,0-2.17,1.08-2.17,2.74v13.64c1.23-1.16,3.97-2.89,7.65-2.89,4.69,0,7.15,2.31,7.15,9.02v12.05c0,7.29-3.9,10.9-11.26,10.9h-2.09c-7.36,0-11.26-3.61-11.26-10.9Zm12.49,2.81c1.52,0,2.31-1.01,2.31-2.67v-9.96c0-2.17-.87-3.25-2.38-3.25-.94,0-1.95.51-2.6,1.37v11.84c0,1.66.79,2.67,2.24,2.67h.43Z"/>
        <path class="cls-1" d="m55.07,47.32v-8.66c0-4.4,1.59-7.22,5.27-9.74-3.61-2.6-4.91-5.34-4.91-9.45v-4.04c0-7.14,3.83-10.83,11.12-10.83h2.09c7.29,0,11.04,3.68,11.04,10.83v3.68c0,4.19-1.3,7-4.91,9.53,3.75,2.6,5.27,5.41,5.27,9.82v8.88c0,7.29-3.9,10.9-11.4,10.9h-2.09c-7.51,0-11.48-3.61-11.48-10.9Zm12.7,2.81c1.66,0,2.53-1.01,2.53-2.67v-9.17c0-2.17-.58-3.39-2.17-4.47l-.72-.43-.43.29c-1.59,1.16-2.17,2.45-2.17,4.69v9.09c0,1.66.87,2.67,2.53,2.67h.43Zm0-25.98l.43-.36c1.37-1.01,1.88-2.09,1.88-3.83v-4.55c0-1.66-.87-2.74-2.31-2.74h-.43c-1.44,0-2.24,1.08-2.24,2.74v4.62c0,1.59.5,2.67,1.95,3.61l.72.51Z"/>
      </g>
    </g>
  </g>
</svg>